<?xml version="1.0" encoding="utf-8" standalone="no"?>
<!DOCTYPE svg PUBLIC "-//W3C//DTD SVG 1.1//EN"
  "http://www.w3.org/Graphics/SVG/1.1/DTD/svg11.dtd">
<svg xmlns:xlink="http://www.w3.org/1999/xlink" width="241.2pt" height="126pt" viewBox="0 0 241.2 126" xmlns="http://www.w3.org/2000/svg" version="1.1">
 <metadata>
  <rdf:RDF xmlns:dc="http://purl.org/dc/elements/1.1/" xmlns:cc="http://creativecommons.org/ns#" xmlns:rdf="http://www.w3.org/1999/02/22-rdf-syntax-ns#">
   <cc:Work>
    <dc:type rdf:resource="http://purl.org/dc/dcmitype/StillImage"/>
    <dc:date>2024-08-18T13:02:56.584783</dc:date>
    <dc:format>image/svg+xml</dc:format>
    <dc:creator>
     <cc:Agent>
      <dc:title>Matplotlib v3.8.4, https://matplotlib.org/</dc:title>
     </cc:Agent>
    </dc:creator>
   </cc:Work>
  </rdf:RDF>
 </metadata>
 <defs>
  <style type="text/css">*{stroke-linejoin: round; stroke-linecap: butt}</style>
 </defs>
 <g id="figure_1">
  <g id="patch_1">
   <path d="M 0 126 
L 241.2 126 
L 241.2 0 
L 0 0 
z
" style="fill: #ffffff"/>
  </g>
  <g id="axes_1">
   <g id="patch_2">
    <path d="M 30.479063 107.144083 
L 237.547229 107.144083 
L 237.547229 3.00024 
L 30.479063 3.00024 
z
" style="fill: #ffffff"/>
   </g>
   <g id="matplotlib.axis_1">
    <g id="xtick_1">
     <g id="line2d_1">
      <path d="M 39.891252 107.144083 
L 39.891252 3.00024 
" clip-path="url(#pde809be7ea)" style="fill: none; stroke: #b0b0b0; stroke-width: 0.8; stroke-linecap: square"/>
     </g>
     <g id="line2d_2">
      <defs>
       <path id="mfa7315d100" d="M 0 0 
L 0 3.5 
" style="stroke: #000000; stroke-width: 0.8"/>
      </defs>
      <g>
       <use xlink:href="#mfa7315d100" x="39.891252" y="107.144083" style="stroke: #000000; stroke-width: 0.8"/>
      </g>
     </g>
     <g id="text_1">
      <!-- $\mathdefault{0}$ -->
      <g transform="translate(37.400584 121.062582) scale(0.1 -0.1)">
       <defs>
        <path id="CMR17-30" d="M 2688 2025 
C 2688 2416 2682 3080 2413 3591 
C 2176 4039 1798 4198 1466 4198 
C 1158 4198 768 4058 525 3597 
C 269 3118 243 2524 243 2025 
C 243 1661 250 1106 448 619 
C 723 -39 1216 -128 1466 -128 
C 1760 -128 2208 -7 2470 600 
C 2662 1042 2688 1559 2688 2025 
z
M 1466 -26 
C 1056 -26 813 325 723 812 
C 653 1188 653 1738 653 2096 
C 653 2588 653 2997 736 3387 
C 858 3929 1216 4096 1466 4096 
C 1728 4096 2067 3923 2189 3400 
C 2272 3036 2278 2607 2278 2096 
C 2278 1680 2278 1169 2202 792 
C 2067 95 1690 -26 1466 -26 
z
" transform="scale(0.015625)"/>
       </defs>
       <use xlink:href="#CMR17-30" transform="scale(0.996264)"/>
      </g>
     </g>
    </g>
    <g id="xtick_2">
     <g id="line2d_3">
      <path d="M 102.660104 107.144083 
L 102.660104 3.00024 
" clip-path="url(#pde809be7ea)" style="fill: none; stroke: #b0b0b0; stroke-width: 0.8; stroke-linecap: square"/>
     </g>
     <g id="line2d_4">
      <g>
       <use xlink:href="#mfa7315d100" x="102.660104" y="107.144083" style="stroke: #000000; stroke-width: 0.8"/>
      </g>
     </g>
     <g id="text_2">
      <!-- $\mathdefault{1000}$ -->
      <g transform="translate(92.697434 121.062582) scale(0.1 -0.1)">
       <defs>
        <path id="CMR17-31" d="M 1702 4058 
C 1702 4192 1696 4192 1606 4192 
C 1357 3916 979 3827 621 3827 
C 602 3827 570 3827 563 3808 
C 557 3795 557 3782 557 3648 
C 755 3648 1088 3686 1344 3839 
L 1344 461 
C 1344 236 1331 160 781 160 
L 589 160 
L 589 0 
C 896 0 1216 0 1523 0 
C 1830 0 2150 0 2458 0 
L 2458 160 
L 2266 160 
C 1715 160 1702 230 1702 458 
L 1702 4058 
z
" transform="scale(0.015625)"/>
       </defs>
       <use xlink:href="#CMR17-31" transform="scale(0.996264)"/>
       <use xlink:href="#CMR17-30" transform="translate(45.690477 0) scale(0.996264)"/>
       <use xlink:href="#CMR17-30" transform="translate(91.380954 0) scale(0.996264)"/>
       <use xlink:href="#CMR17-30" transform="translate(137.071431 0) scale(0.996264)"/>
      </g>
     </g>
    </g>
    <g id="xtick_3">
     <g id="line2d_5">
      <path d="M 165.428956 107.144083 
L 165.428956 3.00024 
" clip-path="url(#pde809be7ea)" style="fill: none; stroke: #b0b0b0; stroke-width: 0.8; stroke-linecap: square"/>
     </g>
     <g id="line2d_6">
      <g>
       <use xlink:href="#mfa7315d100" x="165.428956" y="107.144083" style="stroke: #000000; stroke-width: 0.8"/>
      </g>
     </g>
     <g id="text_3">
      <!-- $\mathdefault{2000}$ -->
      <g transform="translate(155.466286 121.062582) scale(0.1 -0.1)">
       <defs>
        <path id="CMR17-32" d="M 2669 989 
L 2554 989 
C 2490 536 2438 459 2413 420 
C 2381 369 1920 369 1830 369 
L 602 369 
C 832 619 1280 1072 1824 1597 
C 2214 1967 2669 2402 2669 3035 
C 2669 3790 2067 4224 1395 4224 
C 691 4224 262 3604 262 3030 
C 262 2780 448 2748 525 2748 
C 589 2748 781 2787 781 3010 
C 781 3207 614 3264 525 3264 
C 486 3264 448 3258 422 3245 
C 544 3790 915 4058 1306 4058 
C 1862 4058 2227 3617 2227 3035 
C 2227 2479 1901 2000 1536 1584 
L 262 146 
L 262 0 
L 2515 0 
L 2669 989 
z
" transform="scale(0.015625)"/>
       </defs>
       <use xlink:href="#CMR17-32" transform="scale(0.996264)"/>
       <use xlink:href="#CMR17-30" transform="translate(45.690477 0) scale(0.996264)"/>
       <use xlink:href="#CMR17-30" transform="translate(91.380954 0) scale(0.996264)"/>
       <use xlink:href="#CMR17-30" transform="translate(137.071431 0) scale(0.996264)"/>
      </g>
     </g>
    </g>
    <g id="xtick_4">
     <g id="line2d_7">
      <path d="M 228.197808 107.144083 
L 228.197808 3.00024 
" clip-path="url(#pde809be7ea)" style="fill: none; stroke: #b0b0b0; stroke-width: 0.8; stroke-linecap: square"/>
     </g>
     <g id="line2d_8">
      <g>
       <use xlink:href="#mfa7315d100" x="228.197808" y="107.144083" style="stroke: #000000; stroke-width: 0.8"/>
      </g>
     </g>
     <g id="text_4">
      <!-- $\mathdefault{3000}$ -->
      <g transform="translate(218.235138 121.062582) scale(0.1 -0.1)">
       <defs>
        <path id="CMR17-33" d="M 1414 2157 
C 1984 2157 2234 1662 2234 1090 
C 2234 320 1824 25 1453 25 
C 1114 25 563 194 390 693 
C 422 680 454 680 486 680 
C 640 680 755 782 755 948 
C 755 1133 614 1216 486 1216 
C 378 1216 211 1165 211 926 
C 211 335 787 -128 1466 -128 
C 2176 -128 2720 430 2720 1085 
C 2720 1707 2208 2157 1600 2227 
C 2086 2328 2554 2756 2554 3329 
C 2554 3820 2048 4179 1472 4179 
C 890 4179 378 3829 378 3329 
C 378 3110 544 3072 627 3072 
C 762 3072 877 3155 877 3321 
C 877 3486 762 3569 627 3569 
C 602 3569 570 3569 544 3557 
C 730 3959 1235 4032 1459 4032 
C 1683 4032 2106 3925 2106 3320 
C 2106 3143 2080 2828 1862 2550 
C 1670 2304 1453 2304 1242 2284 
C 1210 2284 1062 2269 1037 2269 
C 992 2263 966 2257 966 2208 
C 966 2163 973 2157 1101 2157 
L 1414 2157 
z
" transform="scale(0.015625)"/>
       </defs>
       <use xlink:href="#CMR17-33" transform="scale(0.996264)"/>
       <use xlink:href="#CMR17-30" transform="translate(45.690477 0) scale(0.996264)"/>
       <use xlink:href="#CMR17-30" transform="translate(91.380954 0) scale(0.996264)"/>
       <use xlink:href="#CMR17-30" transform="translate(137.071431 0) scale(0.996264)"/>
      </g>
     </g>
    </g>
   </g>
   <g id="matplotlib.axis_2">
    <g id="ytick_1">
     <g id="line2d_9">
      <path d="M 30.479063 92.85801 
L 237.547229 92.85801 
" clip-path="url(#pde809be7ea)" style="fill: none; stroke: #b0b0b0; stroke-width: 0.8; stroke-linecap: square"/>
     </g>
     <g id="line2d_10">
      <defs>
       <path id="mba531f5342" d="M 0 0 
L -3.5 0 
" style="stroke: #000000; stroke-width: 0.8"/>
      </defs>
      <g>
       <use xlink:href="#mba531f5342" x="30.479063" y="92.85801" style="stroke: #000000; stroke-width: 0.8"/>
      </g>
     </g>
     <g id="text_5">
      <!-- $\mathdefault{−0.1}$ -->
      <g transform="translate(3.00024 96.317259) scale(0.1 -0.1)">
       <defs>
        <path id="CMSY10-0" d="M 4218 1472 
C 4326 1472 4442 1472 4442 1600 
C 4442 1728 4326 1728 4218 1728 
L 755 1728 
C 646 1728 531 1728 531 1600 
C 531 1472 646 1472 755 1472 
L 4218 1472 
z
" transform="scale(0.015625)"/>
        <path id="CMMI12-3a" d="M 1178 307 
C 1178 492 1024 619 870 619 
C 685 619 557 466 557 313 
C 557 128 710 0 864 0 
C 1050 0 1178 153 1178 307 
z
" transform="scale(0.015625)"/>
       </defs>
       <use xlink:href="#CMSY10-0" transform="scale(0.996264)"/>
       <use xlink:href="#CMR17-30" transform="translate(77.487468 0) scale(0.996264)"/>
       <use xlink:href="#CMMI12-3a" transform="translate(123.177945 0) scale(0.996264)"/>
       <use xlink:href="#CMR17-31" transform="translate(150.275122 0) scale(0.996264)"/>
      </g>
     </g>
    </g>
    <g id="ytick_2">
     <g id="line2d_11">
      <path d="M 30.479063 55.072162 
L 237.547229 55.072162 
" clip-path="url(#pde809be7ea)" style="fill: none; stroke: #b0b0b0; stroke-width: 0.8; stroke-linecap: square"/>
     </g>
     <g id="line2d_12">
      <g>
       <use xlink:href="#mba531f5342" x="30.479063" y="55.072162" style="stroke: #000000; stroke-width: 0.8"/>
      </g>
     </g>
     <g id="text_6">
      <!-- $\mathdefault{0.0}$ -->
      <g transform="translate(10.748984 58.531411) scale(0.1 -0.1)">
       <use xlink:href="#CMR17-30" transform="scale(0.996264)"/>
       <use xlink:href="#CMMI12-3a" transform="translate(45.690477 0) scale(0.996264)"/>
       <use xlink:href="#CMR17-30" transform="translate(72.787654 0) scale(0.996264)"/>
      </g>
     </g>
    </g>
    <g id="ytick_3">
     <g id="line2d_13">
      <path d="M 30.479063 17.286313 
L 237.547229 17.286313 
" clip-path="url(#pde809be7ea)" style="fill: none; stroke: #b0b0b0; stroke-width: 0.8; stroke-linecap: square"/>
     </g>
     <g id="line2d_14">
      <g>
       <use xlink:href="#mba531f5342" x="30.479063" y="17.286313" style="stroke: #000000; stroke-width: 0.8"/>
      </g>
     </g>
     <g id="text_7">
      <!-- $\mathdefault{0.1}$ -->
      <g transform="translate(10.748984 20.745563) scale(0.1 -0.1)">
       <use xlink:href="#CMR17-30" transform="scale(0.996264)"/>
       <use xlink:href="#CMMI12-3a" transform="translate(45.690477 0) scale(0.996264)"/>
       <use xlink:href="#CMR17-31" transform="translate(72.787654 0) scale(0.996264)"/>
      </g>
     </g>
    </g>
   </g>
   <g id="line2d_15">
    <path d="M 39.891252 44.862425 
L 40.770016 20.985548 
L 41.272167 12.079424 
L 41.64878 8.504882 
L 41.899855 7.734051 
L 42.025393 7.851187 
L 42.2137 8.648469 
L 42.464775 10.836269 
L 42.841388 16.421018 
L 43.343539 27.551595 
L 44.159534 51.491801 
L 45.414911 87.75692 
L 45.979831 98.068678 
L 46.356444 101.639441 
L 46.607519 102.410272 
L 46.733057 102.296915 
L 46.921364 101.499633 
L 47.172439 99.308054 
L 47.549052 93.727084 
L 48.051203 82.591595 
L 48.867198 58.657434 
L 50.122575 22.392693 
L 50.687495 12.079424 
L 51.064108 8.504882 
L 51.315183 7.73783 
L 51.440721 7.854966 
L 51.629027 8.64469 
L 51.880103 10.836269 
L 52.256716 16.417239 
L 52.758867 27.554996 
L 53.574862 51.48738 
L 54.830239 87.752008 
L 55.395159 98.0649 
L 55.771772 101.64322 
L 56.022847 102.406494 
L 56.148385 102.293136 
L 56.336691 101.503412 
L 56.587767 99.308054 
L 56.96438 93.730863 
L 57.466531 82.595751 
L 58.282526 58.659248 
L 59.537903 22.395338 
L 60.102822 12.083202 
L 60.479436 8.504882 
L 60.730511 7.741608 
L 60.856049 7.851187 
L 61.044355 8.64469 
L 61.295431 10.840048 
L 61.672044 16.417239 
L 62.174195 27.550083 
L 62.99019 51.490706 
L 64.245567 87.755787 
L 64.810486 98.068678 
L 65.187099 101.639441 
L 65.438175 102.410272 
L 65.563713 102.296915 
L 65.752019 101.499633 
L 66.003095 99.311833 
L 66.379708 93.727084 
L 66.881858 82.593106 
L 67.697854 58.656112 
L 68.953231 22.391182 
L 69.51815 12.079424 
L 69.894763 8.504882 
L 70.145839 7.73783 
L 70.271376 7.851187 
L 70.459683 8.648469 
L 70.710758 10.836269 
L 71.087372 16.417239 
L 71.589522 27.556885 
L 72.405517 51.487532 
L 73.660895 87.750497 
L 74.225814 98.0649 
L 74.602427 101.646998 
L 74.853503 102.406494 
L 74.97904 102.289358 
L 75.167347 101.503412 
L 75.418422 99.308054 
L 75.795035 93.730863 
L 76.297186 82.589706 
L 77.113181 58.663253 
L 78.368558 22.399494 
L 78.933478 12.083202 
L 79.310091 8.501104 
L 79.561167 7.741608 
L 79.686704 7.854966 
L 79.875011 8.64469 
L 80.126086 10.840048 
L 80.502699 16.417239 
L 81.00485 27.55424 
L 81.820845 51.486058 
L 83.076222 87.751252 
L 83.641142 98.0649 
L 84.017755 101.64322 
L 84.268831 102.406494 
L 84.394368 102.296915 
L 84.582675 101.503412 
L 84.83375 99.308054 
L 85.210363 93.730863 
L 85.712514 82.594618 
L 86.528509 58.659021 
L 87.783886 22.393071 
L 88.348806 12.083202 
L 88.725419 8.504882 
L 88.976494 7.741608 
L 89.102032 7.851187 
L 89.290339 8.64469 
L 89.541414 10.840048 
L 89.918027 16.417239 
L 90.420178 27.551973 
L 91.236173 51.489459 
L 92.49155 87.753897 
L 93.05647 98.0649 
L 93.433083 101.64322 
L 93.684158 102.406494 
L 93.809696 102.296915 
L 93.998003 101.503412 
L 94.249078 99.308054 
L 94.625691 93.730863 
L 95.127842 82.593484 
L 95.943837 58.657887 
L 97.199214 22.393827 
L 97.764134 12.079424 
L 98.140747 8.504882 
L 98.391822 7.73783 
L 98.51736 7.851187 
L 98.705667 8.64469 
L 98.956742 10.836269 
L 99.333355 16.417239 
L 99.835506 27.554618 
L 100.651501 51.487834 
L 101.906878 87.752386 
L 102.471798 98.0649 
L 102.848411 101.646998 
L 103.099486 102.406494 
L 103.225024 102.293136 
L 103.41333 101.503412 
L 103.664406 99.308054 
L 104.041019 93.730863 
L 104.54317 82.593484 
L 105.359165 58.661704 
L 106.614542 22.396849 
L 107.179462 12.083202 
L 107.556075 8.501104 
L 107.80715 7.741608 
L 107.932688 7.854966 
L 108.120994 8.640911 
L 108.37207 10.840048 
L 108.748683 16.41346 
L 109.250834 27.55424 
L 110.066829 51.485453 
L 111.322206 87.748985 
L 111.887125 98.061121 
L 112.263739 101.646998 
L 112.514814 102.406494 
L 112.640352 102.293136 
L 112.828658 101.503412 
L 113.079734 99.308054 
L 113.456347 93.734641 
L 113.958498 82.593106 
L 114.774493 58.661931 
L 116.02987 22.397605 
L 116.594789 12.083202 
L 116.971402 8.501104 
L 117.222478 7.741608 
L 117.348016 7.854966 
L 117.536322 8.640911 
L 117.787398 10.840048 
L 118.164011 16.41346 
L 118.666161 27.553106 
L 119.482157 51.486474 
L 120.737534 87.750497 
L 121.302453 98.061121 
L 121.679066 101.646998 
L 121.930142 102.406494 
L 122.055679 102.293136 
L 122.243986 101.50719 
L 122.495061 99.308054 
L 122.871675 93.730863 
L 123.373825 82.595373 
L 124.18982 58.660004 
L 125.445198 22.395716 
L 126.010117 12.083202 
L 126.38673 8.504882 
L 126.637806 7.741608 
L 126.763343 7.851187 
L 126.95165 8.64469 
L 127.202725 10.840048 
L 127.579338 16.417239 
L 128.081489 27.550839 
L 128.897484 51.490554 
L 130.152861 87.755031 
L 130.717781 98.0649 
L 131.094394 101.639441 
L 131.34547 102.410272 
L 131.471007 102.296915 
L 131.659314 101.499633 
L 131.910389 99.308054 
L 132.287002 93.727084 
L 132.789153 82.596885 
L 133.605148 58.654638 
L 134.860525 22.390048 
L 135.425445 12.079424 
L 135.802058 8.508661 
L 136.053134 7.73783 
L 136.178671 7.847409 
L 136.366978 8.648469 
L 136.618053 10.836269 
L 136.994666 16.421018 
L 137.496817 27.551595 
L 138.312812 51.491612 
L 139.568189 87.756542 
L 140.133109 98.068678 
L 140.509722 101.639441 
L 140.760797 102.410272 
L 140.886335 102.296915 
L 141.074642 101.499633 
L 141.325717 99.311833 
L 141.70233 93.727084 
L 142.204481 82.592728 
L 143.020476 58.655469 
L 144.275853 22.391559 
L 144.840773 12.079424 
L 145.217386 8.504882 
L 145.468461 7.734051 
L 145.593999 7.854966 
L 145.782306 8.648469 
L 146.033381 10.832491 
L 146.409994 16.421018 
L 146.912145 27.558018 
L 147.72814 51.488476 
L 148.983517 87.752386 
L 149.548437 98.068678 
L 149.92505 101.64322 
L 150.176125 102.410272 
L 150.301663 102.289358 
L 150.489969 101.499633 
L 150.741045 99.311833 
L 151.117658 93.727084 
L 151.619809 82.589328 
L 152.435804 58.659928 
L 153.691181 22.395716 
L 154.256101 12.079424 
L 154.632714 8.501104 
L 154.883789 7.73783 
L 155.009327 7.858744 
L 155.197633 8.64469 
L 155.448709 10.836269 
L 155.825322 16.417239 
L 156.327473 27.558018 
L 157.143468 51.484509 
L 158.398845 87.74823 
L 158.963765 98.061121 
L 159.340378 101.646998 
L 159.591453 102.406494 
L 159.716991 102.289358 
L 159.905297 101.50719 
L 160.156373 99.308054 
L 160.532986 93.734641 
L 161.035137 82.589706 
L 161.851132 58.665445 
L 163.106509 22.400628 
L 163.671428 12.086981 
L 164.048042 8.497325 
L 164.299117 7.745387 
L 164.424655 7.858744 
L 164.612961 8.640911 
L 164.864037 10.840048 
L 165.24065 16.409682 
L 165.742801 27.555751 
L 166.558796 51.482884 
L 167.814173 87.747852 
L 168.379092 98.061121 
L 168.755705 101.646998 
L 169.006781 102.406494 
L 169.132319 102.293136 
L 169.320625 101.50719 
L 169.571701 99.308054 
L 169.948314 93.734641 
L 170.450464 82.594618 
L 171.26646 58.660079 
L 172.521837 22.395716 
L 173.086756 12.083202 
L 173.463369 8.504882 
L 173.714445 7.73783 
L 173.839982 7.854966 
L 174.028289 8.64469 
L 174.279364 10.836269 
L 174.655978 16.417239 
L 175.158128 27.55424 
L 175.974123 51.48893 
L 177.229501 87.753142 
L 177.79442 98.0649 
L 178.171033 101.64322 
L 178.422109 102.406494 
L 178.547646 102.293136 
L 178.735953 101.503412 
L 178.987028 99.308054 
L 179.363641 93.730863 
L 179.865792 82.593106 
L 180.681787 58.66057 
L 181.937164 22.395338 
L 182.502084 12.079424 
L 182.878697 8.504882 
L 183.129773 7.73783 
L 183.25531 7.854966 
L 183.443617 8.64469 
L 183.694692 10.836269 
L 184.071305 16.417239 
L 184.573456 27.554996 
L 185.389451 51.488325 
L 186.644828 87.752386 
L 187.209748 98.0649 
L 187.586361 101.64322 
L 187.837437 102.410272 
L 187.962974 102.293136 
L 188.151281 101.503412 
L 188.402356 99.311833 
L 188.778969 93.730863 
L 189.28112 82.591217 
L 190.097115 58.660079 
L 191.352492 22.396094 
L 191.917412 12.083202 
L 192.294025 8.501104 
L 192.5451 7.741608 
L 192.670638 7.854966 
L 192.858945 8.64469 
L 193.11002 10.836269 
L 193.486633 16.417239 
L 193.988784 27.556507 
L 194.804779 51.487192 
L 196.060156 87.750875 
L 196.625076 98.0649 
L 197.001689 101.646998 
L 197.252764 102.406494 
L 197.378302 102.293136 
L 197.566609 101.503412 
L 197.817684 99.311833 
L 198.194297 93.730863 
L 198.696448 82.591595 
L 199.512443 58.660759 
L 200.76782 22.396094 
L 201.33274 12.083202 
L 201.709353 8.501104 
L 201.960428 7.741608 
L 202.085966 7.854966 
L 202.274272 8.64469 
L 202.525348 10.840048 
L 202.901961 16.417239 
L 203.404112 27.554996 
L 204.220107 51.486209 
L 205.475484 87.752386 
L 206.040404 98.0649 
L 206.417017 101.646998 
L 206.668092 102.406494 
L 206.79363 102.293136 
L 206.981936 101.503412 
L 207.233012 99.308054 
L 207.609625 93.734641 
L 208.111776 82.593484 
L 208.927771 58.660797 
L 210.183148 22.396094 
L 210.748068 12.083202 
L 211.124681 8.504882 
L 211.375756 7.741608 
L 211.501294 7.854966 
L 211.6896 8.64469 
L 211.940676 10.840048 
L 212.317289 16.417239 
L 212.81944 27.552351 
L 213.635435 51.489156 
L 214.890812 87.752764 
L 215.455731 98.0649 
L 215.832345 101.64322 
L 216.08342 102.410272 
L 216.208958 102.293136 
L 216.397264 101.503412 
L 216.64834 99.308054 
L 217.024953 93.730863 
L 217.527104 82.594996 
L 218.343099 58.659777 
L 219.598476 22.39496 
L 220.163395 12.083202 
L 220.540008 8.504882 
L 220.791084 7.741608 
L 220.916622 7.851187 
L 221.104928 8.64469 
L 221.356004 10.840048 
L 221.732617 16.417239 
L 222.234767 27.551595 
L 223.050763 51.489308 
L 224.30614 87.755787 
L 224.871059 98.0649 
L 225.247672 101.64322 
L 225.498748 102.410272 
L 225.624285 102.300693 
L 225.812592 101.503412 
L 226.063667 99.308054 
L 226.440281 93.730863 
L 226.942431 82.596507 
L 227.758426 58.656263 
L 228.13504 46.813687 
L 228.13504 46.813687 
" clip-path="url(#pde809be7ea)" style="fill: none; stroke: #000000; stroke-width: 0.75; stroke-linecap: square"/>
   </g>
   <g id="line2d_16">
    <defs>
     <path id="ma6e1239c86" d="M 0 1 
C 0.265203 1 0.51958 0.894634 0.707107 0.707107 
C 0.894634 0.51958 1 0.265203 1 0 
C 1 -0.265203 0.894634 -0.51958 0.707107 -0.707107 
C 0.51958 -0.894634 0.265203 -1 0 -1 
C -0.265203 -1 -0.51958 -0.894634 -0.707107 -0.707107 
C -0.894634 -0.51958 -1 -0.265203 -1 0 
C -1 0.265203 -0.894634 0.51958 -0.707107 0.707107 
C -0.51958 0.894634 -0.265203 1 0 1 
z
" style="stroke: #ff0000"/>
    </defs>
    <g clip-path="url(#pde809be7ea)">
     <use xlink:href="#ma6e1239c86" x="41.899855" y="7.734051" style="fill: #ff0000; stroke: #ff0000"/>
     <use xlink:href="#ma6e1239c86" x="51.315183" y="7.73783" style="fill: #ff0000; stroke: #ff0000"/>
     <use xlink:href="#ma6e1239c86" x="60.730511" y="7.741608" style="fill: #ff0000; stroke: #ff0000"/>
     <use xlink:href="#ma6e1239c86" x="70.145839" y="7.73783" style="fill: #ff0000; stroke: #ff0000"/>
     <use xlink:href="#ma6e1239c86" x="79.561167" y="7.741608" style="fill: #ff0000; stroke: #ff0000"/>
     <use xlink:href="#ma6e1239c86" x="88.976494" y="7.741608" style="fill: #ff0000; stroke: #ff0000"/>
     <use xlink:href="#ma6e1239c86" x="98.391822" y="7.73783" style="fill: #ff0000; stroke: #ff0000"/>
     <use xlink:href="#ma6e1239c86" x="107.80715" y="7.741608" style="fill: #ff0000; stroke: #ff0000"/>
     <use xlink:href="#ma6e1239c86" x="117.222478" y="7.741608" style="fill: #ff0000; stroke: #ff0000"/>
     <use xlink:href="#ma6e1239c86" x="126.637806" y="7.741608" style="fill: #ff0000; stroke: #ff0000"/>
     <use xlink:href="#ma6e1239c86" x="136.053134" y="7.73783" style="fill: #ff0000; stroke: #ff0000"/>
     <use xlink:href="#ma6e1239c86" x="145.468461" y="7.734051" style="fill: #ff0000; stroke: #ff0000"/>
     <use xlink:href="#ma6e1239c86" x="154.883789" y="7.73783" style="fill: #ff0000; stroke: #ff0000"/>
     <use xlink:href="#ma6e1239c86" x="164.299117" y="7.745387" style="fill: #ff0000; stroke: #ff0000"/>
     <use xlink:href="#ma6e1239c86" x="173.714445" y="7.73783" style="fill: #ff0000; stroke: #ff0000"/>
     <use xlink:href="#ma6e1239c86" x="183.129773" y="7.73783" style="fill: #ff0000; stroke: #ff0000"/>
     <use xlink:href="#ma6e1239c86" x="192.5451" y="7.741608" style="fill: #ff0000; stroke: #ff0000"/>
     <use xlink:href="#ma6e1239c86" x="201.960428" y="7.741608" style="fill: #ff0000; stroke: #ff0000"/>
     <use xlink:href="#ma6e1239c86" x="211.375756" y="7.741608" style="fill: #ff0000; stroke: #ff0000"/>
     <use xlink:href="#ma6e1239c86" x="220.791084" y="7.741608" style="fill: #ff0000; stroke: #ff0000"/>
    </g>
   </g>
   <g id="line2d_17">
    <defs>
     <path id="m0c7a7bf9e6" d="M 0 1 
C 0.265203 1 0.51958 0.894634 0.707107 0.707107 
C 0.894634 0.51958 1 0.265203 1 0 
C 1 -0.265203 0.894634 -0.51958 0.707107 -0.707107 
C 0.51958 -0.894634 0.265203 -1 0 -1 
C -0.265203 -1 -0.51958 -0.894634 -0.707107 -0.707107 
C -0.894634 -0.51958 -1 -0.265203 -1 0 
C -1 0.265203 -0.894634 0.51958 -0.707107 0.707107 
C -0.51958 0.894634 -0.265203 1 0 1 
z
" style="stroke: #000000"/>
    </defs>
    <g clip-path="url(#pde809be7ea)">
     <use xlink:href="#m0c7a7bf9e6" x="46.607519" y="102.410272" style="stroke: #000000"/>
     <use xlink:href="#m0c7a7bf9e6" x="56.022847" y="102.406494" style="stroke: #000000"/>
     <use xlink:href="#m0c7a7bf9e6" x="65.438175" y="102.410272" style="stroke: #000000"/>
     <use xlink:href="#m0c7a7bf9e6" x="74.853503" y="102.406494" style="stroke: #000000"/>
     <use xlink:href="#m0c7a7bf9e6" x="84.268831" y="102.406494" style="stroke: #000000"/>
     <use xlink:href="#m0c7a7bf9e6" x="93.684158" y="102.406494" style="stroke: #000000"/>
     <use xlink:href="#m0c7a7bf9e6" x="103.099486" y="102.406494" style="stroke: #000000"/>
     <use xlink:href="#m0c7a7bf9e6" x="112.514814" y="102.406494" style="stroke: #000000"/>
     <use xlink:href="#m0c7a7bf9e6" x="121.930142" y="102.406494" style="stroke: #000000"/>
     <use xlink:href="#m0c7a7bf9e6" x="131.34547" y="102.410272" style="stroke: #000000"/>
     <use xlink:href="#m0c7a7bf9e6" x="140.760797" y="102.410272" style="stroke: #000000"/>
     <use xlink:href="#m0c7a7bf9e6" x="150.176125" y="102.410272" style="stroke: #000000"/>
     <use xlink:href="#m0c7a7bf9e6" x="159.591453" y="102.406494" style="stroke: #000000"/>
     <use xlink:href="#m0c7a7bf9e6" x="169.006781" y="102.406494" style="stroke: #000000"/>
     <use xlink:href="#m0c7a7bf9e6" x="178.422109" y="102.406494" style="stroke: #000000"/>
     <use xlink:href="#m0c7a7bf9e6" x="187.837437" y="102.410272" style="stroke: #000000"/>
     <use xlink:href="#m0c7a7bf9e6" x="197.252764" y="102.406494" style="stroke: #000000"/>
     <use xlink:href="#m0c7a7bf9e6" x="206.668092" y="102.406494" style="stroke: #000000"/>
     <use xlink:href="#m0c7a7bf9e6" x="216.08342" y="102.410272" style="stroke: #000000"/>
     <use xlink:href="#m0c7a7bf9e6" x="225.498748" y="102.410272" style="stroke: #000000"/>
    </g>
   </g>
   <g id="patch_3">
    <path d="M 30.479063 107.144083 
L 30.479063 3.00024 
" style="fill: none; stroke: #000000; stroke-width: 0.8; stroke-linejoin: miter; stroke-linecap: square"/>
   </g>
   <g id="patch_4">
    <path d="M 237.547229 107.144083 
L 237.547229 3.00024 
" style="fill: none; stroke: #000000; stroke-width: 0.8; stroke-linejoin: miter; stroke-linecap: square"/>
   </g>
   <g id="patch_5">
    <path d="M 30.479063 107.144083 
L 237.547229 107.144083 
" style="fill: none; stroke: #000000; stroke-width: 0.8; stroke-linejoin: miter; stroke-linecap: square"/>
   </g>
   <g id="patch_6">
    <path d="M 30.479063 3.00024 
L 237.547229 3.00024 
" style="fill: none; stroke: #000000; stroke-width: 0.8; stroke-linejoin: miter; stroke-linecap: square"/>
   </g>
  </g>
 </g>
 <defs>
  <clipPath id="pde809be7ea">
   <rect x="30.479063" y="3.00024" width="207.068166" height="104.143843"/>
  </clipPath>
 </defs>
</svg>
