<?xml version="1.0" encoding="utf-8" standalone="no"?>
<!DOCTYPE svg PUBLIC "-//W3C//DTD SVG 1.1//EN"
  "http://www.w3.org/Graphics/SVG/1.1/DTD/svg11.dtd">
<svg xmlns:xlink="http://www.w3.org/1999/xlink" width="241.2pt" height="126pt" viewBox="0 0 241.2 126" xmlns="http://www.w3.org/2000/svg" version="1.1">
 <metadata>
  <rdf:RDF xmlns:dc="http://purl.org/dc/elements/1.1/" xmlns:cc="http://creativecommons.org/ns#" xmlns:rdf="http://www.w3.org/1999/02/22-rdf-syntax-ns#">
   <cc:Work>
    <dc:type rdf:resource="http://purl.org/dc/dcmitype/StillImage"/>
    <dc:date>2024-08-25T08:59:50.560564</dc:date>
    <dc:format>image/svg+xml</dc:format>
    <dc:creator>
     <cc:Agent>
      <dc:title>Matplotlib v3.8.4, https://matplotlib.org/</dc:title>
     </cc:Agent>
    </dc:creator>
   </cc:Work>
  </rdf:RDF>
 </metadata>
 <defs>
  <style type="text/css">*{stroke-linejoin: round; stroke-linecap: butt}</style>
 </defs>
 <g id="figure_1">
  <g id="patch_1">
   <path d="M 0 126 
L 241.2 126 
L 241.2 0 
L 0 0 
z
" style="fill: #ffffff"/>
  </g>
  <g id="axes_1">
   <g id="patch_2">
    <path d="M 30.479063 107.144083 
L 238.19976 107.144083 
L 238.19976 3.00024 
L 30.479063 3.00024 
z
" style="fill: #ffffff"/>
   </g>
   <g id="matplotlib.axis_1">
    <g id="xtick_1">
     <g id="line2d_1">
      <path d="M 39.920913 107.144083 
L 39.920913 3.00024 
" clip-path="url(#pcf08c6b603)" style="fill: none; stroke: #b0b0b0; stroke-width: 0.8; stroke-linecap: square"/>
     </g>
     <g id="line2d_2">
      <defs>
       <path id="m678c209439" d="M 0 0 
L 0 3.5 
" style="stroke: #000000; stroke-width: 0.8"/>
      </defs>
      <g>
       <use xlink:href="#m678c209439" x="39.920913" y="107.144083" style="stroke: #000000; stroke-width: 0.8"/>
      </g>
     </g>
     <g id="text_1">
      <!-- $\mathdefault{0}$ -->
      <g transform="translate(37.430245 121.062582) scale(0.1 -0.1)">
       <defs>
        <path id="CMR17-30" d="M 2688 2025 
C 2688 2416 2682 3080 2413 3591 
C 2176 4039 1798 4198 1466 4198 
C 1158 4198 768 4058 525 3597 
C 269 3118 243 2524 243 2025 
C 243 1661 250 1106 448 619 
C 723 -39 1216 -128 1466 -128 
C 1760 -128 2208 -7 2470 600 
C 2662 1042 2688 1559 2688 2025 
z
M 1466 -26 
C 1056 -26 813 325 723 812 
C 653 1188 653 1738 653 2096 
C 653 2588 653 2997 736 3387 
C 858 3929 1216 4096 1466 4096 
C 1728 4096 2067 3923 2189 3400 
C 2272 3036 2278 2607 2278 2096 
C 2278 1680 2278 1169 2202 792 
C 2067 95 1690 -26 1466 -26 
z
" transform="scale(0.015625)"/>
       </defs>
       <use xlink:href="#CMR17-30" transform="scale(0.996264)"/>
      </g>
     </g>
    </g>
    <g id="xtick_2">
     <g id="line2d_3">
      <path d="M 90.156879 107.144083 
L 90.156879 3.00024 
" clip-path="url(#pcf08c6b603)" style="fill: none; stroke: #b0b0b0; stroke-width: 0.8; stroke-linecap: square"/>
     </g>
     <g id="line2d_4">
      <g>
       <use xlink:href="#m678c209439" x="90.156879" y="107.144083" style="stroke: #000000; stroke-width: 0.8"/>
      </g>
     </g>
     <g id="text_2">
      <!-- $\mathdefault{1000}$ -->
      <g transform="translate(80.194208 121.062582) scale(0.1 -0.1)">
       <defs>
        <path id="CMR17-31" d="M 1702 4058 
C 1702 4192 1696 4192 1606 4192 
C 1357 3916 979 3827 621 3827 
C 602 3827 570 3827 563 3808 
C 557 3795 557 3782 557 3648 
C 755 3648 1088 3686 1344 3839 
L 1344 461 
C 1344 236 1331 160 781 160 
L 589 160 
L 589 0 
C 896 0 1216 0 1523 0 
C 1830 0 2150 0 2458 0 
L 2458 160 
L 2266 160 
C 1715 160 1702 230 1702 458 
L 1702 4058 
z
" transform="scale(0.015625)"/>
       </defs>
       <use xlink:href="#CMR17-31" transform="scale(0.996264)"/>
       <use xlink:href="#CMR17-30" transform="translate(45.690477 0) scale(0.996264)"/>
       <use xlink:href="#CMR17-30" transform="translate(91.380954 0) scale(0.996264)"/>
       <use xlink:href="#CMR17-30" transform="translate(137.071431 0) scale(0.996264)"/>
      </g>
     </g>
    </g>
    <g id="xtick_3">
     <g id="line2d_5">
      <path d="M 140.392845 107.144083 
L 140.392845 3.00024 
" clip-path="url(#pcf08c6b603)" style="fill: none; stroke: #b0b0b0; stroke-width: 0.8; stroke-linecap: square"/>
     </g>
     <g id="line2d_6">
      <g>
       <use xlink:href="#m678c209439" x="140.392845" y="107.144083" style="stroke: #000000; stroke-width: 0.8"/>
      </g>
     </g>
     <g id="text_3">
      <!-- $\mathdefault{2000}$ -->
      <g transform="translate(130.430175 121.062582) scale(0.1 -0.1)">
       <defs>
        <path id="CMR17-32" d="M 2669 989 
L 2554 989 
C 2490 536 2438 459 2413 420 
C 2381 369 1920 369 1830 369 
L 602 369 
C 832 619 1280 1072 1824 1597 
C 2214 1967 2669 2402 2669 3035 
C 2669 3790 2067 4224 1395 4224 
C 691 4224 262 3604 262 3030 
C 262 2780 448 2748 525 2748 
C 589 2748 781 2787 781 3010 
C 781 3207 614 3264 525 3264 
C 486 3264 448 3258 422 3245 
C 544 3790 915 4058 1306 4058 
C 1862 4058 2227 3617 2227 3035 
C 2227 2479 1901 2000 1536 1584 
L 262 146 
L 262 0 
L 2515 0 
L 2669 989 
z
" transform="scale(0.015625)"/>
       </defs>
       <use xlink:href="#CMR17-32" transform="scale(0.996264)"/>
       <use xlink:href="#CMR17-30" transform="translate(45.690477 0) scale(0.996264)"/>
       <use xlink:href="#CMR17-30" transform="translate(91.380954 0) scale(0.996264)"/>
       <use xlink:href="#CMR17-30" transform="translate(137.071431 0) scale(0.996264)"/>
      </g>
     </g>
    </g>
    <g id="xtick_4">
     <g id="line2d_7">
      <path d="M 190.628812 107.144083 
L 190.628812 3.00024 
" clip-path="url(#pcf08c6b603)" style="fill: none; stroke: #b0b0b0; stroke-width: 0.8; stroke-linecap: square"/>
     </g>
     <g id="line2d_8">
      <g>
       <use xlink:href="#m678c209439" x="190.628812" y="107.144083" style="stroke: #000000; stroke-width: 0.8"/>
      </g>
     </g>
     <g id="text_4">
      <!-- $\mathdefault{3000}$ -->
      <g transform="translate(180.666141 121.062582) scale(0.1 -0.1)">
       <defs>
        <path id="CMR17-33" d="M 1414 2157 
C 1984 2157 2234 1662 2234 1090 
C 2234 320 1824 25 1453 25 
C 1114 25 563 194 390 693 
C 422 680 454 680 486 680 
C 640 680 755 782 755 948 
C 755 1133 614 1216 486 1216 
C 378 1216 211 1165 211 926 
C 211 335 787 -128 1466 -128 
C 2176 -128 2720 430 2720 1085 
C 2720 1707 2208 2157 1600 2227 
C 2086 2328 2554 2756 2554 3329 
C 2554 3820 2048 4179 1472 4179 
C 890 4179 378 3829 378 3329 
C 378 3110 544 3072 627 3072 
C 762 3072 877 3155 877 3321 
C 877 3486 762 3569 627 3569 
C 602 3569 570 3569 544 3557 
C 730 3959 1235 4032 1459 4032 
C 1683 4032 2106 3925 2106 3320 
C 2106 3143 2080 2828 1862 2550 
C 1670 2304 1453 2304 1242 2284 
C 1210 2284 1062 2269 1037 2269 
C 992 2263 966 2257 966 2208 
C 966 2163 973 2157 1101 2157 
L 1414 2157 
z
" transform="scale(0.015625)"/>
       </defs>
       <use xlink:href="#CMR17-33" transform="scale(0.996264)"/>
       <use xlink:href="#CMR17-30" transform="translate(45.690477 0) scale(0.996264)"/>
       <use xlink:href="#CMR17-30" transform="translate(91.380954 0) scale(0.996264)"/>
       <use xlink:href="#CMR17-30" transform="translate(137.071431 0) scale(0.996264)"/>
      </g>
     </g>
    </g>
   </g>
   <g id="matplotlib.axis_2">
    <g id="ytick_1">
     <g id="line2d_9">
      <path d="M 30.479063 85.988802 
L 238.19976 85.988802 
" clip-path="url(#pcf08c6b603)" style="fill: none; stroke: #b0b0b0; stroke-width: 0.8; stroke-linecap: square"/>
     </g>
     <g id="line2d_10">
      <defs>
       <path id="mb03fc2e537" d="M 0 0 
L -3.5 0 
" style="stroke: #000000; stroke-width: 0.8"/>
      </defs>
      <g>
       <use xlink:href="#mb03fc2e537" x="30.479063" y="85.988802" style="stroke: #000000; stroke-width: 0.8"/>
      </g>
     </g>
     <g id="text_5">
      <!-- $\mathdefault{−0.1}$ -->
      <g transform="translate(3.00024 89.448051) scale(0.1 -0.1)">
       <defs>
        <path id="CMSY10-0" d="M 4218 1472 
C 4326 1472 4442 1472 4442 1600 
C 4442 1728 4326 1728 4218 1728 
L 755 1728 
C 646 1728 531 1728 531 1600 
C 531 1472 646 1472 755 1472 
L 4218 1472 
z
" transform="scale(0.015625)"/>
        <path id="CMMI12-3a" d="M 1178 307 
C 1178 492 1024 619 870 619 
C 685 619 557 466 557 313 
C 557 128 710 0 864 0 
C 1050 0 1178 153 1178 307 
z
" transform="scale(0.015625)"/>
       </defs>
       <use xlink:href="#CMSY10-0" transform="scale(0.996264)"/>
       <use xlink:href="#CMR17-30" transform="translate(77.487468 0) scale(0.996264)"/>
       <use xlink:href="#CMMI12-3a" transform="translate(123.177945 0) scale(0.996264)"/>
       <use xlink:href="#CMR17-31" transform="translate(150.275122 0) scale(0.996264)"/>
      </g>
     </g>
    </g>
    <g id="ytick_2">
     <g id="line2d_11">
      <path d="M 30.479063 55.06907 
L 238.19976 55.06907 
" clip-path="url(#pcf08c6b603)" style="fill: none; stroke: #b0b0b0; stroke-width: 0.8; stroke-linecap: square"/>
     </g>
     <g id="line2d_12">
      <g>
       <use xlink:href="#mb03fc2e537" x="30.479063" y="55.06907" style="stroke: #000000; stroke-width: 0.8"/>
      </g>
     </g>
     <g id="text_6">
      <!-- $\mathdefault{0.0}$ -->
      <g transform="translate(10.748984 58.528319) scale(0.1 -0.1)">
       <use xlink:href="#CMR17-30" transform="scale(0.996264)"/>
       <use xlink:href="#CMMI12-3a" transform="translate(45.690477 0) scale(0.996264)"/>
       <use xlink:href="#CMR17-30" transform="translate(72.787654 0) scale(0.996264)"/>
      </g>
     </g>
    </g>
    <g id="ytick_3">
     <g id="line2d_13">
      <path d="M 30.479063 24.149337 
L 238.19976 24.149337 
" clip-path="url(#pcf08c6b603)" style="fill: none; stroke: #b0b0b0; stroke-width: 0.8; stroke-linecap: square"/>
     </g>
     <g id="line2d_14">
      <g>
       <use xlink:href="#mb03fc2e537" x="30.479063" y="24.149337" style="stroke: #000000; stroke-width: 0.8"/>
      </g>
     </g>
     <g id="text_7">
      <!-- $\mathdefault{0.1}$ -->
      <g transform="translate(10.748984 27.608586) scale(0.1 -0.1)">
       <use xlink:href="#CMR17-30" transform="scale(0.996264)"/>
       <use xlink:href="#CMMI12-3a" transform="translate(45.690477 0) scale(0.996264)"/>
       <use xlink:href="#CMR17-31" transform="translate(72.787654 0) scale(0.996264)"/>
      </g>
     </g>
    </g>
   </g>
   <g id="line2d_15">
    <path d="M 39.920913 95.697598 
L 40.373036 87.074085 
L 41.026104 69.781606 
L 42.834599 18.976466 
L 43.336958 11.271268 
L 43.68861 8.738942 
L 43.889554 8.432837 
L 44.040262 8.75131 
L 44.241206 9.901524 
L 44.542621 13.13882 
L 44.944509 20.033921 
L 45.547341 34.887142 
L 47.807959 95.808909 
L 48.209847 100.40049 
L 48.511263 101.726946 
L 48.611735 101.751682 
L 48.762443 101.396105 
L 48.963387 100.193327 
L 49.264802 96.888008 
L 49.716926 88.824142 
L 50.319758 73.499395 
L 52.429668 15.717526 
L 52.881792 10.015927 
L 53.183208 8.457573 
L 53.333916 8.386457 
L 53.484623 8.779138 
L 53.735803 10.473539 
L 54.087455 14.916705 
L 54.539579 23.818496 
L 55.242882 42.881748 
L 56.900669 89.875413 
L 57.403029 98.168085 
L 57.754681 101.158023 
L 57.955625 101.739314 
L 58.056096 101.714578 
L 58.206804 101.287886 
L 58.457984 99.544013 
L 58.809636 95.029732 
L 59.311996 84.876929 
L 60.065535 63.885213 
L 61.572614 21.085192 
L 62.12521 11.8371 
L 62.476861 8.924461 
L 62.677805 8.395733 
L 62.778277 8.442113 
L 62.928985 8.905909 
L 63.180165 10.717805 
L 63.531817 15.312478 
L 64.034176 25.562987 
L 64.787716 46.639423 
L 66.244559 88.199563 
L 66.797155 97.787772 
L 67.148806 100.950861 
L 67.399986 101.671291 
L 67.500458 101.597083 
L 67.651166 101.096184 
L 67.902346 99.22554 
L 68.253998 94.547384 
L 68.756357 84.208444 
L 69.509897 63.093977 
L 70.96674 21.712862 
L 71.519335 12.251424 
L 71.870987 9.171819 
L 72.122167 8.503952 
L 72.222639 8.605988 
L 72.373347 9.143991 
L 72.624527 11.073382 
L 72.976178 15.822653 
L 73.478538 26.254043 
L 74.232078 47.446737 
L 75.638685 87.624456 
L 76.19128 97.435287 
L 76.542932 100.756067 
L 76.794112 101.600175 
L 76.894584 101.572347 
L 77.045292 101.139471 
L 77.296472 99.386322 
L 77.648123 94.868949 
L 78.100247 85.909648 
L 78.803551 66.80249 
L 80.411101 21.106835 
L 80.913461 12.535886 
L 81.265113 9.310957 
L 81.516293 8.53178 
L 81.616765 8.590528 
L 81.767473 9.066692 
L 82.018652 10.88168 
L 82.370304 15.494904 
L 82.872664 25.755617 
L 83.626203 46.802061 
L 85.083046 88.27377 
L 85.635642 97.8156 
L 85.987294 100.950861 
L 86.238474 101.655831 
L 86.338945 101.569256 
L 86.489653 101.049804 
L 86.740833 99.154424 
L 87.092485 94.448441 
L 87.594845 84.061575 
L 88.348384 62.885887 
L 89.754991 22.612626 
L 90.307587 12.718312 
L 90.709475 9.04814 
L 90.910418 8.442113 
L 91.01089 8.454481 
L 91.161598 8.859529 
L 91.412778 10.575574 
L 91.76443 15.052752 
L 92.216554 23.982371 
L 92.919857 43.060773 
L 94.577644 90.023827 
L 95.080004 98.267028 
L 95.431655 101.213679 
L 95.632599 101.770234 
L 95.733071 101.73313 
L 95.883779 101.287886 
L 96.134959 99.513093 
L 96.486611 94.943157 
L 96.98897 84.717074 
L 97.74251 63.638474 
L 99.199353 21.932392 
L 99.751949 12.263792 
L 100.1036 9.04814 
L 100.35478 8.284422 
L 100.455252 8.349354 
L 100.60596 8.837886 
L 100.85714 10.683794 
L 101.208792 15.334121 
L 101.711151 25.657602 
L 102.464691 46.831744 
L 103.921534 88.499485 
L 104.474129 98.08151 
L 104.825781 101.226046 
L 105.076961 101.934108 
L 105.177433 101.850625 
L 105.328141 101.328082 
L 105.579321 99.423426 
L 105.930972 94.686523 
L 106.433332 84.244311 
L 107.186872 62.971226 
L 108.643715 21.344917 
L 109.19631 11.852559 
L 109.547962 8.788414 
L 109.799142 8.142192 
L 109.899614 8.253503 
L 110.100558 9.097611 
L 110.401973 11.905123 
L 110.803861 18.324059 
L 111.356457 31.3054 
L 112.361176 61.58664 
L 113.315659 87.958389 
L 113.868255 97.837244 
L 114.219907 101.179667 
L 114.471087 102.036143 
L 114.571559 102.008316 
L 114.722266 101.578531 
L 114.973446 99.813015 
L 115.325098 95.258538 
L 115.777222 86.211424 
L 116.480525 66.938227 
L 118.138312 19.740183 
L 118.640672 11.515534 
L 118.992324 8.596712 
L 119.193267 8.067984 
L 119.293739 8.120548 
L 119.444447 8.590528 
L 119.695627 10.417884 
L 120.047279 15.04966 
L 120.549639 25.375304 
L 121.303178 46.596135 
L 122.760021 88.465473 
L 123.312617 98.140257 
L 123.664268 101.343541 
L 123.915448 102.085615 
L 124.01592 102.011408 
L 124.166628 101.507416 
L 124.417808 99.627496 
L 124.76946 94.927697 
L 125.271819 84.51826 
L 126.025359 63.229405 
L 127.482202 21.450044 
L 128.034798 11.858743 
L 128.386449 8.723483 
L 128.637629 8.027789 
L 128.738101 8.120548 
L 128.888809 8.649275 
L 129.139989 10.569391 
L 129.491641 15.324845 
L 129.994 25.806944 
L 130.74754 47.178972 
L 132.154147 87.847078 
L 132.706742 97.827968 
L 133.10863 101.525968 
L 133.309574 102.138179 
L 133.410046 102.125811 
L 133.560754 101.71767 
L 133.811934 99.989257 
L 134.163585 95.471884 
L 134.615709 86.468058 
L 135.319013 67.221761 
L 136.9768 19.854586 
L 137.479159 11.534086 
L 137.830811 8.544148 
L 138.031755 7.978317 
L 138.132227 8.018513 
L 138.282935 8.466849 
L 138.534115 10.257101 
L 138.885766 14.854865 
L 139.33789 23.942175 
L 140.041194 43.281231 
L 141.648744 89.417801 
L 142.151104 98.075326 
L 142.502756 101.328082 
L 142.753936 102.104167 
L 142.854408 102.048511 
L 143.005116 101.569256 
L 143.256295 99.738807 
L 143.607947 95.091572 
L 144.110307 84.744283 
L 144.863846 63.48573 
L 146.320689 21.564447 
L 146.873285 11.902031 
L 147.224937 8.717299 
L 147.476117 7.987593 
L 147.576588 8.067984 
L 147.727296 8.575068 
L 147.978476 10.464263 
L 148.330128 15.182615 
L 148.832488 25.625136 
L 149.586027 46.969646 
L 151.04287 88.867429 
L 151.595466 98.461822 
L 151.947118 101.572347 
L 152.198297 102.237122 
L 152.298769 102.135087 
L 152.499713 101.29407 
L 152.750893 99.080217 
L 153.102545 93.92899 
L 153.604904 82.96207 
L 154.40868 59.613961 
L 155.714815 22.083899 
L 156.267411 12.158665 
L 156.619062 8.78223 
L 156.870242 7.913386 
L 156.970714 7.938121 
L 157.121422 8.370998 
L 157.372602 10.133422 
L 157.724254 14.700267 
L 158.176377 23.765932 
L 158.879681 43.106844 
L 160.487232 89.393065 
L 160.989592 98.109337 
L 161.341243 101.408473 
L 161.592423 102.21857 
L 161.692895 102.169098 
L 161.843603 101.705302 
L 162.094783 99.893406 
L 162.446435 95.273998 
L 162.948794 84.934749 
L 163.702334 63.657953 
L 165.159177 21.55208 
L 165.711772 11.803088 
L 166.063424 8.575068 
L 166.314604 7.82681 
L 166.415076 7.894834 
L 166.565784 8.398825 
L 166.816964 10.281837 
L 167.168615 15.00328 
L 167.670975 25.462807 
L 168.424515 46.858644 
L 169.881358 88.910717 
L 170.433953 98.532938 
L 170.785605 101.649647 
L 171.036785 102.323697 
L 171.137257 102.21857 
L 171.287965 101.671291 
L 171.539144 99.717164 
L 171.890796 94.893685 
L 172.393156 84.309552 
L 173.146695 62.813844 
L 174.553302 22.102451 
L 175.105898 12.143205 
L 175.45755 8.748218 
L 175.70873 7.870098 
L 175.809202 7.891742 
L 175.959909 8.318434 
L 176.211089 10.074675 
L 176.562741 14.638427 
L 177.014865 23.713369 
L 177.718168 43.053352 
L 179.375955 90.499991 
L 179.878315 98.798847 
L 180.229967 101.760958 
L 180.43091 102.305145 
L 180.531382 102.261858 
L 180.68209 101.791878 
L 180.93327 99.967613 
L 181.284922 95.314194 
L 181.787282 84.931038 
L 182.540821 63.568286 
L 183.997664 21.422217 
L 184.55026 11.719605 
L 184.901911 8.528688 
L 185.153091 7.798982 
L 185.253563 7.882466 
L 185.404271 8.405009 
L 185.655451 10.312757 
L 186.007103 15.071304 
L 186.509462 25.583085 
L 187.263002 47.032722 
L 188.719845 88.997292 
L 189.272441 98.573133 
L 189.624092 101.668199 
L 189.875272 102.323697 
L 189.975744 102.215478 
L 190.176688 101.365185 
L 190.478104 98.542214 
L 190.879991 92.092357 
L 191.432587 79.036191 
L 192.437306 48.543151 
L 193.39179 21.963312 
L 193.944385 11.99479 
L 194.346273 8.34317 
L 194.547217 7.758787 
L 194.647689 7.789707 
L 194.798397 8.222583 
L 195.049577 9.991192 
L 195.401228 14.57968 
L 195.853352 23.688633 
L 196.556656 43.103442 
L 198.214443 90.645314 
L 198.716802 98.947262 
L 199.068454 101.884637 
L 199.269398 102.410272 
L 199.36987 102.354617 
L 199.520578 101.875361 
L 199.771758 100.035637 
L 200.123409 95.360573 
L 200.625769 84.950518 
L 201.379308 63.585601 
L 202.836151 21.434585 
L 203.388747 11.694869 
L 203.740399 8.476125 
L 203.991579 7.734051 
L 204.092051 7.808258 
L 204.242759 8.31225 
L 204.493938 10.198354 
L 204.84559 14.929073 
L 205.34795 25.412717 
L 206.101489 46.85617 
L 207.558332 88.950913 
L 208.110928 98.588593 
L 208.46258 101.723854 
L 208.71376 102.410272 
L 208.814231 102.314421 
L 208.964939 101.767142 
L 209.216119 99.819199 
L 209.567771 94.989536 
L 210.070131 84.403548 
L 210.82367 62.894236 
L 212.230277 22.090083 
L 212.782873 12.106101 
L 213.134525 8.711115 
L 213.385704 7.82681 
L 213.486176 7.845362 
L 213.636884 8.26587 
L 213.888064 10.012835 
L 214.239716 14.56422 
L 214.69184 23.626794 
L 215.395143 42.96183 
L 217.05293 90.447428 
L 217.55529 98.764836 
L 217.906941 101.723854 
L 218.107885 102.271133 
L 218.208357 102.227846 
L 218.359065 101.767142 
L 218.610245 99.955245 
L 218.961897 95.317286 
L 219.464256 84.966287 
L 220.217796 63.657953 
L 221.674639 21.592275 
L 222.227234 11.883479 
L 222.578886 8.670919 
L 222.830066 7.928845 
L 222.930538 8.006145 
L 223.081246 8.513228 
L 223.332426 10.399332 
L 223.684078 15.123867 
L 224.186437 25.571336 
L 224.939977 46.923575 
L 226.39682 88.787038 
L 226.949415 98.378339 
L 227.301067 101.488864 
L 227.552247 102.15673 
L 227.652719 102.054695 
L 227.853663 101.216771 
L 228.104843 99.012194 
L 228.456494 93.876426 
L 228.75791 87.766687 
L 228.75791 87.766687 
" clip-path="url(#pcf08c6b603)" style="fill: none; stroke: #000000; stroke-width: 0.75; stroke-linecap: square"/>
   </g>
   <g id="line2d_16">
    <defs>
     <path id="m1bcb4b7208" d="M 0 1 
C 0.265203 1 0.51958 0.894634 0.707107 0.707107 
C 0.894634 0.51958 1 0.265203 1 0 
C 1 -0.265203 0.894634 -0.51958 0.707107 -0.707107 
C 0.51958 -0.894634 0.265203 -1 0 -1 
C -0.265203 -1 -0.51958 -0.894634 -0.707107 -0.707107 
C -0.894634 -0.51958 -1 -0.265203 -1 0 
C -1 0.265203 -0.894634 0.51958 -0.707107 0.707107 
C -0.51958 0.894634 -0.265203 1 0 1 
z
" style="stroke: #ff0000"/>
    </defs>
    <g clip-path="url(#pcf08c6b603)">
     <use xlink:href="#m1bcb4b7208" x="43.839318" y="8.429745" style="fill: #ff0000; stroke: #ff0000"/>
     <use xlink:href="#m1bcb4b7208" x="53.28368" y="8.35863" style="fill: #ff0000; stroke: #ff0000"/>
     <use xlink:href="#m1bcb4b7208" x="62.728041" y="8.392641" style="fill: #ff0000; stroke: #ff0000"/>
     <use xlink:href="#m1bcb4b7208" x="72.122167" y="8.503952" style="fill: #ff0000; stroke: #ff0000"/>
     <use xlink:href="#m1bcb4b7208" x="81.516293" y="8.53178" style="fill: #ff0000; stroke: #ff0000"/>
     <use xlink:href="#m1bcb4b7208" x="90.960654" y="8.423561" style="fill: #ff0000; stroke: #ff0000"/>
     <use xlink:href="#m1bcb4b7208" x="100.35478" y="8.284422" style="fill: #ff0000; stroke: #ff0000"/>
     <use xlink:href="#m1bcb4b7208" x="109.799142" y="8.142192" style="fill: #ff0000; stroke: #ff0000"/>
     <use xlink:href="#m1bcb4b7208" x="119.243503" y="8.064892" style="fill: #ff0000; stroke: #ff0000"/>
     <use xlink:href="#m1bcb4b7208" x="128.637629" y="8.027789" style="fill: #ff0000; stroke: #ff0000"/>
     <use xlink:href="#m1bcb4b7208" x="138.081991" y="7.972133" style="fill: #ff0000; stroke: #ff0000"/>
     <use xlink:href="#m1bcb4b7208" x="147.476117" y="7.987593" style="fill: #ff0000; stroke: #ff0000"/>
     <use xlink:href="#m1bcb4b7208" x="156.920478" y="7.901018" style="fill: #ff0000; stroke: #ff0000"/>
     <use xlink:href="#m1bcb4b7208" x="166.314604" y="7.82681" style="fill: #ff0000; stroke: #ff0000"/>
     <use xlink:href="#m1bcb4b7208" x="175.758966" y="7.854638" style="fill: #ff0000; stroke: #ff0000"/>
     <use xlink:href="#m1bcb4b7208" x="185.153091" y="7.798982" style="fill: #ff0000; stroke: #ff0000"/>
     <use xlink:href="#m1bcb4b7208" x="194.597453" y="7.746419" style="fill: #ff0000; stroke: #ff0000"/>
     <use xlink:href="#m1bcb4b7208" x="203.991579" y="7.734051" style="fill: #ff0000; stroke: #ff0000"/>
     <use xlink:href="#m1bcb4b7208" x="213.43594" y="7.808258" style="fill: #ff0000; stroke: #ff0000"/>
     <use xlink:href="#m1bcb4b7208" x="222.830066" y="7.928845" style="fill: #ff0000; stroke: #ff0000"/>
    </g>
   </g>
   <g id="line2d_17">
    <defs>
     <path id="m900b516dde" d="M 0 1 
C 0.265203 1 0.51958 0.894634 0.707107 0.707107 
C 0.894634 0.51958 1 0.265203 1 0 
C 1 -0.265203 0.894634 -0.51958 0.707107 -0.707107 
C 0.51958 -0.894634 0.265203 -1 0 -1 
C -0.265203 -1 -0.51958 -0.894634 -0.707107 -0.707107 
C -0.894634 -0.51958 -1 -0.265203 -1 0 
C -1 0.265203 -0.894634 0.51958 -0.707107 0.707107 
C -0.51958 0.894634 -0.265203 1 0 1 
z
" style="stroke: #000000"/>
    </defs>
    <g clip-path="url(#pcf08c6b603)">
     <use xlink:href="#m900b516dde" x="48.561499" y="101.767142" style="stroke: #000000"/>
     <use xlink:href="#m900b516dde" x="58.00586" y="101.751682" style="stroke: #000000"/>
     <use xlink:href="#m900b516dde" x="67.399986" y="101.671291" style="stroke: #000000"/>
     <use xlink:href="#m900b516dde" x="76.844348" y="101.612543" style="stroke: #000000"/>
     <use xlink:href="#m900b516dde" x="86.238474" y="101.655831" style="stroke: #000000"/>
     <use xlink:href="#m900b516dde" x="95.682835" y="101.776418" style="stroke: #000000"/>
     <use xlink:href="#m900b516dde" x="105.076961" y="101.934108" style="stroke: #000000"/>
     <use xlink:href="#m900b516dde" x="114.521323" y="102.048511" style="stroke: #000000"/>
     <use xlink:href="#m900b516dde" x="123.915448" y="102.085615" style="stroke: #000000"/>
     <use xlink:href="#m900b516dde" x="133.35981" y="102.159822" style="stroke: #000000"/>
     <use xlink:href="#m900b516dde" x="142.753936" y="102.104167" style="stroke: #000000"/>
     <use xlink:href="#m900b516dde" x="152.198297" y="102.237122" style="stroke: #000000"/>
     <use xlink:href="#m900b516dde" x="161.642659" y="102.221662" style="stroke: #000000"/>
     <use xlink:href="#m900b516dde" x="171.036785" y="102.323697" style="stroke: #000000"/>
     <use xlink:href="#m900b516dde" x="180.481146" y="102.311329" style="stroke: #000000"/>
     <use xlink:href="#m900b516dde" x="189.875272" y="102.323697" style="stroke: #000000"/>
     <use xlink:href="#m900b516dde" x="199.269398" y="102.410272" style="stroke: #000000"/>
     <use xlink:href="#m900b516dde" x="208.71376" y="102.410272" style="stroke: #000000"/>
     <use xlink:href="#m900b516dde" x="218.158121" y="102.274225" style="stroke: #000000"/>
     <use xlink:href="#m900b516dde" x="227.552247" y="102.15673" style="stroke: #000000"/>
    </g>
   </g>
   <g id="patch_3">
    <path d="M 30.479063 107.144083 
L 30.479063 3.00024 
" style="fill: none; stroke: #000000; stroke-width: 0.8; stroke-linejoin: miter; stroke-linecap: square"/>
   </g>
   <g id="patch_4">
    <path d="M 238.19976 107.144083 
L 238.19976 3.00024 
" style="fill: none; stroke: #000000; stroke-width: 0.8; stroke-linejoin: miter; stroke-linecap: square"/>
   </g>
   <g id="patch_5">
    <path d="M 30.479063 107.144083 
L 238.19976 107.144083 
" style="fill: none; stroke: #000000; stroke-width: 0.8; stroke-linejoin: miter; stroke-linecap: square"/>
   </g>
   <g id="patch_6">
    <path d="M 30.479063 3.00024 
L 238.19976 3.00024 
" style="fill: none; stroke: #000000; stroke-width: 0.8; stroke-linejoin: miter; stroke-linecap: square"/>
   </g>
  </g>
 </g>
 <defs>
  <clipPath id="pcf08c6b603">
   <rect x="30.479063" y="3.00024" width="207.720697" height="104.143843"/>
  </clipPath>
 </defs>
</svg>
