<?xml version="1.0" encoding="utf-8" standalone="no"?>
<!DOCTYPE svg PUBLIC "-//W3C//DTD SVG 1.1//EN"
  "http://www.w3.org/Graphics/SVG/1.1/DTD/svg11.dtd">
<svg xmlns:xlink="http://www.w3.org/1999/xlink" width="241.2pt" height="144pt" viewBox="0 0 241.2 144" xmlns="http://www.w3.org/2000/svg" version="1.1">
 <metadata>
  <rdf:RDF xmlns:dc="http://purl.org/dc/elements/1.1/" xmlns:cc="http://creativecommons.org/ns#" xmlns:rdf="http://www.w3.org/1999/02/22-rdf-syntax-ns#">
   <cc:Work>
    <dc:type rdf:resource="http://purl.org/dc/dcmitype/StillImage"/>
    <dc:date>2024-04-02T06:23:53.780129</dc:date>
    <dc:format>image/svg+xml</dc:format>
    <dc:creator>
     <cc:Agent>
      <dc:title>Matplotlib v3.6.3, https://matplotlib.org/</dc:title>
     </cc:Agent>
    </dc:creator>
   </cc:Work>
  </rdf:RDF>
 </metadata>
 <defs>
  <style type="text/css">*{stroke-linejoin: round; stroke-linecap: butt}</style>
 </defs>
 <g id="figure_1">
  <g id="patch_1">
   <path d="M 0 144 
L 241.2 144 
L 241.2 0 
L 0 0 
z
" style="fill: #ffffff"/>
  </g>
  <g id="axes_1">
   <g id="patch_2">
    <path d="M 44.123453 111.181443 
L 238.19976 111.181443 
L 238.19976 3.00024 
L 44.123453 3.00024 
z
" style="fill: #ffffff"/>
   </g>
   <g id="matplotlib.axis_1">
    <g id="xtick_1">
     <g id="line2d_1">
      <defs>
       <path id="m0d9c8ab817" d="M 0 0 
L 0 3.5 
" style="stroke: #000000; stroke-width: 0.8"/>
      </defs>
      <g>
       <use xlink:href="#m0d9c8ab817" x="52.945104" y="111.181443" style="stroke: #000000; stroke-width: 0.8"/>
      </g>
     </g>
     <g id="text_1">
      <!-- $\mathdefault{0}$ -->
      <g transform="translate(50.454436 125.099942) scale(0.1 -0.1)">
       <defs>
        <path id="CMR17-30" d="M 2688 2025 
C 2688 2416 2682 3080 2413 3591 
C 2176 4039 1798 4198 1466 4198 
C 1158 4198 768 4058 525 3597 
C 269 3118 243 2524 243 2025 
C 243 1661 250 1106 448 619 
C 723 -39 1216 -128 1466 -128 
C 1760 -128 2208 -7 2470 600 
C 2662 1042 2688 1559 2688 2025 
z
M 1466 -26 
C 1056 -26 813 325 723 812 
C 653 1188 653 1738 653 2096 
C 653 2588 653 2997 736 3387 
C 858 3929 1216 4096 1466 4096 
C 1728 4096 2067 3923 2189 3400 
C 2272 3036 2278 2607 2278 2096 
C 2278 1680 2278 1169 2202 792 
C 2067 95 1690 -26 1466 -26 
z
" transform="scale(0.015625)"/>
       </defs>
       <use xlink:href="#CMR17-30" transform="scale(0.996264)"/>
      </g>
     </g>
    </g>
    <g id="xtick_2">
     <g id="line2d_2">
      <g>
       <use xlink:href="#m0d9c8ab817" x="82.350605" y="111.181443" style="stroke: #000000; stroke-width: 0.8"/>
      </g>
     </g>
     <g id="text_2">
      <!-- $\mathdefault{30}$ -->
      <g transform="translate(77.36927 125.099942) scale(0.1 -0.1)">
       <defs>
        <path id="CMR17-33" d="M 1414 2157 
C 1984 2157 2234 1662 2234 1090 
C 2234 320 1824 25 1453 25 
C 1114 25 563 194 390 693 
C 422 680 454 680 486 680 
C 640 680 755 782 755 948 
C 755 1133 614 1216 486 1216 
C 378 1216 211 1165 211 926 
C 211 335 787 -128 1466 -128 
C 2176 -128 2720 430 2720 1085 
C 2720 1707 2208 2157 1600 2227 
C 2086 2328 2554 2756 2554 3329 
C 2554 3820 2048 4179 1472 4179 
C 890 4179 378 3829 378 3329 
C 378 3110 544 3072 627 3072 
C 762 3072 877 3155 877 3321 
C 877 3486 762 3569 627 3569 
C 602 3569 570 3569 544 3557 
C 730 3959 1235 4032 1459 4032 
C 1683 4032 2106 3925 2106 3320 
C 2106 3143 2080 2828 1862 2550 
C 1670 2304 1453 2304 1242 2284 
C 1210 2284 1062 2269 1037 2269 
C 992 2263 966 2257 966 2208 
C 966 2163 973 2157 1101 2157 
L 1414 2157 
z
" transform="scale(0.015625)"/>
       </defs>
       <use xlink:href="#CMR17-33" transform="scale(0.996264)"/>
       <use xlink:href="#CMR17-30" transform="translate(45.690477 0) scale(0.996264)"/>
      </g>
     </g>
    </g>
    <g id="xtick_3">
     <g id="line2d_3">
      <g>
       <use xlink:href="#m0d9c8ab817" x="111.756106" y="111.181443" style="stroke: #000000; stroke-width: 0.8"/>
      </g>
     </g>
     <g id="text_3">
      <!-- $\mathdefault{60}$ -->
      <g transform="translate(106.774771 125.099942) scale(0.1 -0.1)">
       <defs>
        <path id="CMR17-36" d="M 678 2176 
C 678 3690 1395 4032 1811 4032 
C 1946 4032 2272 4009 2400 3776 
C 2298 3776 2106 3776 2106 3553 
C 2106 3381 2246 3323 2336 3323 
C 2394 3323 2566 3348 2566 3560 
C 2566 3954 2246 4179 1805 4179 
C 1043 4179 243 3390 243 1984 
C 243 253 966 -128 1478 -128 
C 2099 -128 2688 427 2688 1283 
C 2688 2081 2170 2662 1517 2662 
C 1126 2662 838 2407 678 1960 
L 678 2176 
z
M 1478 25 
C 691 25 691 1200 691 1436 
C 691 1896 909 2560 1504 2560 
C 1613 2560 1926 2560 2138 2120 
C 2253 1870 2253 1609 2253 1289 
C 2253 944 2253 690 2118 434 
C 1978 171 1773 25 1478 25 
z
" transform="scale(0.015625)"/>
       </defs>
       <use xlink:href="#CMR17-36" transform="scale(0.996264)"/>
       <use xlink:href="#CMR17-30" transform="translate(45.690477 0) scale(0.996264)"/>
      </g>
     </g>
    </g>
    <g id="xtick_4">
     <g id="line2d_4">
      <g>
       <use xlink:href="#m0d9c8ab817" x="141.161607" y="111.181443" style="stroke: #000000; stroke-width: 0.8"/>
      </g>
     </g>
     <g id="text_4">
      <!-- $\mathdefault{90}$ -->
      <g transform="translate(136.180271 125.099942) scale(0.1 -0.1)">
       <defs>
        <path id="CMR17-39" d="M 2253 1864 
C 2253 464 1670 31 1190 31 
C 1043 31 685 31 538 294 
C 704 268 826 357 826 518 
C 826 692 685 749 595 749 
C 538 749 365 723 365 506 
C 365 71 742 -128 1203 -128 
C 1939 -128 2688 674 2688 2073 
C 2688 3817 1971 4179 1485 4179 
C 851 4179 243 3628 243 2778 
C 243 1991 762 1408 1414 1408 
C 1952 1408 2189 1903 2253 2112 
L 2253 1864 
z
M 1427 1510 
C 1254 1510 1011 1542 813 1922 
C 678 2169 678 2461 678 2771 
C 678 3146 678 3405 858 3684 
C 947 3817 1114 4032 1485 4032 
C 2240 4032 2240 2885 2240 2632 
C 2240 2182 2035 1510 1427 1510 
z
" transform="scale(0.015625)"/>
       </defs>
       <use xlink:href="#CMR17-39" transform="scale(0.996264)"/>
       <use xlink:href="#CMR17-30" transform="translate(45.690477 0) scale(0.996264)"/>
      </g>
     </g>
    </g>
    <g id="xtick_5">
     <g id="line2d_5">
      <g>
       <use xlink:href="#m0d9c8ab817" x="170.567108" y="111.181443" style="stroke: #000000; stroke-width: 0.8"/>
      </g>
     </g>
     <g id="text_5">
      <!-- $\mathdefault{120}$ -->
      <g transform="translate(163.095105 125.099942) scale(0.1 -0.1)">
       <defs>
        <path id="CMR17-31" d="M 1702 4058 
C 1702 4192 1696 4192 1606 4192 
C 1357 3916 979 3827 621 3827 
C 602 3827 570 3827 563 3808 
C 557 3795 557 3782 557 3648 
C 755 3648 1088 3686 1344 3839 
L 1344 461 
C 1344 236 1331 160 781 160 
L 589 160 
L 589 0 
C 896 0 1216 0 1523 0 
C 1830 0 2150 0 2458 0 
L 2458 160 
L 2266 160 
C 1715 160 1702 230 1702 458 
L 1702 4058 
z
" transform="scale(0.015625)"/>
        <path id="CMR17-32" d="M 2669 989 
L 2554 989 
C 2490 536 2438 459 2413 420 
C 2381 369 1920 369 1830 369 
L 602 369 
C 832 619 1280 1072 1824 1597 
C 2214 1967 2669 2402 2669 3035 
C 2669 3790 2067 4224 1395 4224 
C 691 4224 262 3604 262 3030 
C 262 2780 448 2748 525 2748 
C 589 2748 781 2787 781 3010 
C 781 3207 614 3264 525 3264 
C 486 3264 448 3258 422 3245 
C 544 3790 915 4058 1306 4058 
C 1862 4058 2227 3617 2227 3035 
C 2227 2479 1901 2000 1536 1584 
L 262 146 
L 262 0 
L 2515 0 
L 2669 989 
z
" transform="scale(0.015625)"/>
       </defs>
       <use xlink:href="#CMR17-31" transform="scale(0.996264)"/>
       <use xlink:href="#CMR17-32" transform="translate(45.690477 0) scale(0.996264)"/>
       <use xlink:href="#CMR17-30" transform="translate(91.380954 0) scale(0.996264)"/>
      </g>
     </g>
    </g>
    <g id="xtick_6">
     <g id="line2d_6">
      <g>
       <use xlink:href="#m0d9c8ab817" x="199.972609" y="111.181443" style="stroke: #000000; stroke-width: 0.8"/>
      </g>
     </g>
     <g id="text_6">
      <!-- $\mathdefault{150}$ -->
      <g transform="translate(192.500606 125.099942) scale(0.1 -0.1)">
       <defs>
        <path id="CMR17-35" d="M 730 3692 
C 794 3666 1056 3584 1325 3584 
C 1920 3584 2246 3911 2432 4100 
C 2432 4157 2432 4192 2394 4192 
C 2387 4192 2374 4192 2323 4163 
C 2099 4058 1837 3973 1517 3973 
C 1325 3973 1037 3999 723 4139 
C 653 4171 640 4171 634 4171 
C 602 4171 595 4164 595 4037 
L 595 2203 
C 595 2089 595 2057 659 2057 
C 691 2057 704 2070 736 2114 
C 941 2401 1222 2522 1542 2522 
C 1766 2522 2246 2382 2246 1289 
C 2246 1085 2246 715 2054 421 
C 1894 159 1645 25 1370 25 
C 947 25 518 320 403 814 
C 429 807 480 795 506 795 
C 589 795 749 840 749 1038 
C 749 1210 627 1280 506 1280 
C 358 1280 262 1190 262 1011 
C 262 454 704 -128 1382 -128 
C 2042 -128 2669 440 2669 1264 
C 2669 2030 2170 2624 1549 2624 
C 1222 2624 947 2503 730 2274 
L 730 3692 
z
" transform="scale(0.015625)"/>
       </defs>
       <use xlink:href="#CMR17-31" transform="scale(0.996264)"/>
       <use xlink:href="#CMR17-35" transform="translate(45.690477 0) scale(0.996264)"/>
       <use xlink:href="#CMR17-30" transform="translate(91.380954 0) scale(0.996264)"/>
      </g>
     </g>
    </g>
    <g id="xtick_7">
     <g id="line2d_7">
      <g>
       <use xlink:href="#m0d9c8ab817" x="229.37811" y="111.181443" style="stroke: #000000; stroke-width: 0.8"/>
      </g>
     </g>
     <g id="text_7">
      <!-- $\mathdefault{180}$ -->
      <g transform="translate(221.906107 125.099942) scale(0.1 -0.1)">
       <defs>
        <path id="CMR17-38" d="M 1741 2264 
C 2144 2467 2554 2773 2554 3263 
C 2554 3841 1990 4179 1472 4179 
C 890 4179 378 3759 378 3180 
C 378 3021 416 2747 666 2505 
C 730 2442 998 2251 1171 2130 
C 883 1983 211 1634 211 934 
C 211 279 838 -128 1459 -128 
C 2144 -128 2720 362 2720 1010 
C 2720 1590 2330 1857 2074 2029 
L 1741 2264 
z
M 902 2822 
C 851 2854 595 3051 595 3351 
C 595 3739 998 4032 1459 4032 
C 1965 4032 2336 3676 2336 3262 
C 2336 2669 1670 2331 1638 2331 
C 1632 2331 1626 2331 1574 2370 
L 902 2822 
z
M 2080 1519 
C 2176 1449 2483 1240 2483 851 
C 2483 381 2010 25 1472 25 
C 890 25 448 438 448 940 
C 448 1443 838 1862 1280 2060 
L 2080 1519 
z
" transform="scale(0.015625)"/>
       </defs>
       <use xlink:href="#CMR17-31" transform="scale(0.996264)"/>
       <use xlink:href="#CMR17-38" transform="translate(45.690477 0) scale(0.996264)"/>
       <use xlink:href="#CMR17-30" transform="translate(91.380954 0) scale(0.996264)"/>
      </g>
     </g>
    </g>
    <g id="text_8">
     <!-- $\phi (^o)$ -->
     <g transform="translate(132.103891 138.5091) scale(0.1 -0.1)">
      <defs>
       <path id="CMMI12-1e" d="M 2752 4390 
C 2752 4448 2707 4448 2688 4448 
C 2630 4448 2624 4435 2598 4326 
L 2253 2939 
C 2234 2856 2227 2849 2221 2843 
C 2214 2830 2170 2824 2157 2824 
C 1107 2734 301 1864 301 1057 
C 301 361 832 -64 1498 -64 
C 1446 -261 1402 -463 1350 -659 
C 1261 -995 1210 -1204 1210 -1229 
C 1210 -1241 1210 -1280 1274 -1280 
C 1293 -1280 1318 -1280 1331 -1254 
C 1344 -1241 1382 -1089 1408 -1008 
L 1645 -64 
C 2739 -64 3571 854 3571 1680 
C 3571 2343 3085 2816 2374 2816 
L 2752 4390 
z
M 2336 2701 
C 2758 2701 3181 2463 3181 1828 
C 3181 1097 2675 128 1677 50 
L 2336 2701 
z
M 1530 50 
C 1216 50 691 220 691 938 
C 691 1761 1274 2676 2195 2676 
L 1530 50 
z
" transform="scale(0.015625)"/>
       <path id="CMR17-28" d="M 1958 -1561 
C 1958 -1555 1958 -1542 1939 -1523 
C 1645 -1224 858 -407 858 1581 
C 858 3569 1632 4379 1946 4697 
C 1946 4704 1958 4717 1958 4736 
C 1958 4755 1939 4768 1914 4768 
C 1843 4768 1299 4296 986 3594 
C 666 2887 576 2199 576 1588 
C 576 1128 621 351 1005 -471 
C 1312 -1135 1837 -1600 1914 -1600 
C 1946 -1600 1958 -1587 1958 -1561 
z
" transform="scale(0.015625)"/>
       <path id="CMMI12-6f" d="M 2918 1756 
C 2918 2363 2522 2816 1939 2816 
C 1094 2816 262 1897 262 996 
C 262 390 659 -64 1242 -64 
C 2093 -64 2918 856 2918 1756 
z
M 1248 64 
C 928 64 691 319 691 766 
C 691 1060 845 1712 1024 2031 
C 1312 2523 1670 2689 1933 2689 
C 2246 2689 2490 2433 2490 1986 
C 2490 1731 2355 1047 2112 658 
C 1850 230 1498 64 1248 64 
z
" transform="scale(0.015625)"/>
       <path id="CMR17-29" d="M 1683 1581 
C 1683 2040 1638 2817 1254 3639 
C 947 4303 422 4768 346 4768 
C 326 4768 301 4761 301 4729 
C 301 4717 307 4710 314 4697 
C 621 4378 1402 3568 1402 1584 
C 1402 -407 627 -1217 314 -1537 
C 307 -1549 301 -1556 301 -1568 
C 301 -1600 326 -1600 346 -1600 
C 416 -1600 960 -1128 1274 -426 
C 1594 281 1683 969 1683 1581 
z
" transform="scale(0.015625)"/>
      </defs>
      <use xlink:href="#CMMI12-1e" transform="scale(0.996264)"/>
      <use xlink:href="#CMR17-28" transform="translate(57.73418 0) scale(0.996264)"/>
      <use xlink:href="#CMMI12-6f" transform="translate(93.014948 36.153639) scale(0.697382)"/>
      <use xlink:href="#CMR17-29" transform="translate(126.339642 0) scale(0.996264)"/>
     </g>
    </g>
   </g>
   <g id="matplotlib.axis_2">
    <g id="ytick_1">
     <g id="line2d_8">
      <defs>
       <path id="m8cd630c858" d="M 0 0 
L -3.5 0 
" style="stroke: #000000; stroke-width: 0.8"/>
      </defs>
      <g>
       <use xlink:href="#m8cd630c858" x="44.123453" y="81.725073" style="stroke: #000000; stroke-width: 0.8"/>
      </g>
     </g>
     <g id="text_9">
      <!-- $\mathdefault{10^{-1}}$ -->
      <g transform="translate(16.96288 85.184323) scale(0.1 -0.1)">
       <defs>
        <path id="CMSY10-0" d="M 4218 1472 
C 4326 1472 4442 1472 4442 1600 
C 4442 1728 4326 1728 4218 1728 
L 755 1728 
C 646 1728 531 1728 531 1600 
C 531 1472 646 1472 755 1472 
L 4218 1472 
z
" transform="scale(0.015625)"/>
       </defs>
       <use xlink:href="#CMR17-31" transform="scale(0.996264)"/>
       <use xlink:href="#CMR17-30" transform="translate(45.690477 0) scale(0.996264)"/>
       <use xlink:href="#CMSY10-0" transform="translate(91.380954 36.153639) scale(0.697382)"/>
       <use xlink:href="#CMR17-31" transform="translate(145.621947 36.153639) scale(0.697382)"/>
      </g>
     </g>
    </g>
    <g id="ytick_2">
     <g id="line2d_9">
      <g>
       <use xlink:href="#m8cd630c858" x="44.123453" y="36.443458" style="stroke: #000000; stroke-width: 0.8"/>
      </g>
     </g>
     <g id="text_10">
      <!-- $\mathdefault{10^{1}}$ -->
      <g transform="translate(23.189545 39.902707) scale(0.1 -0.1)">
       <use xlink:href="#CMR17-31" transform="scale(0.996264)"/>
       <use xlink:href="#CMR17-30" transform="translate(45.690477 0) scale(0.996264)"/>
       <use xlink:href="#CMR17-31" transform="translate(91.380954 36.153639) scale(0.697382)"/>
      </g>
     </g>
    </g>
    <g id="text_11">
     <!-- $\sigma / \lambda$ -->
     <g transform="translate(10.47222 65.512401) rotate(-90) scale(0.1 -0.1)">
      <defs>
       <path id="CMMI12-1b" d="M 3251 2408 
C 3334 2408 3546 2408 3546 2612 
C 3546 2752 3424 2752 3309 2752 
L 1894 2752 
C 934 2752 243 1686 243 932 
C 243 390 595 -64 1171 -64 
C 1926 -64 2752 747 2752 1705 
C 2752 1954 2694 2196 2541 2408 
L 3251 2408 
z
M 1178 64 
C 851 64 614 313 614 754 
C 614 1137 845 2408 1786 2408 
C 2061 2408 2368 2274 2368 1781 
C 2368 1558 2266 1021 2042 652 
C 1811 275 1466 64 1178 64 
z
" transform="scale(0.015625)"/>
       <path id="CMMI12-3d" d="M 2746 4562 
C 2746 4569 2784 4666 2784 4678 
C 2784 4755 2720 4800 2669 4800 
C 2637 4800 2579 4800 2528 4659 
L 384 -1363 
C 384 -1370 346 -1465 346 -1478 
C 346 -1555 410 -1600 461 -1600 
C 499 -1600 557 -1593 602 -1459 
L 2746 4562 
z
" transform="scale(0.015625)"/>
       <path id="CMMI12-15" d="M 1978 3965 
C 1818 4416 1312 4416 1229 4416 
C 1190 4416 1120 4416 1120 4352 
C 1120 4302 1158 4295 1190 4289 
C 1286 4276 1363 4263 1466 4080 
C 1530 3959 2189 2059 2189 2046 
C 2189 2040 2182 2033 2131 1982 
L 467 311 
C 390 234 339 183 339 102 
C 339 12 416 -64 518 -64 
C 544 -64 614 -51 653 -13 
C 755 82 1670 1194 2253 1881 
C 2419 1383 2624 797 2822 261 
C 2854 166 2886 76 2976 -6 
C 3040 -64 3053 -64 3232 -64 
L 3354 -64 
C 3379 -64 3424 -64 3424 -13 
C 3424 13 3418 19 3392 45 
C 3334 115 3290 229 3264 306 
L 1978 3965 
z
" transform="scale(0.015625)"/>
      </defs>
      <use xlink:href="#CMMI12-1b" transform="scale(0.996264)"/>
      <use xlink:href="#CMMI12-3d" transform="translate(59.020054 0) scale(0.996264)"/>
      <use xlink:href="#CMMI12-15" transform="translate(107.794972 0) scale(0.996264)"/>
     </g>
    </g>
   </g>
   <g id="line2d_10">
    <path d="M 52.945104 28.313584 
L 55.885654 28.413964 
L 58.826204 28.716089 
L 61.766754 29.222973 
L 64.707304 29.939815 
L 67.647854 30.874295 
L 70.588404 32.03703 
L 73.528954 33.442255 
L 76.469505 35.108825 
L 79.410055 37.061705 
L 82.350605 39.334206 
L 85.291155 41.971435 
L 88.231705 45.035743 
L 90.192072 47.358103 
L 92.152438 49.944202 
L 94.112805 52.840165 
L 96.073172 56.106528 
L 98.033539 59.822169 
L 99.993905 64.084395 
L 101.954272 68.986145 
L 105.875006 79.920577 
L 106.855189 81.960129 
L 107.835372 83.018661 
L 108.815556 82.895386 
L 109.795739 81.772909 
L 110.775922 80.057877 
L 113.716472 74.36056 
L 115.676839 71.206533 
L 117.637206 68.70458 
L 119.597573 66.765736 
L 121.557939 65.295449 
L 123.518306 64.217639 
L 125.478673 63.4749 
L 127.43904 63.024629 
L 129.399406 62.835338 
L 131.359773 62.883858 
L 133.32014 63.153319 
L 135.280507 63.631711 
L 137.240873 64.310829 
L 139.20124 65.185455 
L 141.161607 66.252651 
L 143.121973 67.510999 
L 145.08234 68.959626 
L 148.02289 71.484518 
L 150.96344 74.40765 
L 154.884174 78.764091 
L 157.824724 82.045544 
L 159.785091 83.959834 
L 161.745457 85.411446 
L 162.725641 85.904099 
L 163.705824 86.222599 
L 164.686008 86.365486 
L 165.666191 86.34191 
L 166.646374 86.169873 
L 168.606741 85.478058 
L 170.567108 84.492797 
L 178.408575 80.184866 
L 182.329308 78.382151 
L 198.992425 71.156918 
L 206.833892 67.545534 
L 210.754626 65.949135 
L 214.675359 64.592719 
L 218.596093 63.523009 
L 221.536643 62.926532 
L 224.477193 62.514734 
L 227.417743 62.291851 
L 229.37811 62.249309 
L 229.37811 62.249309 
" clip-path="url(#p14302a95b9)" style="fill: none; stroke: #0000ff; stroke-width: 0.75; stroke-linecap: square"/>
   </g>
   <g id="line2d_11">
    <path d="M 52.945104 55.487968 
L 54.905471 55.642803 
L 56.865837 56.109345 
L 58.826204 56.893156 
L 60.786571 58.001234 
L 62.746937 59.436721 
L 64.707304 61.186528 
L 67.647854 64.251448 
L 69.608221 66.299419 
L 70.588404 67.176741 
L 71.568588 67.858828 
L 72.548771 68.268285 
L 73.528954 68.34382 
L 74.509138 68.058545 
L 75.489321 67.429149 
L 76.469505 66.509947 
L 78.429871 64.103571 
L 83.330788 57.501041 
L 85.291155 55.211862 
L 87.251522 53.212347 
L 89.211888 51.499601 
L 91.172255 50.059485 
L 93.132622 48.875369 
L 95.092989 47.931699 
L 97.053355 47.21532 
L 99.013722 46.715858 
L 100.974089 46.425762 
L 102.934455 46.340236 
L 104.894822 46.457208 
L 106.855189 46.777375 
L 108.815556 47.304375 
L 110.775922 48.045131 
L 112.736289 49.010425 
L 114.696656 50.21581 
L 116.657023 51.683023 
L 118.617389 53.44219 
L 120.577756 55.535363 
L 122.538123 58.022393 
L 124.49849 60.99118 
L 126.458856 64.576811 
L 128.419223 69.000438 
L 129.399406 71.638773 
L 130.37959 74.657538 
L 131.359773 78.169985 
L 132.339956 82.347899 
L 133.32014 87.460246 
L 134.300323 93.912547 
L 135.280507 101.981351 
L 136.26069 108.580855 
L 137.240873 104.867289 
L 138.221057 97.129425 
L 139.20124 90.80134 
L 140.181423 85.942218 
L 141.161607 82.118396 
L 142.14179 79.024584 
L 143.121973 76.466277 
L 144.102157 74.31664 
L 145.08234 72.489656 
L 146.062524 70.924765 
L 148.02289 68.416126 
L 149.983257 66.552339 
L 151.943624 65.189232 
L 153.903991 64.233433 
L 155.864357 63.621242 
L 157.824724 63.30735 
L 159.785091 63.258327 
L 161.745457 63.44859 
L 163.705824 63.857704 
L 165.666191 64.468381 
L 167.626558 65.264796 
L 170.567108 66.772123 
L 173.507658 68.595348 
L 177.428391 71.342126 
L 181.349125 74.056802 
L 183.309491 75.188963 
L 185.269858 76.024464 
L 187.230225 76.46073 
L 188.210408 76.507444 
L 189.190592 76.435769 
L 191.150958 75.950259 
L 193.111325 75.065586 
L 195.071692 73.879456 
L 198.012242 71.760133 
L 205.853709 65.813278 
L 208.794259 63.837822 
L 211.734809 62.089002 
L 214.675359 60.589857 
L 217.615909 59.35339 
L 220.556459 58.386941 
L 223.49701 57.694583 
L 226.43756 57.278486 
L 229.37811 57.139686 
L 229.37811 57.139686 
" clip-path="url(#p14302a95b9)" style="fill: none; stroke: #ff0000; stroke-width: 0.75; stroke-linecap: square"/>
   </g>
   <g id="line2d_12">
    <path d="M 52.945104 38.778804 
L 55.885654 38.905532 
L 58.826204 39.286247 
L 61.766754 39.922398 
L 64.707304 40.815853 
L 67.647854 41.967846 
L 70.588404 43.376941 
L 73.528954 45.035263 
L 76.469505 46.921694 
L 80.390238 49.706632 
L 86.271338 53.90841 
L 88.231705 55.080768 
L 90.192072 56.015543 
L 92.152438 56.652495 
L 94.112805 56.964323 
L 96.073172 56.965605 
L 98.033539 56.707464 
L 100.974089 55.991483 
L 110.775922 53.187498 
L 113.716472 52.638772 
L 116.657023 52.289948 
L 119.597573 52.142434 
L 122.538123 52.18875 
L 125.478673 52.415849 
L 129.399406 52.96877 
L 133.32014 53.754977 
L 140.181423 55.43747 
L 145.08234 56.570645 
L 148.02289 57.082608 
L 150.96344 57.398187 
L 153.903991 57.484032 
L 156.844541 57.338445 
L 159.785091 56.991202 
L 163.705824 56.305587 
L 177.428391 53.653691 
L 182.329308 53.054181 
L 187.230225 52.716231 
L 192.131142 52.621937 
L 198.012242 52.769977 
L 205.853709 53.243567 
L 219.576276 54.125696 
L 226.43756 54.335743 
L 229.37811 54.357139 
L 229.37811 54.357139 
" clip-path="url(#p14302a95b9)" style="fill: none; stroke: #00bfbf; stroke-width: 0.75; stroke-linecap: square"/>
   </g>
   <g id="line2d_13">
    <path d="M 52.945104 28.291833 
L 55.885654 28.408229 
L 58.826204 28.748122 
L 61.766754 29.296488 
L 64.707304 30.041688 
L 67.647854 30.982983 
L 70.588404 32.129911 
L 73.528954 33.496494 
L 76.469505 35.097689 
L 79.410055 36.954306 
L 82.350605 39.108066 
L 84.310972 40.748093 
L 86.271338 42.595654 
L 88.231705 44.703256 
L 90.192072 47.135127 
L 92.152438 49.963312 
L 94.112805 53.261211 
L 96.073172 57.095518 
L 98.033539 61.517803 
L 99.993905 66.557776 
L 101.954272 72.209857 
L 105.875006 83.996468 
L 106.855189 85.816467 
L 107.835372 86.318532 
L 108.815556 85.400848 
L 109.795739 83.460555 
L 113.716472 73.990559 
L 115.676839 70.359143 
L 116.657023 68.888881 
L 117.637206 67.631571 
L 118.617389 66.572895 
L 119.597573 65.699419 
L 120.577756 64.998872 
L 121.557939 64.459792 
L 122.538123 64.070947 
L 123.518306 63.820368 
L 125.478673 63.677014 
L 127.43904 63.885085 
L 131.359773 64.559329 
L 133.32014 64.688857 
L 138.221057 64.686608 
L 140.181423 64.985933 
L 142.14179 65.630214 
L 144.102157 66.656068 
L 146.062524 68.084141 
L 148.02289 69.954596 
L 149.983257 72.337617 
L 151.943624 75.309178 
L 153.903991 78.893246 
L 156.844541 85.086029 
L 158.804907 89.049664 
L 159.785091 90.658741 
L 160.765274 91.847709 
L 161.745457 92.517676 
L 162.725641 92.630537 
L 163.705824 92.223134 
L 164.686008 91.395234 
L 166.646374 89.003332 
L 169.586924 85.179072 
L 171.547291 83.102517 
L 173.507658 81.480674 
L 175.468025 80.207497 
L 177.428391 79.165905 
L 179.388758 78.299688 
L 181.349125 77.612583 
L 183.309491 77.116145 
L 186.250042 76.64046 
L 189.190592 76.159435 
L 191.150958 75.617142 
L 193.111325 74.800473 
L 195.071692 73.711092 
L 198.012242 71.736082 
L 201.932975 69.052524 
L 204.873526 67.37767 
L 206.833892 66.488101 
L 208.794259 65.774346 
L 211.734809 64.974326 
L 215.655543 64.207911 
L 227.417743 62.197917 
L 229.37811 62.114535 
L 229.37811 62.114535 
" clip-path="url(#p14302a95b9)" style="fill: none; stroke-dasharray: 2.775,1.2; stroke-dashoffset: 0; stroke: #0000ff; stroke-width: 0.75"/>
   </g>
   <g id="line2d_14">
    <path d="M 52.945104 54.313332 
L 53.925287 54.394498 
L 54.905471 54.609505 
L 55.885654 54.954387 
L 57.846021 56.00684 
L 59.806387 57.475669 
L 61.766754 59.249745 
L 67.647854 64.889397 
L 69.608221 66.314855 
L 70.588404 66.846457 
L 71.568588 67.225934 
L 72.548771 67.427588 
L 73.528954 67.425779 
L 74.509138 67.199176 
L 75.489321 66.736807 
L 76.469505 66.04348 
L 77.449688 65.142064 
L 79.410055 62.87891 
L 84.310972 56.634166 
L 86.271338 54.502713 
L 88.231705 52.687055 
L 90.192072 51.168584 
L 92.152438 49.909333 
L 94.112805 48.871352 
L 96.073172 48.026153 
L 98.033539 47.357797 
L 99.993905 46.863107 
L 101.954272 46.55038 
L 103.914639 46.436951 
L 105.875006 46.545472 
L 107.835372 46.899307 
L 109.795739 47.518043 
L 111.756106 48.414215 
L 113.716472 49.592352 
L 115.676839 51.050663 
L 117.637206 52.785843 
L 119.597573 54.801239 
L 121.557939 57.118474 
L 123.518306 59.792158 
L 125.478673 62.928673 
L 127.43904 66.713187 
L 128.419223 68.939235 
L 129.399406 71.45991 
L 130.37959 74.352755 
L 131.359773 77.724827 
L 132.339956 81.725842 
L 133.32014 86.55798 
L 134.300323 92.419848 
L 135.280507 98.981238 
L 136.26069 103.049225 
L 137.240873 100.052081 
L 139.20124 88.802338 
L 140.181423 84.539309 
L 141.161607 81.130469 
L 142.14179 78.368597 
L 143.121973 76.099215 
L 144.102157 74.211205 
L 145.08234 72.623025 
L 146.062524 71.273044 
L 148.02289 69.106003 
L 149.983257 67.433216 
L 151.943624 66.082392 
L 153.903991 64.960482 
L 155.864357 64.039488 
L 157.824724 63.340597 
L 159.785091 62.913582 
L 161.745457 62.814283 
L 163.705824 63.084673 
L 165.666191 63.737042 
L 167.626558 64.743469 
L 169.586924 66.030464 
L 176.448208 70.910876 
L 178.408575 71.95021 
L 181.349125 73.181787 
L 186.250042 74.898439 
L 188.210408 75.396484 
L 190.170775 75.554457 
L 191.150958 75.445549 
L 192.131142 75.190009 
L 193.111325 74.784254 
L 195.071692 73.564426 
L 197.032059 71.954316 
L 201.932975 67.628292 
L 203.893342 66.145933 
L 205.853709 64.867256 
L 208.794259 63.256237 
L 212.714992 61.411307 
L 217.615909 59.316403 
L 220.556459 58.256731 
L 223.49701 57.452812 
L 226.43756 56.956531 
L 229.37811 56.785964 
L 229.37811 56.785964 
" clip-path="url(#p14302a95b9)" style="fill: none; stroke-dasharray: 2.775,1.2; stroke-dashoffset: 0; stroke: #ff0000; stroke-width: 0.75"/>
   </g>
   <g id="line2d_15">
    <path d="M 52.945104 37.818393 
L 54.905471 37.936181 
L 56.865837 38.254796 
L 59.806387 39.021074 
L 64.707304 40.64146 
L 69.608221 42.379761 
L 72.548771 43.667543 
L 74.509138 44.743567 
L 76.469505 46.037957 
L 78.429871 47.553344 
L 81.370421 50.148818 
L 85.291155 53.726801 
L 87.251522 55.291233 
L 89.211888 56.539376 
L 91.172255 57.36454 
L 92.152438 57.593356 
L 93.132622 57.69263 
L 94.112805 57.663031 
L 96.073172 57.251009 
L 98.033539 56.484906 
L 102.934455 54.27612 
L 104.894822 53.669118 
L 106.855189 53.295916 
L 109.795739 53.057757 
L 114.696656 52.784572 
L 121.557939 52.152781 
L 123.518306 52.21104 
L 125.478673 52.452024 
L 128.419223 53.071414 
L 132.339956 53.915698 
L 135.280507 54.296857 
L 139.20124 54.731707 
L 142.14179 55.330759 
L 145.08234 56.220628 
L 148.02289 57.152066 
L 149.983257 57.563685 
L 151.943624 57.647712 
L 153.903991 57.369597 
L 156.844541 56.518582 
L 159.785091 55.683827 
L 161.745457 55.343576 
L 163.705824 55.197215 
L 170.567108 54.967316 
L 172.527474 54.609959 
L 175.468025 53.813846 
L 179.388758 52.759251 
L 181.349125 52.436957 
L 183.309491 52.305692 
L 186.250042 52.422795 
L 195.071692 53.227031 
L 211.734809 53.772464 
L 222.516826 54.212862 
L 229.37811 54.316532 
L 229.37811 54.316532 
" clip-path="url(#p14302a95b9)" style="fill: none; stroke-dasharray: 2.775,1.2; stroke-dashoffset: 0; stroke: #00bfbf; stroke-width: 0.75"/>
   </g>
   <g id="patch_3">
    <path d="M 44.123453 111.181443 
L 44.123453 3.00024 
" style="fill: none; stroke: #000000; stroke-width: 0.8; stroke-linejoin: miter; stroke-linecap: square"/>
   </g>
   <g id="patch_4">
    <path d="M 238.19976 111.181443 
L 238.19976 3.00024 
" style="fill: none; stroke: #000000; stroke-width: 0.8; stroke-linejoin: miter; stroke-linecap: square"/>
   </g>
   <g id="patch_5">
    <path d="M 44.123453 111.181443 
L 238.19976 111.181443 
" style="fill: none; stroke: #000000; stroke-width: 0.8; stroke-linejoin: miter; stroke-linecap: square"/>
   </g>
   <g id="patch_6">
    <path d="M 44.123453 3.00024 
L 238.19976 3.00024 
" style="fill: none; stroke: #000000; stroke-width: 0.8; stroke-linejoin: miter; stroke-linecap: square"/>
   </g>
   <g id="legend_1">
    <g id="patch_7">
     <path d="M 81.611336 38.874597 
L 231.19976 38.874597 
Q 233.19976 38.874597 233.19976 36.874597 
L 233.19976 10.00024 
Q 233.19976 8.00024 231.19976 8.00024 
L 81.611336 8.00024 
Q 79.611336 8.00024 79.611336 10.00024 
L 79.611336 36.874597 
Q 79.611336 38.874597 81.611336 38.874597 
z
" style="fill: #ffffff; opacity: 0.8; stroke: #cccccc; stroke-linejoin: miter"/>
    </g>
    <g id="patch_8">
     <path d="M 83.611336 19.00024 
L 103.611336 19.00024 
L 103.611336 12.00024 
L 83.611336 12.00024 
z
" style="fill: #0000ff; stroke: #0000ff; stroke-linejoin: miter"/>
    </g>
    <g id="text_12">
     <!-- $\varepsilon_r = 2$ -->
     <g transform="translate(111.611336 19.00024) scale(0.1 -0.1)">
      <defs>
       <path id="CMMI12-22" d="M 890 1427 
C 1094 1345 1312 1345 1434 1345 
C 1600 1345 1933 1345 1933 1550 
C 1933 1678 1811 1728 1485 1728 
C 1325 1728 1133 1709 909 1613 
C 710 1708 634 1852 634 1990 
C 634 2379 1261 2606 1830 2606 
C 1939 2606 2170 2606 2438 2411 
C 2477 2387 2496 2367 2541 2367 
C 2618 2367 2701 2449 2701 2526 
C 2701 2639 2330 2880 1888 2880 
C 1171 2880 493 2449 493 1972 
C 493 1734 646 1586 755 1509 
C 384 1301 166 961 166 652 
C 166 219 563 -128 1178 -128 
C 2022 -128 2362 424 2362 512 
C 2362 543 2336 568 2304 568 
C 2272 568 2259 549 2234 512 
C 2163 395 1997 146 1235 146 
C 838 146 314 245 314 686 
C 314 898 474 1214 890 1427 
z
M 1088 1518 
C 1261 1600 1427 1600 1472 1600 
C 1651 1600 1683 1583 1786 1545 
C 1677 1472 1664 1472 1434 1472 
C 1318 1472 1216 1472 1088 1518 
z
" transform="scale(0.015625)"/>
       <path id="CMMI12-72" d="M 2490 2612 
C 2291 2574 2189 2433 2189 2293 
C 2189 2139 2310 2088 2400 2088 
C 2579 2088 2726 2242 2726 2433 
C 2726 2638 2528 2816 2208 2816 
C 1952 2816 1658 2701 1389 2312 
C 1344 2650 1088 2816 832 2816 
C 582 2816 454 2625 378 2484 
C 269 2254 173 1871 173 1839 
C 173 1814 198 1782 243 1782 
C 294 1782 301 1788 339 1935 
C 435 2318 557 2689 813 2689 
C 966 2689 1011 2580 1011 2395 
C 1011 2254 947 2005 902 1807 
L 723 1118 
C 698 996 627 709 595 594 
C 550 428 480 128 480 96 
C 480 6 550 -64 646 -64 
C 717 -64 838 -19 877 109 
C 896 160 1133 1124 1171 1271 
C 1203 1411 1242 1546 1274 1686 
C 1299 1775 1325 1878 1344 1961 
C 1363 2018 1536 2331 1696 2472 
C 1773 2542 1939 2689 2202 2689 
C 2304 2689 2406 2670 2490 2612 
z
" transform="scale(0.015625)"/>
       <path id="CMR17-3d" d="M 4115 2017 
C 4211 2017 4307 2017 4307 2125 
C 4307 2240 4198 2240 4090 2240 
L 512 2240 
C 403 2240 294 2240 294 2125 
C 294 2017 390 2017 486 2017 
L 4115 2017 
z
M 4090 896 
C 4198 896 4307 896 4307 1011 
C 4307 1119 4211 1119 4115 1119 
L 486 1119 
C 390 1119 294 1119 294 1011 
C 294 896 403 896 512 896 
L 4090 896 
z
" transform="scale(0.015625)"/>
      </defs>
      <use xlink:href="#CMMI12-22" transform="scale(0.996264)"/>
      <use xlink:href="#CMMI12-72" transform="translate(45.650192 -14.943915) scale(0.697382)"/>
      <use xlink:href="#CMR17-3d" transform="translate(106.491602 0) scale(0.996264)"/>
      <use xlink:href="#CMR17-32" transform="translate(205.880399 0) scale(0.996264)"/>
     </g>
    </g>
    <g id="patch_9">
     <path d="M 83.611336 32.937418 
L 103.611336 32.937418 
L 103.611336 25.937418 
L 83.611336 25.937418 
z
" style="fill: #ff0000; stroke: #ff0000; stroke-linejoin: miter"/>
    </g>
    <g id="text_13">
     <!-- $\varepsilon_r = 10$ -->
     <g transform="translate(111.611336 32.937418) scale(0.1 -0.1)">
      <use xlink:href="#CMMI12-22" transform="scale(0.996264)"/>
      <use xlink:href="#CMMI12-72" transform="translate(45.650192 -14.943915) scale(0.697382)"/>
      <use xlink:href="#CMR17-3d" transform="translate(106.491602 0) scale(0.996264)"/>
      <use xlink:href="#CMR17-31" transform="translate(205.880399 0) scale(0.996264)"/>
      <use xlink:href="#CMR17-30" transform="translate(251.570876 0) scale(0.996264)"/>
     </g>
    </g>
    <g id="patch_10">
     <path d="M 163.91488 19.00024 
L 183.91488 19.00024 
L 183.91488 12.00024 
L 163.91488 12.00024 
z
" style="fill: #00bfbf; stroke: #00bfbf; stroke-linejoin: miter"/>
    </g>
    <g id="text_14">
     <!-- $\varepsilon_r = 100$ -->
     <g transform="translate(191.91488 19.00024) scale(0.1 -0.1)">
      <use xlink:href="#CMMI12-22" transform="scale(0.996264)"/>
      <use xlink:href="#CMMI12-72" transform="translate(45.650192 -14.943915) scale(0.697382)"/>
      <use xlink:href="#CMR17-3d" transform="translate(106.491602 0) scale(0.996264)"/>
      <use xlink:href="#CMR17-31" transform="translate(205.880399 0) scale(0.996264)"/>
      <use xlink:href="#CMR17-30" transform="translate(251.570876 0) scale(0.996264)"/>
      <use xlink:href="#CMR17-30" transform="translate(297.261353 0) scale(0.996264)"/>
     </g>
    </g>
    <g id="patch_11">
     <path d="M 163.91488 32.937418 
L 183.91488 32.937418 
L 183.91488 25.937418 
L 163.91488 25.937418 
z
" style="stroke: #000000; stroke-linejoin: miter"/>
    </g>
    <g id="text_15">
     <!-- PEC -->
     <g transform="translate(191.91488 32.937418) scale(0.1 -0.1)">
      <defs>
       <path id="CMR17-50" d="M 1267 2042 
L 2291 2042 
C 3117 2042 3718 2578 3718 3184 
C 3718 3791 3130 4352 2291 4352 
L 333 4352 
L 333 4186 
C 774 4186 845 4186 845 3899 
L 845 446 
C 845 160 774 160 333 160 
L 333 0 
C 518 0 858 0 1056 0 
C 1254 0 1594 0 1779 0 
L 1779 160 
C 1338 160 1267 160 1267 446 
L 1267 2042 
z
M 1254 2176 
L 1254 3938 
C 1254 4155 1267 4186 1523 4186 
L 2170 4186 
C 2995 4186 3232 3714 3232 3184 
C 3232 2604 2950 2176 2170 2176 
L 1254 2176 
z
" transform="scale(0.015625)"/>
       <path id="CMR17-45" d="M 3885 1615 
L 3770 1615 
C 3629 676 3546 166 2419 166 
L 1530 166 
C 1274 166 1261 197 1261 414 
L 1261 2176 
L 1862 2176 
C 2464 2176 2522 1960 2522 1430 
L 2637 1430 
L 2637 3081 
L 2522 3081 
C 2522 2557 2464 2342 1862 2342 
L 1261 2342 
L 1261 3913 
C 1261 4128 1274 4160 1530 4160 
L 2406 4160 
C 3398 4160 3514 3769 3603 2929 
L 3718 2929 
L 3565 4325 
L 326 4325 
L 326 4160 
C 768 4160 838 4160 838 3874 
L 838 451 
C 838 166 768 166 326 166 
L 326 0 
L 3654 0 
L 3885 1615 
z
" transform="scale(0.015625)"/>
       <path id="CMR17-43" d="M 3974 4289 
C 3974 4403 3968 4410 3930 4410 
C 3904 4410 3898 4403 3853 4327 
L 3571 3792 
C 3258 4187 2874 4416 2381 4416 
C 1286 4416 294 3456 294 2148 
C 294 826 1286 -128 2387 -128 
C 3366 -128 3974 730 3974 1461 
C 3974 1524 3974 1550 3917 1550 
C 3866 1550 3866 1531 3859 1474 
C 3808 585 3168 38 2477 38 
C 1824 38 781 495 781 2147 
C 781 3805 1843 4250 2464 4250 
C 3187 4250 3712 3628 3834 2745 
C 3846 2668 3846 2655 3904 2655 
C 3974 2655 3974 2668 3974 2783 
L 3974 4289 
z
" transform="scale(0.015625)"/>
      </defs>
      <use xlink:href="#CMR17-50" transform="scale(0.996264)"/>
      <use xlink:href="#CMR17-45" transform="translate(62.586301 0) scale(0.996264)"/>
      <use xlink:href="#CMR17-43" transform="translate(125.172601 0) scale(0.996264)"/>
     </g>
    </g>
   </g>
   <g id="legend_2">
    <g id="patch_12">
     <path d="M 81.611336 38.874597 
L 231.19976 38.874597 
Q 233.19976 38.874597 233.19976 36.874597 
L 233.19976 10.00024 
Q 233.19976 8.00024 231.19976 8.00024 
L 81.611336 8.00024 
Q 79.611336 8.00024 79.611336 10.00024 
L 79.611336 36.874597 
Q 79.611336 38.874597 81.611336 38.874597 
z
" style="fill: #ffffff; opacity: 0.8; stroke: #cccccc; stroke-linejoin: miter"/>
    </g>
    <g id="patch_13">
     <path d="M 83.611336 19.00024 
L 103.611336 19.00024 
L 103.611336 12.00024 
L 83.611336 12.00024 
z
" style="fill: #0000ff; stroke: #0000ff; stroke-linejoin: miter"/>
    </g>
    <g id="text_16">
     <!-- $\varepsilon_r = 2$ -->
     <g transform="translate(111.611336 19.00024) scale(0.1 -0.1)">
      <use xlink:href="#CMMI12-22" transform="scale(0.996264)"/>
      <use xlink:href="#CMMI12-72" transform="translate(45.650192 -14.943915) scale(0.697382)"/>
      <use xlink:href="#CMR17-3d" transform="translate(106.491602 0) scale(0.996264)"/>
      <use xlink:href="#CMR17-32" transform="translate(205.880399 0) scale(0.996264)"/>
     </g>
    </g>
    <g id="patch_14">
     <path d="M 83.611336 32.937418 
L 103.611336 32.937418 
L 103.611336 25.937418 
L 83.611336 25.937418 
z
" style="fill: #ff0000; stroke: #ff0000; stroke-linejoin: miter"/>
    </g>
    <g id="text_17">
     <!-- $\varepsilon_r = 10$ -->
     <g transform="translate(111.611336 32.937418) scale(0.1 -0.1)">
      <use xlink:href="#CMMI12-22" transform="scale(0.996264)"/>
      <use xlink:href="#CMMI12-72" transform="translate(45.650192 -14.943915) scale(0.697382)"/>
      <use xlink:href="#CMR17-3d" transform="translate(106.491602 0) scale(0.996264)"/>
      <use xlink:href="#CMR17-31" transform="translate(205.880399 0) scale(0.996264)"/>
      <use xlink:href="#CMR17-30" transform="translate(251.570876 0) scale(0.996264)"/>
     </g>
    </g>
    <g id="patch_15">
     <path d="M 163.91488 19.00024 
L 183.91488 19.00024 
L 183.91488 12.00024 
L 163.91488 12.00024 
z
" style="fill: #00bfbf; stroke: #00bfbf; stroke-linejoin: miter"/>
    </g>
    <g id="text_18">
     <!-- $\varepsilon_r = 100$ -->
     <g transform="translate(191.91488 19.00024) scale(0.1 -0.1)">
      <use xlink:href="#CMMI12-22" transform="scale(0.996264)"/>
      <use xlink:href="#CMMI12-72" transform="translate(45.650192 -14.943915) scale(0.697382)"/>
      <use xlink:href="#CMR17-3d" transform="translate(106.491602 0) scale(0.996264)"/>
      <use xlink:href="#CMR17-31" transform="translate(205.880399 0) scale(0.996264)"/>
      <use xlink:href="#CMR17-30" transform="translate(251.570876 0) scale(0.996264)"/>
      <use xlink:href="#CMR17-30" transform="translate(297.261353 0) scale(0.996264)"/>
     </g>
    </g>
    <g id="patch_16">
     <path d="M 163.91488 32.937418 
L 183.91488 32.937418 
L 183.91488 25.937418 
L 163.91488 25.937418 
z
" style="stroke: #000000; stroke-linejoin: miter"/>
    </g>
    <g id="text_19">
     <!-- PEC -->
     <g transform="translate(191.91488 32.937418) scale(0.1 -0.1)">
      <use xlink:href="#CMR17-50" transform="scale(0.996264)"/>
      <use xlink:href="#CMR17-45" transform="translate(62.586301 0) scale(0.996264)"/>
      <use xlink:href="#CMR17-43" transform="translate(125.172601 0) scale(0.996264)"/>
     </g>
    </g>
   </g>
  </g>
 </g>
 <defs>
  <clipPath id="p14302a95b9">
   <rect x="44.123453" y="3.00024" width="194.076307" height="108.181203"/>
  </clipPath>
 </defs>
</svg>
