<?xml version="1.0" encoding="utf-8" standalone="no"?>
<!DOCTYPE svg PUBLIC "-//W3C//DTD SVG 1.1//EN"
  "http://www.w3.org/Graphics/SVG/1.1/DTD/svg11.dtd">
<svg xmlns:xlink="http://www.w3.org/1999/xlink" width="241.2pt" height="176.4pt" viewBox="0 0 241.2 176.4" xmlns="http://www.w3.org/2000/svg" version="1.1">
 <metadata>
  <rdf:RDF xmlns:dc="http://purl.org/dc/elements/1.1/" xmlns:cc="http://creativecommons.org/ns#" xmlns:rdf="http://www.w3.org/1999/02/22-rdf-syntax-ns#">
   <cc:Work>
    <dc:type rdf:resource="http://purl.org/dc/dcmitype/StillImage"/>
    <dc:date>2024-04-02T18:45:38.314912</dc:date>
    <dc:format>image/svg+xml</dc:format>
    <dc:creator>
     <cc:Agent>
      <dc:title>Matplotlib v3.6.3, https://matplotlib.org/</dc:title>
     </cc:Agent>
    </dc:creator>
   </cc:Work>
  </rdf:RDF>
 </metadata>
 <defs>
  <style type="text/css">*{stroke-linejoin: round; stroke-linecap: butt}</style>
 </defs>
 <g id="figure_1">
  <g id="patch_1">
   <path d="M 0 176.4 
L 241.2 176.4 
L 241.2 0 
L 0 0 
z
" style="fill: #ffffff"/>
  </g>
  <g id="axes_1">
   <g id="patch_2">
    <path d="M 42.435721 144.688407 
L 238.19976 144.688407 
L 238.19976 3.00024 
L 42.435721 3.00024 
z
" style="fill: #ffffff"/>
   </g>
   <g id="matplotlib.axis_1">
    <g id="xtick_1">
     <g id="line2d_1">
      <defs>
       <path id="mac8d23e874" d="M 0 0 
L 0 3.5 
" style="stroke: #000000; stroke-width: 0.8"/>
      </defs>
      <g>
       <use xlink:href="#mac8d23e874" x="49.946293" y="144.688407" style="stroke: #000000; stroke-width: 0.8"/>
      </g>
     </g>
     <g id="text_1">
      <!-- $\mathdefault{0}$ -->
      <g transform="translate(47.455625 158.606905) scale(0.1 -0.1)">
       <defs>
        <path id="CMR17-30" d="M 2688 2025 
C 2688 2416 2682 3080 2413 3591 
C 2176 4039 1798 4198 1466 4198 
C 1158 4198 768 4058 525 3597 
C 269 3118 243 2524 243 2025 
C 243 1661 250 1106 448 619 
C 723 -39 1216 -128 1466 -128 
C 1760 -128 2208 -7 2470 600 
C 2662 1042 2688 1559 2688 2025 
z
M 1466 -26 
C 1056 -26 813 325 723 812 
C 653 1188 653 1738 653 2096 
C 653 2588 653 2997 736 3387 
C 858 3929 1216 4096 1466 4096 
C 1728 4096 2067 3923 2189 3400 
C 2272 3036 2278 2607 2278 2096 
C 2278 1680 2278 1169 2202 792 
C 2067 95 1690 -26 1466 -26 
z
" transform="scale(0.015625)"/>
       </defs>
       <use xlink:href="#CMR17-30" transform="scale(0.996264)"/>
      </g>
     </g>
    </g>
    <g id="xtick_2">
     <g id="line2d_2">
      <g>
       <use xlink:href="#mac8d23e874" x="85.795221" y="144.688407" style="stroke: #000000; stroke-width: 0.8"/>
      </g>
     </g>
     <g id="text_2">
      <!-- $\mathdefault{1}$ -->
      <g transform="translate(83.304554 158.606905) scale(0.1 -0.1)">
       <defs>
        <path id="CMR17-31" d="M 1702 4058 
C 1702 4192 1696 4192 1606 4192 
C 1357 3916 979 3827 621 3827 
C 602 3827 570 3827 563 3808 
C 557 3795 557 3782 557 3648 
C 755 3648 1088 3686 1344 3839 
L 1344 461 
C 1344 236 1331 160 781 160 
L 589 160 
L 589 0 
C 896 0 1216 0 1523 0 
C 1830 0 2150 0 2458 0 
L 2458 160 
L 2266 160 
C 1715 160 1702 230 1702 458 
L 1702 4058 
z
" transform="scale(0.015625)"/>
       </defs>
       <use xlink:href="#CMR17-31" transform="scale(0.996264)"/>
      </g>
     </g>
    </g>
    <g id="xtick_3">
     <g id="line2d_3">
      <g>
       <use xlink:href="#mac8d23e874" x="121.64415" y="144.688407" style="stroke: #000000; stroke-width: 0.8"/>
      </g>
     </g>
     <g id="text_3">
      <!-- $\mathdefault{2}$ -->
      <g transform="translate(119.153482 158.606905) scale(0.1 -0.1)">
       <defs>
        <path id="CMR17-32" d="M 2669 989 
L 2554 989 
C 2490 536 2438 459 2413 420 
C 2381 369 1920 369 1830 369 
L 602 369 
C 832 619 1280 1072 1824 1597 
C 2214 1967 2669 2402 2669 3035 
C 2669 3790 2067 4224 1395 4224 
C 691 4224 262 3604 262 3030 
C 262 2780 448 2748 525 2748 
C 589 2748 781 2787 781 3010 
C 781 3207 614 3264 525 3264 
C 486 3264 448 3258 422 3245 
C 544 3790 915 4058 1306 4058 
C 1862 4058 2227 3617 2227 3035 
C 2227 2479 1901 2000 1536 1584 
L 262 146 
L 262 0 
L 2515 0 
L 2669 989 
z
" transform="scale(0.015625)"/>
       </defs>
       <use xlink:href="#CMR17-32" transform="scale(0.996264)"/>
      </g>
     </g>
    </g>
    <g id="xtick_4">
     <g id="line2d_4">
      <g>
       <use xlink:href="#mac8d23e874" x="157.493079" y="144.688407" style="stroke: #000000; stroke-width: 0.8"/>
      </g>
     </g>
     <g id="text_4">
      <!-- $\mathdefault{3}$ -->
      <g transform="translate(155.002411 158.606905) scale(0.1 -0.1)">
       <defs>
        <path id="CMR17-33" d="M 1414 2157 
C 1984 2157 2234 1662 2234 1090 
C 2234 320 1824 25 1453 25 
C 1114 25 563 194 390 693 
C 422 680 454 680 486 680 
C 640 680 755 782 755 948 
C 755 1133 614 1216 486 1216 
C 378 1216 211 1165 211 926 
C 211 335 787 -128 1466 -128 
C 2176 -128 2720 430 2720 1085 
C 2720 1707 2208 2157 1600 2227 
C 2086 2328 2554 2756 2554 3329 
C 2554 3820 2048 4179 1472 4179 
C 890 4179 378 3829 378 3329 
C 378 3110 544 3072 627 3072 
C 762 3072 877 3155 877 3321 
C 877 3486 762 3569 627 3569 
C 602 3569 570 3569 544 3557 
C 730 3959 1235 4032 1459 4032 
C 1683 4032 2106 3925 2106 3320 
C 2106 3143 2080 2828 1862 2550 
C 1670 2304 1453 2304 1242 2284 
C 1210 2284 1062 2269 1037 2269 
C 992 2263 966 2257 966 2208 
C 966 2163 973 2157 1101 2157 
L 1414 2157 
z
" transform="scale(0.015625)"/>
       </defs>
       <use xlink:href="#CMR17-33" transform="scale(0.996264)"/>
      </g>
     </g>
    </g>
    <g id="xtick_5">
     <g id="line2d_5">
      <g>
       <use xlink:href="#mac8d23e874" x="193.342007" y="144.688407" style="stroke: #000000; stroke-width: 0.8"/>
      </g>
     </g>
     <g id="text_5">
      <!-- $\mathdefault{4}$ -->
      <g transform="translate(190.85134 158.606905) scale(0.1 -0.1)">
       <defs>
        <path id="CMR17-34" d="M 2150 4122 
C 2150 4256 2144 4256 2029 4256 
L 128 1254 
L 128 1088 
L 1779 1088 
L 1779 457 
C 1779 224 1766 160 1318 160 
L 1197 160 
L 1197 0 
C 1402 0 1747 0 1965 0 
C 2182 0 2528 0 2733 0 
L 2733 160 
L 2611 160 
C 2163 160 2150 224 2150 457 
L 2150 1088 
L 2803 1088 
L 2803 1254 
L 2150 1254 
L 2150 4122 
z
M 1798 3703 
L 1798 1254 
L 256 1254 
L 1798 3703 
z
" transform="scale(0.015625)"/>
       </defs>
       <use xlink:href="#CMR17-34" transform="scale(0.996264)"/>
      </g>
     </g>
    </g>
    <g id="xtick_6">
     <g id="line2d_6">
      <g>
       <use xlink:href="#mac8d23e874" x="229.190936" y="144.688407" style="stroke: #000000; stroke-width: 0.8"/>
      </g>
     </g>
     <g id="text_6">
      <!-- $\mathdefault{5}$ -->
      <g transform="translate(226.700269 158.606905) scale(0.1 -0.1)">
       <defs>
        <path id="CMR17-35" d="M 730 3692 
C 794 3666 1056 3584 1325 3584 
C 1920 3584 2246 3911 2432 4100 
C 2432 4157 2432 4192 2394 4192 
C 2387 4192 2374 4192 2323 4163 
C 2099 4058 1837 3973 1517 3973 
C 1325 3973 1037 3999 723 4139 
C 653 4171 640 4171 634 4171 
C 602 4171 595 4164 595 4037 
L 595 2203 
C 595 2089 595 2057 659 2057 
C 691 2057 704 2070 736 2114 
C 941 2401 1222 2522 1542 2522 
C 1766 2522 2246 2382 2246 1289 
C 2246 1085 2246 715 2054 421 
C 1894 159 1645 25 1370 25 
C 947 25 518 320 403 814 
C 429 807 480 795 506 795 
C 589 795 749 840 749 1038 
C 749 1210 627 1280 506 1280 
C 358 1280 262 1190 262 1011 
C 262 454 704 -128 1382 -128 
C 2042 -128 2669 440 2669 1264 
C 2669 2030 2170 2624 1549 2624 
C 1222 2624 947 2503 730 2274 
L 730 3692 
z
" transform="scale(0.015625)"/>
       </defs>
       <use xlink:href="#CMR17-35" transform="scale(0.996264)"/>
      </g>
     </g>
    </g>
    <g id="text_7">
     <!-- $k b$ -->
     <g transform="translate(135.42982 171.462582) scale(0.1 -0.1)">
      <defs>
       <path id="CMMI12-6b" d="M 1798 4257 
C 1805 4283 1818 4321 1818 4352 
C 1818 4416 1754 4416 1741 4416 
C 1734 4416 1504 4393 1389 4377 
C 1280 4377 1184 4358 1069 4358 
C 915 4345 870 4339 870 4224 
C 870 4160 934 4160 998 4160 
C 1325 4160 1325 4103 1325 4040 
C 1325 4015 1325 4002 1293 3888 
L 378 248 
C 352 152 352 140 352 101 
C 352 -38 461 -64 525 -64 
C 704 -64 742 77 794 275 
L 1094 1469 
C 1555 1418 1830 1226 1830 920 
C 1830 881 1830 856 1811 760 
C 1786 664 1786 588 1786 556 
C 1786 185 2029 -64 2355 -64 
C 2650 -64 2803 204 2854 294 
C 2989 530 3072 888 3072 913 
C 3072 945 3046 971 3008 971 
C 2950 971 2944 945 2918 843 
C 2829 511 2694 64 2368 64 
C 2240 64 2157 128 2157 370 
C 2157 492 2182 632 2208 728 
C 2234 843 2234 849 2234 926 
C 2234 1303 1894 1514 1306 1590 
C 1536 1731 1766 1980 1856 2076 
C 2221 2484 2470 2689 2765 2689 
C 2912 2689 2950 2650 2995 2612 
C 2758 2586 2669 2420 2669 2293 
C 2669 2139 2790 2088 2880 2088 
C 3053 2088 3206 2235 3206 2440 
C 3206 2625 3059 2816 2771 2816 
C 2419 2816 2131 2567 1677 2056 
C 1613 1980 1376 1737 1139 1648 
L 1798 4257 
z
" transform="scale(0.015625)"/>
       <path id="CMMI12-62" d="M 1478 4257 
C 1485 4283 1498 4321 1498 4352 
C 1498 4416 1434 4416 1421 4416 
C 1414 4416 1184 4393 1069 4377 
C 960 4377 864 4358 749 4358 
C 595 4345 550 4339 550 4224 
C 550 4160 614 4160 678 4160 
C 1005 4160 1005 4103 1005 4040 
C 1005 3996 954 3811 928 3696 
L 774 3085 
C 710 2831 346 1387 320 1272 
C 288 1114 288 1005 288 922 
C 288 274 653 -64 1069 -64 
C 1811 -64 2579 888 2579 1814 
C 2579 2401 2246 2816 1766 2816 
C 1434 2816 1133 2542 1011 2414 
L 1478 4257 
z
M 1075 64 
C 870 64 646 217 646 715 
C 646 926 666 1047 781 1494 
C 800 1577 902 1986 928 2069 
C 941 2120 1318 2689 1754 2689 
C 2035 2689 2163 2408 2163 2076 
C 2163 1769 1984 1047 1824 715 
C 1664 370 1370 64 1075 64 
z
" transform="scale(0.015625)"/>
      </defs>
      <use xlink:href="#CMMI12-6b" transform="scale(0.996264)"/>
      <use xlink:href="#CMMI12-62" transform="translate(54.079201 0) scale(0.996264)"/>
     </g>
    </g>
   </g>
   <g id="matplotlib.axis_2">
    <g id="ytick_1">
     <g id="line2d_7">
      <defs>
       <path id="m7ada09ef3b" d="M 0 0 
L -3.5 0 
" style="stroke: #000000; stroke-width: 0.8"/>
      </defs>
      <g>
       <use xlink:href="#m7ada09ef3b" x="42.435721" y="138.136956" style="stroke: #000000; stroke-width: 0.8"/>
      </g>
     </g>
     <g id="text_8">
      <!-- $\mathdefault{0.0}$ -->
      <g transform="translate(22.705642 141.596206) scale(0.1 -0.1)">
       <defs>
        <path id="CMMI12-3a" d="M 1178 307 
C 1178 492 1024 619 870 619 
C 685 619 557 466 557 313 
C 557 128 710 0 864 0 
C 1050 0 1178 153 1178 307 
z
" transform="scale(0.015625)"/>
       </defs>
       <use xlink:href="#CMR17-30" transform="scale(0.996264)"/>
       <use xlink:href="#CMMI12-3a" transform="translate(45.690477 0) scale(0.996264)"/>
       <use xlink:href="#CMR17-30" transform="translate(72.787654 0) scale(0.996264)"/>
      </g>
     </g>
    </g>
    <g id="ytick_2">
     <g id="line2d_8">
      <g>
       <use xlink:href="#m7ada09ef3b" x="42.435721" y="116.686253" style="stroke: #000000; stroke-width: 0.8"/>
      </g>
     </g>
     <g id="text_9">
      <!-- $\mathdefault{0.5}$ -->
      <g transform="translate(22.705642 120.145503) scale(0.1 -0.1)">
       <use xlink:href="#CMR17-30" transform="scale(0.996264)"/>
       <use xlink:href="#CMMI12-3a" transform="translate(45.690477 0) scale(0.996264)"/>
       <use xlink:href="#CMR17-35" transform="translate(72.787654 0) scale(0.996264)"/>
      </g>
     </g>
    </g>
    <g id="ytick_3">
     <g id="line2d_9">
      <g>
       <use xlink:href="#m7ada09ef3b" x="42.435721" y="95.235551" style="stroke: #000000; stroke-width: 0.8"/>
      </g>
     </g>
     <g id="text_10">
      <!-- $\mathdefault{1.0}$ -->
      <g transform="translate(22.705642 98.6948) scale(0.1 -0.1)">
       <use xlink:href="#CMR17-31" transform="scale(0.996264)"/>
       <use xlink:href="#CMMI12-3a" transform="translate(45.690477 0) scale(0.996264)"/>
       <use xlink:href="#CMR17-30" transform="translate(72.787654 0) scale(0.996264)"/>
      </g>
     </g>
    </g>
    <g id="ytick_4">
     <g id="line2d_10">
      <g>
       <use xlink:href="#m7ada09ef3b" x="42.435721" y="73.784848" style="stroke: #000000; stroke-width: 0.8"/>
      </g>
     </g>
     <g id="text_11">
      <!-- $\mathdefault{1.5}$ -->
      <g transform="translate(22.705642 77.244097) scale(0.1 -0.1)">
       <use xlink:href="#CMR17-31" transform="scale(0.996264)"/>
       <use xlink:href="#CMMI12-3a" transform="translate(45.690477 0) scale(0.996264)"/>
       <use xlink:href="#CMR17-35" transform="translate(72.787654 0) scale(0.996264)"/>
      </g>
     </g>
    </g>
    <g id="ytick_5">
     <g id="line2d_11">
      <g>
       <use xlink:href="#m7ada09ef3b" x="42.435721" y="52.334145" style="stroke: #000000; stroke-width: 0.8"/>
      </g>
     </g>
     <g id="text_12">
      <!-- $\mathdefault{2.0}$ -->
      <g transform="translate(22.705642 55.793394) scale(0.1 -0.1)">
       <use xlink:href="#CMR17-32" transform="scale(0.996264)"/>
       <use xlink:href="#CMMI12-3a" transform="translate(45.690477 0) scale(0.996264)"/>
       <use xlink:href="#CMR17-30" transform="translate(72.787654 0) scale(0.996264)"/>
      </g>
     </g>
    </g>
    <g id="ytick_6">
     <g id="line2d_12">
      <g>
       <use xlink:href="#m7ada09ef3b" x="42.435721" y="30.883442" style="stroke: #000000; stroke-width: 0.8"/>
      </g>
     </g>
     <g id="text_13">
      <!-- $\mathdefault{2.5}$ -->
      <g transform="translate(22.705642 34.342691) scale(0.1 -0.1)">
       <use xlink:href="#CMR17-32" transform="scale(0.996264)"/>
       <use xlink:href="#CMMI12-3a" transform="translate(45.690477 0) scale(0.996264)"/>
       <use xlink:href="#CMR17-35" transform="translate(72.787654 0) scale(0.996264)"/>
      </g>
     </g>
    </g>
    <g id="ytick_7">
     <g id="line2d_13">
      <g>
       <use xlink:href="#m7ada09ef3b" x="42.435721" y="9.432739" style="stroke: #000000; stroke-width: 0.8"/>
      </g>
     </g>
     <g id="text_14">
      <!-- $\mathdefault{3.0}$ -->
      <g transform="translate(22.705642 12.891988) scale(0.1 -0.1)">
       <use xlink:href="#CMR17-33" transform="scale(0.996264)"/>
       <use xlink:href="#CMMI12-3a" transform="translate(45.690477 0) scale(0.996264)"/>
       <use xlink:href="#CMR17-30" transform="translate(72.787654 0) scale(0.996264)"/>
      </g>
     </g>
    </g>
    <g id="text_15">
     <!-- $\frac{\left&lt; F_x \right&gt;/L}{b \varepsilon_0 E_0^2}$ -->
     <g transform="translate(13.062482 86.589292) rotate(-90) scale(0.1 -0.1)">
      <defs>
       <path id="CMSY10-68" d="M 2099 4557 
C 2131 4627 2131 4640 2131 4672 
C 2131 4742 2074 4800 2003 4800 
C 1946 4800 1901 4768 1856 4653 
L 736 1715 
C 723 1677 704 1638 704 1600 
C 704 1581 704 1568 736 1491 
L 1856 -1446 
C 1882 -1517 1914 -1600 2003 -1600 
C 2074 -1600 2131 -1542 2131 -1472 
C 2131 -1453 2131 -1440 2099 -1370 
L 966 1600 
L 2099 4557 
z
" transform="scale(0.015625)"/>
       <path id="CMMI12-46" d="M 1901 2055 
L 2515 2055 
C 3002 2055 3040 1946 3040 1761 
C 3040 1678 3027 1589 2995 1448 
C 2982 1423 2976 1391 2976 1378 
C 2976 1333 3002 1308 3046 1308 
C 3098 1308 3104 1333 3130 1435 
L 3501 2935 
C 3501 2961 3482 2999 3437 2999 
C 3379 2999 3373 2974 3347 2863 
C 3213 2376 3085 2240 2528 2240 
L 1946 2240 
L 2362 3926 
C 2419 4154 2432 4154 2694 4154 
L 3552 4154 
C 4352 4154 4467 3918 4467 3464 
C 4467 3426 4467 3285 4448 3119 
C 4442 3094 4429 3011 4429 2985 
C 4429 2934 4461 2915 4499 2915 
C 4544 2915 4570 2941 4582 3055 
L 4717 4174 
C 4717 4195 4730 4263 4730 4277 
C 4730 4352 4672 4352 4557 4352 
L 1523 4352 
C 1402 4352 1338 4352 1338 4229 
C 1338 4154 1382 4154 1491 4154 
C 1888 4154 1888 4113 1888 4050 
C 1888 4018 1882 3992 1862 3922 
L 998 473 
C 941 249 928 185 480 185 
C 358 185 294 185 294 70 
C 294 0 352 0 390 0 
C 512 0 640 0 762 0 
L 1594 0 
C 1734 0 1888 0 2029 0 
C 2086 0 2163 0 2163 115 
C 2163 185 2125 185 1984 185 
C 1478 185 1466 229 1466 324 
C 1466 356 1478 406 1491 449 
L 1901 2055 
z
" transform="scale(0.015625)"/>
       <path id="CMMI12-78" d="M 3034 2606 
C 2829 2567 2752 2414 2752 2293 
C 2752 2139 2874 2088 2963 2088 
C 3155 2088 3290 2254 3290 2427 
C 3290 2695 2982 2816 2714 2816 
C 2323 2816 2106 2433 2048 2312 
C 1901 2816 1504 2816 1389 2816 
C 736 2816 390 1980 390 1839 
C 390 1814 416 1782 461 1782 
C 512 1782 525 1820 538 1846 
C 755 2555 1184 2689 1370 2689 
C 1658 2689 1715 2420 1715 2267 
C 1715 2127 1677 1980 1600 1673 
L 1382 798 
C 1286 415 1101 64 762 64 
C 730 64 570 64 435 147 
C 666 192 717 383 717 460 
C 717 588 621 664 499 664 
C 346 664 179 530 179 326 
C 179 57 480 -64 755 -64 
C 1062 -64 1280 179 1414 441 
C 1517 64 1837 -64 2074 -64 
C 2726 -64 3072 773 3072 913 
C 3072 945 3046 971 3008 971 
C 2950 971 2944 939 2925 888 
C 2752 326 2381 64 2093 64 
C 1869 64 1747 230 1747 492 
C 1747 632 1773 734 1875 1156 
L 2099 2024 
C 2195 2408 2413 2689 2707 2689 
C 2720 2689 2899 2689 3034 2606 
z
" transform="scale(0.015625)"/>
       <path id="CMSY10-69" d="M 1747 1491 
C 1779 1568 1779 1581 1779 1600 
C 1779 1619 1779 1632 1747 1709 
L 627 4653 
C 589 4762 550 4800 480 4800 
C 410 4800 352 4742 352 4672 
C 352 4653 352 4640 384 4570 
L 1517 1600 
L 384 -1357 
C 352 -1427 352 -1440 352 -1472 
C 352 -1542 410 -1600 480 -1600 
C 563 -1600 589 -1536 614 -1472 
L 1747 1491 
z
" transform="scale(0.015625)"/>
       <path id="CMMI12-3d" d="M 2746 4562 
C 2746 4569 2784 4666 2784 4678 
C 2784 4755 2720 4800 2669 4800 
C 2637 4800 2579 4800 2528 4659 
L 384 -1363 
C 384 -1370 346 -1465 346 -1478 
C 346 -1555 410 -1600 461 -1600 
C 499 -1600 557 -1593 602 -1459 
L 2746 4562 
z
" transform="scale(0.015625)"/>
       <path id="CMMI12-4c" d="M 2349 3861 
C 2406 4103 2426 4167 2989 4167 
C 3162 4167 3206 4167 3206 4288 
C 3206 4352 3136 4352 3110 4352 
C 2982 4352 2835 4352 2707 4352 
L 1850 4352 
C 1728 4352 1587 4352 1466 4352 
C 1414 4352 1344 4352 1344 4231 
C 1344 4167 1402 4167 1498 4167 
C 1888 4167 1888 4116 1888 4046 
C 1888 4034 1888 3995 1862 3899 
L 998 472 
C 941 249 928 185 480 185 
C 358 185 294 185 294 70 
C 294 0 333 0 461 0 
L 3328 0 
C 3469 0 3475 6 3520 121 
L 4013 1478 
C 4026 1510 4038 1548 4038 1567 
C 4038 1605 4006 1631 3974 1631 
C 3968 1631 3936 1631 3923 1605 
C 3910 1599 3910 1586 3859 1465 
C 3654 905 3366 185 2285 185 
L 1670 185 
C 1581 185 1568 185 1530 192 
C 1459 198 1453 211 1453 262 
C 1453 307 1466 345 1478 401 
L 2349 3861 
z
" transform="scale(0.015625)"/>
       <path id="CMMI12-22" d="M 890 1427 
C 1094 1345 1312 1345 1434 1345 
C 1600 1345 1933 1345 1933 1550 
C 1933 1678 1811 1728 1485 1728 
C 1325 1728 1133 1709 909 1613 
C 710 1708 634 1852 634 1990 
C 634 2379 1261 2606 1830 2606 
C 1939 2606 2170 2606 2438 2411 
C 2477 2387 2496 2367 2541 2367 
C 2618 2367 2701 2449 2701 2526 
C 2701 2639 2330 2880 1888 2880 
C 1171 2880 493 2449 493 1972 
C 493 1734 646 1586 755 1509 
C 384 1301 166 961 166 652 
C 166 219 563 -128 1178 -128 
C 2022 -128 2362 424 2362 512 
C 2362 543 2336 568 2304 568 
C 2272 568 2259 549 2234 512 
C 2163 395 1997 146 1235 146 
C 838 146 314 245 314 686 
C 314 898 474 1214 890 1427 
z
M 1088 1518 
C 1261 1600 1427 1600 1472 1600 
C 1651 1600 1683 1583 1786 1545 
C 1677 1472 1664 1472 1434 1472 
C 1318 1472 1216 1472 1088 1518 
z
" transform="scale(0.015625)"/>
       <path id="CMMI12-45" d="M 4448 1489 
C 4454 1508 4474 1554 4474 1579 
C 4474 1611 4448 1643 4410 1643 
C 4384 1643 4371 1637 4352 1617 
C 4339 1611 4339 1598 4282 1469 
C 3904 570 3629 185 2605 185 
L 1670 185 
C 1581 185 1568 185 1530 192 
C 1459 198 1453 211 1453 262 
C 1453 307 1466 345 1478 403 
L 1920 2176 
L 2554 2176 
C 3053 2176 3091 2066 3091 1874 
C 3091 1810 3091 1752 3046 1560 
C 3034 1534 3027 1508 3027 1489 
C 3027 1444 3059 1425 3098 1425 
C 3155 1425 3162 1469 3187 1559 
L 3552 3042 
C 3552 3073 3526 3105 3488 3105 
C 3430 3105 3424 3080 3398 2990 
C 3270 2501 3142 2361 2573 2361 
L 1965 2361 
L 2362 3930 
C 2419 4154 2432 4154 2694 4154 
L 3610 4154 
C 4397 4154 4557 3943 4557 3458 
C 4557 3451 4557 3273 4531 3062 
C 4525 3036 4518 2998 4518 2985 
C 4518 2934 4550 2915 4589 2915 
C 4634 2915 4659 2941 4672 3055 
L 4806 4174 
C 4806 4195 4819 4263 4819 4277 
C 4819 4352 4762 4352 4646 4352 
L 1523 4352 
C 1402 4352 1338 4352 1338 4229 
C 1338 4154 1382 4154 1491 4154 
C 1888 4154 1888 4114 1888 4052 
C 1888 4020 1882 3994 1862 3924 
L 998 473 
C 941 249 928 185 480 185 
C 358 185 294 185 294 70 
C 294 0 333 0 461 0 
L 3674 0 
C 3814 0 3821 6 3866 110 
L 4448 1489 
z
" transform="scale(0.015625)"/>
      </defs>
      <use xlink:href="#CMSY10-68" transform="translate(0 48.318576) scale(0.697382)"/>
      <use xlink:href="#CMMI12-46" transform="translate(27.120497 48.318576) scale(0.697382)"/>
      <use xlink:href="#CMMI12-78" transform="translate(71.324042 37.85788) scale(0.498132)"/>
      <use xlink:href="#CMSY10-69" transform="translate(99.539204 48.318576) scale(0.697382)"/>
      <use xlink:href="#CMMI12-3d" transform="translate(126.6597 48.318576) scale(0.697382)"/>
      <use xlink:href="#CMMI12-4c" transform="translate(160.801991 48.318576) scale(0.697382)"/>
      <use xlink:href="#CMMI12-62" transform="translate(22.475394 -37.201863) scale(0.697382)"/>
      <use xlink:href="#CMMI12-22" transform="translate(51.508382 -37.201863) scale(0.697382)"/>
      <use xlink:href="#CMR17-30" transform="translate(83.463364 -47.662559) scale(0.498132)"/>
      <use xlink:href="#CMMI12-45" transform="translate(106.806735 -37.201863) scale(0.697382)"/>
      <use xlink:href="#CMR17-32" transform="translate(161.44264 -13.180964) scale(0.498132)"/>
      <use xlink:href="#CMR17-30" transform="translate(157.354364 -56.448915) scale(0.498132)"/>
      <path d="M 0 22.914133 
L 207.261405 22.914133 
L 207.261405 26.899083 
L 0 26.899083 
L 0 22.914133 
z
"/>
     </g>
    </g>
   </g>
   <g id="line2d_14">
    <path d="M 52.18762 137.940901 
L 54.986832 137.698347 
L 57.786044 136.720305 
L 60.330782 135.045899 
L 62.239335 133.109377 
L 63.638941 131.258923 
L 64.784074 129.494536 
L 65.801969 127.622565 
L 66.819864 125.64301 
L 67.710522 123.656282 
L 68.473944 121.934929 
L 69.237365 119.926684 
L 70.000787 118.004507 
L 70.764208 115.795438 
L 71.654866 113.313821 
L 72.418288 111.147785 
L 73.181709 108.651824 
L 73.945131 106.24193 
L 74.683105 103.786134 
L 75.242947 101.686083 
L 75.980921 99.342175 
L 76.718895 96.831869 
L 77.25329 94.895347 
L 77.787685 92.924398 
L 78.525659 90.505898 
L 79.289081 87.938213 
L 80.027055 85.66029 
L 80.586897 83.543026 
L 81.261253 81.468796 
L 81.961056 79.073247 
L 82.724477 76.806799 
L 83.487899 74.712487 
L 84.25132 72.589485 
L 85.014742 70.782065 
L 85.778163 68.831198 
L 86.668822 66.880332 
L 87.686717 64.879259 
L 88.831849 62.783512 
L 90.104218 60.838384 
L 91.631061 58.900632 
L 93.666851 56.972991 
L 96.21159 55.448985 
L 99.010802 54.690025 
L 101.810014 54.666552 
L 104.609225 55.175133 
L 107.408437 55.973215 
L 110.207649 56.919959 
L 113.006861 57.921473 
L 115.806073 58.883866 
L 118.605285 59.77584 
L 121.404497 60.5348 
L 124.203709 61.207692 
L 127.002921 61.778868 
L 129.802133 62.271801 
L 132.601345 62.686491 
L 135.400557 63.085531 
L 138.199769 63.421978 
L 140.998981 63.758424 
L 143.798193 64.079221 
L 146.597405 64.3296 
L 149.396617 64.595627 
L 152.195829 64.806884 
L 154.995041 65.002492 
L 157.794253 65.174628 
L 160.593465 65.26852 
L 163.392677 65.362412 
L 166.191889 65.417182 
L 168.991101 65.417182 
L 171.790313 65.417182 
L 174.589524 65.417182 
L 177.388736 65.417182 
L 180.187948 65.417182 
L 182.98716 65.393709 
L 185.786372 65.252871 
L 188.585584 65.151155 
L 191.384796 65.010317 
L 194.184008 64.814709 
L 196.98322 64.56433 
L 199.782432 64.27483 
L 202.581644 63.914911 
L 205.380856 63.531518 
L 208.180068 63.171599 
L 210.97928 62.81168 
L 213.778492 62.451761 
L 216.577704 62.138787 
L 219.376916 61.911882 
L 222.176128 61.724098 
L 224.97534 61.614557 
L 227.774552 61.544138 
L 229.301395 61.544138 
" clip-path="url(#pc75c68b8c5)" style="fill: none; stroke: #000000; stroke-width: 0.75; stroke-linecap: square"/>
   </g>
   <g id="line2d_15">
    <defs>
     <path id="m37b4bdf3c5" d="M 0 1 
C 0.265203 1 0.51958 0.894634 0.707107 0.707107 
C 0.894634 0.51958 1 0.265203 1 0 
C 1 -0.265203 0.894634 -0.51958 0.707107 -0.707107 
C 0.51958 -0.894634 0.265203 -1 0 -1 
C -0.265203 -1 -0.51958 -0.894634 -0.707107 -0.707107 
C -0.894634 -0.51958 -1 -0.265203 -1 0 
C -1 0.265203 -0.894634 0.51958 -0.707107 0.707107 
C -0.51958 0.894634 -0.265203 1 0 1 
z
" style="stroke: #000000"/>
    </defs>
    <g clip-path="url(#pc75c68b8c5)">
     <use xlink:href="#m37b4bdf3c5" x="58.956111" y="135.628072" style="stroke: #000000"/>
     <use xlink:href="#m37b4bdf3c5" x="72.470839" y="108.800582" style="stroke: #000000"/>
     <use xlink:href="#m37b4bdf3c5" x="85.985567" y="67.91942" style="stroke: #000000"/>
     <use xlink:href="#m37b4bdf3c5" x="99.500294" y="56.320176" style="stroke: #000000"/>
     <use xlink:href="#m37b4bdf3c5" x="113.015022" y="58.126963" style="stroke: #000000"/>
     <use xlink:href="#m37b4bdf3c5" x="126.52975" y="61.208566" style="stroke: #000000"/>
     <use xlink:href="#m37b4bdf3c5" x="140.044477" y="66.39633" style="stroke: #000000"/>
     <use xlink:href="#m37b4bdf3c5" x="153.559205" y="67.330264" style="stroke: #000000"/>
     <use xlink:href="#m37b4bdf3c5" x="167.073933" y="65.01648" style="stroke: #000000"/>
     <use xlink:href="#m37b4bdf3c5" x="180.588661" y="64.073256" style="stroke: #000000"/>
     <use xlink:href="#m37b4bdf3c5" x="194.103388" y="65.575495" style="stroke: #000000"/>
     <use xlink:href="#m37b4bdf3c5" x="207.618116" y="64.972615" style="stroke: #000000"/>
     <use xlink:href="#m37b4bdf3c5" x="221.132844" y="63.028565" style="stroke: #000000"/>
    </g>
   </g>
   <g id="line2d_16">
    <path d="M 51.334087 138.248035 
L 54.124168 137.835001 
L 56.787428 136.329394 
L 58.816579 134.140641 
L 60.21162 131.926648 
L 61.479839 129.438609 
L 62.621236 126.793716 
L 63.635811 124.278634 
L 64.650386 121.357893 
L 65.53814 118.779709 
L 66.299071 116.399846 
L 67.060003 113.983924 
L 67.820934 111.423769 
L 68.581866 108.791496 
L 69.342797 106.2674 
L 70.103728 103.599068 
L 70.86466 101.147089 
L 71.625591 98.65905 
L 72.513345 95.936631 
L 73.401098 93.358447 
L 74.288851 90.933511 
L 75.303426 88.391384 
L 76.444824 85.908755 
L 77.839864 83.262059 
L 79.615371 80.765006 
L 82.024987 78.702294 
L 84.815069 77.954899 
L 87.605151 78.485943 
L 90.395233 79.744713 
L 93.185315 81.259172 
L 95.975397 82.567113 
L 98.765479 83.442352 
L 101.55556 83.727542 
L 104.345642 83.442352 
L 107.135724 82.763796 
L 109.925806 81.927893 
L 112.715888 81.16083 
L 115.50597 80.541279 
L 118.296052 80.18725 
L 121.086134 80.079074 
L 123.876216 80.147913 
L 126.666297 80.285591 
L 129.456379 80.47244 
L 132.246461 80.521611 
L 135.036543 80.295426 
L 137.826625 80.029904 
L 140.616707 79.61687 
L 143.406789 79.164499 
L 146.196871 78.751465 
L 148.986953 78.367933 
L 151.777034 78.013904 
L 154.567116 77.699212 
L 157.357198 77.305846 
L 160.14728 76.79447 
L 162.937362 75.997905 
L 165.727444 74.84731 
L 168.517526 73.372188 
L 171.307608 71.503701 
L 174.097689 69.369692 
L 176.887771 66.999663 
L 179.551031 64.695523 
L 182.214291 62.348113 
L 185.004373 59.948582 
L 187.794455 57.647392 
L 190.584537 55.454378 
L 193.374619 53.41871 
L 196.164701 51.491218 
L 198.954783 49.721072 
L 201.744864 48.049268 
L 204.534946 46.544644 
L 207.325028 45.148195 
L 210.11511 43.909093 
L 212.905192 42.797835 
L 215.695274 41.873425 
L 218.485356 41.106362 
L 221.275438 40.535982 
L 224.06552 40.15245 
L 226.855601 39.906597 
L 228.631108 39.847592 
" clip-path="url(#pc75c68b8c5)" style="fill: none; stroke: #ff0000; stroke-width: 0.75; stroke-linecap: square"/>
   </g>
   <g id="line2d_17">
    <defs>
     <path id="m1dc2439901" d="M 0 1 
C 0.265203 1 0.51958 0.894634 0.707107 0.707107 
C 0.894634 0.51958 1 0.265203 1 0 
C 1 -0.265203 0.894634 -0.51958 0.707107 -0.707107 
C 0.51958 -0.894634 0.265203 -1 0 -1 
C -0.265203 -1 -0.51958 -0.894634 -0.707107 -0.707107 
C -0.894634 -0.51958 -1 -0.265203 -1 0 
C -1 0.265203 -0.894634 0.51958 -0.707107 0.707107 
C -0.51958 0.894634 -0.265203 1 0 1 
z
" style="stroke: #ff0000"/>
    </defs>
    <g clip-path="url(#pc75c68b8c5)">
     <use xlink:href="#m1dc2439901" x="58.956111" y="132.978481" style="fill: #ff0000; stroke: #ff0000"/>
     <use xlink:href="#m1dc2439901" x="72.470839" y="93.575943" style="fill: #ff0000; stroke: #ff0000"/>
     <use xlink:href="#m1dc2439901" x="85.985567" y="76.621896" style="fill: #ff0000; stroke: #ff0000"/>
     <use xlink:href="#m1dc2439901" x="99.500294" y="83.749777" style="fill: #ff0000; stroke: #ff0000"/>
     <use xlink:href="#m1dc2439901" x="113.015022" y="80.932822" style="fill: #ff0000; stroke: #ff0000"/>
     <use xlink:href="#m1dc2439901" x="126.52975" y="78.269097" style="fill: #ff0000; stroke: #ff0000"/>
     <use xlink:href="#m1dc2439901" x="140.044477" y="76.727901" style="fill: #ff0000; stroke: #ff0000"/>
     <use xlink:href="#m1dc2439901" x="153.559205" y="77.366826" style="fill: #ff0000; stroke: #ff0000"/>
     <use xlink:href="#m1dc2439901" x="167.073933" y="74.741953" style="fill: #ff0000; stroke: #ff0000"/>
     <use xlink:href="#m1dc2439901" x="180.588661" y="64.984204" style="fill: #ff0000; stroke: #ff0000"/>
     <use xlink:href="#m1dc2439901" x="194.103388" y="52.72411" style="fill: #ff0000; stroke: #ff0000"/>
     <use xlink:href="#m1dc2439901" x="207.618116" y="43.111955" style="fill: #ff0000; stroke: #ff0000"/>
     <use xlink:href="#m1dc2439901" x="221.132844" y="39.774264" style="fill: #ff0000; stroke: #ff0000"/>
    </g>
   </g>
   <g id="line2d_18">
    <path d="M 51.373406 138.122812 
L 54.158086 137.369665 
L 56.563037 135.051385 
L 58.335106 132.117251 
L 59.727446 129.01915 
L 60.866633 126.054811 
L 61.879244 123.077527 
L 62.891855 119.938434 
L 63.77789 116.971938 
L 64.663924 114.080952 
L 65.676535 110.747689 
L 66.689146 107.608597 
L 67.701757 104.566589 
L 68.840944 101.576361 
L 70.233284 98.482575 
L 72.131929 95.397419 
L 74.663456 93.451789 
L 77.448136 93.663612 
L 80.232816 95.499407 
L 83.017496 97.794152 
L 85.802176 99.688787 
L 88.586856 100.394862 
L 91.371536 99.794698 
L 94.156216 98.123653 
L 96.940896 96.134875 
L 99.725576 94.381455 
L 102.510256 93.310574 
L 105.294935 93.11052 
L 108.079615 93.475325 
L 110.864295 94.193168 
L 113.648975 94.769796 
L 116.433655 94.828636 
L 119.218335 94.087257 
L 122.003015 92.792786 
L 124.787695 90.968758 
L 127.572375 89.144731 
L 130.357055 87.544294 
L 133.141735 86.402806 
L 135.926414 85.873249 
L 138.711094 85.873249 
L 141.495774 86.285126 
L 144.280454 86.838219 
L 147.065134 87.308935 
L 149.849814 87.273632 
L 152.634494 86.332198 
L 155.292597 84.282226 
L 157.444396 81.589726 
L 158.963312 78.974895 
L 160.229075 76.204726 
L 161.368263 73.434558 
L 162.380874 70.683807 
L 163.393484 67.544714 
L 164.406095 64.37326 
L 165.418706 60.781103 
L 166.304741 57.598861 
L 167.064199 54.535279 
L 167.823657 51.81689 
L 168.583115 48.753308 
L 169.342573 45.819173 
L 170.102031 42.84189 
L 170.86149 39.821457 
L 171.620948 37.059919 
L 172.380406 34.255231 
L 173.26644 31.137713 
L 174.279051 27.739726 
L 175.291662 24.697719 
L 176.430849 21.526265 
L 177.696613 18.497202 
L 179.215529 15.51622 
L 181.240751 12.594414 
L 183.772278 10.405581 
L 186.556958 9.440611 
L 189.341638 9.61713 
L 192.126318 10.46442 
L 194.910998 11.735356 
L 197.695678 13.347561 
L 200.480358 15.053909 
L 203.265038 16.736721 
L 206.049718 18.419534 
L 208.834397 20.055275 
L 211.619077 21.60864 
L 214.403757 23.067862 
L 217.188437 24.527084 
L 219.973117 25.927467 
L 222.757797 27.257242 
L 225.542477 28.587016 
L 228.20058 29.849714 
" clip-path="url(#pc75c68b8c5)" style="fill: none; stroke: #0000ff; stroke-width: 0.75; stroke-linecap: square"/>
   </g>
   <g id="line2d_19">
    <defs>
     <path id="m15d3c4b225" d="M 0 1 
C 0.265203 1 0.51958 0.894634 0.707107 0.707107 
C 0.894634 0.51958 1 0.265203 1 0 
C 1 -0.265203 0.894634 -0.51958 0.707107 -0.707107 
C 0.51958 -0.894634 0.265203 -1 0 -1 
C -0.265203 -1 -0.51958 -0.894634 -0.707107 -0.707107 
C -0.894634 -0.51958 -1 -0.265203 -1 0 
C -1 0.265203 -0.894634 0.51958 -0.707107 0.707107 
C -0.51958 0.894634 -0.265203 1 0 1 
z
" style="stroke: #0000ff"/>
    </defs>
    <g clip-path="url(#pc75c68b8c5)">
     <use xlink:href="#m15d3c4b225" x="58.956111" y="127.492452" style="fill: #0000ff; stroke: #0000ff"/>
     <use xlink:href="#m15d3c4b225" x="72.470839" y="92.899964" style="fill: #0000ff; stroke: #0000ff"/>
     <use xlink:href="#m15d3c4b225" x="85.985567" y="98.341716" style="fill: #0000ff; stroke: #0000ff"/>
     <use xlink:href="#m15d3c4b225" x="99.500294" y="91.639273" style="fill: #0000ff; stroke: #0000ff"/>
     <use xlink:href="#m15d3c4b225" x="113.015022" y="91.799674" style="fill: #0000ff; stroke: #0000ff"/>
     <use xlink:href="#m15d3c4b225" x="126.52975" y="88.553845" style="fill: #0000ff; stroke: #0000ff"/>
     <use xlink:href="#m15d3c4b225" x="140.044477" y="82.773182" style="fill: #0000ff; stroke: #0000ff"/>
     <use xlink:href="#m15d3c4b225" x="153.559205" y="80.812737" style="fill: #0000ff; stroke: #0000ff"/>
     <use xlink:href="#m15d3c4b225" x="167.073933" y="49.611805" style="fill: #0000ff; stroke: #0000ff"/>
     <use xlink:href="#m15d3c4b225" x="180.588661" y="18.003308" style="fill: #0000ff; stroke: #0000ff"/>
     <use xlink:href="#m15d3c4b225" x="194.103388" y="14.512345" style="fill: #0000ff; stroke: #0000ff"/>
     <use xlink:href="#m15d3c4b225" x="207.618116" y="20.90204" style="fill: #0000ff; stroke: #0000ff"/>
     <use xlink:href="#m15d3c4b225" x="221.132844" y="29.521712" style="fill: #0000ff; stroke: #0000ff"/>
    </g>
   </g>
   <g id="patch_3">
    <path d="M 42.435721 144.688407 
L 42.435721 3.00024 
" style="fill: none; stroke: #000000; stroke-width: 0.8; stroke-linejoin: miter; stroke-linecap: square"/>
   </g>
   <g id="patch_4">
    <path d="M 238.19976 144.688407 
L 238.19976 3.00024 
" style="fill: none; stroke: #000000; stroke-width: 0.8; stroke-linejoin: miter; stroke-linecap: square"/>
   </g>
   <g id="patch_5">
    <path d="M 42.435721 144.688407 
L 238.19976 144.688407 
" style="fill: none; stroke: #000000; stroke-width: 0.8; stroke-linejoin: miter; stroke-linecap: square"/>
   </g>
   <g id="patch_6">
    <path d="M 42.435721 3.00024 
L 238.19976 3.00024 
" style="fill: none; stroke: #000000; stroke-width: 0.8; stroke-linejoin: miter; stroke-linecap: square"/>
   </g>
   <g id="legend_1">
    <g id="patch_7">
     <path d="M 49.435721 52.811775 
L 114.921204 52.811775 
Q 116.921204 52.811775 116.921204 50.811775 
L 116.921204 10.00024 
Q 116.921204 8.00024 114.921204 8.00024 
L 49.435721 8.00024 
Q 47.435721 8.00024 47.435721 10.00024 
L 47.435721 50.811775 
Q 47.435721 52.811775 49.435721 52.811775 
z
" style="fill: #ffffff; opacity: 0.8; stroke: #cccccc; stroke-linejoin: miter"/>
    </g>
    <g id="patch_8">
     <path d="M 51.435721 19.00024 
L 71.435721 19.00024 
L 71.435721 12.00024 
L 51.435721 12.00024 
z
" style="stroke: #000000; stroke-linejoin: miter"/>
    </g>
    <g id="text_16">
     <!-- $A = 0.5$ -->
     <g transform="translate(79.435721 19.00024) scale(0.1 -0.1)">
      <defs>
       <path id="CMMI12-41" d="M 1088 691 
C 864 314 646 186 339 186 
C 269 180 218 180 218 58 
C 218 24 250 0 294 0 
C 410 0 698 0 813 0 
C 998 0 1203 0 1382 0 
C 1421 0 1498 0 1498 122 
C 1498 180 1446 186 1408 186 
C 1261 186 1139 236 1139 388 
C 1139 476 1178 546 1261 685 
L 1747 1479 
L 3379 1479 
C 3386 1423 3386 1373 3392 1316 
C 3411 1152 3488 495 3488 376 
C 3488 186 3162 186 3059 186 
C 2989 186 2918 186 2918 70 
C 2918 0 2976 0 3014 0 
C 3123 0 3251 0 3360 0 
L 3725 0 
C 4115 0 4397 0 4403 0 
C 4448 0 4518 0 4518 122 
C 4518 186 4461 186 4365 186 
C 4013 186 4006 244 3987 434 
L 3597 4404 
C 3584 4531 3558 4544 3488 4544 
C 3424 4544 3386 4531 3328 4435 
L 1088 691 
z
M 1856 1664 
L 3142 3819 
L 3360 1664 
L 1856 1664 
z
" transform="scale(0.015625)"/>
       <path id="CMR17-3d" d="M 4115 2017 
C 4211 2017 4307 2017 4307 2125 
C 4307 2240 4198 2240 4090 2240 
L 512 2240 
C 403 2240 294 2240 294 2125 
C 294 2017 390 2017 486 2017 
L 4115 2017 
z
M 4090 896 
C 4198 896 4307 896 4307 1011 
C 4307 1119 4211 1119 4115 1119 
L 486 1119 
C 390 1119 294 1119 294 1011 
C 294 896 403 896 512 896 
L 4090 896 
z
" transform="scale(0.015625)"/>
      </defs>
      <use xlink:href="#CMMI12-41" transform="scale(0.996264)"/>
      <use xlink:href="#CMR17-3d" transform="translate(100.801894 0) scale(0.996264)"/>
      <use xlink:href="#CMR17-30" transform="translate(200.190691 0) scale(0.996264)"/>
      <use xlink:href="#CMMI12-3a" transform="translate(245.881168 0) scale(0.996264)"/>
      <use xlink:href="#CMR17-35" transform="translate(272.978345 0) scale(0.996264)"/>
     </g>
    </g>
    <g id="patch_9">
     <path d="M 51.435721 32.937418 
L 71.435721 32.937418 
L 71.435721 25.937418 
L 51.435721 25.937418 
z
" style="fill: #ff0000; stroke: #ff0000; stroke-linejoin: miter"/>
    </g>
    <g id="text_17">
     <!-- $A = 1.0$ -->
     <g transform="translate(79.435721 32.937418) scale(0.1 -0.1)">
      <use xlink:href="#CMMI12-41" transform="scale(0.996264)"/>
      <use xlink:href="#CMR17-3d" transform="translate(100.801894 0) scale(0.996264)"/>
      <use xlink:href="#CMR17-31" transform="translate(200.190691 0) scale(0.996264)"/>
      <use xlink:href="#CMMI12-3a" transform="translate(245.881168 0) scale(0.996264)"/>
      <use xlink:href="#CMR17-30" transform="translate(272.978345 0) scale(0.996264)"/>
     </g>
    </g>
    <g id="patch_10">
     <path d="M 51.435721 46.874597 
L 71.435721 46.874597 
L 71.435721 39.874597 
L 51.435721 39.874597 
z
" style="fill: #0000ff; stroke: #0000ff; stroke-linejoin: miter"/>
    </g>
    <g id="text_18">
     <!-- $A = 1.5$ -->
     <g transform="translate(79.435721 46.874597) scale(0.1 -0.1)">
      <use xlink:href="#CMMI12-41" transform="scale(0.996264)"/>
      <use xlink:href="#CMR17-3d" transform="translate(100.801894 0) scale(0.996264)"/>
      <use xlink:href="#CMR17-31" transform="translate(200.190691 0) scale(0.996264)"/>
      <use xlink:href="#CMMI12-3a" transform="translate(245.881168 0) scale(0.996264)"/>
      <use xlink:href="#CMR17-35" transform="translate(272.978345 0) scale(0.996264)"/>
     </g>
    </g>
   </g>
   <g id="legend_2">
    <g id="patch_11">
     <path d="M 49.435721 52.811775 
L 114.921204 52.811775 
Q 116.921204 52.811775 116.921204 50.811775 
L 116.921204 10.00024 
Q 116.921204 8.00024 114.921204 8.00024 
L 49.435721 8.00024 
Q 47.435721 8.00024 47.435721 10.00024 
L 47.435721 50.811775 
Q 47.435721 52.811775 49.435721 52.811775 
z
" style="fill: #ffffff; opacity: 0.8; stroke: #cccccc; stroke-linejoin: miter"/>
    </g>
    <g id="patch_12">
     <path d="M 51.435721 19.00024 
L 71.435721 19.00024 
L 71.435721 12.00024 
L 51.435721 12.00024 
z
" style="stroke: #000000; stroke-linejoin: miter"/>
    </g>
    <g id="text_19">
     <!-- $A = 0.5$ -->
     <g transform="translate(79.435721 19.00024) scale(0.1 -0.1)">
      <use xlink:href="#CMMI12-41" transform="scale(0.996264)"/>
      <use xlink:href="#CMR17-3d" transform="translate(100.801894 0) scale(0.996264)"/>
      <use xlink:href="#CMR17-30" transform="translate(200.190691 0) scale(0.996264)"/>
      <use xlink:href="#CMMI12-3a" transform="translate(245.881168 0) scale(0.996264)"/>
      <use xlink:href="#CMR17-35" transform="translate(272.978345 0) scale(0.996264)"/>
     </g>
    </g>
    <g id="patch_13">
     <path d="M 51.435721 32.937418 
L 71.435721 32.937418 
L 71.435721 25.937418 
L 51.435721 25.937418 
z
" style="fill: #ff0000; stroke: #ff0000; stroke-linejoin: miter"/>
    </g>
    <g id="text_20">
     <!-- $A = 1.0$ -->
     <g transform="translate(79.435721 32.937418) scale(0.1 -0.1)">
      <use xlink:href="#CMMI12-41" transform="scale(0.996264)"/>
      <use xlink:href="#CMR17-3d" transform="translate(100.801894 0) scale(0.996264)"/>
      <use xlink:href="#CMR17-31" transform="translate(200.190691 0) scale(0.996264)"/>
      <use xlink:href="#CMMI12-3a" transform="translate(245.881168 0) scale(0.996264)"/>
      <use xlink:href="#CMR17-30" transform="translate(272.978345 0) scale(0.996264)"/>
     </g>
    </g>
    <g id="patch_14">
     <path d="M 51.435721 46.874597 
L 71.435721 46.874597 
L 71.435721 39.874597 
L 51.435721 39.874597 
z
" style="fill: #0000ff; stroke: #0000ff; stroke-linejoin: miter"/>
    </g>
    <g id="text_21">
     <!-- $A = 1.5$ -->
     <g transform="translate(79.435721 46.874597) scale(0.1 -0.1)">
      <use xlink:href="#CMMI12-41" transform="scale(0.996264)"/>
      <use xlink:href="#CMR17-3d" transform="translate(100.801894 0) scale(0.996264)"/>
      <use xlink:href="#CMR17-31" transform="translate(200.190691 0) scale(0.996264)"/>
      <use xlink:href="#CMMI12-3a" transform="translate(245.881168 0) scale(0.996264)"/>
      <use xlink:href="#CMR17-35" transform="translate(272.978345 0) scale(0.996264)"/>
     </g>
    </g>
   </g>
  </g>
 </g>
 <defs>
  <clipPath id="pc75c68b8c5">
   <rect x="42.435721" y="3.00024" width="195.764039" height="141.688167"/>
  </clipPath>
 </defs>
</svg>
