<?xml version="1.0" encoding="utf-8" standalone="no"?>
<!DOCTYPE svg PUBLIC "-//W3C//DTD SVG 1.1//EN"
  "http://www.w3.org/Graphics/SVG/1.1/DTD/svg11.dtd">
<svg xmlns:xlink="http://www.w3.org/1999/xlink" width="241.2pt" height="144pt" viewBox="0 0 241.2 144" xmlns="http://www.w3.org/2000/svg" version="1.1">
 <metadata>
  <rdf:RDF xmlns:dc="http://purl.org/dc/elements/1.1/" xmlns:cc="http://creativecommons.org/ns#" xmlns:rdf="http://www.w3.org/1999/02/22-rdf-syntax-ns#">
   <cc:Work>
    <dc:type rdf:resource="http://purl.org/dc/dcmitype/StillImage"/>
    <dc:date>2024-04-02T18:49:09.967319</dc:date>
    <dc:format>image/svg+xml</dc:format>
    <dc:creator>
     <cc:Agent>
      <dc:title>Matplotlib v3.6.3, https://matplotlib.org/</dc:title>
     </cc:Agent>
    </dc:creator>
   </cc:Work>
  </rdf:RDF>
 </metadata>
 <defs>
  <style type="text/css">*{stroke-linejoin: round; stroke-linecap: butt}</style>
 </defs>
 <g id="figure_1">
  <g id="patch_1">
   <path d="M 0 144 
L 241.2 144 
L 241.2 0 
L 0 0 
z
" style="fill: #ffffff"/>
  </g>
  <g id="axes_1">
   <g id="patch_2">
    <path d="M 34.686977 111.181443 
L 238.19976 111.181443 
L 238.19976 4.724464 
L 34.686977 4.724464 
z
" style="fill: #ffffff"/>
   </g>
   <g id="matplotlib.axis_1">
    <g id="xtick_1">
     <g id="line2d_1">
      <defs>
       <path id="m6f325fb804" d="M 0 0 
L 0 3.5 
" style="stroke: #000000; stroke-width: 0.8"/>
      </defs>
      <g>
       <use xlink:href="#m6f325fb804" x="105.11123" y="111.181443" style="stroke: #000000; stroke-width: 0.8"/>
      </g>
     </g>
     <g id="text_1">
      <!-- $\mathdefault{10^{-1}}$ -->
      <g transform="translate(95.030943 125.099942) scale(0.1 -0.1)">
       <defs>
        <path id="CMR17-31" d="M 1702 4058 
C 1702 4192 1696 4192 1606 4192 
C 1357 3916 979 3827 621 3827 
C 602 3827 570 3827 563 3808 
C 557 3795 557 3782 557 3648 
C 755 3648 1088 3686 1344 3839 
L 1344 461 
C 1344 236 1331 160 781 160 
L 589 160 
L 589 0 
C 896 0 1216 0 1523 0 
C 1830 0 2150 0 2458 0 
L 2458 160 
L 2266 160 
C 1715 160 1702 230 1702 458 
L 1702 4058 
z
" transform="scale(0.015625)"/>
        <path id="CMR17-30" d="M 2688 2025 
C 2688 2416 2682 3080 2413 3591 
C 2176 4039 1798 4198 1466 4198 
C 1158 4198 768 4058 525 3597 
C 269 3118 243 2524 243 2025 
C 243 1661 250 1106 448 619 
C 723 -39 1216 -128 1466 -128 
C 1760 -128 2208 -7 2470 600 
C 2662 1042 2688 1559 2688 2025 
z
M 1466 -26 
C 1056 -26 813 325 723 812 
C 653 1188 653 1738 653 2096 
C 653 2588 653 2997 736 3387 
C 858 3929 1216 4096 1466 4096 
C 1728 4096 2067 3923 2189 3400 
C 2272 3036 2278 2607 2278 2096 
C 2278 1680 2278 1169 2202 792 
C 2067 95 1690 -26 1466 -26 
z
" transform="scale(0.015625)"/>
        <path id="CMSY10-0" d="M 4218 1472 
C 4326 1472 4442 1472 4442 1600 
C 4442 1728 4326 1728 4218 1728 
L 755 1728 
C 646 1728 531 1728 531 1600 
C 531 1472 646 1472 755 1472 
L 4218 1472 
z
" transform="scale(0.015625)"/>
       </defs>
       <use xlink:href="#CMR17-31" transform="scale(0.996264)"/>
       <use xlink:href="#CMR17-30" transform="translate(45.690477 0) scale(0.996264)"/>
       <use xlink:href="#CMSY10-0" transform="translate(91.380954 36.153639) scale(0.697382)"/>
       <use xlink:href="#CMR17-31" transform="translate(145.621947 36.153639) scale(0.697382)"/>
      </g>
     </g>
    </g>
    <g id="xtick_2">
     <g id="line2d_2">
      <g>
       <use xlink:href="#m6f325fb804" x="192.630967" y="111.181443" style="stroke: #000000; stroke-width: 0.8"/>
      </g>
     </g>
     <g id="text_2">
      <!-- $\mathdefault{10^{0}}$ -->
      <g transform="translate(185.664013 125.099942) scale(0.1 -0.1)">
       <use xlink:href="#CMR17-31" transform="scale(0.996264)"/>
       <use xlink:href="#CMR17-30" transform="translate(45.690477 0) scale(0.996264)"/>
       <use xlink:href="#CMR17-30" transform="translate(91.380954 36.153639) scale(0.697382)"/>
      </g>
     </g>
    </g>
    <g id="xtick_3">
     <g id="line2d_3">
      <defs>
       <path id="mc9df941a89" d="M 0 0 
L 0 2 
" style="stroke: #000000; stroke-width: 0.6"/>
      </defs>
      <g>
       <use xlink:href="#mc9df941a89" x="43.937559" y="111.181443" style="stroke: #000000; stroke-width: 0.6"/>
      </g>
     </g>
    </g>
    <g id="xtick_4">
     <g id="line2d_4">
      <g>
       <use xlink:href="#mc9df941a89" x="59.349019" y="111.181443" style="stroke: #000000; stroke-width: 0.6"/>
      </g>
     </g>
    </g>
    <g id="xtick_5">
     <g id="line2d_5">
      <g>
       <use xlink:href="#mc9df941a89" x="70.283625" y="111.181443" style="stroke: #000000; stroke-width: 0.6"/>
      </g>
     </g>
    </g>
    <g id="xtick_6">
     <g id="line2d_6">
      <g>
       <use xlink:href="#mc9df941a89" x="78.765163" y="111.181443" style="stroke: #000000; stroke-width: 0.6"/>
      </g>
     </g>
    </g>
    <g id="xtick_7">
     <g id="line2d_7">
      <g>
       <use xlink:href="#mc9df941a89" x="85.695085" y="111.181443" style="stroke: #000000; stroke-width: 0.6"/>
      </g>
     </g>
    </g>
    <g id="xtick_8">
     <g id="line2d_8">
      <g>
       <use xlink:href="#mc9df941a89" x="91.554251" y="111.181443" style="stroke: #000000; stroke-width: 0.6"/>
      </g>
     </g>
    </g>
    <g id="xtick_9">
     <g id="line2d_9">
      <g>
       <use xlink:href="#mc9df941a89" x="96.629691" y="111.181443" style="stroke: #000000; stroke-width: 0.6"/>
      </g>
     </g>
    </g>
    <g id="xtick_10">
     <g id="line2d_10">
      <g>
       <use xlink:href="#mc9df941a89" x="101.106546" y="111.181443" style="stroke: #000000; stroke-width: 0.6"/>
      </g>
     </g>
    </g>
    <g id="xtick_11">
     <g id="line2d_11">
      <g>
       <use xlink:href="#mc9df941a89" x="131.457296" y="111.181443" style="stroke: #000000; stroke-width: 0.6"/>
      </g>
     </g>
    </g>
    <g id="xtick_12">
     <g id="line2d_12">
      <g>
       <use xlink:href="#mc9df941a89" x="146.868756" y="111.181443" style="stroke: #000000; stroke-width: 0.6"/>
      </g>
     </g>
    </g>
    <g id="xtick_13">
     <g id="line2d_13">
      <g>
       <use xlink:href="#mc9df941a89" x="157.803362" y="111.181443" style="stroke: #000000; stroke-width: 0.6"/>
      </g>
     </g>
    </g>
    <g id="xtick_14">
     <g id="line2d_14">
      <g>
       <use xlink:href="#mc9df941a89" x="166.284901" y="111.181443" style="stroke: #000000; stroke-width: 0.6"/>
      </g>
     </g>
    </g>
    <g id="xtick_15">
     <g id="line2d_15">
      <g>
       <use xlink:href="#mc9df941a89" x="173.214823" y="111.181443" style="stroke: #000000; stroke-width: 0.6"/>
      </g>
     </g>
    </g>
    <g id="xtick_16">
     <g id="line2d_16">
      <g>
       <use xlink:href="#mc9df941a89" x="179.073988" y="111.181443" style="stroke: #000000; stroke-width: 0.6"/>
      </g>
     </g>
    </g>
    <g id="xtick_17">
     <g id="line2d_17">
      <g>
       <use xlink:href="#mc9df941a89" x="184.149428" y="111.181443" style="stroke: #000000; stroke-width: 0.6"/>
      </g>
     </g>
    </g>
    <g id="xtick_18">
     <g id="line2d_18">
      <g>
       <use xlink:href="#mc9df941a89" x="188.626283" y="111.181443" style="stroke: #000000; stroke-width: 0.6"/>
      </g>
     </g>
    </g>
    <g id="xtick_19">
     <g id="line2d_19">
      <g>
       <use xlink:href="#mc9df941a89" x="218.977033" y="111.181443" style="stroke: #000000; stroke-width: 0.6"/>
      </g>
     </g>
    </g>
    <g id="xtick_20">
     <g id="line2d_20">
      <g>
       <use xlink:href="#mc9df941a89" x="234.388494" y="111.181443" style="stroke: #000000; stroke-width: 0.6"/>
      </g>
     </g>
    </g>
    <g id="text_3">
     <!-- $a / \lambda$ -->
     <g transform="translate(128.413848 138.5091) scale(0.1 -0.1)">
      <defs>
       <path id="CMMI12-61" d="M 1926 760 
C 1894 651 1894 639 1805 517 
C 1664 338 1382 64 1082 64 
C 819 64 672 300 672 677 
C 672 1028 870 1743 992 2012 
C 1210 2459 1510 2689 1760 2689 
C 2182 2689 2266 2165 2266 2114 
C 2266 2108 2246 2024 2240 2012 
L 1926 760 
z
M 2336 2395 
C 2266 2561 2093 2816 1760 2816 
C 1037 2816 256 1884 256 939 
C 256 307 627 -64 1062 -64 
C 1414 -64 1715 211 1894 422 
C 1958 45 2259 -64 2451 -64 
C 2643 -64 2797 51 2912 281 
C 3014 498 3104 888 3104 913 
C 3104 945 3078 971 3040 971 
C 2982 971 2976 939 2950 843 
C 2854 466 2733 64 2470 64 
C 2285 64 2272 230 2272 358 
C 2272 505 2291 575 2349 824 
C 2394 984 2426 1124 2477 1309 
C 2714 2267 2771 2497 2771 2535 
C 2771 2625 2701 2695 2605 2695 
C 2400 2695 2349 2472 2336 2395 
z
" transform="scale(0.015625)"/>
       <path id="CMMI12-3d" d="M 2746 4562 
C 2746 4569 2784 4666 2784 4678 
C 2784 4755 2720 4800 2669 4800 
C 2637 4800 2579 4800 2528 4659 
L 384 -1363 
C 384 -1370 346 -1465 346 -1478 
C 346 -1555 410 -1600 461 -1600 
C 499 -1600 557 -1593 602 -1459 
L 2746 4562 
z
" transform="scale(0.015625)"/>
       <path id="CMMI12-15" d="M 1978 3965 
C 1818 4416 1312 4416 1229 4416 
C 1190 4416 1120 4416 1120 4352 
C 1120 4302 1158 4295 1190 4289 
C 1286 4276 1363 4263 1466 4080 
C 1530 3959 2189 2059 2189 2046 
C 2189 2040 2182 2033 2131 1982 
L 467 311 
C 390 234 339 183 339 102 
C 339 12 416 -64 518 -64 
C 544 -64 614 -51 653 -13 
C 755 82 1670 1194 2253 1881 
C 2419 1383 2624 797 2822 261 
C 2854 166 2886 76 2976 -6 
C 3040 -64 3053 -64 3232 -64 
L 3354 -64 
C 3379 -64 3424 -64 3424 -13 
C 3424 13 3418 19 3392 45 
C 3334 115 3290 229 3264 306 
L 1978 3965 
z
" transform="scale(0.015625)"/>
      </defs>
      <use xlink:href="#CMMI12-61" transform="scale(0.996264)"/>
      <use xlink:href="#CMMI12-3d" transform="translate(51.207858 0) scale(0.996264)"/>
      <use xlink:href="#CMMI12-15" transform="translate(99.982776 0) scale(0.996264)"/>
     </g>
    </g>
   </g>
   <g id="matplotlib.axis_2">
    <g id="ytick_1">
     <g id="line2d_21">
      <defs>
       <path id="ma97b9b3343" d="M 0 0 
L -3.5 0 
" style="stroke: #000000; stroke-width: 0.8"/>
      </defs>
      <g>
       <use xlink:href="#ma97b9b3343" x="34.686977" y="106.344164" style="stroke: #000000; stroke-width: 0.8"/>
      </g>
     </g>
     <g id="text_4">
      <!-- $\mathdefault{0}$ -->
      <g transform="translate(22.705642 109.803413) scale(0.1 -0.1)">
       <use xlink:href="#CMR17-30" transform="scale(0.996264)"/>
      </g>
     </g>
    </g>
    <g id="ytick_2">
     <g id="line2d_22">
      <g>
       <use xlink:href="#ma97b9b3343" x="34.686977" y="73.048888" style="stroke: #000000; stroke-width: 0.8"/>
      </g>
     </g>
     <g id="text_5">
      <!-- $\mathdefault{1}$ -->
      <g transform="translate(22.705642 76.508137) scale(0.1 -0.1)">
       <use xlink:href="#CMR17-31" transform="scale(0.996264)"/>
      </g>
     </g>
    </g>
    <g id="ytick_3">
     <g id="line2d_23">
      <g>
       <use xlink:href="#ma97b9b3343" x="34.686977" y="39.753611" style="stroke: #000000; stroke-width: 0.8"/>
      </g>
     </g>
     <g id="text_6">
      <!-- $\mathdefault{2}$ -->
      <g transform="translate(22.705642 43.21286) scale(0.1 -0.1)">
       <defs>
        <path id="CMR17-32" d="M 2669 989 
L 2554 989 
C 2490 536 2438 459 2413 420 
C 2381 369 1920 369 1830 369 
L 602 369 
C 832 619 1280 1072 1824 1597 
C 2214 1967 2669 2402 2669 3035 
C 2669 3790 2067 4224 1395 4224 
C 691 4224 262 3604 262 3030 
C 262 2780 448 2748 525 2748 
C 589 2748 781 2787 781 3010 
C 781 3207 614 3264 525 3264 
C 486 3264 448 3258 422 3245 
C 544 3790 915 4058 1306 4058 
C 1862 4058 2227 3617 2227 3035 
C 2227 2479 1901 2000 1536 1584 
L 262 146 
L 262 0 
L 2515 0 
L 2669 989 
z
" transform="scale(0.015625)"/>
       </defs>
       <use xlink:href="#CMR17-32" transform="scale(0.996264)"/>
      </g>
     </g>
    </g>
    <g id="ytick_4">
     <g id="line2d_24">
      <g>
       <use xlink:href="#ma97b9b3343" x="34.686977" y="6.458335" style="stroke: #000000; stroke-width: 0.8"/>
      </g>
     </g>
     <g id="text_7">
      <!-- $\mathdefault{3}$ -->
      <g transform="translate(22.705642 9.917584) scale(0.1 -0.1)">
       <defs>
        <path id="CMR17-33" d="M 1414 2157 
C 1984 2157 2234 1662 2234 1090 
C 2234 320 1824 25 1453 25 
C 1114 25 563 194 390 693 
C 422 680 454 680 486 680 
C 640 680 755 782 755 948 
C 755 1133 614 1216 486 1216 
C 378 1216 211 1165 211 926 
C 211 335 787 -128 1466 -128 
C 2176 -128 2720 430 2720 1085 
C 2720 1707 2208 2157 1600 2227 
C 2086 2328 2554 2756 2554 3329 
C 2554 3820 2048 4179 1472 4179 
C 890 4179 378 3829 378 3329 
C 378 3110 544 3072 627 3072 
C 762 3072 877 3155 877 3321 
C 877 3486 762 3569 627 3569 
C 602 3569 570 3569 544 3557 
C 730 3959 1235 4032 1459 4032 
C 1683 4032 2106 3925 2106 3320 
C 2106 3143 2080 2828 1862 2550 
C 1670 2304 1453 2304 1242 2284 
C 1210 2284 1062 2269 1037 2269 
C 992 2263 966 2257 966 2208 
C 966 2163 973 2157 1101 2157 
L 1414 2157 
z
" transform="scale(0.015625)"/>
       </defs>
       <use xlink:href="#CMR17-33" transform="scale(0.996264)"/>
      </g>
     </g>
    </g>
    <g id="text_8">
     <!-- $\frac{\left&lt; F_x \right&gt;/L}{\lambda \varepsilon_0 E_0^2}$ -->
     <g transform="translate(13.062482 70.697923) rotate(-90) scale(0.1 -0.1)">
      <defs>
       <path id="CMSY10-68" d="M 2099 4557 
C 2131 4627 2131 4640 2131 4672 
C 2131 4742 2074 4800 2003 4800 
C 1946 4800 1901 4768 1856 4653 
L 736 1715 
C 723 1677 704 1638 704 1600 
C 704 1581 704 1568 736 1491 
L 1856 -1446 
C 1882 -1517 1914 -1600 2003 -1600 
C 2074 -1600 2131 -1542 2131 -1472 
C 2131 -1453 2131 -1440 2099 -1370 
L 966 1600 
L 2099 4557 
z
" transform="scale(0.015625)"/>
       <path id="CMMI12-46" d="M 1901 2055 
L 2515 2055 
C 3002 2055 3040 1946 3040 1761 
C 3040 1678 3027 1589 2995 1448 
C 2982 1423 2976 1391 2976 1378 
C 2976 1333 3002 1308 3046 1308 
C 3098 1308 3104 1333 3130 1435 
L 3501 2935 
C 3501 2961 3482 2999 3437 2999 
C 3379 2999 3373 2974 3347 2863 
C 3213 2376 3085 2240 2528 2240 
L 1946 2240 
L 2362 3926 
C 2419 4154 2432 4154 2694 4154 
L 3552 4154 
C 4352 4154 4467 3918 4467 3464 
C 4467 3426 4467 3285 4448 3119 
C 4442 3094 4429 3011 4429 2985 
C 4429 2934 4461 2915 4499 2915 
C 4544 2915 4570 2941 4582 3055 
L 4717 4174 
C 4717 4195 4730 4263 4730 4277 
C 4730 4352 4672 4352 4557 4352 
L 1523 4352 
C 1402 4352 1338 4352 1338 4229 
C 1338 4154 1382 4154 1491 4154 
C 1888 4154 1888 4113 1888 4050 
C 1888 4018 1882 3992 1862 3922 
L 998 473 
C 941 249 928 185 480 185 
C 358 185 294 185 294 70 
C 294 0 352 0 390 0 
C 512 0 640 0 762 0 
L 1594 0 
C 1734 0 1888 0 2029 0 
C 2086 0 2163 0 2163 115 
C 2163 185 2125 185 1984 185 
C 1478 185 1466 229 1466 324 
C 1466 356 1478 406 1491 449 
L 1901 2055 
z
" transform="scale(0.015625)"/>
       <path id="CMMI12-78" d="M 3034 2606 
C 2829 2567 2752 2414 2752 2293 
C 2752 2139 2874 2088 2963 2088 
C 3155 2088 3290 2254 3290 2427 
C 3290 2695 2982 2816 2714 2816 
C 2323 2816 2106 2433 2048 2312 
C 1901 2816 1504 2816 1389 2816 
C 736 2816 390 1980 390 1839 
C 390 1814 416 1782 461 1782 
C 512 1782 525 1820 538 1846 
C 755 2555 1184 2689 1370 2689 
C 1658 2689 1715 2420 1715 2267 
C 1715 2127 1677 1980 1600 1673 
L 1382 798 
C 1286 415 1101 64 762 64 
C 730 64 570 64 435 147 
C 666 192 717 383 717 460 
C 717 588 621 664 499 664 
C 346 664 179 530 179 326 
C 179 57 480 -64 755 -64 
C 1062 -64 1280 179 1414 441 
C 1517 64 1837 -64 2074 -64 
C 2726 -64 3072 773 3072 913 
C 3072 945 3046 971 3008 971 
C 2950 971 2944 939 2925 888 
C 2752 326 2381 64 2093 64 
C 1869 64 1747 230 1747 492 
C 1747 632 1773 734 1875 1156 
L 2099 2024 
C 2195 2408 2413 2689 2707 2689 
C 2720 2689 2899 2689 3034 2606 
z
" transform="scale(0.015625)"/>
       <path id="CMSY10-69" d="M 1747 1491 
C 1779 1568 1779 1581 1779 1600 
C 1779 1619 1779 1632 1747 1709 
L 627 4653 
C 589 4762 550 4800 480 4800 
C 410 4800 352 4742 352 4672 
C 352 4653 352 4640 384 4570 
L 1517 1600 
L 384 -1357 
C 352 -1427 352 -1440 352 -1472 
C 352 -1542 410 -1600 480 -1600 
C 563 -1600 589 -1536 614 -1472 
L 1747 1491 
z
" transform="scale(0.015625)"/>
       <path id="CMMI12-4c" d="M 2349 3861 
C 2406 4103 2426 4167 2989 4167 
C 3162 4167 3206 4167 3206 4288 
C 3206 4352 3136 4352 3110 4352 
C 2982 4352 2835 4352 2707 4352 
L 1850 4352 
C 1728 4352 1587 4352 1466 4352 
C 1414 4352 1344 4352 1344 4231 
C 1344 4167 1402 4167 1498 4167 
C 1888 4167 1888 4116 1888 4046 
C 1888 4034 1888 3995 1862 3899 
L 998 472 
C 941 249 928 185 480 185 
C 358 185 294 185 294 70 
C 294 0 333 0 461 0 
L 3328 0 
C 3469 0 3475 6 3520 121 
L 4013 1478 
C 4026 1510 4038 1548 4038 1567 
C 4038 1605 4006 1631 3974 1631 
C 3968 1631 3936 1631 3923 1605 
C 3910 1599 3910 1586 3859 1465 
C 3654 905 3366 185 2285 185 
L 1670 185 
C 1581 185 1568 185 1530 192 
C 1459 198 1453 211 1453 262 
C 1453 307 1466 345 1478 401 
L 2349 3861 
z
" transform="scale(0.015625)"/>
       <path id="CMMI12-22" d="M 890 1427 
C 1094 1345 1312 1345 1434 1345 
C 1600 1345 1933 1345 1933 1550 
C 1933 1678 1811 1728 1485 1728 
C 1325 1728 1133 1709 909 1613 
C 710 1708 634 1852 634 1990 
C 634 2379 1261 2606 1830 2606 
C 1939 2606 2170 2606 2438 2411 
C 2477 2387 2496 2367 2541 2367 
C 2618 2367 2701 2449 2701 2526 
C 2701 2639 2330 2880 1888 2880 
C 1171 2880 493 2449 493 1972 
C 493 1734 646 1586 755 1509 
C 384 1301 166 961 166 652 
C 166 219 563 -128 1178 -128 
C 2022 -128 2362 424 2362 512 
C 2362 543 2336 568 2304 568 
C 2272 568 2259 549 2234 512 
C 2163 395 1997 146 1235 146 
C 838 146 314 245 314 686 
C 314 898 474 1214 890 1427 
z
M 1088 1518 
C 1261 1600 1427 1600 1472 1600 
C 1651 1600 1683 1583 1786 1545 
C 1677 1472 1664 1472 1434 1472 
C 1318 1472 1216 1472 1088 1518 
z
" transform="scale(0.015625)"/>
       <path id="CMMI12-45" d="M 4448 1489 
C 4454 1508 4474 1554 4474 1579 
C 4474 1611 4448 1643 4410 1643 
C 4384 1643 4371 1637 4352 1617 
C 4339 1611 4339 1598 4282 1469 
C 3904 570 3629 185 2605 185 
L 1670 185 
C 1581 185 1568 185 1530 192 
C 1459 198 1453 211 1453 262 
C 1453 307 1466 345 1478 403 
L 1920 2176 
L 2554 2176 
C 3053 2176 3091 2066 3091 1874 
C 3091 1810 3091 1752 3046 1560 
C 3034 1534 3027 1508 3027 1489 
C 3027 1444 3059 1425 3098 1425 
C 3155 1425 3162 1469 3187 1559 
L 3552 3042 
C 3552 3073 3526 3105 3488 3105 
C 3430 3105 3424 3080 3398 2990 
C 3270 2501 3142 2361 2573 2361 
L 1965 2361 
L 2362 3930 
C 2419 4154 2432 4154 2694 4154 
L 3610 4154 
C 4397 4154 4557 3943 4557 3458 
C 4557 3451 4557 3273 4531 3062 
C 4525 3036 4518 2998 4518 2985 
C 4518 2934 4550 2915 4589 2915 
C 4634 2915 4659 2941 4672 3055 
L 4806 4174 
C 4806 4195 4819 4263 4819 4277 
C 4819 4352 4762 4352 4646 4352 
L 1523 4352 
C 1402 4352 1338 4352 1338 4229 
C 1338 4154 1382 4154 1491 4154 
C 1888 4154 1888 4114 1888 4052 
C 1888 4020 1882 3994 1862 3924 
L 998 473 
C 941 249 928 185 480 185 
C 358 185 294 185 294 70 
C 294 0 333 0 461 0 
L 3674 0 
C 3814 0 3821 6 3866 110 
L 4448 1489 
z
" transform="scale(0.015625)"/>
      </defs>
      <use xlink:href="#CMSY10-68" transform="translate(0 48.318576) scale(0.697382)"/>
      <use xlink:href="#CMMI12-46" transform="translate(27.120497 48.318576) scale(0.697382)"/>
      <use xlink:href="#CMMI12-78" transform="translate(71.324042 37.85788) scale(0.498132)"/>
      <use xlink:href="#CMSY10-69" transform="translate(99.539204 48.318576) scale(0.697382)"/>
      <use xlink:href="#CMMI12-3d" transform="translate(126.6597 48.318576) scale(0.697382)"/>
      <use xlink:href="#CMMI12-4c" transform="translate(160.801991 48.318576) scale(0.697382)"/>
      <use xlink:href="#CMMI12-15" transform="translate(17.075554 -37.201863) scale(0.697382)"/>
      <use xlink:href="#CMMI12-22" transform="translate(56.908222 -37.201863) scale(0.697382)"/>
      <use xlink:href="#CMR17-30" transform="translate(88.863205 -47.662559) scale(0.498132)"/>
      <use xlink:href="#CMMI12-45" transform="translate(112.206575 -37.201863) scale(0.697382)"/>
      <use xlink:href="#CMR17-32" transform="translate(166.84248 -13.180964) scale(0.498132)"/>
      <use xlink:href="#CMR17-30" transform="translate(162.754204 -56.448915) scale(0.498132)"/>
      <path d="M 0 22.914133 
L 207.261405 22.914133 
L 207.261405 26.899083 
L 0 26.899083 
L 0 22.914133 
z
"/>
     </g>
    </g>
   </g>
   <g id="line2d_25">
    <path d="M 43.937559 106.34249 
L 84.084032 106.22426 
L 95.078074 105.974885 
L 102.759386 105.58392 
L 109.914405 104.992453 
L 122.982883 103.8457 
L 127.236613 103.762193 
L 132.445874 103.908993 
L 136.24707 103.927672 
L 138.553146 103.715724 
L 140.640806 103.299106 
L 142.972316 102.595292 
L 148.385084 100.8662 
L 150.230232 100.58142 
L 152.106025 100.522276 
L 157.630025 100.526533 
L 159.221865 100.159797 
L 160.981155 99.518345 
L 163.672571 98.257527 
L 165.705039 97.422655 
L 167.3508 96.994175 
L 169.085348 96.772387 
L 170.895314 96.772591 
L 172.630715 96.728322 
L 173.545958 96.469326 
L 174.445199 95.974252 
L 175.685108 95.002648 
L 177.370483 93.730519 
L 178.307759 93.305197 
L 179.163476 93.158401 
L 180.151079 93.228317 
L 182.055997 93.405757 
L 183.058739 93.220967 
L 183.92881 92.845187 
L 184.71393 92.253478 
L 185.839754 91.077585 
L 187.248478 89.690003 
L 187.913943 89.31711 
L 188.35673 89.305287 
L 188.753612 89.524822 
L 189.246658 90.084905 
L 190.357488 91.411236 
L 190.737715 91.507239 
L 191.07539 91.360867 
L 191.453635 90.930885 
L 191.927791 90.019134 
L 192.618802 88.137438 
L 193.433553 86.065146 
L 193.74562 85.783802 
L 193.964607 85.855004 
L 194.229383 86.220406 
L 194.696987 87.330408 
L 195.495623 89.121009 
L 195.922213 89.57983 
L 196.2374 89.631681 
L 196.51741 89.444459 
L 196.833846 88.932989 
L 197.230268 87.816302 
L 198.283452 84.595698 
L 198.456343 84.642566 
L 198.673546 85.000774 
L 199.876007 87.429274 
L 200.164848 87.425297 
L 200.472544 87.17984 
L 200.831722 86.58211 
L 201.232426 85.443375 
L 202.132549 82.529252 
L 202.167464 82.549003 
L 202.300614 82.807643 
L 202.525406 83.841968 
L 203.424963 88.490993 
L 203.650333 88.66445 
L 203.821745 88.519404 
L 204.067858 87.958058 
L 204.432393 86.497588 
L 204.898204 83.640274 
L 205.736384 78.015371 
L 205.768948 78.038381 
L 205.869963 78.348795 
L 206.059714 79.820135 
L 207.067377 88.959939 
L 207.327505 89.455712 
L 207.475428 89.398098 
L 207.653765 89.010974 
L 207.908653 87.841721 
L 208.233766 85.18316 
L 208.65499 79.632327 
L 209.034092 75.639898 
L 209.07283 75.611913 
L 209.12163 75.711963 
L 209.242617 76.557347 
L 209.573118 80.990979 
L 210.014977 85.522789 
L 210.366996 87.143523 
L 210.629241 87.532291 
L 210.786338 87.461725 
L 210.966727 87.069284 
L 211.19644 85.956183 
L 211.462772 83.419177 
L 211.866366 76.871108 
L 212.049696 75.340494 
L 212.077051 75.380861 
L 212.160362 75.962524 
L 212.375759 79.495823 
L 212.78772 85.120712 
L 213.070929 86.435613 
L 213.273513 86.606892 
L 213.42953 86.442809 
L 213.66083 85.811751 
L 213.952383 84.305802 
L 214.234827 81.57523 
L 214.5263 76.25328 
L 214.799436 71.850987 
L 214.828275 71.92741 
L 214.911697 72.962293 
L 215.182508 80.214109 
L 215.526187 86.220823 
L 215.815395 88.039028 
L 216.003492 88.279137 
L 216.011712 88.275827 
L 216.136021 88.094488 
L 216.330896 87.32866 
L 216.599505 85.253815 
L 216.882497 81.194163 
L 217.158814 73.572716 
L 217.386 68.060176 
L 217.422842 68.265891 
L 217.524467 70.628438 
L 218.018228 83.005618 
L 218.363193 85.837848 
L 218.685144 86.972451 
L 218.827553 87.042483 
L 218.850251 87.023224 
L 218.977223 86.728443 
L 219.150907 85.654874 
L 219.351287 82.818501 
L 219.564091 76.139994 
L 219.792084 68.196932 
L 219.844132 68.833875 
L 220.02907 75.795417 
L 220.294339 81.263502 
L 220.549017 82.65388 
L 220.858655 83.195684 
L 221.177091 83.387145 
L 221.323881 83.24293 
L 221.471887 82.704737 
L 221.632258 81.126277 
L 221.79866 76.875206 
L 222.033493 67.035925 
L 222.10935 69.134314 
L 222.497119 82.961869 
L 222.710811 83.990972 
L 222.817294 83.997463 
L 222.841508 83.972038 
L 223.019973 83.578714 
L 223.381517 82.146821 
L 223.675049 80.160513 
L 223.856506 77.147882 
L 224.016299 69.979938 
L 224.152211 62.674918 
L 224.208229 64.576341 
L 224.575923 80.538146 
L 224.836959 82.415557 
L 225.115785 83.068502 
L 225.297428 83.089475 
L 225.453053 82.827716 
L 225.636764 82.012328 
L 225.812448 80.08122 
L 225.96108 75.553075 
L 226.155261 61.710193 
L 226.238875 67.108993 
L 226.462562 77.673765 
L 226.656689 78.808638 
L 226.831287 78.870503 
L 227.190193 78.900606 
L 227.471341 79.261707 
L 227.614394 79.353614 
L 227.645724 79.314448 
L 227.735032 78.915975 
L 227.84039 77.174306 
L 227.95056 70.727846 
L 228.047838 61.997782 
L 228.104681 66.480337 
L 228.32229 79.844673 
L 228.455815 80.581101 
L 228.485423 80.555544 
L 228.591381 80.17642 
L 228.886265 78.068104 
L 228.949179 77.569015 
L 228.949179 77.569015 
" clip-path="url(#pc4c4d2a67b)" style="fill: none; stroke: #000000; stroke-width: 0.75; stroke-linecap: square"/>
   </g>
   <g id="line2d_26">
    <path d="M 43.937559 106.327862 
L 64.683306 106.179809 
L 73.261617 105.909147 
L 79.000094 105.515219 
L 83.531474 104.986953 
L 87.513351 104.301047 
L 91.41826 103.39988 
L 96.132329 102.066569 
L 103.432703 99.997831 
L 106.864218 99.281759 
L 109.991371 98.854912 
L 113.013678 98.665881 
L 115.996391 98.701839 
L 119.152766 98.968105 
L 123.92821 99.401409 
L 125.356001 99.265648 
L 126.611389 98.922444 
L 127.908096 98.329527 
L 129.587607 97.293207 
L 133.322636 94.930689 
L 135.374267 93.953996 
L 138.168033 92.897832 
L 142.129206 91.607953 
L 142.90347 91.616112 
L 143.526942 91.844453 
L 144.148519 92.320687 
L 144.915131 93.21706 
L 146.971243 95.765964 
L 147.618957 96.155663 
L 148.176332 96.242523 
L 148.714791 96.099095 
L 149.300437 95.70065 
L 150.004573 94.932244 
L 150.928893 93.565802 
L 152.12589 91.380624 
L 153.187757 88.994944 
L 154.16852 86.207479 
L 155.076659 83.76991 
L 155.378665 83.485119 
L 155.570616 83.568626 
L 155.792674 83.958634 
L 156.109935 85.04044 
L 156.663257 87.883544 
L 157.74345 93.311187 
L 158.473977 95.824722 
L 159.143057 97.39565 
L 159.669607 98.13103 
L 160.059339 98.340274 
L 160.37591 98.269852 
L 160.706598 97.948024 
L 161.105063 97.215421 
L 161.605296 95.782237 
L 162.223583 93.281625 
L 162.876901 89.685994 
L 163.467638 85.140221 
L 164.455915 77.183323 
L 164.544352 77.26601 
L 164.681778 77.865412 
L 164.944125 80.230285 
L 165.80602 88.420046 
L 166.318334 90.951465 
L 166.987619 93.106764 
L 168.123452 95.957971 
L 168.718482 96.972869 
L 169.068396 97.199464 
L 169.319785 97.117314 
L 169.581375 96.766866 
L 169.892371 95.932061 
L 170.244707 94.286087 
L 170.603307 91.461551 
L 170.947127 86.829169 
L 171.572694 75.718551 
L 171.666505 76.244006 
L 171.850809 79.453669 
L 172.309643 86.789345 
L 172.619134 88.549694 
L 172.916549 89.140415 
L 173.243319 89.323611 
L 174.263841 89.686705 
L 174.756708 90.235949 
L 176.128914 91.943882 
L 176.336637 91.822065 
L 176.537426 91.40313 
L 176.747553 90.376157 
L 176.95595 88.091432 
L 177.166065 82.935391 
L 177.427796 74.797447 
L 177.488419 75.617578 
L 177.670837 83.371564 
L 177.953741 90.701265 
L 178.203455 92.451348 
L 178.397961 92.682501 
L 178.544705 92.528223 
L 178.803159 91.856012 
L 179.356377 89.650298 
L 180.244915 86.332817 
L 180.764703 85.185931 
L 181.191297 84.72633 
L 181.853648 84.163942 
L 182.011291 83.398234 
L 182.15777 81.3684 
L 182.298699 75.643305 
L 182.44358 66.769471 
L 182.503661 69.593302 
L 182.815443 86.379634 
L 183.094415 89.373222 
L 183.512694 91.506515 
L 183.870463 92.40248 
L 184.078094 92.479708 
L 184.24765 92.271668 
L 184.487627 91.556684 
L 184.841977 89.695543 
L 185.463889 85.000461 
L 186.265453 79.401039 
L 186.56402 77.258565 
L 186.676659 73.97088 
L 186.780099 62.196441 
L 186.816436 58.715679 
L 186.869992 65.425005 
L 187.056185 78.620816 
L 187.292681 80.952471 
L 188.182798 85.820357 
L 188.799464 88.552185 
L 189.074672 88.980985 
L 189.225462 88.908307 
L 189.406699 88.49856 
L 189.660303 87.286713 
L 190.004792 84.401056 
L 190.531009 77.852905 
L 190.619677 73.217676 
L 190.689744 57.310156 
L 190.746103 71.295133 
L 190.893999 77.445437 
L 191.117736 78.235338 
L 191.696712 79.341249 
L 192.195556 80.416677 
L 193.226445 82.920349 
L 193.37508 82.78224 
L 193.567663 82.227126 
L 193.82379 80.70512 
L 194.066493 77.917363 
L 194.128298 73.716538 
L 194.167377 56.891957 
L 194.228289 75.783816 
L 194.369434 77.468283 
L 194.548383 78.790564 
L 195.057417 82.778775 
L 195.166377 82.849576 
L 195.202983 82.817437 
L 195.3533 82.459067 
L 195.714599 80.851629 
L 196.280586 78.673423 
L 196.950731 76.53544 
L 197.198598 74.493071 
L 197.289158 71.990818 
L 197.317393 58.713325 
L 197.324112 51.962249 
L 197.387888 71.792941 
L 197.419066 71.583065 
L 197.704506 68.52021 
L 197.77794 68.917062 
L 197.913137 71.601181 
L 198.515319 84.899074 
L 198.765191 86.186587 
L 198.849194 86.216069 
L 198.888869 86.169813 
L 199.029174 85.728307 
L 199.279212 84.064214 
L 199.808409 78.660979 
L 200.193518 73.191182 
L 200.211893 61.896538 
L 200.215941 52.629949 
L 200.255459 72.949118 
L 200.318852 72.209027 
L 200.582166 66.320824 
L 200.854078 59.412119 
L 200.907311 59.914053 
L 201.038239 64.457141 
L 201.437084 77.044136 
L 201.810895 81.891218 
L 202.160957 84.006682 
L 202.385104 84.372305 
L 202.495804 84.235262 
L 202.657603 83.582086 
L 202.859977 81.738176 
L 202.88001 78.636146 
L 202.885524 60.434604 
L 202.911635 81.165442 
L 202.98928 80.296457 
L 203.2957 74.501005 
L 203.529256 65.627156 
L 203.729892 56.152736 
L 203.788602 57.4805 
L 204.248323 72.188786 
L 204.664904 75.281947 
L 205.132815 77.464274 
L 205.338246 77.971849 
L 205.355383 77.801792 
L 205.363541 73.040413 
L 205.365444 56.875858 
L 205.473501 78.242199 
L 205.666585 78.323055 
L 205.669282 78.321017 
L 205.796109 78.082178 
L 205.946888 77.229324 
L 206.094937 74.896746 
L 206.233909 68.424063 
L 206.367344 59.218808 
L 206.427409 62.260101 
L 206.680121 74.480176 
L 206.772459 74.823231 
L 206.822731 74.750995 
L 206.986959 74.023951 
L 207.501139 71.870058 
L 207.677822 71.028637 
L 207.681915 50.682832 
L 207.696749 71.275246 
L 207.788949 70.992985 
L 208.622811 67.694748 
L 208.712794 63.875296 
L 208.81523 54.050691 
L 208.870559 60.193602 
L 209.077516 76.491742 
L 209.298064 79.189153 
L 209.387688 79.357284 
L 209.437306 79.291934 
L 209.559729 78.717138 
L 209.800739 76.293993 
L 209.854653 74.316146 
L 209.85562 55.129768 
L 209.861176 75.474436 
L 209.965626 74.061433 
L 210.70917 61.808248 
L 211.02206 54.860606 
L 211.104207 42.219723 
L 211.155371 52.789004 
L 211.328212 67.449872 
L 211.645058 74.211954 
L 211.899806 77.120722 
L 211.903011 76.720791 
L 211.903698 60.180964 
L 212.01342 77.916554 
L 212.158998 78.298692 
L 212.193772 78.265843 
L 212.291106 77.879149 
L 212.456163 76.121921 
L 212.703533 70.705949 
L 213.135918 55.194336 
L 213.211635 46.15707 
L 213.246785 35.369349 
L 213.303532 51.747839 
L 213.467116 60.09576 
L 213.827892 66.78261 
L 213.838336 66.899804 
L 213.840077 66.600327 
L 213.840512 54.256754 
L 213.950865 68.155701 
L 214.551717 73.102107 
L 214.669819 73.391743 
L 214.713428 73.329695 
L 214.810041 72.74982 
L 214.959677 70.222726 
L 215.164444 62.303654 
L 215.23623 51.753122 
L 215.259709 39.006348 
L 215.333616 58.088086 
L 215.602279 63.668575 
L 215.676145 64.380928 
L 215.677389 63.936515 
L 215.677596 61.209795 
L 215.78833 64.868035 
L 215.914401 64.944301 
L 215.940554 64.927403 
L 216.130901 64.633169 
L 216.470209 64.19653 
L 216.619731 64.375708 
L 216.797861 64.578899 
L 216.835478 64.529905 
L 216.927052 64.074784 
L 217.048408 62.08193 
L 217.130295 56.837116 
L 217.158016 37.89544 
L 217.242452 56.564253 
L 217.252397 56.551191 
L 217.282613 56.77455 
L 217.363204 59.733748 
L 217.691537 71.332137 
L 217.750663 71.509619 
L 217.807345 71.354583 
L 217.94214 70.086889 
L 218.280245 64.27361 
L 218.941097 49.644013 
L 218.954411 32.051606 
L 218.989004 51.40287 
L 219.053165 49.073872 
L 219.147502 45.726547 
L 219.198929 47.373359 
L 219.696911 71.503624 
L 219.900562 73.079171 
L 219.912245 73.072707 
L 219.973757 72.848185 
L 220.100174 71.340535 
L 220.327368 65.403457 
L 220.651359 51.084793 
L 220.660087 32.546969 
L 220.68426 52.451808 
L 220.76485 49.504065 
L 220.945192 37.376734 
L 221.015505 42.645453 
L 221.260044 58.574177 
L 221.649444 65.906855 
L 221.951335 68.96579 
L 221.974701 68.963057 
L 222.00911 68.869515 
L 222.1076 67.94731 
L 222.266187 63.997363 
L 222.281348 56.604361 
L 222.283961 42.487029 
L 222.300159 62.826872 
L 222.391645 59.5573 
L 222.569809 47.249033 
L 222.650298 37.990734 
L 222.705987 43.955912 
L 222.895547 56.039861 
L 223.069834 56.885438 
L 223.27966 57.188806 
L 223.454057 58.230571 
L 223.763624 60.076762 
L 223.794777 60.035181 
L 223.825905 59.623025 
L 223.83293 50.388201 
L 223.834101 38.760178 
L 223.852995 59.752277 
L 223.943158 58.940517 
L 224.13529 55.023937 
L 224.218992 47.540915 
L 224.267802 40.317879 
L 224.317871 49.621465 
L 224.486593 63.019483 
L 224.549179 63.411524 
L 224.607237 63.148948 
L 224.75118 60.979897 
L 225.315931 47.671463 
L 225.317057 30.917652 
L 225.327993 51.767909 
L 225.426598 50.761899 
L 225.63804 46.588588 
L 225.759541 40.90693 
L 225.814035 29.456152 
L 225.857986 42.654475 
L 226.026654 60.28904 
L 226.272928 66.613594 
L 226.320268 66.775411 
L 226.374903 66.543258 
L 226.490333 64.648315 
L 226.736574 56.155909 
L 226.738743 35.276243 
L 226.743236 56.182233 
L 226.857863 52.052704 
L 227.236711 34.362406 
L 227.293405 17.777681 
L 227.33873 35.420717 
L 227.512962 49.883238 
L 227.854987 61.229953 
L 228.069089 63.713539 
L 228.082104 63.701872 
L 228.102738 63.465461 
L 228.104382 44.52297 
L 228.109912 63.592224 
L 228.21856 62.237097 
L 228.399791 56.370038 
L 228.62973 41.171806 
L 228.697338 23.627281 
L 228.709109 16.515882 
L 228.790818 38.053798 
L 228.949179 45.663514 
L 228.949179 45.663514 
" clip-path="url(#pc4c4d2a67b)" style="fill: none; stroke: #ff0000; stroke-width: 0.75; stroke-linecap: square"/>
   </g>
   <g id="line2d_27">
    <path d="M 43.937559 106.314004 
L 60.497123 106.147365 
L 68.263919 105.859857 
L 73.559182 105.450553 
L 77.740425 104.910476 
L 81.386523 104.218246 
L 84.875445 103.328355 
L 88.725759 102.107182 
L 98.61066 98.843716 
L 101.755578 98.132986 
L 104.851883 97.662181 
L 108.068129 97.399785 
L 111.399103 97.351352 
L 114.763485 97.525071 
L 121.056128 97.938853 
L 122.365104 97.700754 
L 123.674837 97.229403 
L 125.500765 96.304184 
L 128.366432 94.879381 
L 130.615641 94.042704 
L 135.111058 92.441421 
L 136.412579 91.681637 
L 137.658091 90.683793 
L 138.954684 89.683619 
L 139.409111 89.606393 
L 139.772752 89.769242 
L 140.151093 90.20354 
L 140.618412 91.118315 
L 141.362281 93.15409 
L 142.510495 96.181134 
L 143.152969 97.272804 
L 143.681569 97.771637 
L 144.138991 97.918339 
L 144.582901 97.826571 
L 145.085475 97.48022 
L 145.737136 96.734523 
L 146.765992 95.168893 
L 148.753392 91.701159 
L 149.565724 89.853226 
L 150.179169 87.881152 
L 150.766865 85.184215 
L 151.690909 80.861428 
L 151.81681 80.830471 
L 151.83905 80.852751 
L 151.978864 81.195362 
L 152.204145 82.460543 
L 152.639855 86.492213 
L 153.396403 93.006322 
L 153.979846 96.125746 
L 154.615486 98.365166 
L 155.226437 99.778772 
L 155.688338 100.361994 
L 156.021409 100.471629 
L 156.309111 100.331215 
L 156.640729 99.891197 
L 157.073267 98.90208 
L 157.706314 96.823363 
L 158.827105 92.266727 
L 159.474596 88.840024 
L 159.887917 85.371117 
L 160.261179 80.140521 
L 160.734759 73.589383 
L 160.748831 73.600253 
L 160.812094 73.898865 
L 160.9558 75.928539 
L 161.72719 88.615309 
L 162.122786 90.8704 
L 162.644203 92.543801 
L 164.367271 96.840254 
L 164.873974 97.643119 
L 165.192158 97.795166 
L 165.45024 97.676646 
L 165.748239 97.261786 
L 166.124925 96.312708 
L 166.556078 94.580045 
L 166.945058 92.062256 
L 167.238281 88.612085 
L 167.472567 82.887136 
L 167.782232 71.553375 
L 167.861808 73.111066 
L 168.35884 87.150427 
L 168.598502 88.084402 
L 168.814621 88.22075 
L 169.105116 88.095325 
L 169.888914 87.723902 
L 170.296729 87.798848 
L 170.70766 88.11389 
L 171.189104 88.790089 
L 171.854748 90.159069 
L 172.911441 92.319011 
L 173.044667 92.248349 
L 173.167915 91.829073 
L 173.301512 90.42383 
L 173.428971 86.249241 
L 173.595537 73.500001 
L 173.668846 79.063474 
L 173.889172 91.506869 
L 174.082851 92.828349 
L 174.164495 92.850136 
L 174.204018 92.807061 
L 174.374603 92.363792 
L 174.739672 90.669742 
L 176.38504 82.406035 
L 176.972595 80.621957 
L 177.236796 80.355129 
L 177.390354 80.473462 
L 177.591878 80.982736 
L 177.925209 82.554021 
L 178.293905 84.199908 
L 178.325484 84.150267 
L 178.390222 83.563397 
L 178.464783 80.27545 
L 178.551312 66.00605 
L 178.607422 77.383146 
L 178.769238 87.610225 
L 179.037047 90.260071 
L 179.493567 92.708276 
L 179.778732 93.309354 
L 179.927153 93.266205 
L 180.097203 92.898953 
L 180.355323 91.718818 
L 180.749119 88.719006 
L 181.404344 81.756374 
L 182.219304 73.443663 
L 182.314658 73.313541 
L 182.361001 73.3666 
L 182.486788 73.854838 
L 182.7386 75.348543 
L 182.786892 74.903676 
L 182.832663 71.011856 
L 182.870026 56.168877 
L 182.925512 74.87308 
L 183.076337 79.038982 
L 183.523805 82.728733 
L 184.547856 89.338374 
L 184.878349 90.287971 
L 185.058764 90.333685 
L 185.212001 90.079533 
L 185.423019 89.221171 
L 185.684926 87.098482 
L 185.991238 82.563191 
L 186.68066 67.417119 
L 186.69888 51.096794 
L 186.778326 72.808534 
L 187.098854 76.73527 
L 187.419318 78.531332 
L 187.898018 79.77827 
L 188.358006 81.293397 
L 189.217562 84.234616 
L 189.466644 84.443334 
L 189.593252 84.289131 
L 189.742413 83.665392 
L 189.920391 81.786561 
L 190.115006 77.059238 
L 190.135306 69.095838 
L 190.140582 55.733144 
L 190.168574 75.723053 
L 190.243928 74.246784 
L 190.335691 73.265458 
L 190.387336 73.617054 
L 190.51976 76.875147 
L 190.835468 83.127769 
L 190.954824 83.471495 
L 190.994923 83.432467 
L 191.117736 82.994982 
L 191.452459 80.731078 
L 192.009787 77.467 
L 192.344439 76.626172 
L 192.584948 76.499675 
L 192.821675 76.64559 
L 193.168028 76.847706 
L 193.177395 76.837039 
L 193.248516 76.573547 
L 193.263845 74.745643 
L 193.268705 55.589854 
L 193.29598 76.446984 
L 193.373216 75.954777 
L 193.515338 73.492876 
L 193.752632 65.545775 
L 193.831525 67.949474 
L 194.259619 86.11103 
L 194.485449 87.584093 
L 194.548022 87.607997 
L 194.592809 87.545516 
L 194.726495 87.006651 
L 194.963162 84.958033 
L 195.43318 78.476053 
L 195.970981 72.195275 
L 196.135632 70.371136 
L 196.138405 50.205584 
L 196.156076 71.306104 
L 196.245695 71.12753 
L 196.515007 70.426846 
L 196.63527 68.948359 
L 196.755495 64.053912 
L 196.881119 55.336055 
L 196.939533 59.092413 
L 197.208708 76.690574 
L 197.509437 81.207051 
L 197.863819 83.668035 
L 198.110429 84.214088 
L 198.211318 84.110496 
L 198.350218 83.532644 
L 198.552091 81.55893 
L 198.788472 77.13736 
L 198.790088 56.519512 
L 198.795259 77.442096 
L 198.90144 75.499876 
L 199.252717 71.147704 
L 199.536808 68.46552 
L 199.637464 63.731786 
L 199.738799 50.380124 
L 199.798337 59.175599 
L 199.971695 70.22469 
L 200.220922 72.457227 
L 200.856527 75.943167 
L 201.231516 76.852564 
L 201.2497 76.858817 
L 201.254244 76.775316 
L 201.255759 64.17347 
L 201.276958 76.869761 
L 201.365262 76.780655 
L 201.498237 76.241585 
L 201.843124 74.06036 
L 201.928933 74.308442 
L 202.142317 75.439134 
L 202.201755 75.156134 
L 202.272606 73.169629 
L 202.336553 62.952437 
L 202.366573 55.203232 
L 202.425957 69.943119 
L 202.545324 74.185363 
L 202.566694 74.152151 
L 202.670155 73.511198 
L 203.227021 69.93875 
L 203.56006 68.836897 
L 203.560346 58.246618 
L 203.563197 69.094353 
L 203.671092 68.830563 
L 203.977444 67.729576 
L 204.18443 65.898499 
L 204.361831 64.32463 
L 204.409259 64.550249 
L 204.509499 66.618123 
L 204.721082 73.041391 
L 204.761435 70.914212 
L 204.799261 55.580974 
L 204.8478 74.869141 
L 204.99689 79.805143 
L 205.131448 80.445379 
L 205.166174 80.403531 
L 205.264168 79.900098 
L 205.46374 77.459217 
L 206.663571 56.745084 
L 206.81802 53.12062 
L 206.867709 53.768912 
L 207.024457 60.560129 
L 207.051775 55.690531 
L 207.065038 42.902384 
L 207.145292 67.43977 
L 207.403858 74.368983 
L 207.753219 78.366911 
L 207.763942 78.430442 
L 207.764197 78.424794 
L 207.764452 67.448059 
L 207.875072 78.837205 
L 207.914501 78.841888 
L 207.955159 78.761007 
L 208.068265 78.048302 
L 208.271062 75.05014 
L 208.746389 63.743775 
L 208.967873 53.743197 
L 209.103152 46.894729 
L 209.163724 48.117707 
L 209.177007 44.861062 
L 209.185614 29.481536 
L 209.273786 56.893375 
L 209.513928 64.949291 
L 209.820573 68.253035 
L 210.49003 72.62517 
L 210.639419 72.60614 
L 210.760633 72.350742 
L 210.87464 71.408192 
L 211.006359 68.041526 
L 211.142295 57.703339 
L 211.177311 40.471282 
L 211.179178 32.370403 
L 211.28589 53.809957 
L 211.497726 63.690142 
L 211.563842 63.859349 
L 211.623156 63.770132 
L 211.863387 62.862467 
L 212.256194 61.678451 
L 212.436304 61.691891 
L 212.590617 61.893284 
L 212.700395 62.601894 
L 212.879309 65.694212 
L 213.021614 67.689187 
L 213.053831 67.020624 
L 213.060271 49.666579 
L 213.060716 46.25504 
L 213.073371 67.030016 
L 213.170253 59.550372 
L 213.222029 53.710908 
L 213.274176 60.591383 
L 213.449536 72.54155 
L 213.474804 72.607553 
L 213.528142 72.350822 
L 213.67569 70.076808 
L 214.646398 51.383061 
L 214.70152 51.719997 
L 214.822127 54.604807 
L 214.836328 54.959617 
L 214.84205 51.859221 
L 214.843109 34.522036 
L 214.952072 58.192792 
L 214.979739 58.412499 
L 215.020675 57.58388 
L 215.07989 49.323579 
L 215.108727 44.184157 
L 215.160242 56.901449 
L 215.323157 69.256207 
L 215.574438 73.017416 
L 215.633005 73.153739 
L 215.686716 73.013577 
L 215.797216 71.88292 
L 215.995682 67.092965 
L 216.385258 51.173852 
L 216.536533 40.568702 
L 216.536938 24.410809 
L 216.647423 46.774335 
L 216.800477 51.13704 
L 216.842916 49.414446 
L 216.894544 34.697235 
L 216.939285 51.069279 
L 217.087376 58.989521 
L 217.63035 67.276265 
L 217.801269 68.114482 
L 217.831444 68.074626 
L 217.909122 67.561637 
L 218.033817 64.921795 
L 218.150531 57.694679 
L 218.150919 44.217691 
L 218.152667 59.252705 
L 218.261659 51.819722 
L 218.35508 48.458723 
L 218.409905 49.403328 
L 218.515469 52.099952 
L 218.552001 50.331201 
L 218.587347 33.494654 
L 218.64107 53.60123 
L 218.755363 55.195566 
L 218.77734 55.17941 
L 218.91141 54.808274 
L 219.01901 54.662298 
L 219.063596 54.715589 
L 219.184188 55.212175 
L 219.494039 57.718147 
L 219.690384 59.929437 
L 219.692249 59.355721 
L 219.692435 53.62218 
L 219.743317 60.164004 
L 219.803243 59.739808 
L 219.897779 56.548001 
L 220.006696 51.604483 
L 220.061776 53.738056 
L 220.158436 59.826459 
L 220.184404 54.688975 
L 220.196184 41.486135 
L 220.283507 63.882125 
L 220.29801 63.9171 
L 220.344605 63.610291 
L 220.486056 60.592867 
L 221.043593 48.301474 
L 221.168122 47.734343 
L 221.168301 42.937434 
L 221.279188 48.78852 
L 221.400987 49.831374 
L 221.448565 49.467096 
L 221.527552 46.245872 
L 221.609389 41.163433 
L 221.658832 44.833261 
L 221.711394 51.207501 
L 221.726777 39.420385 
L 221.729783 33.657572 
L 221.829526 62.56254 
L 222.037351 67.4059 
L 222.06049 67.445005 
L 222.107425 67.242473 
L 222.212293 65.425747 
L 222.435744 56.732084 
L 222.836186 42.966729 
L 222.840306 42.968189 
L 222.88886 43.137808 
L 222.9454 43.335597 
L 222.987835 43.06635 
L 223.054814 40.513391 
L 223.192671 22.908369 
L 223.194712 14.344261 
L 223.298154 49.486764 
L 223.534383 58.23564 
L 223.83962 62.966906 
L 223.860183 62.987933 
L 223.903112 62.831668 
L 223.99632 61.384182 
L 224.160669 54.582028 
L 224.427197 46.054294 
L 224.503194 44.50995 
L 224.576087 36.789247 
L 224.597567 10.5239 
L 224.67944 38.397513 
L 224.833212 46.439103 
L 225.499184 53.893307 
L 225.564281 53.497008 
L 225.735527 50.407052 
L 225.810225 51.804896 
L 225.913764 54.450527 
L 225.941306 52.58739 
L 225.943521 32.982352 
L 225.950482 53.520795 
L 226.058847 43.678902 
L 226.136848 52.682512 
L 226.191747 51.803748 
L 226.657932 42.683618 
L 226.754544 42.475475 
L 226.805002 42.524191 
L 226.871762 42.578321 
L 226.910189 42.481241 
L 226.988158 41.571835 
L 227.112945 38.776401 
L 227.165227 40.260475 
L 227.234111 45.742342 
L 227.23717 38.795332 
L 227.237629 25.435106 
L 227.323627 51.672525 
L 227.34788 50.093681 
L 227.382629 36.528974 
L 227.426022 55.601403 
L 227.54832 60.889036 
L 227.565759 60.837767 
L 227.633014 59.795461 
L 227.808467 52.79651 
L 228.242248 36.806904 
L 228.384363 31.224021 
L 228.483499 20.537689 
L 228.483795 9.563417 
L 228.594332 37.134868 
L 228.639312 40.03071 
L 228.667452 33.460067 
L 228.679674 23.845153 
L 228.758508 48.821019 
L 228.949179 55.625906 
L 228.949179 55.625906 
" clip-path="url(#pc4c4d2a67b)" style="fill: none; stroke: #0000ff; stroke-width: 0.75; stroke-linecap: square"/>
   </g>
   <g id="line2d_28">
    <path d="M 105.11123 111.181443 
L 105.11123 4.724464 
" clip-path="url(#pc4c4d2a67b)" style="fill: none; stroke-dasharray: 2.775,1.2; stroke-dashoffset: 0; stroke: #000000; stroke-width: 0.75"/>
   </g>
   <g id="line2d_29">
    <path d="M 218.977033 111.181443 
L 218.977033 4.724464 
" clip-path="url(#pc4c4d2a67b)" style="fill: none; stroke-dasharray: 2.775,1.2; stroke-dashoffset: 0; stroke: #000000; stroke-width: 0.75"/>
   </g>
   <g id="patch_3">
    <path d="M 34.686977 111.181443 
L 34.686977 4.724464 
" style="fill: none; stroke: #000000; stroke-width: 0.8; stroke-linejoin: miter; stroke-linecap: square"/>
   </g>
   <g id="patch_4">
    <path d="M 238.19976 111.181443 
L 238.19976 4.724464 
" style="fill: none; stroke: #000000; stroke-width: 0.8; stroke-linejoin: miter; stroke-linecap: square"/>
   </g>
   <g id="patch_5">
    <path d="M 34.686977 111.181443 
L 238.19976 111.181443 
" style="fill: none; stroke: #000000; stroke-width: 0.8; stroke-linejoin: miter; stroke-linecap: square"/>
   </g>
   <g id="patch_6">
    <path d="M 34.686977 4.724464 
L 238.19976 4.724464 
" style="fill: none; stroke: #000000; stroke-width: 0.8; stroke-linejoin: miter; stroke-linecap: square"/>
   </g>
   <g id="text_9">
    <!-- Rayleigh regime -->
    <g transform="translate(85.683662 83.029756) rotate(-90) scale(0.1 -0.1)">
     <defs>
      <path id="CMR17-52" d="M 2509 2146 
C 3117 2268 3629 2676 3629 3186 
C 3629 3785 2950 4326 2054 4326 
L 333 4326 
L 333 4160 
C 774 4160 845 4160 845 3873 
L 845 415 
C 845 128 774 128 333 128 
L 333 -26 
C 518 -26 851 -26 1050 -26 
C 1248 -26 1581 -26 1766 -26 
L 1766 128 
C 1325 128 1254 128 1254 417 
L 1254 2112 
L 2003 2112 
C 2368 2112 2573 1964 2662 1881 
C 2918 1632 2918 1459 2918 1024 
C 2918 595 2918 377 3110 160 
C 3354 -102 3680 -128 3821 -128 
C 4294 -128 4365 396 4365 503 
C 4365 540 4365 585 4307 585 
C 4256 585 4250 547 4250 522 
C 4218 112 4032 -26 3834 -26 
C 3482 -26 3443 375 3405 764 
C 3386 898 3373 993 3360 1133 
C 3322 1452 3270 1917 2509 2146 
z
M 1984 2214 
L 1254 2214 
L 1254 3913 
C 1254 4129 1267 4160 1523 4160 
L 1990 4160 
C 2522 4160 3142 3977 3142 3190 
C 3142 2372 2464 2214 1984 2214 
z
" transform="scale(0.015625)"/>
      <path id="CMR17-61" d="M 2304 1653 
C 2304 2072 2304 2294 2035 2543 
C 1798 2752 1523 2816 1306 2816 
C 800 2816 435 2407 435 1971 
C 435 1728 627 1728 666 1728 
C 749 1728 896 1778 896 1954 
C 896 2112 774 2181 666 2181 
C 640 2181 608 2174 589 2168 
C 723 2592 1069 2714 1293 2714 
C 1613 2714 1965 2429 1965 1885 
L 1965 1600 
C 1587 1600 1133 1549 774 1357 
C 371 1133 256 813 256 570 
C 256 77 832 -64 1171 -64 
C 1523 -64 1850 139 1990 511 
C 2003 233 2182 -18 2464 -18 
C 2598 -18 2938 70 2938 567 
L 2938 920 
L 2822 920 
L 2822 562 
C 2822 178 2650 128 2566 128 
C 2304 128 2304 458 2304 738 
L 2304 1653 
z
M 1965 870 
C 1965 317 1568 38 1216 38 
C 896 38 646 275 646 570 
C 646 761 730 1100 1101 1305 
C 1408 1478 1760 1504 1965 1504 
L 1965 870 
z
" transform="scale(0.015625)"/>
      <path id="CMR17-79" d="M 2496 2197 
C 2656 2586 2944 2586 3034 2586 
L 3034 2752 
C 2912 2752 2752 2752 2630 2752 
C 2496 2752 2285 2752 2157 2758 
L 2157 2592 
C 2400 2573 2406 2394 2406 2343 
C 2406 2280 2394 2248 2362 2171 
L 1664 449 
L 902 2306 
C 870 2382 870 2426 870 2433 
C 870 2573 1018 2586 1171 2586 
L 1171 2758 
C 1018 2752 742 2752 582 2752 
C 410 2752 205 2752 64 2758 
L 64 2586 
C 410 2586 448 2554 531 2350 
L 1485 15 
C 1197 -738 1030 -1178 627 -1178 
C 557 -1178 397 -1159 282 -1044 
C 429 -1031 493 -942 493 -833 
C 493 -725 416 -629 288 -629 
C 147 -629 77 -725 77 -840 
C 77 -1095 339 -1280 627 -1280 
C 998 -1280 1229 -922 1357 -604 
L 2496 2197 
z
" transform="scale(0.015625)"/>
      <path id="CMR17-6c" d="M 979 4396 
L 218 4326 
L 218 4160 
C 595 4160 653 4122 653 3817 
L 653 426 
C 653 184 627 153 218 153 
L 218 -13 
C 371 0 653 0 813 0 
C 979 0 1261 0 1414 -13 
L 1414 153 
C 1005 153 979 178 979 426 
L 979 4396 
z
" transform="scale(0.015625)"/>
      <path id="CMR17-65" d="M 2438 1472 
C 2464 1498 2464 1511 2464 1576 
C 2464 2238 2118 2816 1389 2816 
C 710 2816 173 2169 173 1383 
C 173 551 781 -64 1459 -64 
C 2176 -64 2458 607 2458 740 
C 2458 784 2419 784 2406 784 
C 2362 784 2355 771 2330 696 
C 2189 265 1837 51 1504 51 
C 1229 51 954 203 781 480 
C 582 803 582 1176 582 1472 
L 2438 1472 
z
M 589 1568 
C 634 2505 1126 2714 1382 2714 
C 1818 2714 2112 2297 2118 1568 
L 589 1568 
z
" transform="scale(0.015625)"/>
      <path id="CMR17-69" d="M 992 3909 
C 992 4049 877 4170 730 4170 
C 589 4170 467 4056 467 3909 
C 467 3769 582 3648 730 3648 
C 870 3648 992 3763 992 3909 
z
M 243 2706 
L 243 2541 
C 602 2541 653 2502 653 2197 
L 653 427 
C 653 184 627 153 218 153 
L 218 -13 
C 371 0 646 0 806 0 
C 960 0 1222 0 1370 -13 
L 1370 153 
C 992 153 979 191 979 420 
L 979 2776 
L 243 2706 
z
" transform="scale(0.015625)"/>
      <path id="CMR17-67" d="M 710 1164 
C 832 1068 1043 960 1299 960 
C 1805 960 2240 1357 2240 1888 
C 2240 2054 2189 2310 1997 2509 
C 2176 2692 2438 2752 2586 2752 
C 2611 2752 2650 2752 2682 2734 
C 2656 2728 2598 2703 2598 2605 
C 2598 2527 2656 2471 2739 2471 
C 2835 2471 2886 2533 2886 2614 
C 2886 2731 2790 2854 2586 2854 
C 2330 2854 2106 2738 1926 2580 
C 1734 2753 1504 2816 1299 2816 
C 794 2816 358 2419 358 1888 
C 358 1522 570 1292 634 1228 
C 442 1004 442 743 442 711 
C 442 545 506 302 723 168 
C 390 85 128 -169 128 -486 
C 128 -943 736 -1280 1466 -1280 
C 2170 -1280 2803 -956 2803 -479 
C 2803 384 1856 384 1363 384 
C 1216 384 954 384 922 391 
C 723 423 589 602 589 826 
C 589 883 589 1024 710 1164 
z
M 1299 1068 
C 736 1068 736 1760 736 1889 
C 736 2016 736 2708 1299 2708 
C 1862 2708 1862 2016 1862 1889 
C 1862 1760 1862 1068 1299 1068 
z
M 1466 -1171 
C 826 -1171 384 -835 384 -486 
C 384 -289 493 -105 634 -4 
C 794 104 858 104 1293 104 
C 1818 104 2547 104 2547 -486 
C 2547 -835 2106 -1171 1466 -1171 
z
" transform="scale(0.015625)"/>
      <path id="CMR17-68" d="M 2656 1933 
C 2656 2259 2592 2790 1837 2790 
C 1312 2790 1056 2368 979 2157 
L 973 2157 
L 973 4396 
L 211 4326 
L 211 4160 
C 589 4160 646 4122 646 3817 
L 646 426 
C 646 184 621 153 211 153 
L 211 -13 
C 365 0 646 0 813 0 
C 979 0 1267 0 1421 -13 
L 1421 153 
C 1011 153 986 178 986 428 
L 986 1658 
C 986 2247 1344 2688 1792 2688 
C 2266 2688 2317 2266 2317 1958 
L 2317 428 
C 2317 184 2291 153 1882 153 
L 1882 -13 
C 2035 0 2317 0 2483 0 
C 2650 0 2938 0 3091 -13 
L 3091 153 
C 2682 153 2656 178 2656 428 
L 2656 1933 
z
" transform="scale(0.015625)"/>
      <path id="CMR17-72" d="M 960 1497 
C 960 2112 1222 2688 1702 2688 
C 1747 2688 1792 2682 1837 2662 
C 1837 2662 1696 2617 1696 2452 
C 1696 2298 1818 2234 1914 2234 
C 1990 2234 2131 2279 2131 2458 
C 2131 2663 1926 2790 1709 2790 
C 1222 2790 1011 2317 947 2093 
L 941 2093 
L 941 2790 
L 198 2720 
L 198 2554 
C 576 2554 634 2515 634 2208 
L 634 428 
C 634 184 608 153 198 153 
L 198 -13 
C 352 0 646 0 813 0 
C 998 0 1325 0 1498 -13 
L 1498 153 
C 1037 153 960 153 960 440 
L 960 1497 
z
" transform="scale(0.015625)"/>
      <path id="CMR17-6d" d="M 4326 1933 
C 4326 2252 4269 2790 3507 2790 
C 3072 2790 2771 2496 2656 2151 
L 2650 2151 
C 2573 2676 2195 2790 1837 2790 
C 1331 2790 1069 2400 973 2144 
L 966 2144 
L 966 2790 
L 211 2720 
L 211 2554 
C 589 2554 646 2515 646 2208 
L 646 428 
C 646 184 621 153 211 153 
L 211 -13 
C 365 0 646 0 813 0 
C 979 0 1267 0 1421 -13 
L 1421 153 
C 1011 153 986 178 986 428 
L 986 1658 
C 986 2247 1344 2688 1792 2688 
C 2266 2688 2317 2266 2317 1958 
L 2317 428 
C 2317 184 2291 153 1882 153 
L 1882 -13 
C 2035 0 2317 0 2483 0 
C 2650 0 2938 0 3091 -13 
L 3091 153 
C 2682 153 2656 178 2656 428 
L 2656 1658 
C 2656 2247 3014 2688 3462 2688 
C 3936 2688 3987 2266 3987 1958 
L 3987 428 
C 3987 184 3962 153 3552 153 
L 3552 -13 
C 3706 0 3987 0 4154 0 
C 4320 0 4608 0 4762 -13 
L 4762 153 
C 4352 153 4326 178 4326 428 
L 4326 1933 
z
" transform="scale(0.015625)"/>
     </defs>
     <use xlink:href="#CMR17-52" transform="scale(0.996264)"/>
     <use xlink:href="#CMR17-61" transform="translate(67.791102 0) scale(0.996264)"/>
     <use xlink:href="#CMR17-79" transform="translate(110.879125 0) scale(0.996264)"/>
     <use xlink:href="#CMR17-6c" transform="translate(159.172041 0) scale(0.996264)"/>
     <use xlink:href="#CMR17-65" transform="translate(184.043099 0) scale(0.996264)"/>
     <use xlink:href="#CMR17-69" transform="translate(224.52876 0) scale(0.996264)"/>
     <use xlink:href="#CMR17-67" transform="translate(249.399818 0) scale(0.996264)"/>
     <use xlink:href="#CMR17-68" transform="translate(295.090296 0) scale(0.996264)"/>
     <use xlink:href="#CMR17-72" transform="translate(376.061632 0) scale(0.996264)"/>
     <use xlink:href="#CMR17-65" transform="translate(411.342399 0) scale(0.996264)"/>
     <use xlink:href="#CMR17-67" transform="translate(451.82806 0) scale(0.996264)"/>
     <use xlink:href="#CMR17-69" transform="translate(497.518537 0) scale(0.996264)"/>
     <use xlink:href="#CMR17-6d" transform="translate(522.389596 0) scale(0.996264)"/>
     <use xlink:href="#CMR17-65" transform="translate(599.309185 0) scale(0.996264)"/>
    </g>
   </g>
   <g id="text_10">
    <!-- Mie regime -->
    <g transform="translate(139.938835 42.244271) scale(0.1 -0.1)">
     <defs>
      <path id="CMR17-4d" d="M 1338 4224 
C 1299 4320 1293 4320 1158 4320 
L 339 4320 
L 339 4160 
C 781 4160 851 4160 851 3875 
L 851 610 
C 851 451 851 153 339 153 
L 339 -13 
C 486 0 755 0 915 0 
C 1075 0 1344 0 1491 -13 
L 1491 153 
C 979 153 979 451 979 610 
L 979 4135 
L 986 4135 
L 2490 89 
C 2515 25 2528 -13 2579 -13 
C 2630 -13 2643 25 2669 89 
L 4186 4166 
L 4192 4166 
L 4192 438 
C 4192 153 4122 153 3680 153 
L 3680 -13 
C 3853 0 4198 0 4384 0 
C 4570 0 4922 0 5094 -13 
L 5094 153 
C 4653 153 4582 153 4582 438 
L 4582 3875 
C 4582 4160 4653 4160 5094 4160 
L 5094 4320 
L 4282 4320 
C 4147 4320 4141 4314 4102 4218 
L 2720 502 
L 1338 4224 
z
" transform="scale(0.015625)"/>
     </defs>
     <use xlink:href="#CMR17-4d" transform="scale(0.996264)"/>
     <use xlink:href="#CMR17-69" transform="translate(84.686941 0) scale(0.996264)"/>
     <use xlink:href="#CMR17-65" transform="translate(109.557999 0) scale(0.996264)"/>
     <use xlink:href="#CMR17-72" transform="translate(180.119626 0) scale(0.996264)"/>
     <use xlink:href="#CMR17-65" transform="translate(215.400394 0) scale(0.996264)"/>
     <use xlink:href="#CMR17-67" transform="translate(255.886054 0) scale(0.996264)"/>
     <use xlink:href="#CMR17-69" transform="translate(301.576531 0) scale(0.996264)"/>
     <use xlink:href="#CMR17-6d" transform="translate(326.44759 0) scale(0.996264)"/>
     <use xlink:href="#CMR17-65" transform="translate(403.36718 0) scale(0.996264)"/>
    </g>
   </g>
   <g id="text_11">
    <!-- GO regime -->
    <g transform="translate(235.867824 96.896995) rotate(-90) scale(0.1 -0.1)">
     <defs>
      <path id="CMR17-47" d="M 3974 1233 
C 3974 1473 3994 1505 4390 1505 
L 4390 1670 
C 4237 1664 3891 1664 3718 1664 
C 3539 1664 3040 1664 2797 1664 
L 2797 1505 
L 2989 1505 
C 3539 1505 3552 1434 3552 1201 
L 3552 774 
C 3552 63 2720 63 2522 63 
C 1862 63 781 511 781 2160 
C 781 3808 1843 4250 2464 4250 
C 3187 4250 3712 3626 3834 2741 
C 3846 2664 3846 2651 3904 2651 
C 3974 2651 3974 2664 3974 2779 
L 3974 4288 
C 3974 4402 3968 4409 3930 4409 
C 3904 4409 3898 4402 3853 4326 
L 3571 3791 
C 3258 4187 2874 4416 2381 4416 
C 1286 4416 294 3456 294 2148 
C 294 845 1267 -128 2394 -128 
C 2912 -128 3418 56 3616 417 
C 3725 158 3904 -20 3936 -20 
C 3968 -20 3974 -13 3974 100 
L 3974 1233 
z
" transform="scale(0.015625)"/>
      <path id="CMR17-4f" d="M 4307 2135 
C 4307 3437 3366 4416 2304 4416 
C 1216 4416 294 3424 294 2135 
C 294 845 1229 -128 2298 -128 
C 3392 -128 4307 864 4307 2135 
z
M 2304 -13 
C 1574 -13 781 711 781 2217 
C 781 3716 1651 4301 2298 4301 
C 2976 4301 3821 3698 3821 2217 
C 3821 686 3008 -13 2304 -13 
z
" transform="scale(0.015625)"/>
     </defs>
     <use xlink:href="#CMR17-47" transform="scale(0.996264)"/>
     <use xlink:href="#CMR17-4f" transform="translate(72.355346 0) scale(0.996264)"/>
     <use xlink:href="#CMR17-72" transform="translate(174.146101 0) scale(0.996264)"/>
     <use xlink:href="#CMR17-65" transform="translate(209.426868 0) scale(0.996264)"/>
     <use xlink:href="#CMR17-67" transform="translate(249.912529 0) scale(0.996264)"/>
     <use xlink:href="#CMR17-69" transform="translate(295.603006 0) scale(0.996264)"/>
     <use xlink:href="#CMR17-6d" transform="translate(320.474065 0) scale(0.996264)"/>
     <use xlink:href="#CMR17-65" transform="translate(397.393654 0) scale(0.996264)"/>
    </g>
   </g>
  </g>
 </g>
 <defs>
  <clipPath id="pc4c4d2a67b">
   <rect x="34.686977" y="4.724464" width="203.512783" height="106.456979"/>
  </clipPath>
 </defs>
</svg>
