<?xml version="1.0" encoding="utf-8" standalone="no"?>
<!DOCTYPE svg PUBLIC "-//W3C//DTD SVG 1.1//EN"
  "http://www.w3.org/Graphics/SVG/1.1/DTD/svg11.dtd">
<svg xmlns:xlink="http://www.w3.org/1999/xlink" width="241.2pt" height="342pt" viewBox="0 0 241.2 342" xmlns="http://www.w3.org/2000/svg" version="1.1">
 <metadata>
  <rdf:RDF xmlns:dc="http://purl.org/dc/elements/1.1/" xmlns:cc="http://creativecommons.org/ns#" xmlns:rdf="http://www.w3.org/1999/02/22-rdf-syntax-ns#">
   <cc:Work>
    <dc:type rdf:resource="http://purl.org/dc/dcmitype/StillImage"/>
    <dc:date>2024-04-02T09:34:21.434088</dc:date>
    <dc:format>image/svg+xml</dc:format>
    <dc:creator>
     <cc:Agent>
      <dc:title>Matplotlib v3.6.3, https://matplotlib.org/</dc:title>
     </cc:Agent>
    </dc:creator>
   </cc:Work>
  </rdf:RDF>
 </metadata>
 <defs>
  <style type="text/css">*{stroke-linejoin: round; stroke-linecap: butt}</style>
 </defs>
 <g id="figure_1">
  <g id="patch_1">
   <path d="M 0 342 
L 241.2 342 
L 241.2 0 
L 0 0 
z
" style="fill: #ffffff"/>
  </g>
  <g id="axes_1">
   <g id="patch_2">
    <path d="M 37.896788 309.181443 
L 238.19976 309.181443 
L 238.19976 55.94869 
L 37.896788 55.94869 
z
" style="fill: #ffffff"/>
   </g>
   <g id="matplotlib.axis_1">
    <g id="xtick_1">
     <g id="line2d_1">
      <defs>
       <path id="m5f3a01c8dd" d="M 0 0 
L 0 3.5 
" style="stroke: #000000; stroke-width: 0.8"/>
      </defs>
      <g>
       <use xlink:href="#m5f3a01c8dd" x="47.001469" y="309.181443" style="stroke: #000000; stroke-width: 0.8"/>
      </g>
     </g>
     <g id="text_1">
      <!-- $\mathdefault{0}$ -->
      <g transform="translate(44.510801 323.099942) scale(0.1 -0.1)">
       <defs>
        <path id="CMR17-30" d="M 2688 2025 
C 2688 2416 2682 3080 2413 3591 
C 2176 4039 1798 4198 1466 4198 
C 1158 4198 768 4058 525 3597 
C 269 3118 243 2524 243 2025 
C 243 1661 250 1106 448 619 
C 723 -39 1216 -128 1466 -128 
C 1760 -128 2208 -7 2470 600 
C 2662 1042 2688 1559 2688 2025 
z
M 1466 -26 
C 1056 -26 813 325 723 812 
C 653 1188 653 1738 653 2096 
C 653 2588 653 2997 736 3387 
C 858 3929 1216 4096 1466 4096 
C 1728 4096 2067 3923 2189 3400 
C 2272 3036 2278 2607 2278 2096 
C 2278 1680 2278 1169 2202 792 
C 2067 95 1690 -26 1466 -26 
z
" transform="scale(0.015625)"/>
       </defs>
       <use xlink:href="#CMR17-30" transform="scale(0.996264)"/>
      </g>
     </g>
    </g>
    <g id="xtick_2">
     <g id="line2d_2">
      <g>
       <use xlink:href="#m5f3a01c8dd" x="77.350404" y="309.181443" style="stroke: #000000; stroke-width: 0.8"/>
      </g>
     </g>
     <g id="text_2">
      <!-- $\mathdefault{30}$ -->
      <g transform="translate(72.369069 323.099942) scale(0.1 -0.1)">
       <defs>
        <path id="CMR17-33" d="M 1414 2157 
C 1984 2157 2234 1662 2234 1090 
C 2234 320 1824 25 1453 25 
C 1114 25 563 194 390 693 
C 422 680 454 680 486 680 
C 640 680 755 782 755 948 
C 755 1133 614 1216 486 1216 
C 378 1216 211 1165 211 926 
C 211 335 787 -128 1466 -128 
C 2176 -128 2720 430 2720 1085 
C 2720 1707 2208 2157 1600 2227 
C 2086 2328 2554 2756 2554 3329 
C 2554 3820 2048 4179 1472 4179 
C 890 4179 378 3829 378 3329 
C 378 3110 544 3072 627 3072 
C 762 3072 877 3155 877 3321 
C 877 3486 762 3569 627 3569 
C 602 3569 570 3569 544 3557 
C 730 3959 1235 4032 1459 4032 
C 1683 4032 2106 3925 2106 3320 
C 2106 3143 2080 2828 1862 2550 
C 1670 2304 1453 2304 1242 2284 
C 1210 2284 1062 2269 1037 2269 
C 992 2263 966 2257 966 2208 
C 966 2163 973 2157 1101 2157 
L 1414 2157 
z
" transform="scale(0.015625)"/>
       </defs>
       <use xlink:href="#CMR17-33" transform="scale(0.996264)"/>
       <use xlink:href="#CMR17-30" transform="translate(45.690477 0) scale(0.996264)"/>
      </g>
     </g>
    </g>
    <g id="xtick_3">
     <g id="line2d_3">
      <g>
       <use xlink:href="#m5f3a01c8dd" x="107.699339" y="309.181443" style="stroke: #000000; stroke-width: 0.8"/>
      </g>
     </g>
     <g id="text_3">
      <!-- $\mathdefault{60}$ -->
      <g transform="translate(102.718004 323.099942) scale(0.1 -0.1)">
       <defs>
        <path id="CMR17-36" d="M 678 2176 
C 678 3690 1395 4032 1811 4032 
C 1946 4032 2272 4009 2400 3776 
C 2298 3776 2106 3776 2106 3553 
C 2106 3381 2246 3323 2336 3323 
C 2394 3323 2566 3348 2566 3560 
C 2566 3954 2246 4179 1805 4179 
C 1043 4179 243 3390 243 1984 
C 243 253 966 -128 1478 -128 
C 2099 -128 2688 427 2688 1283 
C 2688 2081 2170 2662 1517 2662 
C 1126 2662 838 2407 678 1960 
L 678 2176 
z
M 1478 25 
C 691 25 691 1200 691 1436 
C 691 1896 909 2560 1504 2560 
C 1613 2560 1926 2560 2138 2120 
C 2253 1870 2253 1609 2253 1289 
C 2253 944 2253 690 2118 434 
C 1978 171 1773 25 1478 25 
z
" transform="scale(0.015625)"/>
       </defs>
       <use xlink:href="#CMR17-36" transform="scale(0.996264)"/>
       <use xlink:href="#CMR17-30" transform="translate(45.690477 0) scale(0.996264)"/>
      </g>
     </g>
    </g>
    <g id="xtick_4">
     <g id="line2d_4">
      <g>
       <use xlink:href="#m5f3a01c8dd" x="138.048274" y="309.181443" style="stroke: #000000; stroke-width: 0.8"/>
      </g>
     </g>
     <g id="text_4">
      <!-- $\mathdefault{90}$ -->
      <g transform="translate(133.066939 323.099942) scale(0.1 -0.1)">
       <defs>
        <path id="CMR17-39" d="M 2253 1864 
C 2253 464 1670 31 1190 31 
C 1043 31 685 31 538 294 
C 704 268 826 357 826 518 
C 826 692 685 749 595 749 
C 538 749 365 723 365 506 
C 365 71 742 -128 1203 -128 
C 1939 -128 2688 674 2688 2073 
C 2688 3817 1971 4179 1485 4179 
C 851 4179 243 3628 243 2778 
C 243 1991 762 1408 1414 1408 
C 1952 1408 2189 1903 2253 2112 
L 2253 1864 
z
M 1427 1510 
C 1254 1510 1011 1542 813 1922 
C 678 2169 678 2461 678 2771 
C 678 3146 678 3405 858 3684 
C 947 3817 1114 4032 1485 4032 
C 2240 4032 2240 2885 2240 2632 
C 2240 2182 2035 1510 1427 1510 
z
" transform="scale(0.015625)"/>
       </defs>
       <use xlink:href="#CMR17-39" transform="scale(0.996264)"/>
       <use xlink:href="#CMR17-30" transform="translate(45.690477 0) scale(0.996264)"/>
      </g>
     </g>
    </g>
    <g id="xtick_5">
     <g id="line2d_5">
      <g>
       <use xlink:href="#m5f3a01c8dd" x="168.397209" y="309.181443" style="stroke: #000000; stroke-width: 0.8"/>
      </g>
     </g>
     <g id="text_5">
      <!-- $\mathdefault{120}$ -->
      <g transform="translate(160.925206 323.099942) scale(0.1 -0.1)">
       <defs>
        <path id="CMR17-31" d="M 1702 4058 
C 1702 4192 1696 4192 1606 4192 
C 1357 3916 979 3827 621 3827 
C 602 3827 570 3827 563 3808 
C 557 3795 557 3782 557 3648 
C 755 3648 1088 3686 1344 3839 
L 1344 461 
C 1344 236 1331 160 781 160 
L 589 160 
L 589 0 
C 896 0 1216 0 1523 0 
C 1830 0 2150 0 2458 0 
L 2458 160 
L 2266 160 
C 1715 160 1702 230 1702 458 
L 1702 4058 
z
" transform="scale(0.015625)"/>
        <path id="CMR17-32" d="M 2669 989 
L 2554 989 
C 2490 536 2438 459 2413 420 
C 2381 369 1920 369 1830 369 
L 602 369 
C 832 619 1280 1072 1824 1597 
C 2214 1967 2669 2402 2669 3035 
C 2669 3790 2067 4224 1395 4224 
C 691 4224 262 3604 262 3030 
C 262 2780 448 2748 525 2748 
C 589 2748 781 2787 781 3010 
C 781 3207 614 3264 525 3264 
C 486 3264 448 3258 422 3245 
C 544 3790 915 4058 1306 4058 
C 1862 4058 2227 3617 2227 3035 
C 2227 2479 1901 2000 1536 1584 
L 262 146 
L 262 0 
L 2515 0 
L 2669 989 
z
" transform="scale(0.015625)"/>
       </defs>
       <use xlink:href="#CMR17-31" transform="scale(0.996264)"/>
       <use xlink:href="#CMR17-32" transform="translate(45.690477 0) scale(0.996264)"/>
       <use xlink:href="#CMR17-30" transform="translate(91.380954 0) scale(0.996264)"/>
      </g>
     </g>
    </g>
    <g id="xtick_6">
     <g id="line2d_6">
      <g>
       <use xlink:href="#m5f3a01c8dd" x="198.746144" y="309.181443" style="stroke: #000000; stroke-width: 0.8"/>
      </g>
     </g>
     <g id="text_6">
      <!-- $\mathdefault{150}$ -->
      <g transform="translate(191.274141 323.099942) scale(0.1 -0.1)">
       <defs>
        <path id="CMR17-35" d="M 730 3692 
C 794 3666 1056 3584 1325 3584 
C 1920 3584 2246 3911 2432 4100 
C 2432 4157 2432 4192 2394 4192 
C 2387 4192 2374 4192 2323 4163 
C 2099 4058 1837 3973 1517 3973 
C 1325 3973 1037 3999 723 4139 
C 653 4171 640 4171 634 4171 
C 602 4171 595 4164 595 4037 
L 595 2203 
C 595 2089 595 2057 659 2057 
C 691 2057 704 2070 736 2114 
C 941 2401 1222 2522 1542 2522 
C 1766 2522 2246 2382 2246 1289 
C 2246 1085 2246 715 2054 421 
C 1894 159 1645 25 1370 25 
C 947 25 518 320 403 814 
C 429 807 480 795 506 795 
C 589 795 749 840 749 1038 
C 749 1210 627 1280 506 1280 
C 358 1280 262 1190 262 1011 
C 262 454 704 -128 1382 -128 
C 2042 -128 2669 440 2669 1264 
C 2669 2030 2170 2624 1549 2624 
C 1222 2624 947 2503 730 2274 
L 730 3692 
z
" transform="scale(0.015625)"/>
       </defs>
       <use xlink:href="#CMR17-31" transform="scale(0.996264)"/>
       <use xlink:href="#CMR17-35" transform="translate(45.690477 0) scale(0.996264)"/>
       <use xlink:href="#CMR17-30" transform="translate(91.380954 0) scale(0.996264)"/>
      </g>
     </g>
    </g>
    <g id="xtick_7">
     <g id="line2d_7">
      <g>
       <use xlink:href="#m5f3a01c8dd" x="229.095079" y="309.181443" style="stroke: #000000; stroke-width: 0.8"/>
      </g>
     </g>
     <g id="text_7">
      <!-- $\mathdefault{180}$ -->
      <g transform="translate(221.623077 323.099942) scale(0.1 -0.1)">
       <defs>
        <path id="CMR17-38" d="M 1741 2264 
C 2144 2467 2554 2773 2554 3263 
C 2554 3841 1990 4179 1472 4179 
C 890 4179 378 3759 378 3180 
C 378 3021 416 2747 666 2505 
C 730 2442 998 2251 1171 2130 
C 883 1983 211 1634 211 934 
C 211 279 838 -128 1459 -128 
C 2144 -128 2720 362 2720 1010 
C 2720 1590 2330 1857 2074 2029 
L 1741 2264 
z
M 902 2822 
C 851 2854 595 3051 595 3351 
C 595 3739 998 4032 1459 4032 
C 1965 4032 2336 3676 2336 3262 
C 2336 2669 1670 2331 1638 2331 
C 1632 2331 1626 2331 1574 2370 
L 902 2822 
z
M 2080 1519 
C 2176 1449 2483 1240 2483 851 
C 2483 381 2010 25 1472 25 
C 890 25 448 438 448 940 
C 448 1443 838 1862 1280 2060 
L 2080 1519 
z
" transform="scale(0.015625)"/>
       </defs>
       <use xlink:href="#CMR17-31" transform="scale(0.996264)"/>
       <use xlink:href="#CMR17-38" transform="translate(45.690477 0) scale(0.996264)"/>
       <use xlink:href="#CMR17-30" transform="translate(91.380954 0) scale(0.996264)"/>
      </g>
     </g>
    </g>
    <g id="text_8">
     <!-- $\phi (^o)$ -->
     <g transform="translate(128.990558 336.5091) scale(0.1 -0.1)">
      <defs>
       <path id="CMMI12-1e" d="M 2752 4390 
C 2752 4448 2707 4448 2688 4448 
C 2630 4448 2624 4435 2598 4326 
L 2253 2939 
C 2234 2856 2227 2849 2221 2843 
C 2214 2830 2170 2824 2157 2824 
C 1107 2734 301 1864 301 1057 
C 301 361 832 -64 1498 -64 
C 1446 -261 1402 -463 1350 -659 
C 1261 -995 1210 -1204 1210 -1229 
C 1210 -1241 1210 -1280 1274 -1280 
C 1293 -1280 1318 -1280 1331 -1254 
C 1344 -1241 1382 -1089 1408 -1008 
L 1645 -64 
C 2739 -64 3571 854 3571 1680 
C 3571 2343 3085 2816 2374 2816 
L 2752 4390 
z
M 2336 2701 
C 2758 2701 3181 2463 3181 1828 
C 3181 1097 2675 128 1677 50 
L 2336 2701 
z
M 1530 50 
C 1216 50 691 220 691 938 
C 691 1761 1274 2676 2195 2676 
L 1530 50 
z
" transform="scale(0.015625)"/>
       <path id="CMR17-28" d="M 1958 -1561 
C 1958 -1555 1958 -1542 1939 -1523 
C 1645 -1224 858 -407 858 1581 
C 858 3569 1632 4379 1946 4697 
C 1946 4704 1958 4717 1958 4736 
C 1958 4755 1939 4768 1914 4768 
C 1843 4768 1299 4296 986 3594 
C 666 2887 576 2199 576 1588 
C 576 1128 621 351 1005 -471 
C 1312 -1135 1837 -1600 1914 -1600 
C 1946 -1600 1958 -1587 1958 -1561 
z
" transform="scale(0.015625)"/>
       <path id="CMMI12-6f" d="M 2918 1756 
C 2918 2363 2522 2816 1939 2816 
C 1094 2816 262 1897 262 996 
C 262 390 659 -64 1242 -64 
C 2093 -64 2918 856 2918 1756 
z
M 1248 64 
C 928 64 691 319 691 766 
C 691 1060 845 1712 1024 2031 
C 1312 2523 1670 2689 1933 2689 
C 2246 2689 2490 2433 2490 1986 
C 2490 1731 2355 1047 2112 658 
C 1850 230 1498 64 1248 64 
z
" transform="scale(0.015625)"/>
       <path id="CMR17-29" d="M 1683 1581 
C 1683 2040 1638 2817 1254 3639 
C 947 4303 422 4768 346 4768 
C 326 4768 301 4761 301 4729 
C 301 4717 307 4710 314 4697 
C 621 4378 1402 3568 1402 1584 
C 1402 -407 627 -1217 314 -1537 
C 307 -1549 301 -1556 301 -1568 
C 301 -1600 326 -1600 346 -1600 
C 416 -1600 960 -1128 1274 -426 
C 1594 281 1683 969 1683 1581 
z
" transform="scale(0.015625)"/>
      </defs>
      <use xlink:href="#CMMI12-1e" transform="scale(0.996264)"/>
      <use xlink:href="#CMR17-28" transform="translate(57.73418 0) scale(0.996264)"/>
      <use xlink:href="#CMMI12-6f" transform="translate(93.014948 36.153639) scale(0.697382)"/>
      <use xlink:href="#CMR17-29" transform="translate(126.339642 0) scale(0.996264)"/>
     </g>
    </g>
   </g>
   <g id="matplotlib.axis_2">
    <g id="ytick_1">
     <g id="line2d_8">
      <defs>
       <path id="mf61198e5bc" d="M 0 0 
L -3.5 0 
" style="stroke: #000000; stroke-width: 0.8"/>
      </defs>
      <g>
       <use xlink:href="#mf61198e5bc" x="37.896788" y="255.579857" style="stroke: #000000; stroke-width: 0.8"/>
      </g>
     </g>
     <g id="text_9">
      <!-- $\mathdefault{10^{0}}$ -->
      <g transform="translate(16.96288 259.039106) scale(0.1 -0.1)">
       <use xlink:href="#CMR17-31" transform="scale(0.996264)"/>
       <use xlink:href="#CMR17-30" transform="translate(45.690477 0) scale(0.996264)"/>
       <use xlink:href="#CMR17-30" transform="translate(91.380954 36.153639) scale(0.697382)"/>
      </g>
     </g>
    </g>
    <g id="ytick_2">
     <g id="line2d_9">
      <g>
       <use xlink:href="#mf61198e5bc" x="37.896788" y="171.407081" style="stroke: #000000; stroke-width: 0.8"/>
      </g>
     </g>
     <g id="text_10">
      <!-- $\mathdefault{10^{1}}$ -->
      <g transform="translate(16.96288 174.86633) scale(0.1 -0.1)">
       <use xlink:href="#CMR17-31" transform="scale(0.996264)"/>
       <use xlink:href="#CMR17-30" transform="translate(45.690477 0) scale(0.996264)"/>
       <use xlink:href="#CMR17-31" transform="translate(91.380954 36.153639) scale(0.697382)"/>
      </g>
     </g>
    </g>
    <g id="ytick_3">
     <g id="line2d_10">
      <g>
       <use xlink:href="#mf61198e5bc" x="37.896788" y="87.234304" style="stroke: #000000; stroke-width: 0.8"/>
      </g>
     </g>
     <g id="text_11">
      <!-- $\mathdefault{10^{2}}$ -->
      <g transform="translate(16.96288 90.693553) scale(0.1 -0.1)">
       <use xlink:href="#CMR17-31" transform="scale(0.996264)"/>
       <use xlink:href="#CMR17-30" transform="translate(45.690477 0) scale(0.996264)"/>
       <use xlink:href="#CMR17-32" transform="translate(91.380954 36.153639) scale(0.697382)"/>
      </g>
     </g>
    </g>
    <g id="ytick_4">
     <g id="line2d_11">
      <defs>
       <path id="m4e3694af5a" d="M 0 0 
L -2 0 
" style="stroke: #000000; stroke-width: 0.6"/>
      </defs>
      <g>
       <use xlink:href="#m4e3694af5a" x="37.896788" y="299.592013" style="stroke: #000000; stroke-width: 0.6"/>
      </g>
     </g>
    </g>
    <g id="ytick_5">
     <g id="line2d_12">
      <g>
       <use xlink:href="#m4e3694af5a" x="37.896788" y="289.075573" style="stroke: #000000; stroke-width: 0.6"/>
      </g>
     </g>
    </g>
    <g id="ytick_6">
     <g id="line2d_13">
      <g>
       <use xlink:href="#m4e3694af5a" x="37.896788" y="280.918388" style="stroke: #000000; stroke-width: 0.6"/>
      </g>
     </g>
    </g>
    <g id="ytick_7">
     <g id="line2d_14">
      <g>
       <use xlink:href="#m4e3694af5a" x="37.896788" y="274.253483" style="stroke: #000000; stroke-width: 0.6"/>
      </g>
     </g>
    </g>
    <g id="ytick_8">
     <g id="line2d_15">
      <g>
       <use xlink:href="#m4e3694af5a" x="37.896788" y="268.618385" style="stroke: #000000; stroke-width: 0.6"/>
      </g>
     </g>
    </g>
    <g id="ytick_9">
     <g id="line2d_16">
      <g>
       <use xlink:href="#m4e3694af5a" x="37.896788" y="263.737042" style="stroke: #000000; stroke-width: 0.6"/>
      </g>
     </g>
    </g>
    <g id="ytick_10">
     <g id="line2d_17">
      <g>
       <use xlink:href="#m4e3694af5a" x="37.896788" y="259.431392" style="stroke: #000000; stroke-width: 0.6"/>
      </g>
     </g>
    </g>
    <g id="ytick_11">
     <g id="line2d_18">
      <g>
       <use xlink:href="#m4e3694af5a" x="37.896788" y="230.241327" style="stroke: #000000; stroke-width: 0.6"/>
      </g>
     </g>
    </g>
    <g id="ytick_12">
     <g id="line2d_19">
      <g>
       <use xlink:href="#m4e3694af5a" x="37.896788" y="215.419236" style="stroke: #000000; stroke-width: 0.6"/>
      </g>
     </g>
    </g>
    <g id="ytick_13">
     <g id="line2d_20">
      <g>
       <use xlink:href="#m4e3694af5a" x="37.896788" y="204.902796" style="stroke: #000000; stroke-width: 0.6"/>
      </g>
     </g>
    </g>
    <g id="ytick_14">
     <g id="line2d_21">
      <g>
       <use xlink:href="#m4e3694af5a" x="37.896788" y="196.745611" style="stroke: #000000; stroke-width: 0.6"/>
      </g>
     </g>
    </g>
    <g id="ytick_15">
     <g id="line2d_22">
      <g>
       <use xlink:href="#m4e3694af5a" x="37.896788" y="190.080706" style="stroke: #000000; stroke-width: 0.6"/>
      </g>
     </g>
    </g>
    <g id="ytick_16">
     <g id="line2d_23">
      <g>
       <use xlink:href="#m4e3694af5a" x="37.896788" y="184.445609" style="stroke: #000000; stroke-width: 0.6"/>
      </g>
     </g>
    </g>
    <g id="ytick_17">
     <g id="line2d_24">
      <g>
       <use xlink:href="#m4e3694af5a" x="37.896788" y="179.564265" style="stroke: #000000; stroke-width: 0.6"/>
      </g>
     </g>
    </g>
    <g id="ytick_18">
     <g id="line2d_25">
      <g>
       <use xlink:href="#m4e3694af5a" x="37.896788" y="175.258616" style="stroke: #000000; stroke-width: 0.6"/>
      </g>
     </g>
    </g>
    <g id="ytick_19">
     <g id="line2d_26">
      <g>
       <use xlink:href="#m4e3694af5a" x="37.896788" y="146.06855" style="stroke: #000000; stroke-width: 0.6"/>
      </g>
     </g>
    </g>
    <g id="ytick_20">
     <g id="line2d_27">
      <g>
       <use xlink:href="#m4e3694af5a" x="37.896788" y="131.24646" style="stroke: #000000; stroke-width: 0.6"/>
      </g>
     </g>
    </g>
    <g id="ytick_21">
     <g id="line2d_28">
      <g>
       <use xlink:href="#m4e3694af5a" x="37.896788" y="120.730019" style="stroke: #000000; stroke-width: 0.6"/>
      </g>
     </g>
    </g>
    <g id="ytick_22">
     <g id="line2d_29">
      <g>
       <use xlink:href="#m4e3694af5a" x="37.896788" y="112.572834" style="stroke: #000000; stroke-width: 0.6"/>
      </g>
     </g>
    </g>
    <g id="ytick_23">
     <g id="line2d_30">
      <g>
       <use xlink:href="#m4e3694af5a" x="37.896788" y="105.907929" style="stroke: #000000; stroke-width: 0.6"/>
      </g>
     </g>
    </g>
    <g id="ytick_24">
     <g id="line2d_31">
      <g>
       <use xlink:href="#m4e3694af5a" x="37.896788" y="100.272832" style="stroke: #000000; stroke-width: 0.6"/>
      </g>
     </g>
    </g>
    <g id="ytick_25">
     <g id="line2d_32">
      <g>
       <use xlink:href="#m4e3694af5a" x="37.896788" y="95.391489" style="stroke: #000000; stroke-width: 0.6"/>
      </g>
     </g>
    </g>
    <g id="ytick_26">
     <g id="line2d_33">
      <g>
       <use xlink:href="#m4e3694af5a" x="37.896788" y="91.085839" style="stroke: #000000; stroke-width: 0.6"/>
      </g>
     </g>
    </g>
    <g id="ytick_27">
     <g id="line2d_34">
      <g>
       <use xlink:href="#m4e3694af5a" x="37.896788" y="61.895773" style="stroke: #000000; stroke-width: 0.6"/>
      </g>
     </g>
    </g>
    <g id="text_12">
     <!-- $\sigma / \lambda$ -->
     <g transform="translate(10.47222 190.986626) rotate(-90) scale(0.1 -0.1)">
      <defs>
       <path id="CMMI12-1b" d="M 3251 2408 
C 3334 2408 3546 2408 3546 2612 
C 3546 2752 3424 2752 3309 2752 
L 1894 2752 
C 934 2752 243 1686 243 932 
C 243 390 595 -64 1171 -64 
C 1926 -64 2752 747 2752 1705 
C 2752 1954 2694 2196 2541 2408 
L 3251 2408 
z
M 1178 64 
C 851 64 614 313 614 754 
C 614 1137 845 2408 1786 2408 
C 2061 2408 2368 2274 2368 1781 
C 2368 1558 2266 1021 2042 652 
C 1811 275 1466 64 1178 64 
z
" transform="scale(0.015625)"/>
       <path id="CMMI12-3d" d="M 2746 4562 
C 2746 4569 2784 4666 2784 4678 
C 2784 4755 2720 4800 2669 4800 
C 2637 4800 2579 4800 2528 4659 
L 384 -1363 
C 384 -1370 346 -1465 346 -1478 
C 346 -1555 410 -1600 461 -1600 
C 499 -1600 557 -1593 602 -1459 
L 2746 4562 
z
" transform="scale(0.015625)"/>
       <path id="CMMI12-15" d="M 1978 3965 
C 1818 4416 1312 4416 1229 4416 
C 1190 4416 1120 4416 1120 4352 
C 1120 4302 1158 4295 1190 4289 
C 1286 4276 1363 4263 1466 4080 
C 1530 3959 2189 2059 2189 2046 
C 2189 2040 2182 2033 2131 1982 
L 467 311 
C 390 234 339 183 339 102 
C 339 12 416 -64 518 -64 
C 544 -64 614 -51 653 -13 
C 755 82 1670 1194 2253 1881 
C 2419 1383 2624 797 2822 261 
C 2854 166 2886 76 2976 -6 
C 3040 -64 3053 -64 3232 -64 
L 3354 -64 
C 3379 -64 3424 -64 3424 -13 
C 3424 13 3418 19 3392 45 
C 3334 115 3290 229 3264 306 
L 1978 3965 
z
" transform="scale(0.015625)"/>
      </defs>
      <use xlink:href="#CMMI12-1b" transform="scale(0.996264)"/>
      <use xlink:href="#CMMI12-3d" transform="translate(59.020054 0) scale(0.996264)"/>
      <use xlink:href="#CMMI12-15" transform="translate(107.794972 0) scale(0.996264)"/>
     </g>
    </g>
   </g>
   <g id="line2d_35">
    <path d="M 47.001469 284.419397 
L 57.11778 284.529139 
L 67.234092 284.854018 
L 78.362035 285.444248 
L 90.501609 286.333504 
L 103.652814 287.528105 
L 121.862175 289.433551 
L 155.246004 292.976699 
L 170.420472 294.332625 
L 183.571677 295.289708 
L 196.722882 296.015898 
L 208.862456 296.470737 
L 221.00203 296.715742 
L 229.095079 296.762391 
L 229.095079 296.762391 
" clip-path="url(#pc03dce3123)" style="fill: none; stroke: #000000; stroke-width: 0.75; stroke-linecap: square"/>
   </g>
   <g id="line2d_36">
    <path d="M 47.001469 257.398097 
L 53.071256 257.513306 
L 59.141043 257.856846 
L 65.21083 258.42245 
L 71.280617 259.199656 
L 78.362035 260.354046 
L 85.443453 261.745884 
L 93.536503 263.578386 
L 103.652814 266.131626 
L 135.013381 274.285071 
L 143.10643 276.066475 
L 151.199479 277.60642 
L 158.280898 278.738175 
L 165.362316 279.667337 
L 173.455365 280.495034 
L 181.548414 281.101191 
L 190.653095 281.56532 
L 201.781038 281.899509 
L 215.943874 282.089772 
L 229.095079 282.134428 
L 229.095079 282.134428 
" clip-path="url(#pc03dce3123)" style="fill: none; stroke: #ff0000; stroke-width: 0.75; stroke-linecap: square"/>
   </g>
   <g id="line2d_37">
    <path d="M 47.001469 176.348893 
L 49.024731 176.534612 
L 51.047993 177.09139 
L 53.071256 178.018034 
L 55.094518 179.312367 
L 57.11778 180.970915 
L 59.141043 182.988453 
L 61.164305 185.357356 
L 63.187567 188.066726 
L 65.21083 191.10124 
L 67.234092 194.439693 
L 70.268986 199.951437 
L 73.303879 205.938508 
L 82.40856 224.30047 
L 84.431822 227.820954 
L 86.455084 230.909383 
L 88.478347 233.492382 
L 90.501609 235.534642 
L 92.524871 237.044211 
L 94.548134 238.06938 
L 96.571396 238.688282 
L 98.594658 238.994834 
L 100.617921 239.085091 
L 104.664445 238.953235 
L 109.722601 238.803734 
L 112.757495 238.901678 
L 116.80402 239.280785 
L 122.873807 240.172001 
L 127.931962 240.881901 
L 131.978487 241.237962 
L 136.025012 241.328873 
L 140.071536 241.152783 
L 144.118061 240.75816 
L 150.187848 239.918605 
L 164.350685 237.860659 
L 173.455365 236.822724 
L 185.594939 235.687557 
L 199.757776 234.575446 
L 210.885718 233.927875 
L 219.990399 233.606778 
L 229.095079 233.497779 
L 229.095079 233.497779 
" clip-path="url(#pc03dce3123)" style="fill: none; stroke: #0000ff; stroke-width: 0.75; stroke-linecap: square"/>
   </g>
   <g id="line2d_38">
    <path d="M 47.001469 135.805762 
L 48.0131 135.960425 
L 49.024731 136.424353 
L 50.036362 137.197338 
L 51.047993 138.278942 
L 52.059625 139.668359 
L 53.071256 141.364196 
L 54.082887 143.364176 
L 55.094518 145.664725 
L 57.11778 151.143275 
L 59.141043 157.719843 
L 61.164305 165.237695 
L 65.21083 181.787946 
L 67.234092 189.700497 
L 69.257355 196.400447 
L 70.268986 199.099883 
L 71.280617 201.313243 
L 72.292248 203.046669 
L 73.303879 204.342233 
L 74.31551 205.270323 
L 75.327142 205.918365 
L 77.350404 206.740823 
L 79.373666 207.462593 
L 81.396929 208.525735 
L 82.40856 209.258687 
L 84.431822 211.160663 
L 86.455084 213.565866 
L 91.51324 220.20741 
L 93.536503 222.309473 
L 94.548134 223.114836 
L 95.559765 223.738582 
L 96.571396 224.181108 
L 97.583027 224.453254 
L 98.594658 224.574575 
L 100.617921 224.471559 
L 103.652814 223.89339 
L 106.687708 223.384196 
L 108.71097 223.257078 
L 110.734233 223.315511 
L 114.780757 223.763996 
L 117.815651 224.06243 
L 119.838913 224.10808 
L 121.862175 223.991704 
L 124.897069 223.530855 
L 128.943594 222.583389 
L 135.013381 221.137942 
L 140.071536 220.207829 
L 150.187848 218.453224 
L 170.420472 214.509298 
L 180.536783 212.964078 
L 190.653095 211.624606 
L 198.746144 210.762963 
L 206.839194 210.111129 
L 215.943874 209.617982 
L 224.036924 209.39005 
L 229.095079 209.350191 
L 229.095079 209.350191 
" clip-path="url(#pc03dce3123)" style="fill: none; stroke: #00bfbf; stroke-width: 0.75; stroke-linecap: square"/>
   </g>
   <g id="line2d_39">
    <path d="M 47.001469 96.281529 
L 48.0131 96.779599 
L 49.024731 98.269119 
L 50.036362 100.734491 
L 51.047993 104.14438 
L 52.059625 108.442956 
L 53.071256 113.536457 
L 55.094518 125.433632 
L 57.11778 137.685289 
L 58.129412 142.997149 
L 59.141043 147.341611 
L 60.152674 150.640806 
L 61.164305 153.067158 
L 64.199199 158.788374 
L 65.21083 161.306283 
L 66.222461 164.446491 
L 67.234092 168.221339 
L 69.257355 177.123832 
L 71.280617 185.806193 
L 72.292248 189.120657 
L 73.303879 191.422987 
L 74.31551 192.750857 
L 75.327142 193.361926 
L 77.350404 193.885933 
L 78.362035 194.413639 
L 79.373666 195.34895 
L 80.385297 196.718278 
L 82.40856 200.37087 
L 84.431822 203.95894 
L 85.443453 205.21942 
L 86.455084 205.976448 
L 87.466716 206.25487 
L 88.478347 206.175411 
L 91.51324 205.469925 
L 92.524871 205.509193 
L 93.536503 205.7658 
L 95.559765 206.751539 
L 97.583027 207.78173 
L 98.594658 208.092379 
L 99.60629 208.201686 
L 100.617921 208.112348 
L 102.641183 207.519926 
L 104.664445 206.809925 
L 106.687708 206.367435 
L 108.71097 206.238327 
L 111.745864 206.121302 
L 113.769126 205.754819 
L 115.792388 205.126876 
L 119.838913 203.732429 
L 122.873807 202.96683 
L 126.920331 202.001143 
L 130.966856 200.72324 
L 136.025012 199.135652 
L 156.257635 193.604989 
L 166.373947 191.209758 
L 174.466996 189.568 
L 182.560046 188.136016 
L 190.653095 186.945204 
L 198.746144 185.980951 
L 206.839194 185.246834 
L 214.932243 184.740826 
L 223.025292 184.459556 
L 229.095079 184.396355 
L 229.095079 184.396355 
" clip-path="url(#pc03dce3123)" style="fill: none; stroke: #bf00bf; stroke-width: 0.75; stroke-linecap: square"/>
   </g>
   <g id="line2d_40">
    <path d="M 47.001469 67.45927 
L 48.0131 68.548122 
L 49.024731 71.580296 
L 52.059625 84.038661 
L 55.094518 92.485872 
L 56.106149 97.485526 
L 57.11778 104.468996 
L 59.141043 121.341716 
L 60.152674 128.087989 
L 61.164305 132.465416 
L 62.175936 135.588239 
L 63.187567 139.240101 
L 64.199199 144.500107 
L 66.222461 157.963225 
L 67.234092 162.908587 
L 68.245723 165.342109 
L 69.257355 166.479281 
L 70.268986 168.11105 
L 71.280617 171.155282 
L 73.303879 179.12216 
L 74.31551 181.41261 
L 75.327142 182.00111 
L 76.338773 181.991838 
L 77.350404 182.590044 
L 78.362035 184.223719 
L 79.373666 186.423708 
L 80.385297 188.235258 
L 81.396929 188.97429 
L 82.40856 188.791899 
L 83.420191 188.443981 
L 84.431822 188.593271 
L 85.443453 189.368469 
L 86.455084 190.377589 
L 87.466716 191.049466 
L 88.478347 191.0846 
L 90.501609 190.232483 
L 91.51324 190.128045 
L 94.548134 190.777049 
L 95.559765 190.51862 
L 97.583027 189.578994 
L 98.594658 189.311371 
L 101.629552 188.979727 
L 103.652814 188.118226 
L 105.676077 187.283628 
L 108.71097 186.448757 
L 128.943594 178.26642 
L 143.10643 173.081068 
L 151.199479 170.484796 
L 159.292529 168.171883 
L 166.373947 166.38105 
L 173.455365 164.803188 
L 180.536783 163.43152 
L 187.618201 162.260072 
L 195.711251 161.159512 
L 203.8043 160.305486 
L 211.89735 159.691704 
L 219.990399 159.313672 
L 228.083448 159.168675 
L 229.095079 159.166863 
L 229.095079 159.166863 
" clip-path="url(#pc03dce3123)" style="fill: none; stroke: #696969; stroke-width: 0.75; stroke-linecap: square"/>
   </g>
   <g id="line2d_41">
    <path d="M 47.001469 281.851557 
L 55.094518 281.976207 
L 63.187567 282.304617 
L 72.292248 282.89713 
L 82.40856 283.791445 
L 94.548134 285.113924 
L 109.722601 287.00713 
L 161.315791 293.630703 
L 174.466996 295.00161 
L 186.60657 296.040615 
L 197.734513 296.77623 
L 208.862456 297.294485 
L 219.990399 297.592173 
L 229.095079 297.670863 
L 229.095079 297.670863 
" clip-path="url(#pc03dce3123)" style="fill: none; stroke-dasharray: 2.775,1.2; stroke-dashoffset: 0; stroke: #000000; stroke-width: 0.75"/>
   </g>
   <g id="line2d_42">
    <path d="M 47.001469 257.954517 
L 54.082887 258.066951 
L 61.164305 258.434922 
L 67.234092 258.961941 
L 73.303879 259.693412 
L 79.373666 260.63438 
L 85.443453 261.782331 
L 92.524871 263.362944 
L 100.617921 265.423678 
L 126.920331 272.363761 
L 134.001749 273.86766 
L 141.083168 275.142821 
L 149.176217 276.370314 
L 162.327422 278.089556 
L 192.676357 281.811704 
L 201.781038 282.633581 
L 209.874087 283.136814 
L 218.978768 283.461149 
L 229.095079 283.591046 
L 229.095079 283.591046 
" clip-path="url(#pc03dce3123)" style="fill: none; stroke-dasharray: 2.775,1.2; stroke-dashoffset: 0; stroke: #ff0000; stroke-width: 0.75"/>
   </g>
   <g id="line2d_43">
    <path d="M 47.001469 176.595731 
L 49.024731 176.784252 
L 51.047993 177.345887 
L 53.071256 178.27792 
L 55.094518 179.576318 
L 57.11778 181.235651 
L 59.141043 183.24897 
L 61.164305 185.607902 
L 63.187567 188.302203 
L 65.21083 191.316875 
L 67.234092 194.634156 
L 70.268986 200.120164 
L 73.303879 206.100031 
L 82.40856 224.587372 
L 84.431822 228.14605 
L 86.455084 231.255703 
L 88.478347 233.845491 
L 90.501609 235.879397 
L 92.524871 237.371084 
L 94.548134 238.380546 
L 96.571396 238.996056 
L 98.594658 239.31859 
L 100.617921 239.443167 
L 103.652814 239.401637 
L 111.745864 239.117752 
L 114.780757 239.240983 
L 117.815651 239.547183 
L 129.955225 241.188556 
L 134.001749 241.415962 
L 138.048274 241.394709 
L 142.094799 241.128984 
L 146.141323 240.669845 
L 153.222742 239.589422 
L 161.315791 238.399988 
L 168.397209 237.613631 
L 184.583308 235.952978 
L 191.664726 235.370347 
L 212.908981 234.11092 
L 221.00203 233.866058 
L 229.095079 233.765631 
L 229.095079 233.765631 
" clip-path="url(#pc03dce3123)" style="fill: none; stroke-dasharray: 2.775,1.2; stroke-dashoffset: 0; stroke: #0000ff; stroke-width: 0.75"/>
   </g>
   <g id="line2d_44">
    <path d="M 47.001469 136.012103 
L 48.0131 136.150996 
L 49.024731 136.581494 
L 50.036362 137.317191 
L 51.047993 138.374699 
L 52.059625 139.76796 
L 53.071256 141.502245 
L 54.082887 143.570155 
L 56.106149 148.611445 
L 58.129412 154.631486 
L 60.152674 161.404179 
L 62.175936 168.85649 
L 65.21083 181.197005 
L 68.245723 193.594157 
L 69.257355 197.158888 
L 70.268986 200.182171 
L 71.280617 202.547537 
L 72.292248 204.202413 
L 73.303879 205.176423 
L 74.31551 205.583701 
L 75.327142 205.606132 
L 77.350404 205.374679 
L 78.362035 205.52575 
L 79.373666 206.045216 
L 80.385297 206.983099 
L 81.396929 208.302188 
L 85.443453 214.436344 
L 86.455084 215.413089 
L 87.466716 216.056968 
L 90.501609 217.39595 
L 91.51324 218.239548 
L 92.524871 219.449061 
L 95.559765 224.076109 
L 96.571396 225.167693 
L 97.583027 225.718257 
L 98.594658 225.740767 
L 99.60629 225.390752 
L 101.629552 224.449919 
L 102.641183 224.19003 
L 103.652814 224.131486 
L 105.676077 224.23475 
L 106.687708 224.111309 
L 107.699339 223.751316 
L 110.734233 222.115926 
L 111.745864 221.940759 
L 112.757495 222.135078 
L 113.769126 222.659805 
L 115.792388 224.07814 
L 116.80402 224.574621 
L 117.815651 224.75133 
L 118.827282 224.620155 
L 121.862175 223.684401 
L 122.873807 223.579516 
L 125.9087 223.662755 
L 126.920331 223.517375 
L 128.943594 222.835705 
L 130.966856 222.156584 
L 132.990118 221.917047 
L 135.013381 221.83335 
L 136.025012 221.662506 
L 137.036643 221.34635 
L 139.059905 220.3834 
L 141.083168 219.473751 
L 142.094799 219.224596 
L 143.10643 219.159959 
L 145.129692 219.47106 
L 147.152955 219.874944 
L 148.164586 219.896732 
L 149.176217 219.719957 
L 150.187848 219.338366 
L 152.21111 218.148923 
L 154.234373 216.953849 
L 155.246004 216.56536 
L 156.257635 216.385001 
L 157.269266 216.411643 
L 161.315791 217.148338 
L 162.327422 217.00347 
L 163.339053 216.622483 
L 165.362316 215.382409 
L 167.385578 214.141325 
L 168.397209 213.733396 
L 169.40884 213.521813 
L 170.420472 213.500138 
L 172.443734 213.837901 
L 174.466996 214.191894 
L 175.478627 214.2074 
L 176.490259 214.074014 
L 178.513521 213.4117 
L 182.560046 211.647035 
L 183.571677 211.392318 
L 184.583308 211.291187 
L 185.594939 211.354734 
L 187.618201 211.873222 
L 189.641464 212.469217 
L 190.653095 212.582614 
L 191.664726 212.484145 
L 192.676357 212.159463 
L 194.69962 211.051327 
L 195.711251 210.483129 
L 196.722882 210.063595 
L 197.734513 209.876315 
L 198.746144 209.947361 
L 199.757776 210.23703 
L 201.781038 211.036363 
L 202.792669 211.281552 
L 203.8043 211.307195 
L 204.815931 211.108028 
L 208.862456 209.695623 
L 209.874087 209.60085 
L 211.89735 209.767066 
L 213.920612 209.950607 
L 215.943874 209.761671 
L 218.978768 209.217515 
L 221.00203 209.1683 
L 225.048555 209.361735 
L 229.095079 209.135373 
L 229.095079 209.135373 
" clip-path="url(#pc03dce3123)" style="fill: none; stroke-dasharray: 2.775,1.2; stroke-dashoffset: 0; stroke: #00bfbf; stroke-width: 0.75"/>
   </g>
   <g id="line2d_45">
    <path d="M 47.001469 96.333963 
L 48.0131 96.834429 
L 49.024731 98.331451 
L 50.036362 100.807621 
L 51.047993 104.233347 
L 52.059625 108.550446 
L 53.071256 113.664501 
L 55.094518 125.600628 
L 57.11778 137.869907 
L 58.129412 143.17715 
L 59.141043 147.511784 
L 60.152674 150.799932 
L 61.164305 153.219087 
L 64.199199 158.967832 
L 65.21083 161.509466 
L 66.222461 164.668805 
L 67.234092 168.465098 
L 69.257355 177.390525 
L 71.280617 186.072837 
L 72.292248 189.375541 
L 73.303879 191.668052 
L 74.31551 192.990713 
L 75.327142 193.601072 
L 77.350404 194.125313 
L 78.362035 194.652435 
L 79.373666 195.583109 
L 80.385297 196.944652 
L 82.40856 200.582006 
L 84.431822 204.17409 
L 85.443453 205.448083 
L 86.455084 206.22359 
L 87.466716 206.519482 
L 88.478347 206.454767 
L 91.51324 205.733203 
L 92.524871 205.750856 
L 93.536503 205.987903 
L 95.559765 206.957892 
L 97.583027 207.987267 
L 98.594658 208.308895 
L 99.60629 208.446897 
L 100.617921 208.382641 
L 102.641183 207.824404 
L 105.676077 206.734407 
L 107.699339 206.406107 
L 112.757495 206.233548 
L 114.780757 205.671095 
L 120.850544 203.37672 
L 123.885438 202.660808 
L 127.931962 201.709682 
L 152.21111 194.5274 
L 161.315791 192.462733 
L 167.385578 191.284222 
L 171.432103 190.552761 
L 175.478627 189.688782 
L 184.583308 187.88642 
L 187.618201 187.369071 
L 190.653095 186.816107 
L 196.722882 186.298665 
L 198.746144 186.035111 
L 200.769407 185.971981 
L 204.815931 185.939014 
L 217.967137 184.732733 
L 224.036924 184.086928 
L 228.083448 183.872488 
L 229.095079 183.863112 
L 229.095079 183.863112 
" clip-path="url(#pc03dce3123)" style="fill: none; stroke-dasharray: 2.775,1.2; stroke-dashoffset: 0; stroke: #bf00bf; stroke-width: 0.75"/>
   </g>
   <g id="line2d_46">
    <path d="M 47.001469 67.91799 
L 48.0131 69.006194 
L 49.024731 72.019406 
L 51.047993 80.523406 
L 52.059625 84.016263 
L 54.082887 89.039887 
L 55.094518 92.516049 
L 56.106149 97.83011 
L 57.11778 105.134575 
L 59.141043 122.067457 
L 60.152674 128.46847 
L 61.164305 132.586544 
L 62.175936 135.78185 
L 63.187567 139.79737 
L 64.199199 145.499997 
L 66.222461 159.086393 
L 67.234092 163.59424 
L 68.245723 165.686203 
L 69.257355 166.867882 
L 70.268986 168.79865 
L 71.280617 172.179462 
L 72.292248 176.42396 
L 73.303879 180.108456 
L 74.31551 182.084524 
L 75.327142 182.509721 
L 76.338773 182.565127 
L 77.350404 183.33082 
L 78.362035 185.144079 
L 79.373666 187.356736 
L 80.385297 189.073941 
L 81.396929 189.698729 
L 83.420191 189.183045 
L 84.431822 189.398372 
L 85.443453 190.227012 
L 86.455084 191.2762 
L 87.466716 191.906244 
L 88.478347 191.95393 
L 90.501609 191.08501 
L 91.51324 190.931671 
L 92.524871 191.125992 
L 93.536503 191.436901 
L 94.548134 191.552635 
L 95.559765 191.31247 
L 97.583027 190.333099 
L 98.594658 190.019983 
L 101.629552 189.626672 
L 102.641183 189.280105 
L 105.676077 187.848834 
L 108.71097 187.033267 
L 110.734233 186.16339 
L 112.757495 185.249631 
L 117.815651 183.373182 
L 120.850544 182.130189 
L 122.873807 181.352369 
L 125.9087 179.861511 
L 128.943594 178.304088 
L 136.025012 175.399278 
L 138.048274 174.339538 
L 142.094799 172.402137 
L 144.118061 171.787486 
L 147.152955 171.136815 
L 150.187848 170.48042 
L 159.292529 167.943984 
L 165.362316 167.564902 
L 167.385578 166.865034 
L 168.397209 166.416333 
L 170.420472 165.326276 
L 171.432103 164.818935 
L 172.443734 164.442027 
L 173.455365 164.232788 
L 175.478627 164.182047 
L 183.571677 165.053766 
L 185.594939 164.978621 
L 186.60657 164.797544 
L 188.629833 164.043902 
L 190.653095 162.888309 
L 192.676357 161.760532 
L 193.687988 161.352941 
L 194.69962 161.099998 
L 195.711251 161.034009 
L 199.757776 161.291054 
L 200.769407 161.135746 
L 201.781038 160.837043 
L 203.8043 159.8808 
L 205.827563 159.003098 
L 206.839194 158.708124 
L 207.850825 158.630462 
L 208.862456 158.702947 
L 210.885718 159.198349 
L 212.908981 159.656839 
L 213.920612 159.729744 
L 214.932243 159.640267 
L 216.955505 159.098502 
L 217.967137 158.719279 
L 219.990399 158.246841 
L 222.013661 158.426142 
L 223.025292 158.696993 
L 226.060186 160.302582 
L 227.071817 160.825496 
L 228.083448 161.106345 
L 229.095079 161.217005 
L 229.095079 161.217005 
" clip-path="url(#pc03dce3123)" style="fill: none; stroke-dasharray: 2.775,1.2; stroke-dashoffset: 0; stroke: #696969; stroke-width: 0.75"/>
   </g>
   <g id="patch_3">
    <path d="M 37.896788 309.181443 
L 37.896788 55.94869 
" style="fill: none; stroke: #000000; stroke-width: 0.8; stroke-linejoin: miter; stroke-linecap: square"/>
   </g>
   <g id="patch_4">
    <path d="M 238.19976 309.181443 
L 238.19976 55.94869 
" style="fill: none; stroke: #000000; stroke-width: 0.8; stroke-linejoin: miter; stroke-linecap: square"/>
   </g>
   <g id="patch_5">
    <path d="M 37.896788 309.181443 
L 238.19976 309.181443 
" style="fill: none; stroke: #000000; stroke-width: 0.8; stroke-linejoin: miter; stroke-linecap: square"/>
   </g>
   <g id="patch_6">
    <path d="M 37.896788 55.94869 
L 238.19976 55.94869 
" style="fill: none; stroke: #000000; stroke-width: 0.8; stroke-linejoin: miter; stroke-linecap: square"/>
   </g>
   <g id="axes_2">
    <g id="patch_7">
     <path d="M 87.972531 131.918516 
L 230.187641 131.918516 
L 230.187641 63.545673 
L 87.972531 63.545673 
z
" style="fill: #ffffff"/>
    </g>
    <g id="matplotlib.axis_3">
     <g id="xtick_8">
      <g id="line2d_47">
       <g>
        <use xlink:href="#m5f3a01c8dd" x="94.436854" y="131.918516" style="stroke: #000000; stroke-width: 0.8"/>
       </g>
      </g>
      <g id="text_13">
       <!-- $\mathdefault{2}$ -->
       <g transform="translate(91.946187 145.837014) scale(0.1 -0.1)">
        <use xlink:href="#CMR17-32" transform="scale(0.996264)"/>
       </g>
      </g>
     </g>
     <g id="xtick_9">
      <g id="line2d_48">
       <g>
        <use xlink:href="#m5f3a01c8dd" x="137.532342" y="131.918516" style="stroke: #000000; stroke-width: 0.8"/>
       </g>
      </g>
      <g id="text_14">
       <!-- $\mathdefault{3}$ -->
       <g transform="translate(135.041675 145.837014) scale(0.1 -0.1)">
        <use xlink:href="#CMR17-33" transform="scale(0.996264)"/>
       </g>
      </g>
     </g>
     <g id="xtick_10">
      <g id="line2d_49">
       <g>
        <use xlink:href="#m5f3a01c8dd" x="180.62783" y="131.918516" style="stroke: #000000; stroke-width: 0.8"/>
       </g>
      </g>
      <g id="text_15">
       <!-- $\mathdefault{4}$ -->
       <g transform="translate(178.137162 145.837014) scale(0.1 -0.1)">
        <defs>
         <path id="CMR17-34" d="M 2150 4122 
C 2150 4256 2144 4256 2029 4256 
L 128 1254 
L 128 1088 
L 1779 1088 
L 1779 457 
C 1779 224 1766 160 1318 160 
L 1197 160 
L 1197 0 
C 1402 0 1747 0 1965 0 
C 2182 0 2528 0 2733 0 
L 2733 160 
L 2611 160 
C 2163 160 2150 224 2150 457 
L 2150 1088 
L 2803 1088 
L 2803 1254 
L 2150 1254 
L 2150 4122 
z
M 1798 3703 
L 1798 1254 
L 256 1254 
L 1798 3703 
z
" transform="scale(0.015625)"/>
        </defs>
        <use xlink:href="#CMR17-34" transform="scale(0.996264)"/>
       </g>
      </g>
     </g>
     <g id="xtick_11">
      <g id="line2d_50">
       <g>
        <use xlink:href="#m5f3a01c8dd" x="223.723318" y="131.918516" style="stroke: #000000; stroke-width: 0.8"/>
       </g>
      </g>
      <g id="text_16">
       <!-- $\mathdefault{5}$ -->
       <g transform="translate(221.23265 145.837014) scale(0.1 -0.1)">
        <use xlink:href="#CMR17-35" transform="scale(0.996264)"/>
       </g>
      </g>
     </g>
     <g id="text_17">
      <!-- $r/a$ -->
      <g transform="translate(151.570611 159.246173) scale(0.1 -0.1)">
       <defs>
        <path id="CMMI12-72" d="M 2490 2612 
C 2291 2574 2189 2433 2189 2293 
C 2189 2139 2310 2088 2400 2088 
C 2579 2088 2726 2242 2726 2433 
C 2726 2638 2528 2816 2208 2816 
C 1952 2816 1658 2701 1389 2312 
C 1344 2650 1088 2816 832 2816 
C 582 2816 454 2625 378 2484 
C 269 2254 173 1871 173 1839 
C 173 1814 198 1782 243 1782 
C 294 1782 301 1788 339 1935 
C 435 2318 557 2689 813 2689 
C 966 2689 1011 2580 1011 2395 
C 1011 2254 947 2005 902 1807 
L 723 1118 
C 698 996 627 709 595 594 
C 550 428 480 128 480 96 
C 480 6 550 -64 646 -64 
C 717 -64 838 -19 877 109 
C 896 160 1133 1124 1171 1271 
C 1203 1411 1242 1546 1274 1686 
C 1299 1775 1325 1878 1344 1961 
C 1363 2018 1536 2331 1696 2472 
C 1773 2542 1939 2689 2202 2689 
C 2304 2689 2406 2670 2490 2612 
z
" transform="scale(0.015625)"/>
        <path id="CMMI12-61" d="M 1926 760 
C 1894 651 1894 639 1805 517 
C 1664 338 1382 64 1082 64 
C 819 64 672 300 672 677 
C 672 1028 870 1743 992 2012 
C 1210 2459 1510 2689 1760 2689 
C 2182 2689 2266 2165 2266 2114 
C 2266 2108 2246 2024 2240 2012 
L 1926 760 
z
M 2336 2395 
C 2266 2561 2093 2816 1760 2816 
C 1037 2816 256 1884 256 939 
C 256 307 627 -64 1062 -64 
C 1414 -64 1715 211 1894 422 
C 1958 45 2259 -64 2451 -64 
C 2643 -64 2797 51 2912 281 
C 3014 498 3104 888 3104 913 
C 3104 945 3078 971 3040 971 
C 2982 971 2976 939 2950 843 
C 2854 466 2733 64 2470 64 
C 2285 64 2272 230 2272 358 
C 2272 505 2291 575 2349 824 
C 2394 984 2426 1124 2477 1309 
C 2714 2267 2771 2497 2771 2535 
C 2771 2625 2701 2695 2605 2695 
C 2400 2695 2349 2472 2336 2395 
z
" transform="scale(0.015625)"/>
       </defs>
       <use xlink:href="#CMMI12-72" transform="scale(0.996264)"/>
       <use xlink:href="#CMMI12-3d" transform="translate(46.670612 0) scale(0.996264)"/>
       <use xlink:href="#CMMI12-61" transform="translate(95.445531 0) scale(0.996264)"/>
      </g>
     </g>
    </g>
    <g id="matplotlib.axis_4">
     <g id="ytick_28">
      <g id="line2d_51">
       <g>
        <use xlink:href="#mf61198e5bc" x="87.972531" y="110.789167" style="stroke: #000000; stroke-width: 0.8"/>
       </g>
      </g>
      <g id="text_18">
       <!-- $\mathdefault{10^{0}}$ -->
       <g transform="translate(67.038623 114.248416) scale(0.1 -0.1)">
        <use xlink:href="#CMR17-31" transform="scale(0.996264)"/>
        <use xlink:href="#CMR17-30" transform="translate(45.690477 0) scale(0.996264)"/>
        <use xlink:href="#CMR17-30" transform="translate(91.380954 36.153639) scale(0.697382)"/>
       </g>
      </g>
     </g>
     <g id="ytick_29">
      <g id="line2d_52">
       <g>
        <use xlink:href="#mf61198e5bc" x="87.972531" y="74.750136" style="stroke: #000000; stroke-width: 0.8"/>
       </g>
      </g>
      <g id="text_19">
       <!-- $\mathdefault{10^{1}}$ -->
       <g transform="translate(67.038623 78.209385) scale(0.1 -0.1)">
        <use xlink:href="#CMR17-31" transform="scale(0.996264)"/>
        <use xlink:href="#CMR17-30" transform="translate(45.690477 0) scale(0.996264)"/>
        <use xlink:href="#CMR17-31" transform="translate(91.380954 36.153639) scale(0.697382)"/>
       </g>
      </g>
     </g>
     <g id="ytick_30">
      <g id="line2d_53">
       <g>
        <use xlink:href="#m4e3694af5a" x="87.972531" y="129.63321" style="stroke: #000000; stroke-width: 0.6"/>
       </g>
      </g>
     </g>
     <g id="ytick_31">
      <g id="line2d_54">
       <g>
        <use xlink:href="#m4e3694af5a" x="87.972531" y="125.130539" style="stroke: #000000; stroke-width: 0.6"/>
       </g>
      </g>
     </g>
     <g id="ytick_32">
      <g id="line2d_55">
       <g>
        <use xlink:href="#m4e3694af5a" x="87.972531" y="121.637996" style="stroke: #000000; stroke-width: 0.6"/>
       </g>
      </g>
     </g>
     <g id="ytick_33">
      <g id="line2d_56">
       <g>
        <use xlink:href="#m4e3694af5a" x="87.972531" y="118.784381" style="stroke: #000000; stroke-width: 0.6"/>
       </g>
      </g>
     </g>
     <g id="ytick_34">
      <g id="line2d_57">
       <g>
        <use xlink:href="#m4e3694af5a" x="87.972531" y="116.371683" style="stroke: #000000; stroke-width: 0.6"/>
       </g>
      </g>
     </g>
     <g id="ytick_35">
      <g id="line2d_58">
       <g>
        <use xlink:href="#m4e3694af5a" x="87.972531" y="114.28171" style="stroke: #000000; stroke-width: 0.6"/>
       </g>
      </g>
     </g>
     <g id="ytick_36">
      <g id="line2d_59">
       <g>
        <use xlink:href="#m4e3694af5a" x="87.972531" y="112.438223" style="stroke: #000000; stroke-width: 0.6"/>
       </g>
      </g>
     </g>
     <g id="ytick_37">
      <g id="line2d_60">
       <g>
        <use xlink:href="#m4e3694af5a" x="87.972531" y="99.940338" style="stroke: #000000; stroke-width: 0.6"/>
       </g>
      </g>
     </g>
     <g id="ytick_38">
      <g id="line2d_61">
       <g>
        <use xlink:href="#m4e3694af5a" x="87.972531" y="93.594179" style="stroke: #000000; stroke-width: 0.6"/>
       </g>
      </g>
     </g>
     <g id="ytick_39">
      <g id="line2d_62">
       <g>
        <use xlink:href="#m4e3694af5a" x="87.972531" y="89.091508" style="stroke: #000000; stroke-width: 0.6"/>
       </g>
      </g>
     </g>
     <g id="ytick_40">
      <g id="line2d_63">
       <g>
        <use xlink:href="#m4e3694af5a" x="87.972531" y="85.598965" style="stroke: #000000; stroke-width: 0.6"/>
       </g>
      </g>
     </g>
     <g id="ytick_41">
      <g id="line2d_64">
       <g>
        <use xlink:href="#m4e3694af5a" x="87.972531" y="82.74535" style="stroke: #000000; stroke-width: 0.6"/>
       </g>
      </g>
     </g>
     <g id="ytick_42">
      <g id="line2d_65">
       <g>
        <use xlink:href="#m4e3694af5a" x="87.972531" y="80.332653" style="stroke: #000000; stroke-width: 0.6"/>
       </g>
      </g>
     </g>
     <g id="ytick_43">
      <g id="line2d_66">
       <g>
        <use xlink:href="#m4e3694af5a" x="87.972531" y="78.242679" style="stroke: #000000; stroke-width: 0.6"/>
       </g>
      </g>
     </g>
     <g id="ytick_44">
      <g id="line2d_67">
       <g>
        <use xlink:href="#m4e3694af5a" x="87.972531" y="76.399192" style="stroke: #000000; stroke-width: 0.6"/>
       </g>
      </g>
     </g>
     <g id="ytick_45">
      <g id="line2d_68">
       <g>
        <use xlink:href="#m4e3694af5a" x="87.972531" y="63.901307" style="stroke: #000000; stroke-width: 0.6"/>
       </g>
      </g>
     </g>
    </g>
    <g id="line2d_69">
     <path d="M 94.436854 128.463704 
L 98.746403 128.446181 
L 103.055952 128.431261 
L 107.365501 128.418626 
L 111.675049 128.408 
L 115.984598 128.399144 
L 120.294147 128.391852 
L 124.603696 128.385944 
L 128.913245 128.381262 
L 133.222793 128.377667 
L 137.532342 128.37504 
L 141.841891 128.373271 
L 146.15144 128.372268 
L 150.460989 128.371946 
L 154.770537 128.37223 
L 159.080086 128.373055 
L 163.389635 128.374362 
L 167.699184 128.376099 
L 172.008733 128.378217 
L 176.318281 128.380676 
L 180.62783 128.383437 
L 184.937379 128.386468 
L 189.246928 128.389736 
L 193.556476 128.393216 
L 197.866025 128.396882 
L 202.175574 128.400712 
L 206.485123 128.404687 
L 210.794672 128.408788 
L 215.10422 128.412999 
L 219.413769 128.417304 
L 223.723318 128.421692 
" clip-path="url(#p5dedb8fff1)" style="fill: none; stroke: #000000; stroke-width: 0.75; stroke-linecap: square"/>
    </g>
    <g id="line2d_70">
     <path d="M 94.436854 120.133518 
L 98.746403 120.264449 
L 103.055952 120.387085 
L 107.365501 120.502211 
L 111.675049 120.610511 
L 115.984598 120.712587 
L 120.294147 120.80897 
L 124.603696 120.90013 
L 128.913245 120.986486 
L 133.222793 121.068411 
L 137.532342 121.146242 
L 141.841891 121.22028 
L 146.15144 121.290797 
L 150.460989 121.35804 
L 154.770537 121.422232 
L 159.080086 121.483576 
L 163.389635 121.542259 
L 167.699184 121.59845 
L 172.008733 121.652304 
L 176.318281 121.703963 
L 180.62783 121.75356 
L 184.937379 121.801214 
L 189.246928 121.847037 
L 193.556476 121.891133 
L 197.866025 121.933597 
L 202.175574 121.974517 
L 206.485123 122.013976 
L 210.794672 122.05205 
L 215.10422 122.08881 
L 219.413769 122.124323 
L 223.723318 122.15865 
" clip-path="url(#p5dedb8fff1)" style="fill: none; stroke: #ff0000; stroke-width: 0.75; stroke-linecap: square"/>
    </g>
    <g id="line2d_71">
     <path d="M 94.436854 98.450917 
L 98.746403 98.693987 
L 103.055952 98.912864 
L 107.365501 99.11095 
L 111.675049 99.291047 
L 115.984598 99.455479 
L 120.294147 99.60619 
L 124.603696 99.744818 
L 128.913245 99.872752 
L 133.222793 99.991178 
L 137.532342 100.101111 
L 141.841891 100.203431 
L 146.15144 100.2989 
L 150.460989 100.38818 
L 154.770537 100.471853 
L 159.080086 100.550429 
L 163.389635 100.62436 
L 167.699184 100.694044 
L 172.008733 100.759837 
L 176.318281 100.822055 
L 180.62783 100.880982 
L 184.937379 100.93687 
L 189.246928 100.98995 
L 193.556476 101.040427 
L 197.866025 101.088488 
L 202.175574 101.134303 
L 206.485123 101.178024 
L 210.794672 101.219792 
L 215.10422 101.259736 
L 219.413769 101.297971 
L 223.723318 101.334606 
" clip-path="url(#p5dedb8fff1)" style="fill: none; stroke: #0000ff; stroke-width: 0.75; stroke-linecap: square"/>
    </g>
    <g id="line2d_72">
     <path d="M 94.436854 88.118077 
L 98.746403 88.365122 
L 103.055952 88.586702 
L 107.365501 88.786558 
L 111.675049 88.967736 
L 115.984598 89.132739 
L 120.294147 89.283639 
L 124.603696 89.422173 
L 128.913245 89.5498 
L 133.222793 89.667762 
L 137.532342 89.777116 
L 141.841891 89.878772 
L 146.15144 89.973516 
L 150.460989 90.062031 
L 154.770537 90.14491 
L 159.080086 90.222678 
L 163.389635 90.295791 
L 167.699184 90.364657 
L 172.008733 90.429636 
L 176.318281 90.491047 
L 180.62783 90.549177 
L 184.937379 90.604281 
L 189.246928 90.656592 
L 193.556476 90.706315 
L 197.866025 90.753638 
L 202.175574 90.798731 
L 206.485123 90.841749 
L 210.794672 90.88283 
L 215.10422 90.922104 
L 219.413769 90.959686 
L 223.723318 90.995685 
" clip-path="url(#p5dedb8fff1)" style="fill: none; stroke: #00bfbf; stroke-width: 0.75; stroke-linecap: square"/>
    </g>
    <g id="line2d_73">
     <path d="M 94.436854 77.44991 
L 98.746403 77.696783 
L 103.055952 77.917962 
L 107.365501 78.117271 
L 111.675049 78.297811 
L 115.984598 78.462123 
L 120.294147 78.612305 
L 124.603696 78.750109 
L 128.913245 78.877009 
L 133.222793 78.994252 
L 137.532342 79.102903 
L 141.841891 79.203874 
L 146.15144 79.297954 
L 150.460989 79.385826 
L 154.770537 79.468085 
L 159.080086 79.545254 
L 163.389635 79.617792 
L 167.699184 79.686103 
L 172.008733 79.750548 
L 176.318281 79.811446 
L 180.62783 79.869083 
L 184.937379 79.923713 
L 189.246928 79.975567 
L 193.556476 80.02485 
L 197.866025 80.071751 
L 202.175574 80.116437 
L 206.485123 80.159062 
L 210.794672 80.199765 
L 215.10422 80.238674 
L 219.413769 80.275905 
L 223.723318 80.311564 
" clip-path="url(#p5dedb8fff1)" style="fill: none; stroke: #bf00bf; stroke-width: 0.75; stroke-linecap: square"/>
    </g>
    <g id="line2d_74">
     <path d="M 94.436854 66.653529 
L 98.746403 66.900138 
L 103.055952 67.121024 
L 107.365501 67.32003 
L 111.675049 67.500267 
L 115.984598 67.664279 
L 120.294147 67.814171 
L 124.603696 67.951696 
L 128.913245 68.07833 
L 133.222793 68.195319 
L 137.532342 68.303728 
L 141.841891 68.404469 
L 146.15144 68.498331 
L 150.460989 68.585996 
L 154.770537 68.66806 
L 159.080086 68.745043 
L 163.389635 68.817404 
L 167.699184 68.885548 
L 172.008733 68.949833 
L 176.318281 69.010579 
L 180.62783 69.068071 
L 184.937379 69.122564 
L 189.246928 69.174286 
L 193.556476 69.223445 
L 197.866025 69.270225 
L 202.175574 69.314797 
L 206.485123 69.357312 
L 210.794672 69.397911 
L 215.10422 69.43672 
L 219.413769 69.473854 
L 223.723318 69.509421 
" clip-path="url(#p5dedb8fff1)" style="fill: none; stroke: #696969; stroke-width: 0.75; stroke-linecap: square"/>
    </g>
    <g id="line2d_75">
     <defs>
      <path id="m36b204cd4e" d="M 0 1 
C 0.265203 1 0.51958 0.894634 0.707107 0.707107 
C 0.894634 0.51958 1 0.265203 1 0 
C 1 -0.265203 0.894634 -0.51958 0.707107 -0.707107 
C 0.51958 -0.894634 0.265203 -1 0 -1 
C -0.265203 -1 -0.51958 -0.894634 -0.707107 -0.707107 
C -0.894634 -0.51958 -1 -0.265203 -1 0 
C -1 0.265203 -0.894634 0.51958 -0.707107 0.707107 
C -0.51958 0.894634 -0.265203 1 0 1 
z
" style="stroke: #000000"/>
     </defs>
     <g clip-path="url(#p5dedb8fff1)">
      <use xlink:href="#m36b204cd4e" x="94.436854" y="128.37298" style="stroke: #000000"/>
      <use xlink:href="#m36b204cd4e" x="137.532342" y="128.407414" style="stroke: #000000"/>
      <use xlink:href="#m36b204cd4e" x="180.62783" y="128.599903" style="stroke: #000000"/>
      <use xlink:href="#m36b204cd4e" x="223.723318" y="128.810659" style="stroke: #000000"/>
     </g>
    </g>
    <g id="line2d_76">
     <defs>
      <path id="mc50f898afa" d="M 0 1 
C 0.265203 1 0.51958 0.894634 0.707107 0.707107 
C 0.894634 0.51958 1 0.265203 1 0 
C 1 -0.265203 0.894634 -0.51958 0.707107 -0.707107 
C 0.51958 -0.894634 0.265203 -1 0 -1 
C -0.265203 -1 -0.51958 -0.894634 -0.707107 -0.707107 
C -0.894634 -0.51958 -1 -0.265203 -1 0 
C -1 0.265203 -0.894634 0.51958 -0.707107 0.707107 
C -0.51958 0.894634 -0.265203 1 0 1 
z
" style="stroke: #ff0000"/>
     </defs>
     <g clip-path="url(#p5dedb8fff1)">
      <use xlink:href="#mc50f898afa" x="94.436854" y="120.297795" style="fill: #ff0000; stroke: #ff0000"/>
      <use xlink:href="#mc50f898afa" x="137.532342" y="121.69665" style="fill: #ff0000; stroke: #ff0000"/>
      <use xlink:href="#mc50f898afa" x="180.62783" y="122.528085" style="fill: #ff0000; stroke: #ff0000"/>
      <use xlink:href="#mc50f898afa" x="223.723318" y="122.782309" style="fill: #ff0000; stroke: #ff0000"/>
     </g>
    </g>
    <g id="line2d_77">
     <defs>
      <path id="mddd2041b9c" d="M 0 1 
C 0.265203 1 0.51958 0.894634 0.707107 0.707107 
C 0.894634 0.51958 1 0.265203 1 0 
C 1 -0.265203 0.894634 -0.51958 0.707107 -0.707107 
C 0.51958 -0.894634 0.265203 -1 0 -1 
C -0.265203 -1 -0.51958 -0.894634 -0.707107 -0.707107 
C -0.894634 -0.51958 -1 -0.265203 -1 0 
C -1 0.265203 -0.894634 0.51958 -0.707107 0.707107 
C -0.51958 0.894634 -0.265203 1 0 1 
z
" style="stroke: #0000ff"/>
     </defs>
     <g clip-path="url(#p5dedb8fff1)">
      <use xlink:href="#mddd2041b9c" x="94.436854" y="98.530364" style="fill: #0000ff; stroke: #0000ff"/>
      <use xlink:href="#mddd2041b9c" x="137.532342" y="100.211703" style="fill: #0000ff; stroke: #0000ff"/>
      <use xlink:href="#mddd2041b9c" x="180.62783" y="100.985413" style="fill: #0000ff; stroke: #0000ff"/>
      <use xlink:href="#mddd2041b9c" x="223.723318" y="101.449288" style="fill: #0000ff; stroke: #0000ff"/>
     </g>
    </g>
    <g id="line2d_78">
     <defs>
      <path id="m950207811f" d="M 0 1 
C 0.265203 1 0.51958 0.894634 0.707107 0.707107 
C 0.894634 0.51958 1 0.265203 1 0 
C 1 -0.265203 0.894634 -0.51958 0.707107 -0.707107 
C 0.51958 -0.894634 0.265203 -1 0 -1 
C -0.265203 -1 -0.51958 -0.894634 -0.707107 -0.707107 
C -0.894634 -0.51958 -1 -0.265203 -1 0 
C -1 0.265203 -0.894634 0.51958 -0.707107 0.707107 
C -0.51958 0.894634 -0.265203 1 0 1 
z
" style="stroke: #00bfbf"/>
     </defs>
     <g clip-path="url(#p5dedb8fff1)">
      <use xlink:href="#m950207811f" x="94.436854" y="88.085694" style="fill: #00bfbf; stroke: #00bfbf"/>
      <use xlink:href="#m950207811f" x="137.532342" y="89.783151" style="fill: #00bfbf; stroke: #00bfbf"/>
      <use xlink:href="#m950207811f" x="180.62783" y="90.652357" style="fill: #00bfbf; stroke: #00bfbf"/>
      <use xlink:href="#m950207811f" x="223.723318" y="90.903709" style="fill: #00bfbf; stroke: #00bfbf"/>
     </g>
    </g>
    <g id="line2d_79">
     <defs>
      <path id="mc49fdc5e84" d="M 0 1 
C 0.265203 1 0.51958 0.894634 0.707107 0.707107 
C 0.894634 0.51958 1 0.265203 1 0 
C 1 -0.265203 0.894634 -0.51958 0.707107 -0.707107 
C 0.51958 -0.894634 0.265203 -1 0 -1 
C -0.265203 -1 -0.51958 -0.894634 -0.707107 -0.707107 
C -0.894634 -0.51958 -1 -0.265203 -1 0 
C -1 0.265203 -0.894634 0.51958 -0.707107 0.707107 
C -0.51958 0.894634 -0.265203 1 0 1 
z
" style="stroke: #bf00bf"/>
     </defs>
     <g clip-path="url(#p5dedb8fff1)">
      <use xlink:href="#mc49fdc5e84" x="94.436854" y="77.431547" style="fill: #bf00bf; stroke: #bf00bf"/>
      <use xlink:href="#mc49fdc5e84" x="137.532342" y="78.939379" style="fill: #bf00bf; stroke: #bf00bf"/>
      <use xlink:href="#mc49fdc5e84" x="180.62783" y="79.658619" style="fill: #bf00bf; stroke: #bf00bf"/>
      <use xlink:href="#mc49fdc5e84" x="223.723318" y="80.083254" style="fill: #bf00bf; stroke: #bf00bf"/>
     </g>
    </g>
    <g id="line2d_80">
     <defs>
      <path id="maaacd5e6c5" d="M 0 1 
C 0.265203 1 0.51958 0.894634 0.707107 0.707107 
C 0.894634 0.51958 1 0.265203 1 0 
C 1 -0.265203 0.894634 -0.51958 0.707107 -0.707107 
C 0.51958 -0.894634 0.265203 -1 0 -1 
C -0.265203 -1 -0.51958 -0.894634 -0.707107 -0.707107 
C -0.894634 -0.51958 -1 -0.265203 -1 0 
C -1 0.265203 -0.894634 0.51958 -0.707107 0.707107 
C -0.51958 0.894634 -0.265203 1 0 1 
z
" style="stroke: #696969"/>
     </defs>
     <g clip-path="url(#p5dedb8fff1)">
      <use xlink:href="#maaacd5e6c5" x="94.436854" y="66.725861" style="fill: #696969; stroke: #696969"/>
      <use xlink:href="#maaacd5e6c5" x="137.532342" y="68.842276" style="fill: #696969; stroke: #696969"/>
      <use xlink:href="#maaacd5e6c5" x="180.62783" y="69.891011" style="fill: #696969; stroke: #696969"/>
      <use xlink:href="#maaacd5e6c5" x="223.723318" y="70.3872" style="fill: #696969; stroke: #696969"/>
     </g>
    </g>
    <g id="patch_8">
     <path d="M 87.972531 131.918516 
L 87.972531 63.545673 
" style="fill: none; stroke: #000000; stroke-width: 0.8; stroke-linejoin: miter; stroke-linecap: square"/>
    </g>
    <g id="patch_9">
     <path d="M 230.187641 131.918516 
L 230.187641 63.545673 
" style="fill: none; stroke: #000000; stroke-width: 0.8; stroke-linejoin: miter; stroke-linecap: square"/>
    </g>
    <g id="patch_10">
     <path d="M 87.972531 131.918516 
L 230.187641 131.918516 
" style="fill: none; stroke: #000000; stroke-width: 0.8; stroke-linejoin: miter; stroke-linecap: square"/>
    </g>
    <g id="patch_11">
     <path d="M 87.972531 63.545673 
L 230.187641 63.545673 
" style="fill: none; stroke: #000000; stroke-width: 0.8; stroke-linejoin: miter; stroke-linecap: square"/>
    </g>
   </g>
   <g id="legend_1">
    <g id="patch_12">
     <path d="M 43.902848 50.884035 
L 230.205819 50.884035 
Q 232.205819 50.884035 232.205819 48.884035 
L 232.205819 4.996115 
Q 232.205819 2.996115 230.205819 2.996115 
L 43.902848 2.996115 
Q 41.902848 2.996115 41.902848 4.996115 
L 41.902848 48.884035 
Q 41.902848 50.884035 43.902848 50.884035 
z
" style="fill: #ffffff; opacity: 0.8; stroke: #cccccc; stroke-linejoin: miter"/>
    </g>
    <g id="patch_13">
     <path d="M 45.902848 14.468095 
L 65.902848 14.468095 
L 65.902848 7.468095 
L 45.902848 7.468095 
z
" style="stroke: #000000; stroke-linejoin: miter"/>
    </g>
    <g id="text_20">
     <!-- $a/ \lambda = 0.05$ -->
     <g transform="translate(73.902848 14.468095) scale(0.1 -0.1)">
      <defs>
       <path id="CMR17-3d" d="M 4115 2017 
C 4211 2017 4307 2017 4307 2125 
C 4307 2240 4198 2240 4090 2240 
L 512 2240 
C 403 2240 294 2240 294 2125 
C 294 2017 390 2017 486 2017 
L 4115 2017 
z
M 4090 896 
C 4198 896 4307 896 4307 1011 
C 4307 1119 4211 1119 4115 1119 
L 486 1119 
C 390 1119 294 1119 294 1011 
C 294 896 403 896 512 896 
L 4090 896 
z
" transform="scale(0.015625)"/>
       <path id="CMMI12-3a" d="M 1178 307 
C 1178 492 1024 619 870 619 
C 685 619 557 466 557 313 
C 557 128 710 0 864 0 
C 1050 0 1178 153 1178 307 
z
" transform="scale(0.015625)"/>
      </defs>
      <use xlink:href="#CMMI12-61" transform="scale(0.996264)"/>
      <use xlink:href="#CMMI12-3d" transform="translate(51.207858 0) scale(0.996264)"/>
      <use xlink:href="#CMMI12-15" transform="translate(99.982776 0) scale(0.996264)"/>
      <use xlink:href="#CMR17-3d" transform="translate(184.560857 0) scale(0.996264)"/>
      <use xlink:href="#CMR17-30" transform="translate(283.949654 0) scale(0.996264)"/>
      <use xlink:href="#CMMI12-3a" transform="translate(329.640131 0) scale(0.996264)"/>
      <use xlink:href="#CMR17-30" transform="translate(356.737308 0) scale(0.996264)"/>
      <use xlink:href="#CMR17-35" transform="translate(402.427785 0) scale(0.996264)"/>
     </g>
    </g>
    <g id="patch_14">
     <path d="M 45.902848 29.430735 
L 65.902848 29.430735 
L 65.902848 22.430735 
L 45.902848 22.430735 
z
" style="fill: #ff0000; stroke: #ff0000; stroke-linejoin: miter"/>
    </g>
    <g id="text_21">
     <!-- $a/ \lambda = 0.1$ -->
     <g transform="translate(73.902848 29.430735) scale(0.1 -0.1)">
      <use xlink:href="#CMMI12-61" transform="scale(0.996264)"/>
      <use xlink:href="#CMMI12-3d" transform="translate(51.207858 0) scale(0.996264)"/>
      <use xlink:href="#CMMI12-15" transform="translate(99.982776 0) scale(0.996264)"/>
      <use xlink:href="#CMR17-3d" transform="translate(184.560857 0) scale(0.996264)"/>
      <use xlink:href="#CMR17-30" transform="translate(283.949654 0) scale(0.996264)"/>
      <use xlink:href="#CMMI12-3a" transform="translate(329.640131 0) scale(0.996264)"/>
      <use xlink:href="#CMR17-31" transform="translate(356.737308 0) scale(0.996264)"/>
     </g>
    </g>
    <g id="patch_15">
     <path d="M 45.902848 44.393375 
L 65.902848 44.393375 
L 65.902848 37.393375 
L 45.902848 37.393375 
z
" style="fill: #0000ff; stroke: #0000ff; stroke-linejoin: miter"/>
    </g>
    <g id="text_22">
     <!-- $a/ \lambda = 0.5$ -->
     <g transform="translate(73.902848 44.393375) scale(0.1 -0.1)">
      <use xlink:href="#CMMI12-61" transform="scale(0.996264)"/>
      <use xlink:href="#CMMI12-3d" transform="translate(51.207858 0) scale(0.996264)"/>
      <use xlink:href="#CMMI12-15" transform="translate(99.982776 0) scale(0.996264)"/>
      <use xlink:href="#CMR17-3d" transform="translate(184.560857 0) scale(0.996264)"/>
      <use xlink:href="#CMR17-30" transform="translate(283.949654 0) scale(0.996264)"/>
      <use xlink:href="#CMMI12-3a" transform="translate(329.640131 0) scale(0.996264)"/>
      <use xlink:href="#CMR17-35" transform="translate(356.737308 0) scale(0.996264)"/>
     </g>
    </g>
    <g id="patch_16">
     <path d="M 165.882034 14.468095 
L 185.882034 14.468095 
L 185.882034 7.468095 
L 165.882034 7.468095 
z
" style="fill: #00bfbf; stroke: #00bfbf; stroke-linejoin: miter"/>
    </g>
    <g id="text_23">
     <!-- $a/ \lambda = 1$ -->
     <g transform="translate(193.882034 14.468095) scale(0.1 -0.1)">
      <use xlink:href="#CMMI12-61" transform="scale(0.996264)"/>
      <use xlink:href="#CMMI12-3d" transform="translate(51.207858 0) scale(0.996264)"/>
      <use xlink:href="#CMMI12-15" transform="translate(99.982776 0) scale(0.996264)"/>
      <use xlink:href="#CMR17-3d" transform="translate(184.560857 0) scale(0.996264)"/>
      <use xlink:href="#CMR17-31" transform="translate(283.949654 0) scale(0.996264)"/>
     </g>
    </g>
    <g id="patch_17">
     <path d="M 165.882034 29.430735 
L 185.882034 29.430735 
L 185.882034 22.430735 
L 165.882034 22.430735 
z
" style="fill: #bf00bf; stroke: #bf00bf; stroke-linejoin: miter"/>
    </g>
    <g id="text_24">
     <!-- $a/ \lambda = 2$ -->
     <g transform="translate(193.882034 29.430735) scale(0.1 -0.1)">
      <use xlink:href="#CMMI12-61" transform="scale(0.996264)"/>
      <use xlink:href="#CMMI12-3d" transform="translate(51.207858 0) scale(0.996264)"/>
      <use xlink:href="#CMMI12-15" transform="translate(99.982776 0) scale(0.996264)"/>
      <use xlink:href="#CMR17-3d" transform="translate(184.560857 0) scale(0.996264)"/>
      <use xlink:href="#CMR17-32" transform="translate(283.949654 0) scale(0.996264)"/>
     </g>
    </g>
    <g id="patch_18">
     <path d="M 165.882034 44.393375 
L 185.882034 44.393375 
L 185.882034 37.393375 
L 165.882034 37.393375 
z
" style="fill: #696969; stroke: #696969; stroke-linejoin: miter"/>
    </g>
    <g id="text_25">
     <!-- $a/ \lambda = 4$ -->
     <g transform="translate(193.882034 44.393375) scale(0.1 -0.1)">
      <use xlink:href="#CMMI12-61" transform="scale(0.996264)"/>
      <use xlink:href="#CMMI12-3d" transform="translate(51.207858 0) scale(0.996264)"/>
      <use xlink:href="#CMMI12-15" transform="translate(99.982776 0) scale(0.996264)"/>
      <use xlink:href="#CMR17-3d" transform="translate(184.560857 0) scale(0.996264)"/>
      <use xlink:href="#CMR17-34" transform="translate(283.949654 0) scale(0.996264)"/>
     </g>
    </g>
   </g>
  </g>
 </g>
 <defs>
  <clipPath id="pc03dce3123">
   <rect x="37.896788" y="55.94869" width="200.302972" height="253.232753"/>
  </clipPath>
  <clipPath id="p5dedb8fff1">
   <rect x="87.972531" y="63.545673" width="142.21511" height="68.372843"/>
  </clipPath>
 </defs>
</svg>
