<?xml version="1.0" encoding="utf-8" standalone="no"?>
<!DOCTYPE svg PUBLIC "-//W3C//DTD SVG 1.1//EN"
  "http://www.w3.org/Graphics/SVG/1.1/DTD/svg11.dtd">
<svg xmlns:xlink="http://www.w3.org/1999/xlink" width="241.2pt" height="144pt" viewBox="0 0 241.2 144" xmlns="http://www.w3.org/2000/svg" version="1.1">
 <metadata>
  <rdf:RDF xmlns:dc="http://purl.org/dc/elements/1.1/" xmlns:cc="http://creativecommons.org/ns#" xmlns:rdf="http://www.w3.org/1999/02/22-rdf-syntax-ns#">
   <cc:Work>
    <dc:type rdf:resource="http://purl.org/dc/dcmitype/StillImage"/>
    <dc:date>2024-04-06T19:04:23.849134</dc:date>
    <dc:format>image/svg+xml</dc:format>
    <dc:creator>
     <cc:Agent>
      <dc:title>Matplotlib v3.6.3, https://matplotlib.org/</dc:title>
     </cc:Agent>
    </dc:creator>
   </cc:Work>
  </rdf:RDF>
 </metadata>
 <defs>
  <style type="text/css">*{stroke-linejoin: round; stroke-linecap: butt}</style>
 </defs>
 <g id="figure_1">
  <g id="patch_1">
   <path d="M 0 144 
L 241.2 144 
L 241.2 0 
L 0 0 
z
" style="fill: #ffffff"/>
  </g>
  <g id="axes_1">
   <g id="patch_2">
    <path d="M 44.123453 111.181443 
L 238.19976 111.181443 
L 238.19976 3.00024 
L 44.123453 3.00024 
z
" style="fill: #ffffff"/>
   </g>
   <g id="matplotlib.axis_1">
    <g id="xtick_1">
     <g id="line2d_1">
      <defs>
       <path id="m1398088b7f" d="M 0 0 
L 0 3.5 
" style="stroke: #000000; stroke-width: 0.8"/>
      </defs>
      <g>
       <use xlink:href="#m1398088b7f" x="52.945104" y="111.181443" style="stroke: #000000; stroke-width: 0.8"/>
      </g>
     </g>
     <g id="text_1">
      <!-- $\mathdefault{0}$ -->
      <g transform="translate(50.454436 125.099942) scale(0.1 -0.1)">
       <defs>
        <path id="CMR17-30" d="M 2688 2025 
C 2688 2416 2682 3080 2413 3591 
C 2176 4039 1798 4198 1466 4198 
C 1158 4198 768 4058 525 3597 
C 269 3118 243 2524 243 2025 
C 243 1661 250 1106 448 619 
C 723 -39 1216 -128 1466 -128 
C 1760 -128 2208 -7 2470 600 
C 2662 1042 2688 1559 2688 2025 
z
M 1466 -26 
C 1056 -26 813 325 723 812 
C 653 1188 653 1738 653 2096 
C 653 2588 653 2997 736 3387 
C 858 3929 1216 4096 1466 4096 
C 1728 4096 2067 3923 2189 3400 
C 2272 3036 2278 2607 2278 2096 
C 2278 1680 2278 1169 2202 792 
C 2067 95 1690 -26 1466 -26 
z
" transform="scale(0.015625)"/>
       </defs>
       <use xlink:href="#CMR17-30" transform="scale(0.996264)"/>
      </g>
     </g>
    </g>
    <g id="xtick_2">
     <g id="line2d_2">
      <g>
       <use xlink:href="#m1398088b7f" x="82.350605" y="111.181443" style="stroke: #000000; stroke-width: 0.8"/>
      </g>
     </g>
     <g id="text_2">
      <!-- $\mathdefault{30}$ -->
      <g transform="translate(77.36927 125.099942) scale(0.1 -0.1)">
       <defs>
        <path id="CMR17-33" d="M 1414 2157 
C 1984 2157 2234 1662 2234 1090 
C 2234 320 1824 25 1453 25 
C 1114 25 563 194 390 693 
C 422 680 454 680 486 680 
C 640 680 755 782 755 948 
C 755 1133 614 1216 486 1216 
C 378 1216 211 1165 211 926 
C 211 335 787 -128 1466 -128 
C 2176 -128 2720 430 2720 1085 
C 2720 1707 2208 2157 1600 2227 
C 2086 2328 2554 2756 2554 3329 
C 2554 3820 2048 4179 1472 4179 
C 890 4179 378 3829 378 3329 
C 378 3110 544 3072 627 3072 
C 762 3072 877 3155 877 3321 
C 877 3486 762 3569 627 3569 
C 602 3569 570 3569 544 3557 
C 730 3959 1235 4032 1459 4032 
C 1683 4032 2106 3925 2106 3320 
C 2106 3143 2080 2828 1862 2550 
C 1670 2304 1453 2304 1242 2284 
C 1210 2284 1062 2269 1037 2269 
C 992 2263 966 2257 966 2208 
C 966 2163 973 2157 1101 2157 
L 1414 2157 
z
" transform="scale(0.015625)"/>
       </defs>
       <use xlink:href="#CMR17-33" transform="scale(0.996264)"/>
       <use xlink:href="#CMR17-30" transform="translate(45.690477 0) scale(0.996264)"/>
      </g>
     </g>
    </g>
    <g id="xtick_3">
     <g id="line2d_3">
      <g>
       <use xlink:href="#m1398088b7f" x="111.756106" y="111.181443" style="stroke: #000000; stroke-width: 0.8"/>
      </g>
     </g>
     <g id="text_3">
      <!-- $\mathdefault{60}$ -->
      <g transform="translate(106.774771 125.099942) scale(0.1 -0.1)">
       <defs>
        <path id="CMR17-36" d="M 678 2176 
C 678 3690 1395 4032 1811 4032 
C 1946 4032 2272 4009 2400 3776 
C 2298 3776 2106 3776 2106 3553 
C 2106 3381 2246 3323 2336 3323 
C 2394 3323 2566 3348 2566 3560 
C 2566 3954 2246 4179 1805 4179 
C 1043 4179 243 3390 243 1984 
C 243 253 966 -128 1478 -128 
C 2099 -128 2688 427 2688 1283 
C 2688 2081 2170 2662 1517 2662 
C 1126 2662 838 2407 678 1960 
L 678 2176 
z
M 1478 25 
C 691 25 691 1200 691 1436 
C 691 1896 909 2560 1504 2560 
C 1613 2560 1926 2560 2138 2120 
C 2253 1870 2253 1609 2253 1289 
C 2253 944 2253 690 2118 434 
C 1978 171 1773 25 1478 25 
z
" transform="scale(0.015625)"/>
       </defs>
       <use xlink:href="#CMR17-36" transform="scale(0.996264)"/>
       <use xlink:href="#CMR17-30" transform="translate(45.690477 0) scale(0.996264)"/>
      </g>
     </g>
    </g>
    <g id="xtick_4">
     <g id="line2d_4">
      <g>
       <use xlink:href="#m1398088b7f" x="141.161607" y="111.181443" style="stroke: #000000; stroke-width: 0.8"/>
      </g>
     </g>
     <g id="text_4">
      <!-- $\mathdefault{90}$ -->
      <g transform="translate(136.180271 125.099942) scale(0.1 -0.1)">
       <defs>
        <path id="CMR17-39" d="M 2253 1864 
C 2253 464 1670 31 1190 31 
C 1043 31 685 31 538 294 
C 704 268 826 357 826 518 
C 826 692 685 749 595 749 
C 538 749 365 723 365 506 
C 365 71 742 -128 1203 -128 
C 1939 -128 2688 674 2688 2073 
C 2688 3817 1971 4179 1485 4179 
C 851 4179 243 3628 243 2778 
C 243 1991 762 1408 1414 1408 
C 1952 1408 2189 1903 2253 2112 
L 2253 1864 
z
M 1427 1510 
C 1254 1510 1011 1542 813 1922 
C 678 2169 678 2461 678 2771 
C 678 3146 678 3405 858 3684 
C 947 3817 1114 4032 1485 4032 
C 2240 4032 2240 2885 2240 2632 
C 2240 2182 2035 1510 1427 1510 
z
" transform="scale(0.015625)"/>
       </defs>
       <use xlink:href="#CMR17-39" transform="scale(0.996264)"/>
       <use xlink:href="#CMR17-30" transform="translate(45.690477 0) scale(0.996264)"/>
      </g>
     </g>
    </g>
    <g id="xtick_5">
     <g id="line2d_5">
      <g>
       <use xlink:href="#m1398088b7f" x="170.567108" y="111.181443" style="stroke: #000000; stroke-width: 0.8"/>
      </g>
     </g>
     <g id="text_5">
      <!-- $\mathdefault{120}$ -->
      <g transform="translate(163.095105 125.099942) scale(0.1 -0.1)">
       <defs>
        <path id="CMR17-31" d="M 1702 4058 
C 1702 4192 1696 4192 1606 4192 
C 1357 3916 979 3827 621 3827 
C 602 3827 570 3827 563 3808 
C 557 3795 557 3782 557 3648 
C 755 3648 1088 3686 1344 3839 
L 1344 461 
C 1344 236 1331 160 781 160 
L 589 160 
L 589 0 
C 896 0 1216 0 1523 0 
C 1830 0 2150 0 2458 0 
L 2458 160 
L 2266 160 
C 1715 160 1702 230 1702 458 
L 1702 4058 
z
" transform="scale(0.015625)"/>
        <path id="CMR17-32" d="M 2669 989 
L 2554 989 
C 2490 536 2438 459 2413 420 
C 2381 369 1920 369 1830 369 
L 602 369 
C 832 619 1280 1072 1824 1597 
C 2214 1967 2669 2402 2669 3035 
C 2669 3790 2067 4224 1395 4224 
C 691 4224 262 3604 262 3030 
C 262 2780 448 2748 525 2748 
C 589 2748 781 2787 781 3010 
C 781 3207 614 3264 525 3264 
C 486 3264 448 3258 422 3245 
C 544 3790 915 4058 1306 4058 
C 1862 4058 2227 3617 2227 3035 
C 2227 2479 1901 2000 1536 1584 
L 262 146 
L 262 0 
L 2515 0 
L 2669 989 
z
" transform="scale(0.015625)"/>
       </defs>
       <use xlink:href="#CMR17-31" transform="scale(0.996264)"/>
       <use xlink:href="#CMR17-32" transform="translate(45.690477 0) scale(0.996264)"/>
       <use xlink:href="#CMR17-30" transform="translate(91.380954 0) scale(0.996264)"/>
      </g>
     </g>
    </g>
    <g id="xtick_6">
     <g id="line2d_6">
      <g>
       <use xlink:href="#m1398088b7f" x="199.972609" y="111.181443" style="stroke: #000000; stroke-width: 0.8"/>
      </g>
     </g>
     <g id="text_6">
      <!-- $\mathdefault{150}$ -->
      <g transform="translate(192.500606 125.099942) scale(0.1 -0.1)">
       <defs>
        <path id="CMR17-35" d="M 730 3692 
C 794 3666 1056 3584 1325 3584 
C 1920 3584 2246 3911 2432 4100 
C 2432 4157 2432 4192 2394 4192 
C 2387 4192 2374 4192 2323 4163 
C 2099 4058 1837 3973 1517 3973 
C 1325 3973 1037 3999 723 4139 
C 653 4171 640 4171 634 4171 
C 602 4171 595 4164 595 4037 
L 595 2203 
C 595 2089 595 2057 659 2057 
C 691 2057 704 2070 736 2114 
C 941 2401 1222 2522 1542 2522 
C 1766 2522 2246 2382 2246 1289 
C 2246 1085 2246 715 2054 421 
C 1894 159 1645 25 1370 25 
C 947 25 518 320 403 814 
C 429 807 480 795 506 795 
C 589 795 749 840 749 1038 
C 749 1210 627 1280 506 1280 
C 358 1280 262 1190 262 1011 
C 262 454 704 -128 1382 -128 
C 2042 -128 2669 440 2669 1264 
C 2669 2030 2170 2624 1549 2624 
C 1222 2624 947 2503 730 2274 
L 730 3692 
z
" transform="scale(0.015625)"/>
       </defs>
       <use xlink:href="#CMR17-31" transform="scale(0.996264)"/>
       <use xlink:href="#CMR17-35" transform="translate(45.690477 0) scale(0.996264)"/>
       <use xlink:href="#CMR17-30" transform="translate(91.380954 0) scale(0.996264)"/>
      </g>
     </g>
    </g>
    <g id="xtick_7">
     <g id="line2d_7">
      <g>
       <use xlink:href="#m1398088b7f" x="229.37811" y="111.181443" style="stroke: #000000; stroke-width: 0.8"/>
      </g>
     </g>
     <g id="text_7">
      <!-- $\mathdefault{180}$ -->
      <g transform="translate(221.906107 125.099942) scale(0.1 -0.1)">
       <defs>
        <path id="CMR17-38" d="M 1741 2264 
C 2144 2467 2554 2773 2554 3263 
C 2554 3841 1990 4179 1472 4179 
C 890 4179 378 3759 378 3180 
C 378 3021 416 2747 666 2505 
C 730 2442 998 2251 1171 2130 
C 883 1983 211 1634 211 934 
C 211 279 838 -128 1459 -128 
C 2144 -128 2720 362 2720 1010 
C 2720 1590 2330 1857 2074 2029 
L 1741 2264 
z
M 902 2822 
C 851 2854 595 3051 595 3351 
C 595 3739 998 4032 1459 4032 
C 1965 4032 2336 3676 2336 3262 
C 2336 2669 1670 2331 1638 2331 
C 1632 2331 1626 2331 1574 2370 
L 902 2822 
z
M 2080 1519 
C 2176 1449 2483 1240 2483 851 
C 2483 381 2010 25 1472 25 
C 890 25 448 438 448 940 
C 448 1443 838 1862 1280 2060 
L 2080 1519 
z
" transform="scale(0.015625)"/>
       </defs>
       <use xlink:href="#CMR17-31" transform="scale(0.996264)"/>
       <use xlink:href="#CMR17-38" transform="translate(45.690477 0) scale(0.996264)"/>
       <use xlink:href="#CMR17-30" transform="translate(91.380954 0) scale(0.996264)"/>
      </g>
     </g>
    </g>
    <g id="text_8">
     <!-- $\phi (^o)$ -->
     <g transform="translate(132.103891 138.5091) scale(0.1 -0.1)">
      <defs>
       <path id="CMMI12-1e" d="M 2752 4390 
C 2752 4448 2707 4448 2688 4448 
C 2630 4448 2624 4435 2598 4326 
L 2253 2939 
C 2234 2856 2227 2849 2221 2843 
C 2214 2830 2170 2824 2157 2824 
C 1107 2734 301 1864 301 1057 
C 301 361 832 -64 1498 -64 
C 1446 -261 1402 -463 1350 -659 
C 1261 -995 1210 -1204 1210 -1229 
C 1210 -1241 1210 -1280 1274 -1280 
C 1293 -1280 1318 -1280 1331 -1254 
C 1344 -1241 1382 -1089 1408 -1008 
L 1645 -64 
C 2739 -64 3571 854 3571 1680 
C 3571 2343 3085 2816 2374 2816 
L 2752 4390 
z
M 2336 2701 
C 2758 2701 3181 2463 3181 1828 
C 3181 1097 2675 128 1677 50 
L 2336 2701 
z
M 1530 50 
C 1216 50 691 220 691 938 
C 691 1761 1274 2676 2195 2676 
L 1530 50 
z
" transform="scale(0.015625)"/>
       <path id="CMR17-28" d="M 1958 -1561 
C 1958 -1555 1958 -1542 1939 -1523 
C 1645 -1224 858 -407 858 1581 
C 858 3569 1632 4379 1946 4697 
C 1946 4704 1958 4717 1958 4736 
C 1958 4755 1939 4768 1914 4768 
C 1843 4768 1299 4296 986 3594 
C 666 2887 576 2199 576 1588 
C 576 1128 621 351 1005 -471 
C 1312 -1135 1837 -1600 1914 -1600 
C 1946 -1600 1958 -1587 1958 -1561 
z
" transform="scale(0.015625)"/>
       <path id="CMMI12-6f" d="M 2918 1756 
C 2918 2363 2522 2816 1939 2816 
C 1094 2816 262 1897 262 996 
C 262 390 659 -64 1242 -64 
C 2093 -64 2918 856 2918 1756 
z
M 1248 64 
C 928 64 691 319 691 766 
C 691 1060 845 1712 1024 2031 
C 1312 2523 1670 2689 1933 2689 
C 2246 2689 2490 2433 2490 1986 
C 2490 1731 2355 1047 2112 658 
C 1850 230 1498 64 1248 64 
z
" transform="scale(0.015625)"/>
       <path id="CMR17-29" d="M 1683 1581 
C 1683 2040 1638 2817 1254 3639 
C 947 4303 422 4768 346 4768 
C 326 4768 301 4761 301 4729 
C 301 4717 307 4710 314 4697 
C 621 4378 1402 3568 1402 1584 
C 1402 -407 627 -1217 314 -1537 
C 307 -1549 301 -1556 301 -1568 
C 301 -1600 326 -1600 346 -1600 
C 416 -1600 960 -1128 1274 -426 
C 1594 281 1683 969 1683 1581 
z
" transform="scale(0.015625)"/>
      </defs>
      <use xlink:href="#CMMI12-1e" transform="scale(0.996264)"/>
      <use xlink:href="#CMR17-28" transform="translate(57.73418 0) scale(0.996264)"/>
      <use xlink:href="#CMMI12-6f" transform="translate(93.014948 36.153639) scale(0.697382)"/>
      <use xlink:href="#CMR17-29" transform="translate(126.339642 0) scale(0.996264)"/>
     </g>
    </g>
   </g>
   <g id="matplotlib.axis_2">
    <g id="ytick_1">
     <g id="line2d_8">
      <defs>
       <path id="md152f61898" d="M 0 0 
L -3.5 0 
" style="stroke: #000000; stroke-width: 0.8"/>
      </defs>
      <g>
       <use xlink:href="#md152f61898" x="44.123453" y="76.623027" style="stroke: #000000; stroke-width: 0.8"/>
      </g>
     </g>
     <g id="text_9">
      <!-- $\mathdefault{10^{-1}}$ -->
      <g transform="translate(16.96288 80.082276) scale(0.1 -0.1)">
       <defs>
        <path id="CMSY10-0" d="M 4218 1472 
C 4326 1472 4442 1472 4442 1600 
C 4442 1728 4326 1728 4218 1728 
L 755 1728 
C 646 1728 531 1728 531 1600 
C 531 1472 646 1472 755 1472 
L 4218 1472 
z
" transform="scale(0.015625)"/>
       </defs>
       <use xlink:href="#CMR17-31" transform="scale(0.996264)"/>
       <use xlink:href="#CMR17-30" transform="translate(45.690477 0) scale(0.996264)"/>
       <use xlink:href="#CMSY10-0" transform="translate(91.380954 36.153639) scale(0.697382)"/>
       <use xlink:href="#CMR17-31" transform="translate(145.621947 36.153639) scale(0.697382)"/>
      </g>
     </g>
    </g>
    <g id="ytick_2">
     <g id="line2d_9">
      <g>
       <use xlink:href="#md152f61898" x="44.123453" y="35.971627" style="stroke: #000000; stroke-width: 0.8"/>
      </g>
     </g>
     <g id="text_10">
      <!-- $\mathdefault{10^{1}}$ -->
      <g transform="translate(23.189545 39.430876) scale(0.1 -0.1)">
       <use xlink:href="#CMR17-31" transform="scale(0.996264)"/>
       <use xlink:href="#CMR17-30" transform="translate(45.690477 0) scale(0.996264)"/>
       <use xlink:href="#CMR17-31" transform="translate(91.380954 36.153639) scale(0.697382)"/>
      </g>
     </g>
    </g>
    <g id="text_11">
     <!-- $\sigma / \lambda$ -->
     <g transform="translate(10.47222 65.512401) rotate(-90) scale(0.1 -0.1)">
      <defs>
       <path id="CMMI12-1b" d="M 3251 2408 
C 3334 2408 3546 2408 3546 2612 
C 3546 2752 3424 2752 3309 2752 
L 1894 2752 
C 934 2752 243 1686 243 932 
C 243 390 595 -64 1171 -64 
C 1926 -64 2752 747 2752 1705 
C 2752 1954 2694 2196 2541 2408 
L 3251 2408 
z
M 1178 64 
C 851 64 614 313 614 754 
C 614 1137 845 2408 1786 2408 
C 2061 2408 2368 2274 2368 1781 
C 2368 1558 2266 1021 2042 652 
C 1811 275 1466 64 1178 64 
z
" transform="scale(0.015625)"/>
       <path id="CMMI12-3d" d="M 2746 4562 
C 2746 4569 2784 4666 2784 4678 
C 2784 4755 2720 4800 2669 4800 
C 2637 4800 2579 4800 2528 4659 
L 384 -1363 
C 384 -1370 346 -1465 346 -1478 
C 346 -1555 410 -1600 461 -1600 
C 499 -1600 557 -1593 602 -1459 
L 2746 4562 
z
" transform="scale(0.015625)"/>
       <path id="CMMI12-15" d="M 1978 3965 
C 1818 4416 1312 4416 1229 4416 
C 1190 4416 1120 4416 1120 4352 
C 1120 4302 1158 4295 1190 4289 
C 1286 4276 1363 4263 1466 4080 
C 1530 3959 2189 2059 2189 2046 
C 2189 2040 2182 2033 2131 1982 
L 467 311 
C 390 234 339 183 339 102 
C 339 12 416 -64 518 -64 
C 544 -64 614 -51 653 -13 
C 755 82 1670 1194 2253 1881 
C 2419 1383 2624 797 2822 261 
C 2854 166 2886 76 2976 -6 
C 3040 -64 3053 -64 3232 -64 
L 3354 -64 
C 3379 -64 3424 -64 3424 -13 
C 3424 13 3418 19 3392 45 
C 3334 115 3290 229 3264 306 
L 1978 3965 
z
" transform="scale(0.015625)"/>
      </defs>
      <use xlink:href="#CMMI12-1b" transform="scale(0.996264)"/>
      <use xlink:href="#CMMI12-3d" transform="translate(59.020054 0) scale(0.996264)"/>
      <use xlink:href="#CMMI12-15" transform="translate(107.794972 0) scale(0.996264)"/>
     </g>
    </g>
   </g>
   <g id="line2d_10">
    <path d="M 52.945104 8.573893 
L 53.925287 8.665368 
L 54.905471 8.940785 
L 55.885654 9.403216 
L 56.865837 10.058099 
L 57.846021 10.913763 
L 58.826204 11.982253 
L 59.806387 13.280577 
L 60.786571 14.832606 
L 61.766754 16.671983 
L 62.746937 18.846794 
L 63.727121 21.42742 
L 64.707304 24.520603 
L 65.687488 28.296772 
L 66.667671 33.048464 
L 67.647854 39.32961 
L 68.628038 48.293176 
L 69.608221 60.777103 
L 70.588404 57.744764 
L 71.568588 47.35223 
L 72.548771 40.795182 
L 73.528954 36.524547 
L 74.509138 33.648173 
L 75.489321 31.741986 
L 76.469505 30.588812 
L 77.449688 30.074938 
L 78.429871 30.147181 
L 79.410055 30.795081 
L 80.390238 32.046144 
L 81.370421 33.971 
L 82.350605 36.700621 
L 83.330788 40.463326 
L 84.310972 45.650604 
L 86.271338 60.669227 
L 87.251522 59.112724 
L 88.231705 51.581063 
L 89.211888 45.771575 
L 90.192072 41.806615 
L 91.172255 39.173762 
L 92.152438 37.555657 
L 93.132622 36.780486 
L 94.112805 36.767301 
L 95.092989 37.500956 
L 96.073172 39.028269 
L 97.053355 41.475103 
L 98.033539 45.099171 
L 99.013722 50.432675 
L 99.993905 58.704874 
L 100.974089 72.396202 
L 101.954272 71.124255 
L 102.934455 58.627244 
L 103.914639 51.386683 
L 104.894822 46.920312 
L 105.875006 44.115659 
L 106.855189 42.491888 
L 107.835372 41.824484 
L 108.815556 42.019753 
L 109.795739 43.07301 
L 110.775922 45.066894 
L 111.756106 48.209187 
L 112.736289 52.954641 
L 113.716472 60.42043 
L 114.696656 74.54954 
L 115.676839 93.129635 
L 116.657023 67.783407 
L 117.637206 58.193636 
L 118.617389 52.827119 
L 119.597573 49.572224 
L 120.577756 47.702038 
L 121.557939 46.905075 
L 122.538123 47.051577 
L 123.518306 48.122992 
L 124.49849 50.202482 
L 125.478673 53.514965 
L 126.458856 58.565103 
L 127.43904 66.60873 
L 128.419223 81.676988 
L 129.399406 85.478479 
L 130.37959 69.266476 
L 131.359773 61.188261 
L 132.339956 56.447208 
L 133.32014 53.561563 
L 134.300323 51.951394 
L 135.280507 51.353489 
L 136.26069 51.653539 
L 137.240873 52.830909 
L 138.221057 54.948723 
L 139.20124 58.178357 
L 140.181423 62.879106 
L 141.161607 69.806147 
L 142.14179 80.389208 
L 143.121973 88.120363 
L 144.102157 77.98449 
L 145.08234 70.158203 
L 146.062524 65.465189 
L 147.042707 62.675078 
L 148.02289 61.193655 
L 149.003074 60.725844 
L 149.983257 61.118663 
L 150.96344 62.296023 
L 151.943624 64.228553 
L 152.923807 66.915862 
L 153.903991 70.367366 
L 154.884174 74.561561 
L 156.844541 84.190522 
L 157.824724 88.102381 
L 158.804907 90.32963 
L 160.765274 92.332548 
L 161.745457 93.379429 
L 162.725641 93.959082 
L 163.705824 93.148846 
L 164.686008 90.881572 
L 168.606741 79.195118 
L 170.567108 72.493093 
L 172.527474 65.646693 
L 173.507658 62.649479 
L 174.487841 60.088566 
L 175.468025 58.016007 
L 176.448208 56.46095 
L 177.428391 55.446392 
L 178.408575 55.001178 
L 179.388758 55.170634 
L 180.368941 56.030002 
L 181.349125 57.707391 
L 182.329308 60.431698 
L 183.309491 64.652332 
L 184.289675 71.419935 
L 185.269858 84.251654 
L 186.250042 106.264116 
L 187.230225 78.73282 
L 188.210408 68.047392 
L 189.190592 61.7541 
L 190.170775 57.532171 
L 191.150958 54.566334 
L 192.131142 52.464584 
L 193.111325 50.995575 
L 194.091509 49.997306 
L 195.071692 49.338769 
L 196.051875 48.904368 
L 198.992425 48.055819 
L 200.952792 47.563135 
L 201.932975 47.449279 
L 202.913159 47.528103 
L 203.893342 47.882124 
L 204.873526 48.591159 
L 205.853709 49.734162 
L 206.833892 51.394339 
L 207.814076 53.664557 
L 208.794259 56.645849 
L 209.774442 60.411256 
L 211.734809 68.926302 
L 212.714992 70.408232 
L 213.695176 68.539711 
L 214.675359 65.608171 
L 215.655543 63.202675 
L 216.635726 61.738852 
L 217.615909 61.270344 
L 218.596093 61.815375 
L 219.576276 63.456207 
L 220.556459 66.407973 
L 221.536643 71.165931 
L 222.516826 79.009778 
L 223.49701 94.970589 
L 224.477193 106.013395 
L 225.457376 83.810935 
L 226.43756 75.25267 
L 227.417743 70.690184 
L 228.397926 68.328919 
L 229.37811 67.590931 
L 229.37811 67.590931 
" clip-path="url(#p0dbc19dbe9)" style="fill: none; stroke: #bf00bf; stroke-width: 0.75; stroke-linecap: square"/>
   </g>
   <g id="line2d_11">
    <path d="M 52.945104 19.882472 
L 53.925287 19.958586 
L 54.905471 19.846785 
L 55.885654 18.799081 
L 56.865837 16.534939 
L 58.826204 11.030669 
L 59.806387 9.071844 
L 60.786571 8.01389 
L 61.766754 7.970596 
L 62.746937 9.060099 
L 63.727121 11.480889 
L 64.707304 15.62359 
L 65.687488 22.35544 
L 66.667671 33.94093 
L 67.647854 47.104651 
L 68.628038 33.160362 
L 69.608221 24.902528 
L 70.588404 21.002872 
L 71.568588 19.734621 
L 72.548771 20.570307 
L 73.528954 23.538061 
L 74.509138 29.199136 
L 75.489321 38.863666 
L 76.469505 47.2963 
L 77.449688 37.890516 
L 78.429871 30.613119 
L 79.410055 27.150917 
L 80.390238 26.418568 
L 81.370421 28.099803 
L 82.350605 32.404297 
L 83.330788 39.70066 
L 84.310972 45.521156 
L 86.271338 33.843901 
L 87.251522 30.812209 
L 88.231705 30.498566 
L 89.211888 32.7973 
L 90.192072 38.084367 
L 91.172255 46.285302 
L 92.152438 47.784746 
L 93.132622 40.195606 
L 94.112805 35.018777 
L 95.092989 32.93469 
L 96.073172 33.528663 
L 97.053355 36.916052 
L 98.033539 43.902062 
L 99.013722 54.042509 
L 99.993905 50.277099 
L 100.974089 41.713709 
L 101.954272 37.358907 
L 102.934455 36.334305 
L 103.914639 38.350434 
L 104.894822 44.110745 
L 105.875006 56.06386 
L 106.855189 60.261919 
L 107.835372 47.03719 
L 108.815556 40.587215 
L 109.795739 38.424558 
L 110.775922 39.663008 
L 111.756106 44.879976 
L 112.736289 58.008223 
L 113.716472 80.719967 
L 114.696656 50.997739 
L 115.676839 42.448649 
L 116.657023 39.243376 
L 117.637206 39.474656 
L 118.617389 43.059439 
L 119.597573 51.322571 
L 120.577756 65.780164 
L 122.538123 46.441887 
L 123.518306 42.151009 
L 124.49849 41.341544 
L 125.478673 43.512907 
L 126.458856 49.08954 
L 127.43904 59.243403 
L 128.419223 64.1741 
L 129.399406 54.411454 
L 130.37959 48.562598 
L 131.359773 46.538628 
L 132.339956 47.526226 
L 133.32014 51.626925 
L 134.300323 60.243808 
L 135.280507 79.207891 
L 136.26069 72.934962 
L 137.240873 60.522104 
L 138.221057 55.695099 
L 139.20124 54.531267 
L 140.181423 55.942241 
L 141.161607 59.627803 
L 142.14179 65.722947 
L 144.102157 84.025222 
L 145.08234 77.574764 
L 146.062524 68.505312 
L 147.042707 62.458066 
L 148.02289 58.871787 
L 149.003074 57.5169 
L 149.983257 58.56843 
L 150.96344 62.766336 
L 152.923807 82.113528 
L 153.903991 67.503992 
L 154.884174 58.515351 
L 155.864357 54.021194 
L 156.844541 52.443397 
L 157.824724 53.281602 
L 158.804907 56.372111 
L 159.785091 60.763106 
L 160.765274 61.772384 
L 162.725641 52.811081 
L 163.705824 50.219707 
L 164.686008 49.532248 
L 165.666191 50.358232 
L 166.646374 51.882499 
L 167.626558 52.682539 
L 168.606741 51.943785 
L 169.586924 50.696135 
L 170.567108 50.302873 
L 171.547291 51.373127 
L 172.527474 53.704243 
L 173.507658 55.725673 
L 174.487841 55.134727 
L 175.468025 52.859834 
L 176.448208 51.445556 
L 177.428391 52.136463 
L 178.408575 55.597847 
L 179.388758 62.648812 
L 180.368941 71.813682 
L 181.349125 69.229651 
L 182.329308 63.457333 
L 183.309491 61.447682 
L 184.289675 60.509815 
L 185.269858 56.027628 
L 186.250042 49.40501 
L 187.230225 44.097222 
L 188.210408 40.939997 
L 189.190592 39.983599 
L 190.170775 41.342498 
L 191.150958 45.41461 
L 192.131142 52.581872 
L 193.111325 57.075835 
L 195.071692 43.776358 
L 196.051875 40.293725 
L 197.032059 39.007399 
L 198.012242 39.222315 
L 199.972609 41.008795 
L 201.932975 41.529941 
L 202.913159 42.587193 
L 203.893342 45.294136 
L 204.873526 50.590095 
L 205.853709 60.53736 
L 206.833892 84.682969 
L 208.794259 61.255497 
L 209.774442 57.898944 
L 210.754626 58.790385 
L 211.734809 63.278441 
L 212.714992 70.901606 
L 213.695176 75.053313 
L 214.675359 71.086527 
L 215.655543 68.639838 
L 216.635726 68.534834 
L 217.615909 65.644261 
L 219.576276 51.38872 
L 220.556459 46.480942 
L 221.536643 43.507545 
L 222.516826 42.256765 
L 223.49701 42.608603 
L 224.477193 44.540505 
L 225.457376 48.103516 
L 226.43756 53.356835 
L 228.397926 67.076997 
L 229.37811 70.431746 
L 229.37811 70.431746 
" clip-path="url(#p0dbc19dbe9)" style="fill: none; stroke: #696969; stroke-width: 0.75; stroke-linecap: square"/>
   </g>
   <g id="line2d_12">
    <path d="M 52.945104 8.611615 
L 53.925287 8.681277 
L 54.905471 8.914853 
L 55.885654 9.352251 
L 56.865837 10.01715 
L 57.846021 10.908105 
L 58.826204 12.000563 
L 59.806387 13.290799 
L 60.786571 14.801147 
L 61.766754 16.595563 
L 62.746937 18.7627 
L 63.727121 21.390208 
L 64.707304 24.575742 
L 65.687488 28.463132 
L 66.667671 33.325131 
L 67.647854 39.702946 
L 68.628038 48.724507 
L 69.608221 60.772716 
L 70.588404 57.508805 
L 71.568588 47.678928 
L 72.548771 41.274227 
L 73.528954 36.922678 
L 74.509138 33.835261 
L 75.489321 31.685663 
L 76.469505 30.360878 
L 77.449688 29.805156 
L 78.429871 29.961257 
L 79.410055 30.766458 
L 80.390238 32.205639 
L 81.370421 34.293644 
L 82.350605 37.093972 
L 83.330788 40.754882 
L 84.310972 45.532734 
L 85.291155 51.97526 
L 86.271338 59.357424 
L 87.251522 58.866689 
L 88.231705 51.373234 
L 89.211888 45.492469 
L 90.192072 41.739233 
L 91.172255 39.443007 
L 92.152438 38.028428 
L 93.132622 37.154438 
L 94.112805 36.79981 
L 95.092989 37.191861 
L 96.073172 38.627172 
L 97.053355 41.333486 
L 98.033539 45.454568 
L 99.013722 51.184716 
L 99.993905 59.26447 
L 100.974089 71.424121 
L 101.954272 70.476853 
L 102.934455 57.886014 
L 103.914639 50.351948 
L 104.894822 45.995867 
L 105.875006 43.601657 
L 106.855189 42.375748 
L 107.835372 41.779772 
L 108.815556 41.68716 
L 109.795739 42.369389 
L 110.775922 44.220525 
L 111.756106 47.601796 
L 112.736289 52.900731 
L 113.716472 60.93266 
L 115.676839 89.805766 
L 116.657023 66.015902 
L 117.637206 56.770549 
L 118.617389 51.994991 
L 119.597573 49.541421 
L 120.577756 48.31822 
L 121.557939 47.553972 
L 122.538123 47.127624 
L 123.518306 47.618908 
L 124.49849 49.638085 
L 125.478673 53.511518 
L 126.458856 59.320848 
L 127.43904 66.767711 
L 128.419223 75.881306 
L 129.399406 86.902078 
L 130.37959 72.618049 
L 131.359773 61.30856 
L 132.339956 55.34482 
L 133.32014 52.488798 
L 134.300323 51.586277 
L 135.280507 51.732629 
L 136.26069 52.150316 
L 137.240873 52.727256 
L 138.221057 54.168987 
L 139.20124 57.323922 
L 140.181423 62.827879 
L 141.161607 71.28686 
L 142.14179 81.993882 
L 143.121973 84.48847 
L 144.102157 78.928187 
L 146.062524 66.606132 
L 147.042707 62.470125 
L 148.02289 60.178403 
L 149.003074 59.541451 
L 149.983257 60.351859 
L 150.96344 62.283517 
L 153.903991 69.905389 
L 154.884174 72.786747 
L 155.864357 76.772451 
L 157.824724 86.771854 
L 158.804907 91.174053 
L 159.785091 96.775579 
L 160.765274 95.062699 
L 161.745457 88.247212 
L 162.725641 84.987397 
L 163.705824 86.010815 
L 164.686008 91.83088 
L 165.666191 91.248878 
L 166.646374 81.303876 
L 167.626558 76.230134 
L 168.606741 75.382614 
L 169.586924 76.154988 
L 170.567108 74.477646 
L 172.527474 64.863774 
L 173.507658 61.416699 
L 174.487841 58.99992 
L 175.468025 57.158579 
L 176.448208 55.796048 
L 177.428391 55.054196 
L 178.408575 54.994301 
L 179.388758 55.457884 
L 180.368941 56.138041 
L 181.349125 57.061865 
L 182.329308 58.802061 
L 183.309491 62.16566 
L 184.289675 68.261148 
L 185.269858 80.059427 
L 186.250042 104.045564 
L 187.230225 79.104548 
L 188.210408 68.329072 
L 189.190592 61.893428 
L 190.170775 57.387816 
L 191.150958 54.178914 
L 192.131142 52.051015 
L 193.111325 50.851609 
L 194.091509 50.346952 
L 195.071692 50.130498 
L 196.051875 49.790373 
L 198.012242 48.489144 
L 198.992425 48.124255 
L 199.972609 48.209018 
L 200.952792 48.469372 
L 201.932975 48.479255 
L 203.893342 47.797856 
L 204.873526 47.98388 
L 205.853709 48.984308 
L 206.833892 50.789012 
L 207.814076 53.22346 
L 208.794259 56.204736 
L 209.774442 59.89476 
L 211.734809 69.629573 
L 212.714992 71.584067 
L 213.695176 68.821101 
L 214.675359 65.228535 
L 215.655543 62.613639 
L 216.635726 61.086539 
L 217.615909 60.615459 
L 218.596093 61.282186 
L 219.576276 63.270551 
L 220.556459 66.780884 
L 221.536643 72.182221 
L 222.516826 80.681545 
L 223.49701 98.43969 
L 224.477193 101.425019 
L 225.457376 81.985486 
L 226.43756 73.828968 
L 227.417743 69.503167 
L 228.397926 67.331966 
L 229.37811 66.678042 
L 229.37811 66.678042 
" clip-path="url(#p0dbc19dbe9)" style="fill: none; stroke-dasharray: 2.775,1.2; stroke-dashoffset: 0; stroke: #bf00bf; stroke-width: 0.75"/>
   </g>
   <g id="line2d_13">
    <path d="M 52.945104 21.12374 
L 53.925287 20.933138 
L 54.905471 20.589393 
L 55.885654 19.415814 
L 56.865837 16.707779 
L 57.846021 13.565973 
L 58.826204 10.977176 
L 59.806387 9.020561 
L 60.786571 7.917567 
L 61.766754 7.978993 
L 62.746937 9.106439 
L 63.727121 11.451404 
L 64.707304 15.701866 
L 65.687488 22.501074 
L 66.667671 33.79936 
L 67.647854 46.590328 
L 68.628038 33.075628 
L 69.608221 24.791747 
L 70.588404 20.48626 
L 71.568588 19.346121 
L 72.548771 20.612714 
L 73.528954 23.711807 
L 74.509138 29.759072 
L 75.489321 39.330622 
L 76.469505 44.396945 
L 77.449688 36.611088 
L 78.429871 30.135905 
L 79.410055 27.41995 
L 80.390238 26.979393 
L 81.370421 28.588247 
L 82.350605 32.873882 
L 83.330788 39.931963 
L 84.310972 45.44407 
L 85.291155 41.101628 
L 86.271338 34.887524 
L 87.251522 31.27975 
L 88.231705 31.195509 
L 89.211888 34.047911 
L 90.192072 38.352194 
L 91.172255 44.821592 
L 92.152438 48.393551 
L 93.132622 41.757206 
L 94.112805 36.51079 
L 95.092989 33.331366 
L 96.073172 33.174701 
L 97.053355 36.965695 
L 98.033539 43.963563 
L 99.013722 53.991892 
L 99.993905 51.047282 
L 100.974089 41.325652 
L 101.954272 37.171476 
L 102.934455 35.279112 
L 103.914639 36.550841 
L 104.894822 43.174461 
L 105.875006 55.949916 
L 106.855189 58.578143 
L 107.835372 44.774131 
L 108.815556 39.222702 
L 109.795739 37.024055 
L 110.775922 37.745391 
L 111.756106 44.410062 
L 112.736289 58.276487 
L 113.716472 78.461264 
L 114.696656 47.370179 
L 115.676839 40.823478 
L 116.657023 39.074355 
L 117.637206 38.153501 
L 118.617389 43.547293 
L 119.597573 54.28788 
L 120.577756 66.869737 
L 122.538123 44.318448 
L 123.518306 42.420928 
L 124.49849 41.108324 
L 125.478673 44.276325 
L 126.458856 54.29053 
L 128.419223 70.859854 
L 129.399406 53.248767 
L 130.37959 49.504143 
L 131.359773 47.392872 
L 132.339956 47.76731 
L 133.32014 55.812867 
L 134.300323 61.385672 
L 135.280507 75.232021 
L 136.26069 70.678816 
L 137.240873 58.395551 
L 138.221057 59.963631 
L 139.20124 55.725664 
L 140.181423 54.234974 
L 142.14179 66.915541 
L 143.121973 77.05412 
L 144.102157 92.538609 
L 145.08234 74.005415 
L 146.062524 71.35995 
L 147.042707 62.397038 
L 148.02289 59.806246 
L 149.003074 62.079506 
L 149.983257 61.866063 
L 150.96344 65.542433 
L 151.943624 81.107204 
L 152.923807 79.369755 
L 153.903991 71.673003 
L 154.884174 66.075624 
L 155.864357 59.205537 
L 156.844541 55.846209 
L 157.824724 55.849296 
L 158.804907 54.611387 
L 159.785091 55.097221 
L 160.765274 61.234511 
L 161.745457 58.472614 
L 162.725641 54.450586 
L 163.705824 52.134044 
L 164.686008 47.695431 
L 165.666191 47.47553 
L 166.646374 49.179828 
L 167.626558 49.191734 
L 168.606741 50.591634 
L 169.586924 51.171196 
L 170.567108 51.351233 
L 171.547291 50.956377 
L 172.527474 52.079412 
L 173.507658 54.822387 
L 174.487841 53.002377 
L 175.468025 52.971203 
L 176.448208 54.18925 
L 177.428391 55.746945 
L 178.408575 60.353253 
L 179.388758 66.565486 
L 180.368941 69.594159 
L 181.349125 66.664185 
L 182.329308 66.274049 
L 183.309491 67.516839 
L 184.289675 66.848498 
L 185.269858 58.472838 
L 187.230225 44.321461 
L 188.210408 40.580492 
L 189.190592 40.586993 
L 190.170775 42.429948 
L 191.150958 46.336349 
L 192.131142 53.525689 
L 193.111325 56.460803 
L 195.071692 43.541527 
L 196.051875 40.637461 
L 197.032059 39.814868 
L 198.012242 39.371548 
L 198.992425 39.110204 
L 199.972609 39.286016 
L 200.952792 39.710916 
L 201.932975 39.803979 
L 202.913159 41.570593 
L 203.893342 46.515114 
L 204.873526 53.043478 
L 205.853709 63.224113 
L 206.833892 74.990739 
L 207.814076 67.335066 
L 208.794259 63.601391 
L 209.774442 60.316436 
L 210.754626 61.858197 
L 211.734809 72.230176 
L 212.714992 90.372385 
L 213.695176 76.077958 
L 214.675359 70.662287 
L 215.655543 69.217417 
L 216.635726 64.942007 
L 217.615909 58.260555 
L 218.596093 53.862109 
L 220.556459 46.675041 
L 221.536643 44.784438 
L 222.516826 44.466676 
L 223.49701 45.173247 
L 224.477193 47.461127 
L 226.43756 53.469956 
L 227.417743 58.143054 
L 228.397926 61.269098 
L 229.37811 60.477954 
L 229.37811 60.477954 
" clip-path="url(#p0dbc19dbe9)" style="fill: none; stroke-dasharray: 2.775,1.2; stroke-dashoffset: 0; stroke: #696969; stroke-width: 0.75"/>
   </g>
   <g id="patch_3">
    <path d="M 44.123453 111.181443 
L 44.123453 3.00024 
" style="fill: none; stroke: #000000; stroke-width: 0.8; stroke-linejoin: miter; stroke-linecap: square"/>
   </g>
   <g id="patch_4">
    <path d="M 238.19976 111.181443 
L 238.19976 3.00024 
" style="fill: none; stroke: #000000; stroke-width: 0.8; stroke-linejoin: miter; stroke-linecap: square"/>
   </g>
   <g id="patch_5">
    <path d="M 44.123453 111.181443 
L 238.19976 111.181443 
" style="fill: none; stroke: #000000; stroke-width: 0.8; stroke-linejoin: miter; stroke-linecap: square"/>
   </g>
   <g id="patch_6">
    <path d="M 44.123453 3.00024 
L 238.19976 3.00024 
" style="fill: none; stroke: #000000; stroke-width: 0.8; stroke-linejoin: miter; stroke-linecap: square"/>
   </g>
   <g id="axes_2">
    <g id="patch_7">
     <path d="M 112.050161 24.636481 
L 199.384499 24.636481 
L 199.384499 5.163864 
L 112.050161 5.163864 
z
" style="fill: #ffffff"/>
    </g>
    <g id="matplotlib.axis_3">
     <g id="xtick_8">
      <g id="line2d_14">
       <g>
        <use xlink:href="#m1398088b7f" x="116.019903" y="24.636481" style="stroke: #000000; stroke-width: 0.8"/>
       </g>
      </g>
      <g id="text_12">
       <!-- $\mathdefault{2}$ -->
       <g transform="translate(113.529236 38.554979) scale(0.1 -0.1)">
        <use xlink:href="#CMR17-32" transform="scale(0.996264)"/>
       </g>
      </g>
     </g>
     <g id="xtick_9">
      <g id="line2d_15">
       <g>
        <use xlink:href="#m1398088b7f" x="168.949805" y="24.636481" style="stroke: #000000; stroke-width: 0.8"/>
       </g>
      </g>
      <g id="text_13">
       <!-- $\mathdefault{4}$ -->
       <g transform="translate(166.459138 38.554979) scale(0.1 -0.1)">
        <defs>
         <path id="CMR17-34" d="M 2150 4122 
C 2150 4256 2144 4256 2029 4256 
L 128 1254 
L 128 1088 
L 1779 1088 
L 1779 457 
C 1779 224 1766 160 1318 160 
L 1197 160 
L 1197 0 
C 1402 0 1747 0 1965 0 
C 2182 0 2528 0 2733 0 
L 2733 160 
L 2611 160 
C 2163 160 2150 224 2150 457 
L 2150 1088 
L 2803 1088 
L 2803 1254 
L 2150 1254 
L 2150 4122 
z
M 1798 3703 
L 1798 1254 
L 256 1254 
L 1798 3703 
z
" transform="scale(0.015625)"/>
        </defs>
        <use xlink:href="#CMR17-34" transform="scale(0.996264)"/>
       </g>
      </g>
     </g>
     <g id="text_14">
      <!-- $r/a$ -->
      <g transform="translate(148.207854 51.964137) scale(0.1 -0.1)">
       <defs>
        <path id="CMMI12-72" d="M 2490 2612 
C 2291 2574 2189 2433 2189 2293 
C 2189 2139 2310 2088 2400 2088 
C 2579 2088 2726 2242 2726 2433 
C 2726 2638 2528 2816 2208 2816 
C 1952 2816 1658 2701 1389 2312 
C 1344 2650 1088 2816 832 2816 
C 582 2816 454 2625 378 2484 
C 269 2254 173 1871 173 1839 
C 173 1814 198 1782 243 1782 
C 294 1782 301 1788 339 1935 
C 435 2318 557 2689 813 2689 
C 966 2689 1011 2580 1011 2395 
C 1011 2254 947 2005 902 1807 
L 723 1118 
C 698 996 627 709 595 594 
C 550 428 480 128 480 96 
C 480 6 550 -64 646 -64 
C 717 -64 838 -19 877 109 
C 896 160 1133 1124 1171 1271 
C 1203 1411 1242 1546 1274 1686 
C 1299 1775 1325 1878 1344 1961 
C 1363 2018 1536 2331 1696 2472 
C 1773 2542 1939 2689 2202 2689 
C 2304 2689 2406 2670 2490 2612 
z
" transform="scale(0.015625)"/>
        <path id="CMMI12-61" d="M 1926 760 
C 1894 651 1894 639 1805 517 
C 1664 338 1382 64 1082 64 
C 819 64 672 300 672 677 
C 672 1028 870 1743 992 2012 
C 1210 2459 1510 2689 1760 2689 
C 2182 2689 2266 2165 2266 2114 
C 2266 2108 2246 2024 2240 2012 
L 1926 760 
z
M 2336 2395 
C 2266 2561 2093 2816 1760 2816 
C 1037 2816 256 1884 256 939 
C 256 307 627 -64 1062 -64 
C 1414 -64 1715 211 1894 422 
C 1958 45 2259 -64 2451 -64 
C 2643 -64 2797 51 2912 281 
C 3014 498 3104 888 3104 913 
C 3104 945 3078 971 3040 971 
C 2982 971 2976 939 2950 843 
C 2854 466 2733 64 2470 64 
C 2285 64 2272 230 2272 358 
C 2272 505 2291 575 2349 824 
C 2394 984 2426 1124 2477 1309 
C 2714 2267 2771 2497 2771 2535 
C 2771 2625 2701 2695 2605 2695 
C 2400 2695 2349 2472 2336 2395 
z
" transform="scale(0.015625)"/>
       </defs>
       <use xlink:href="#CMMI12-72" transform="scale(0.996264)"/>
       <use xlink:href="#CMMI12-3d" transform="translate(46.670612 0) scale(0.996264)"/>
       <use xlink:href="#CMMI12-61" transform="translate(95.445531 0) scale(0.996264)"/>
      </g>
     </g>
    </g>
    <g id="matplotlib.axis_4">
     <g id="ytick_3">
      <g id="line2d_16">
       <g>
        <use xlink:href="#md152f61898" x="112.050161" y="14.912407" style="stroke: #000000; stroke-width: 0.8"/>
       </g>
      </g>
      <g id="text_15">
       <!-- $\mathdefault{10^{0}}$ -->
       <g transform="translate(91.116253 18.371656) scale(0.1 -0.1)">
        <use xlink:href="#CMR17-31" transform="scale(0.996264)"/>
        <use xlink:href="#CMR17-30" transform="translate(45.690477 0) scale(0.996264)"/>
        <use xlink:href="#CMR17-30" transform="translate(91.380954 36.153639) scale(0.697382)"/>
       </g>
      </g>
     </g>
     <g id="ytick_4">
      <g id="line2d_17">
       <defs>
        <path id="mbfd5e7ed9e" d="M 0 0 
L -2 0 
" style="stroke: #000000; stroke-width: 0.6"/>
       </defs>
       <g>
        <use xlink:href="#mbfd5e7ed9e" x="112.050161" y="23.796785" style="stroke: #000000; stroke-width: 0.6"/>
       </g>
      </g>
     </g>
     <g id="ytick_5">
      <g id="line2d_18">
       <g>
        <use xlink:href="#mbfd5e7ed9e" x="112.050161" y="21.558547" style="stroke: #000000; stroke-width: 0.6"/>
       </g>
      </g>
     </g>
     <g id="ytick_6">
      <g id="line2d_19">
       <g>
        <use xlink:href="#mbfd5e7ed9e" x="112.050161" y="19.970491" style="stroke: #000000; stroke-width: 0.6"/>
       </g>
      </g>
     </g>
     <g id="ytick_7">
      <g id="line2d_20">
       <g>
        <use xlink:href="#mbfd5e7ed9e" x="112.050161" y="18.7387" style="stroke: #000000; stroke-width: 0.6"/>
       </g>
      </g>
     </g>
     <g id="ytick_8">
      <g id="line2d_21">
       <g>
        <use xlink:href="#mbfd5e7ed9e" x="112.050161" y="17.732253" style="stroke: #000000; stroke-width: 0.6"/>
       </g>
      </g>
     </g>
     <g id="ytick_9">
      <g id="line2d_22">
       <g>
        <use xlink:href="#mbfd5e7ed9e" x="112.050161" y="16.881315" style="stroke: #000000; stroke-width: 0.6"/>
       </g>
      </g>
     </g>
     <g id="ytick_10">
      <g id="line2d_23">
       <g>
        <use xlink:href="#mbfd5e7ed9e" x="112.050161" y="16.144198" style="stroke: #000000; stroke-width: 0.6"/>
       </g>
      </g>
     </g>
     <g id="ytick_11">
      <g id="line2d_24">
       <g>
        <use xlink:href="#mbfd5e7ed9e" x="112.050161" y="15.494015" style="stroke: #000000; stroke-width: 0.6"/>
       </g>
      </g>
     </g>
     <g id="ytick_12">
      <g id="line2d_25">
       <g>
        <use xlink:href="#mbfd5e7ed9e" x="112.050161" y="11.086114" style="stroke: #000000; stroke-width: 0.6"/>
       </g>
      </g>
     </g>
     <g id="ytick_13">
      <g id="line2d_26">
       <g>
        <use xlink:href="#mbfd5e7ed9e" x="112.050161" y="8.847876" style="stroke: #000000; stroke-width: 0.6"/>
       </g>
      </g>
     </g>
     <g id="ytick_14">
      <g id="line2d_27">
       <g>
        <use xlink:href="#mbfd5e7ed9e" x="112.050161" y="7.25982" style="stroke: #000000; stroke-width: 0.6"/>
       </g>
      </g>
     </g>
     <g id="ytick_15">
      <g id="line2d_28">
       <g>
        <use xlink:href="#mbfd5e7ed9e" x="112.050161" y="6.028029" style="stroke: #000000; stroke-width: 0.6"/>
       </g>
      </g>
     </g>
    </g>
    <g id="line2d_29">
     <path d="M 116.019903 20.3474 
L 118.666398 20.158971 
L 121.312894 20.062002 
L 123.959389 20.030321 
L 126.605884 20.045684 
L 129.252379 20.094993 
L 131.898874 20.16861 
L 134.545369 20.259299 
L 137.191864 20.361538 
L 139.838359 20.47106 
L 142.484854 20.58454 
L 145.131349 20.699372 
L 147.777844 20.813509 
L 150.42434 20.925349 
L 153.070835 21.033646 
L 155.71733 21.137442 
L 158.363825 21.236015 
L 161.01032 21.32884 
L 163.656815 21.415551 
L 166.30331 21.495917 
L 168.949805 21.56982 
L 171.5963 21.63723 
L 174.242795 21.698196 
L 176.88929 21.752824 
L 179.535786 21.801272 
L 182.182281 21.843737 
L 184.828776 21.880445 
L 187.475271 21.911642 
L 190.121766 21.937594 
L 192.768261 21.958573 
L 195.414756 21.974859 
" clip-path="url(#pcbb5e000ef)" style="fill: none; stroke: #bf00bf; stroke-width: 0.75; stroke-linecap: square"/>
    </g>
    <g id="line2d_30">
     <path d="M 116.019903 10.420133 
L 118.666398 8.394599 
L 121.312894 7.17857 
L 123.959389 6.480703 
L 126.605884 6.137398 
L 129.252379 6.048983 
L 131.898874 6.150905 
L 134.545369 6.399445 
L 137.191864 6.764005 
L 139.838359 7.22265 
L 142.484854 7.759394 
L 145.131349 8.362454 
L 147.777844 9.023089 
L 150.42434 9.734801 
L 153.070835 10.492743 
L 155.71733 11.293275 
L 158.363825 12.133583 
L 161.01032 13.011326 
L 163.656815 13.924257 
L 166.30331 14.869779 
L 168.949805 15.844358 
L 171.5963 16.842742 
L 174.242795 17.856896 
L 176.88929 18.874619 
L 179.535786 19.877881 
L 182.182281 20.841191 
L 184.828776 21.730718 
L 187.475271 22.505509 
L 190.121766 23.12229 
L 192.768261 23.544258 
L 195.414756 23.751362 
" clip-path="url(#pcbb5e000ef)" style="fill: none; stroke: #696969; stroke-width: 0.75; stroke-linecap: square"/>
    </g>
    <g id="line2d_31">
     <defs>
      <path id="m0ae91dc18d" d="M 0 1 
C 0.265203 1 0.51958 0.894634 0.707107 0.707107 
C 0.894634 0.51958 1 0.265203 1 0 
C 1 -0.265203 0.894634 -0.51958 0.707107 -0.707107 
C 0.51958 -0.894634 0.265203 -1 0 -1 
C -0.265203 -1 -0.51958 -0.894634 -0.707107 -0.707107 
C -0.894634 -0.51958 -1 -0.265203 -1 0 
C -1 0.265203 -0.894634 0.51958 -0.707107 0.707107 
C -0.51958 0.894634 -0.265203 1 0 1 
z
" style="stroke: #bf00bf"/>
     </defs>
     <g clip-path="url(#pcbb5e000ef)">
      <use xlink:href="#m0ae91dc18d" x="116.019903" y="20.02019" style="fill: #bf00bf; stroke: #bf00bf"/>
      <use xlink:href="#m0ae91dc18d" x="142.484854" y="18.880988" style="fill: #bf00bf; stroke: #bf00bf"/>
      <use xlink:href="#m0ae91dc18d" x="168.949805" y="22.047059" style="fill: #bf00bf; stroke: #bf00bf"/>
      <use xlink:href="#m0ae91dc18d" x="195.414756" y="21.403984" style="fill: #bf00bf; stroke: #bf00bf"/>
     </g>
    </g>
    <g id="line2d_32">
     <defs>
      <path id="mfa8995cd38" d="M 0 1 
C 0.265203 1 0.51958 0.894634 0.707107 0.707107 
C 0.894634 0.51958 1 0.265203 1 0 
C 1 -0.265203 0.894634 -0.51958 0.707107 -0.707107 
C 0.51958 -0.894634 0.265203 -1 0 -1 
C -0.265203 -1 -0.51958 -0.894634 -0.707107 -0.707107 
C -0.894634 -0.51958 -1 -0.265203 -1 0 
C -1 0.265203 -0.894634 0.51958 -0.707107 0.707107 
C -0.51958 0.894634 -0.265203 1 0 1 
z
" style="stroke: #696969"/>
     </defs>
     <g clip-path="url(#pcbb5e000ef)">
      <use xlink:href="#mfa8995cd38" x="116.019903" y="9.652005" style="fill: #696969; stroke: #696969"/>
      <use xlink:href="#mfa8995cd38" x="142.484854" y="9.32814" style="fill: #696969; stroke: #696969"/>
      <use xlink:href="#mfa8995cd38" x="168.949805" y="14.54398" style="fill: #696969; stroke: #696969"/>
      <use xlink:href="#mfa8995cd38" x="195.414756" y="17.526761" style="fill: #696969; stroke: #696969"/>
     </g>
    </g>
    <g id="patch_8">
     <path d="M 112.050161 24.636481 
L 112.050161 5.163864 
" style="fill: none; stroke: #000000; stroke-width: 0.8; stroke-linejoin: miter; stroke-linecap: square"/>
    </g>
    <g id="patch_9">
     <path d="M 199.384499 24.636481 
L 199.384499 5.163864 
" style="fill: none; stroke: #000000; stroke-width: 0.8; stroke-linejoin: miter; stroke-linecap: square"/>
    </g>
    <g id="patch_10">
     <path d="M 112.050161 24.636481 
L 199.384499 24.636481 
" style="fill: none; stroke: #000000; stroke-width: 0.8; stroke-linejoin: miter; stroke-linecap: square"/>
    </g>
    <g id="patch_11">
     <path d="M 112.050161 5.163864 
L 199.384499 5.163864 
" style="fill: none; stroke: #000000; stroke-width: 0.8; stroke-linejoin: miter; stroke-linecap: square"/>
    </g>
   </g>
  </g>
 </g>
 <defs>
  <clipPath id="p0dbc19dbe9">
   <rect x="44.123453" y="3.00024" width="194.076307" height="108.181203"/>
  </clipPath>
  <clipPath id="pcbb5e000ef">
   <rect x="112.050161" y="5.163864" width="87.334338" height="19.472617"/>
  </clipPath>
 </defs>
</svg>
