<?xml version="1.0" encoding="utf-8" standalone="no"?>
<!DOCTYPE svg PUBLIC "-//W3C//DTD SVG 1.1//EN"
  "http://www.w3.org/Graphics/SVG/1.1/DTD/svg11.dtd">
<svg xmlns:xlink="http://www.w3.org/1999/xlink" width="241.2pt" height="144pt" viewBox="0 0 241.2 144" xmlns="http://www.w3.org/2000/svg" version="1.1">
 <metadata>
  <rdf:RDF xmlns:dc="http://purl.org/dc/elements/1.1/" xmlns:cc="http://creativecommons.org/ns#" xmlns:rdf="http://www.w3.org/1999/02/22-rdf-syntax-ns#">
   <cc:Work>
    <dc:type rdf:resource="http://purl.org/dc/dcmitype/StillImage"/>
    <dc:date>2024-04-02T05:23:19.023860</dc:date>
    <dc:format>image/svg+xml</dc:format>
    <dc:creator>
     <cc:Agent>
      <dc:title>Matplotlib v3.6.3, https://matplotlib.org/</dc:title>
     </cc:Agent>
    </dc:creator>
   </cc:Work>
  </rdf:RDF>
 </metadata>
 <defs>
  <style type="text/css">*{stroke-linejoin: round; stroke-linecap: butt}</style>
 </defs>
 <g id="figure_1">
  <g id="patch_1">
   <path d="M 0 144 
L 241.2 144 
L 241.2 0 
L 0 0 
z
" style="fill: #ffffff"/>
  </g>
  <g id="axes_1">
   <g id="patch_2">
    <path d="M 44.123453 111.181443 
L 238.19976 111.181443 
L 238.19976 3.00024 
L 44.123453 3.00024 
z
" style="fill: #ffffff"/>
   </g>
   <g id="matplotlib.axis_1">
    <g id="xtick_1">
     <g id="line2d_1">
      <defs>
       <path id="m47dcdaae07" d="M 0 0 
L 0 3.5 
" style="stroke: #000000; stroke-width: 0.8"/>
      </defs>
      <g>
       <use xlink:href="#m47dcdaae07" x="52.945104" y="111.181443" style="stroke: #000000; stroke-width: 0.8"/>
      </g>
     </g>
     <g id="text_1">
      <!-- $\mathdefault{0}$ -->
      <g transform="translate(50.454436 125.099942) scale(0.1 -0.1)">
       <defs>
        <path id="CMR17-30" d="M 2688 2025 
C 2688 2416 2682 3080 2413 3591 
C 2176 4039 1798 4198 1466 4198 
C 1158 4198 768 4058 525 3597 
C 269 3118 243 2524 243 2025 
C 243 1661 250 1106 448 619 
C 723 -39 1216 -128 1466 -128 
C 1760 -128 2208 -7 2470 600 
C 2662 1042 2688 1559 2688 2025 
z
M 1466 -26 
C 1056 -26 813 325 723 812 
C 653 1188 653 1738 653 2096 
C 653 2588 653 2997 736 3387 
C 858 3929 1216 4096 1466 4096 
C 1728 4096 2067 3923 2189 3400 
C 2272 3036 2278 2607 2278 2096 
C 2278 1680 2278 1169 2202 792 
C 2067 95 1690 -26 1466 -26 
z
" transform="scale(0.015625)"/>
       </defs>
       <use xlink:href="#CMR17-30" transform="scale(0.996264)"/>
      </g>
     </g>
    </g>
    <g id="xtick_2">
     <g id="line2d_2">
      <g>
       <use xlink:href="#m47dcdaae07" x="82.350605" y="111.181443" style="stroke: #000000; stroke-width: 0.8"/>
      </g>
     </g>
     <g id="text_2">
      <!-- $\mathdefault{30}$ -->
      <g transform="translate(77.36927 125.099942) scale(0.1 -0.1)">
       <defs>
        <path id="CMR17-33" d="M 1414 2157 
C 1984 2157 2234 1662 2234 1090 
C 2234 320 1824 25 1453 25 
C 1114 25 563 194 390 693 
C 422 680 454 680 486 680 
C 640 680 755 782 755 948 
C 755 1133 614 1216 486 1216 
C 378 1216 211 1165 211 926 
C 211 335 787 -128 1466 -128 
C 2176 -128 2720 430 2720 1085 
C 2720 1707 2208 2157 1600 2227 
C 2086 2328 2554 2756 2554 3329 
C 2554 3820 2048 4179 1472 4179 
C 890 4179 378 3829 378 3329 
C 378 3110 544 3072 627 3072 
C 762 3072 877 3155 877 3321 
C 877 3486 762 3569 627 3569 
C 602 3569 570 3569 544 3557 
C 730 3959 1235 4032 1459 4032 
C 1683 4032 2106 3925 2106 3320 
C 2106 3143 2080 2828 1862 2550 
C 1670 2304 1453 2304 1242 2284 
C 1210 2284 1062 2269 1037 2269 
C 992 2263 966 2257 966 2208 
C 966 2163 973 2157 1101 2157 
L 1414 2157 
z
" transform="scale(0.015625)"/>
       </defs>
       <use xlink:href="#CMR17-33" transform="scale(0.996264)"/>
       <use xlink:href="#CMR17-30" transform="translate(45.690477 0) scale(0.996264)"/>
      </g>
     </g>
    </g>
    <g id="xtick_3">
     <g id="line2d_3">
      <g>
       <use xlink:href="#m47dcdaae07" x="111.756106" y="111.181443" style="stroke: #000000; stroke-width: 0.8"/>
      </g>
     </g>
     <g id="text_3">
      <!-- $\mathdefault{60}$ -->
      <g transform="translate(106.774771 125.099942) scale(0.1 -0.1)">
       <defs>
        <path id="CMR17-36" d="M 678 2176 
C 678 3690 1395 4032 1811 4032 
C 1946 4032 2272 4009 2400 3776 
C 2298 3776 2106 3776 2106 3553 
C 2106 3381 2246 3323 2336 3323 
C 2394 3323 2566 3348 2566 3560 
C 2566 3954 2246 4179 1805 4179 
C 1043 4179 243 3390 243 1984 
C 243 253 966 -128 1478 -128 
C 2099 -128 2688 427 2688 1283 
C 2688 2081 2170 2662 1517 2662 
C 1126 2662 838 2407 678 1960 
L 678 2176 
z
M 1478 25 
C 691 25 691 1200 691 1436 
C 691 1896 909 2560 1504 2560 
C 1613 2560 1926 2560 2138 2120 
C 2253 1870 2253 1609 2253 1289 
C 2253 944 2253 690 2118 434 
C 1978 171 1773 25 1478 25 
z
" transform="scale(0.015625)"/>
       </defs>
       <use xlink:href="#CMR17-36" transform="scale(0.996264)"/>
       <use xlink:href="#CMR17-30" transform="translate(45.690477 0) scale(0.996264)"/>
      </g>
     </g>
    </g>
    <g id="xtick_4">
     <g id="line2d_4">
      <g>
       <use xlink:href="#m47dcdaae07" x="141.161607" y="111.181443" style="stroke: #000000; stroke-width: 0.8"/>
      </g>
     </g>
     <g id="text_4">
      <!-- $\mathdefault{90}$ -->
      <g transform="translate(136.180271 125.099942) scale(0.1 -0.1)">
       <defs>
        <path id="CMR17-39" d="M 2253 1864 
C 2253 464 1670 31 1190 31 
C 1043 31 685 31 538 294 
C 704 268 826 357 826 518 
C 826 692 685 749 595 749 
C 538 749 365 723 365 506 
C 365 71 742 -128 1203 -128 
C 1939 -128 2688 674 2688 2073 
C 2688 3817 1971 4179 1485 4179 
C 851 4179 243 3628 243 2778 
C 243 1991 762 1408 1414 1408 
C 1952 1408 2189 1903 2253 2112 
L 2253 1864 
z
M 1427 1510 
C 1254 1510 1011 1542 813 1922 
C 678 2169 678 2461 678 2771 
C 678 3146 678 3405 858 3684 
C 947 3817 1114 4032 1485 4032 
C 2240 4032 2240 2885 2240 2632 
C 2240 2182 2035 1510 1427 1510 
z
" transform="scale(0.015625)"/>
       </defs>
       <use xlink:href="#CMR17-39" transform="scale(0.996264)"/>
       <use xlink:href="#CMR17-30" transform="translate(45.690477 0) scale(0.996264)"/>
      </g>
     </g>
    </g>
    <g id="xtick_5">
     <g id="line2d_5">
      <g>
       <use xlink:href="#m47dcdaae07" x="170.567108" y="111.181443" style="stroke: #000000; stroke-width: 0.8"/>
      </g>
     </g>
     <g id="text_5">
      <!-- $\mathdefault{120}$ -->
      <g transform="translate(163.095105 125.099942) scale(0.1 -0.1)">
       <defs>
        <path id="CMR17-31" d="M 1702 4058 
C 1702 4192 1696 4192 1606 4192 
C 1357 3916 979 3827 621 3827 
C 602 3827 570 3827 563 3808 
C 557 3795 557 3782 557 3648 
C 755 3648 1088 3686 1344 3839 
L 1344 461 
C 1344 236 1331 160 781 160 
L 589 160 
L 589 0 
C 896 0 1216 0 1523 0 
C 1830 0 2150 0 2458 0 
L 2458 160 
L 2266 160 
C 1715 160 1702 230 1702 458 
L 1702 4058 
z
" transform="scale(0.015625)"/>
        <path id="CMR17-32" d="M 2669 989 
L 2554 989 
C 2490 536 2438 459 2413 420 
C 2381 369 1920 369 1830 369 
L 602 369 
C 832 619 1280 1072 1824 1597 
C 2214 1967 2669 2402 2669 3035 
C 2669 3790 2067 4224 1395 4224 
C 691 4224 262 3604 262 3030 
C 262 2780 448 2748 525 2748 
C 589 2748 781 2787 781 3010 
C 781 3207 614 3264 525 3264 
C 486 3264 448 3258 422 3245 
C 544 3790 915 4058 1306 4058 
C 1862 4058 2227 3617 2227 3035 
C 2227 2479 1901 2000 1536 1584 
L 262 146 
L 262 0 
L 2515 0 
L 2669 989 
z
" transform="scale(0.015625)"/>
       </defs>
       <use xlink:href="#CMR17-31" transform="scale(0.996264)"/>
       <use xlink:href="#CMR17-32" transform="translate(45.690477 0) scale(0.996264)"/>
       <use xlink:href="#CMR17-30" transform="translate(91.380954 0) scale(0.996264)"/>
      </g>
     </g>
    </g>
    <g id="xtick_6">
     <g id="line2d_6">
      <g>
       <use xlink:href="#m47dcdaae07" x="199.972609" y="111.181443" style="stroke: #000000; stroke-width: 0.8"/>
      </g>
     </g>
     <g id="text_6">
      <!-- $\mathdefault{150}$ -->
      <g transform="translate(192.500606 125.099942) scale(0.1 -0.1)">
       <defs>
        <path id="CMR17-35" d="M 730 3692 
C 794 3666 1056 3584 1325 3584 
C 1920 3584 2246 3911 2432 4100 
C 2432 4157 2432 4192 2394 4192 
C 2387 4192 2374 4192 2323 4163 
C 2099 4058 1837 3973 1517 3973 
C 1325 3973 1037 3999 723 4139 
C 653 4171 640 4171 634 4171 
C 602 4171 595 4164 595 4037 
L 595 2203 
C 595 2089 595 2057 659 2057 
C 691 2057 704 2070 736 2114 
C 941 2401 1222 2522 1542 2522 
C 1766 2522 2246 2382 2246 1289 
C 2246 1085 2246 715 2054 421 
C 1894 159 1645 25 1370 25 
C 947 25 518 320 403 814 
C 429 807 480 795 506 795 
C 589 795 749 840 749 1038 
C 749 1210 627 1280 506 1280 
C 358 1280 262 1190 262 1011 
C 262 454 704 -128 1382 -128 
C 2042 -128 2669 440 2669 1264 
C 2669 2030 2170 2624 1549 2624 
C 1222 2624 947 2503 730 2274 
L 730 3692 
z
" transform="scale(0.015625)"/>
       </defs>
       <use xlink:href="#CMR17-31" transform="scale(0.996264)"/>
       <use xlink:href="#CMR17-35" transform="translate(45.690477 0) scale(0.996264)"/>
       <use xlink:href="#CMR17-30" transform="translate(91.380954 0) scale(0.996264)"/>
      </g>
     </g>
    </g>
    <g id="xtick_7">
     <g id="line2d_7">
      <g>
       <use xlink:href="#m47dcdaae07" x="229.37811" y="111.181443" style="stroke: #000000; stroke-width: 0.8"/>
      </g>
     </g>
     <g id="text_7">
      <!-- $\mathdefault{180}$ -->
      <g transform="translate(221.906107 125.099942) scale(0.1 -0.1)">
       <defs>
        <path id="CMR17-38" d="M 1741 2264 
C 2144 2467 2554 2773 2554 3263 
C 2554 3841 1990 4179 1472 4179 
C 890 4179 378 3759 378 3180 
C 378 3021 416 2747 666 2505 
C 730 2442 998 2251 1171 2130 
C 883 1983 211 1634 211 934 
C 211 279 838 -128 1459 -128 
C 2144 -128 2720 362 2720 1010 
C 2720 1590 2330 1857 2074 2029 
L 1741 2264 
z
M 902 2822 
C 851 2854 595 3051 595 3351 
C 595 3739 998 4032 1459 4032 
C 1965 4032 2336 3676 2336 3262 
C 2336 2669 1670 2331 1638 2331 
C 1632 2331 1626 2331 1574 2370 
L 902 2822 
z
M 2080 1519 
C 2176 1449 2483 1240 2483 851 
C 2483 381 2010 25 1472 25 
C 890 25 448 438 448 940 
C 448 1443 838 1862 1280 2060 
L 2080 1519 
z
" transform="scale(0.015625)"/>
       </defs>
       <use xlink:href="#CMR17-31" transform="scale(0.996264)"/>
       <use xlink:href="#CMR17-38" transform="translate(45.690477 0) scale(0.996264)"/>
       <use xlink:href="#CMR17-30" transform="translate(91.380954 0) scale(0.996264)"/>
      </g>
     </g>
    </g>
    <g id="text_8">
     <!-- $\phi (^o)$ -->
     <g transform="translate(132.103891 138.5091) scale(0.1 -0.1)">
      <defs>
       <path id="CMMI12-1e" d="M 2752 4390 
C 2752 4448 2707 4448 2688 4448 
C 2630 4448 2624 4435 2598 4326 
L 2253 2939 
C 2234 2856 2227 2849 2221 2843 
C 2214 2830 2170 2824 2157 2824 
C 1107 2734 301 1864 301 1057 
C 301 361 832 -64 1498 -64 
C 1446 -261 1402 -463 1350 -659 
C 1261 -995 1210 -1204 1210 -1229 
C 1210 -1241 1210 -1280 1274 -1280 
C 1293 -1280 1318 -1280 1331 -1254 
C 1344 -1241 1382 -1089 1408 -1008 
L 1645 -64 
C 2739 -64 3571 854 3571 1680 
C 3571 2343 3085 2816 2374 2816 
L 2752 4390 
z
M 2336 2701 
C 2758 2701 3181 2463 3181 1828 
C 3181 1097 2675 128 1677 50 
L 2336 2701 
z
M 1530 50 
C 1216 50 691 220 691 938 
C 691 1761 1274 2676 2195 2676 
L 1530 50 
z
" transform="scale(0.015625)"/>
       <path id="CMR17-28" d="M 1958 -1561 
C 1958 -1555 1958 -1542 1939 -1523 
C 1645 -1224 858 -407 858 1581 
C 858 3569 1632 4379 1946 4697 
C 1946 4704 1958 4717 1958 4736 
C 1958 4755 1939 4768 1914 4768 
C 1843 4768 1299 4296 986 3594 
C 666 2887 576 2199 576 1588 
C 576 1128 621 351 1005 -471 
C 1312 -1135 1837 -1600 1914 -1600 
C 1946 -1600 1958 -1587 1958 -1561 
z
" transform="scale(0.015625)"/>
       <path id="CMMI12-6f" d="M 2918 1756 
C 2918 2363 2522 2816 1939 2816 
C 1094 2816 262 1897 262 996 
C 262 390 659 -64 1242 -64 
C 2093 -64 2918 856 2918 1756 
z
M 1248 64 
C 928 64 691 319 691 766 
C 691 1060 845 1712 1024 2031 
C 1312 2523 1670 2689 1933 2689 
C 2246 2689 2490 2433 2490 1986 
C 2490 1731 2355 1047 2112 658 
C 1850 230 1498 64 1248 64 
z
" transform="scale(0.015625)"/>
       <path id="CMR17-29" d="M 1683 1581 
C 1683 2040 1638 2817 1254 3639 
C 947 4303 422 4768 346 4768 
C 326 4768 301 4761 301 4729 
C 301 4717 307 4710 314 4697 
C 621 4378 1402 3568 1402 1584 
C 1402 -407 627 -1217 314 -1537 
C 307 -1549 301 -1556 301 -1568 
C 301 -1600 326 -1600 346 -1600 
C 416 -1600 960 -1128 1274 -426 
C 1594 281 1683 969 1683 1581 
z
" transform="scale(0.015625)"/>
      </defs>
      <use xlink:href="#CMMI12-1e" transform="scale(0.996264)"/>
      <use xlink:href="#CMR17-28" transform="translate(57.73418 0) scale(0.996264)"/>
      <use xlink:href="#CMMI12-6f" transform="translate(93.014948 36.153639) scale(0.697382)"/>
      <use xlink:href="#CMR17-29" transform="translate(126.339642 0) scale(0.996264)"/>
     </g>
    </g>
   </g>
   <g id="matplotlib.axis_2">
    <g id="ytick_1">
     <g id="line2d_8">
      <defs>
       <path id="m4a84741610" d="M 0 0 
L -3.5 0 
" style="stroke: #000000; stroke-width: 0.8"/>
      </defs>
      <g>
       <use xlink:href="#m4a84741610" x="44.123453" y="107.814035" style="stroke: #000000; stroke-width: 0.8"/>
      </g>
     </g>
     <g id="text_9">
      <!-- $\mathdefault{10^{-2}}$ -->
      <g transform="translate(16.96288 111.273285) scale(0.1 -0.1)">
       <defs>
        <path id="CMSY10-0" d="M 4218 1472 
C 4326 1472 4442 1472 4442 1600 
C 4442 1728 4326 1728 4218 1728 
L 755 1728 
C 646 1728 531 1728 531 1600 
C 531 1472 646 1472 755 1472 
L 4218 1472 
z
" transform="scale(0.015625)"/>
       </defs>
       <use xlink:href="#CMR17-31" transform="scale(0.996264)"/>
       <use xlink:href="#CMR17-30" transform="translate(45.690477 0) scale(0.996264)"/>
       <use xlink:href="#CMSY10-0" transform="translate(91.380954 36.153639) scale(0.697382)"/>
       <use xlink:href="#CMR17-32" transform="translate(145.621947 36.153639) scale(0.697382)"/>
      </g>
     </g>
    </g>
    <g id="ytick_2">
     <g id="line2d_9">
      <g>
       <use xlink:href="#m4a84741610" x="44.123453" y="81.494377" style="stroke: #000000; stroke-width: 0.8"/>
      </g>
     </g>
     <g id="text_10">
      <!-- $\mathdefault{10^{-1}}$ -->
      <g transform="translate(16.96288 84.953626) scale(0.1 -0.1)">
       <use xlink:href="#CMR17-31" transform="scale(0.996264)"/>
       <use xlink:href="#CMR17-30" transform="translate(45.690477 0) scale(0.996264)"/>
       <use xlink:href="#CMSY10-0" transform="translate(91.380954 36.153639) scale(0.697382)"/>
       <use xlink:href="#CMR17-31" transform="translate(145.621947 36.153639) scale(0.697382)"/>
      </g>
     </g>
    </g>
    <g id="ytick_3">
     <g id="line2d_10">
      <g>
       <use xlink:href="#m4a84741610" x="44.123453" y="55.174718" style="stroke: #000000; stroke-width: 0.8"/>
      </g>
     </g>
     <g id="text_11">
      <!-- $\mathdefault{10^{0}}$ -->
      <g transform="translate(23.189545 58.633967) scale(0.1 -0.1)">
       <use xlink:href="#CMR17-31" transform="scale(0.996264)"/>
       <use xlink:href="#CMR17-30" transform="translate(45.690477 0) scale(0.996264)"/>
       <use xlink:href="#CMR17-30" transform="translate(91.380954 36.153639) scale(0.697382)"/>
      </g>
     </g>
    </g>
    <g id="ytick_4">
     <g id="line2d_11">
      <g>
       <use xlink:href="#m4a84741610" x="44.123453" y="28.855059" style="stroke: #000000; stroke-width: 0.8"/>
      </g>
     </g>
     <g id="text_12">
      <!-- $\mathdefault{10^{1}}$ -->
      <g transform="translate(23.189545 32.314308) scale(0.1 -0.1)">
       <use xlink:href="#CMR17-31" transform="scale(0.996264)"/>
       <use xlink:href="#CMR17-30" transform="translate(45.690477 0) scale(0.996264)"/>
       <use xlink:href="#CMR17-31" transform="translate(91.380954 36.153639) scale(0.697382)"/>
      </g>
     </g>
    </g>
    <g id="ytick_5">
     <g id="line2d_12">
      <defs>
       <path id="mdf6b4ba020" d="M 0 0 
L -2 0 
" style="stroke: #000000; stroke-width: 0.6"/>
      </defs>
      <g>
       <use xlink:href="#mdf6b4ba020" x="44.123453" y="110.364674" style="stroke: #000000; stroke-width: 0.6"/>
      </g>
     </g>
    </g>
    <g id="ytick_6">
     <g id="line2d_13">
      <g>
       <use xlink:href="#mdf6b4ba020" x="44.123453" y="109.018357" style="stroke: #000000; stroke-width: 0.6"/>
      </g>
     </g>
    </g>
    <g id="ytick_7">
     <g id="line2d_14">
      <g>
       <use xlink:href="#mdf6b4ba020" x="44.123453" y="99.891029" style="stroke: #000000; stroke-width: 0.6"/>
      </g>
     </g>
    </g>
    <g id="ytick_8">
     <g id="line2d_15">
      <g>
       <use xlink:href="#mdf6b4ba020" x="44.123453" y="95.256367" style="stroke: #000000; stroke-width: 0.6"/>
      </g>
     </g>
    </g>
    <g id="ytick_9">
     <g id="line2d_16">
      <g>
       <use xlink:href="#mdf6b4ba020" x="44.123453" y="91.968022" style="stroke: #000000; stroke-width: 0.6"/>
      </g>
     </g>
    </g>
    <g id="ytick_10">
     <g id="line2d_17">
      <g>
       <use xlink:href="#mdf6b4ba020" x="44.123453" y="89.417383" style="stroke: #000000; stroke-width: 0.6"/>
      </g>
     </g>
    </g>
    <g id="ytick_11">
     <g id="line2d_18">
      <g>
       <use xlink:href="#mdf6b4ba020" x="44.123453" y="87.33336" style="stroke: #000000; stroke-width: 0.6"/>
      </g>
     </g>
    </g>
    <g id="ytick_12">
     <g id="line2d_19">
      <g>
       <use xlink:href="#mdf6b4ba020" x="44.123453" y="85.571343" style="stroke: #000000; stroke-width: 0.6"/>
      </g>
     </g>
    </g>
    <g id="ytick_13">
     <g id="line2d_20">
      <g>
       <use xlink:href="#mdf6b4ba020" x="44.123453" y="84.045015" style="stroke: #000000; stroke-width: 0.6"/>
      </g>
     </g>
    </g>
    <g id="ytick_14">
     <g id="line2d_21">
      <g>
       <use xlink:href="#mdf6b4ba020" x="44.123453" y="82.698698" style="stroke: #000000; stroke-width: 0.6"/>
      </g>
     </g>
    </g>
    <g id="ytick_15">
     <g id="line2d_22">
      <g>
       <use xlink:href="#mdf6b4ba020" x="44.123453" y="73.57137" style="stroke: #000000; stroke-width: 0.6"/>
      </g>
     </g>
    </g>
    <g id="ytick_16">
     <g id="line2d_23">
      <g>
       <use xlink:href="#mdf6b4ba020" x="44.123453" y="68.936708" style="stroke: #000000; stroke-width: 0.6"/>
      </g>
     </g>
    </g>
    <g id="ytick_17">
     <g id="line2d_24">
      <g>
       <use xlink:href="#mdf6b4ba020" x="44.123453" y="65.648363" style="stroke: #000000; stroke-width: 0.6"/>
      </g>
     </g>
    </g>
    <g id="ytick_18">
     <g id="line2d_25">
      <g>
       <use xlink:href="#mdf6b4ba020" x="44.123453" y="63.097725" style="stroke: #000000; stroke-width: 0.6"/>
      </g>
     </g>
    </g>
    <g id="ytick_19">
     <g id="line2d_26">
      <g>
       <use xlink:href="#mdf6b4ba020" x="44.123453" y="61.013701" style="stroke: #000000; stroke-width: 0.6"/>
      </g>
     </g>
    </g>
    <g id="ytick_20">
     <g id="line2d_27">
      <g>
       <use xlink:href="#mdf6b4ba020" x="44.123453" y="59.251685" style="stroke: #000000; stroke-width: 0.6"/>
      </g>
     </g>
    </g>
    <g id="ytick_21">
     <g id="line2d_28">
      <g>
       <use xlink:href="#mdf6b4ba020" x="44.123453" y="57.725356" style="stroke: #000000; stroke-width: 0.6"/>
      </g>
     </g>
    </g>
    <g id="ytick_22">
     <g id="line2d_29">
      <g>
       <use xlink:href="#mdf6b4ba020" x="44.123453" y="56.379039" style="stroke: #000000; stroke-width: 0.6"/>
      </g>
     </g>
    </g>
    <g id="ytick_23">
     <g id="line2d_30">
      <g>
       <use xlink:href="#mdf6b4ba020" x="44.123453" y="47.251711" style="stroke: #000000; stroke-width: 0.6"/>
      </g>
     </g>
    </g>
    <g id="ytick_24">
     <g id="line2d_31">
      <g>
       <use xlink:href="#mdf6b4ba020" x="44.123453" y="42.617049" style="stroke: #000000; stroke-width: 0.6"/>
      </g>
     </g>
    </g>
    <g id="ytick_25">
     <g id="line2d_32">
      <g>
       <use xlink:href="#mdf6b4ba020" x="44.123453" y="39.328704" style="stroke: #000000; stroke-width: 0.6"/>
      </g>
     </g>
    </g>
    <g id="ytick_26">
     <g id="line2d_33">
      <g>
       <use xlink:href="#mdf6b4ba020" x="44.123453" y="36.778066" style="stroke: #000000; stroke-width: 0.6"/>
      </g>
     </g>
    </g>
    <g id="ytick_27">
     <g id="line2d_34">
      <g>
       <use xlink:href="#mdf6b4ba020" x="44.123453" y="34.694042" style="stroke: #000000; stroke-width: 0.6"/>
      </g>
     </g>
    </g>
    <g id="ytick_28">
     <g id="line2d_35">
      <g>
       <use xlink:href="#mdf6b4ba020" x="44.123453" y="32.932026" style="stroke: #000000; stroke-width: 0.6"/>
      </g>
     </g>
    </g>
    <g id="ytick_29">
     <g id="line2d_36">
      <g>
       <use xlink:href="#mdf6b4ba020" x="44.123453" y="31.405698" style="stroke: #000000; stroke-width: 0.6"/>
      </g>
     </g>
    </g>
    <g id="ytick_30">
     <g id="line2d_37">
      <g>
       <use xlink:href="#mdf6b4ba020" x="44.123453" y="30.059381" style="stroke: #000000; stroke-width: 0.6"/>
      </g>
     </g>
    </g>
    <g id="ytick_31">
     <g id="line2d_38">
      <g>
       <use xlink:href="#mdf6b4ba020" x="44.123453" y="20.932052" style="stroke: #000000; stroke-width: 0.6"/>
      </g>
     </g>
    </g>
    <g id="ytick_32">
     <g id="line2d_39">
      <g>
       <use xlink:href="#mdf6b4ba020" x="44.123453" y="16.29739" style="stroke: #000000; stroke-width: 0.6"/>
      </g>
     </g>
    </g>
    <g id="ytick_33">
     <g id="line2d_40">
      <g>
       <use xlink:href="#mdf6b4ba020" x="44.123453" y="13.009046" style="stroke: #000000; stroke-width: 0.6"/>
      </g>
     </g>
    </g>
    <g id="ytick_34">
     <g id="line2d_41">
      <g>
       <use xlink:href="#mdf6b4ba020" x="44.123453" y="10.458407" style="stroke: #000000; stroke-width: 0.6"/>
      </g>
     </g>
    </g>
    <g id="ytick_35">
     <g id="line2d_42">
      <g>
       <use xlink:href="#mdf6b4ba020" x="44.123453" y="8.374384" style="stroke: #000000; stroke-width: 0.6"/>
      </g>
     </g>
    </g>
    <g id="ytick_36">
     <g id="line2d_43">
      <g>
       <use xlink:href="#mdf6b4ba020" x="44.123453" y="6.612367" style="stroke: #000000; stroke-width: 0.6"/>
      </g>
     </g>
    </g>
    <g id="ytick_37">
     <g id="line2d_44">
      <g>
       <use xlink:href="#mdf6b4ba020" x="44.123453" y="5.086039" style="stroke: #000000; stroke-width: 0.6"/>
      </g>
     </g>
    </g>
    <g id="ytick_38">
     <g id="line2d_45">
      <g>
       <use xlink:href="#mdf6b4ba020" x="44.123453" y="3.739722" style="stroke: #000000; stroke-width: 0.6"/>
      </g>
     </g>
    </g>
    <g id="text_13">
     <!-- $\sigma / \lambda$ -->
     <g transform="translate(10.47222 65.512401) rotate(-90) scale(0.1 -0.1)">
      <defs>
       <path id="CMMI12-1b" d="M 3251 2408 
C 3334 2408 3546 2408 3546 2612 
C 3546 2752 3424 2752 3309 2752 
L 1894 2752 
C 934 2752 243 1686 243 932 
C 243 390 595 -64 1171 -64 
C 1926 -64 2752 747 2752 1705 
C 2752 1954 2694 2196 2541 2408 
L 3251 2408 
z
M 1178 64 
C 851 64 614 313 614 754 
C 614 1137 845 2408 1786 2408 
C 2061 2408 2368 2274 2368 1781 
C 2368 1558 2266 1021 2042 652 
C 1811 275 1466 64 1178 64 
z
" transform="scale(0.015625)"/>
       <path id="CMMI12-3d" d="M 2746 4562 
C 2746 4569 2784 4666 2784 4678 
C 2784 4755 2720 4800 2669 4800 
C 2637 4800 2579 4800 2528 4659 
L 384 -1363 
C 384 -1370 346 -1465 346 -1478 
C 346 -1555 410 -1600 461 -1600 
C 499 -1600 557 -1593 602 -1459 
L 2746 4562 
z
" transform="scale(0.015625)"/>
       <path id="CMMI12-15" d="M 1978 3965 
C 1818 4416 1312 4416 1229 4416 
C 1190 4416 1120 4416 1120 4352 
C 1120 4302 1158 4295 1190 4289 
C 1286 4276 1363 4263 1466 4080 
C 1530 3959 2189 2059 2189 2046 
C 2189 2040 2182 2033 2131 1982 
L 467 311 
C 390 234 339 183 339 102 
C 339 12 416 -64 518 -64 
C 544 -64 614 -51 653 -13 
C 755 82 1670 1194 2253 1881 
C 2419 1383 2624 797 2822 261 
C 2854 166 2886 76 2976 -6 
C 3040 -64 3053 -64 3232 -64 
L 3354 -64 
C 3379 -64 3424 -64 3424 -13 
C 3424 13 3418 19 3392 45 
C 3334 115 3290 229 3264 306 
L 1978 3965 
z
" transform="scale(0.015625)"/>
      </defs>
      <use xlink:href="#CMMI12-1b" transform="scale(0.996264)"/>
      <use xlink:href="#CMMI12-3d" transform="translate(59.020054 0) scale(0.996264)"/>
      <use xlink:href="#CMMI12-15" transform="translate(107.794972 0) scale(0.996264)"/>
     </g>
    </g>
   </g>
   <g id="line2d_46">
    <path d="M 52.945104 19.404181 
L 55.885654 19.520871 
L 58.826204 19.872088 
L 61.766754 20.461334 
L 64.707304 21.294654 
L 67.647854 22.380976 
L 70.588404 23.732641 
L 73.528954 25.366197 
L 76.469505 27.303564 
L 79.410055 29.573763 
L 82.350605 32.215518 
L 85.291155 35.281264 
L 87.251522 37.59534 
L 89.211888 40.157839 
L 91.172255 43.005014 
L 93.132622 46.183792 
L 95.092989 49.755573 
L 97.053355 53.800896 
L 99.013722 58.422904 
L 100.974089 63.739222 
L 102.934455 69.816138 
L 105.875006 79.396672 
L 106.855189 81.767626 
L 107.835372 82.998156 
L 108.815556 82.85485 
L 109.795739 81.549985 
L 110.775922 79.556281 
L 113.716472 72.93322 
L 115.676839 69.266703 
L 117.637206 66.358215 
L 119.597573 64.104332 
L 121.557939 62.395142 
L 123.518306 61.1422 
L 125.478673 60.278776 
L 127.43904 59.755341 
L 129.399406 59.535293 
L 131.359773 59.591696 
L 133.32014 59.904942 
L 135.280507 60.461067 
L 137.240873 61.250533 
L 139.20124 62.267275 
L 141.161607 63.507877 
L 143.121973 64.970691 
L 145.08234 66.654701 
L 147.042707 68.557792 
L 149.983257 71.807637 
L 152.923807 75.468077 
L 158.804907 83.031038 
L 160.765274 85.018447 
L 161.745457 85.77974 
L 162.725641 86.352442 
L 163.705824 86.722695 
L 164.686008 86.888799 
L 165.666191 86.861392 
L 166.646374 86.661402 
L 168.606741 85.857175 
L 170.567108 84.711822 
L 178.408575 79.703905 
L 182.329308 77.608271 
L 198.012242 69.745629 
L 206.833892 65.010838 
L 210.754626 63.155044 
L 214.675359 61.578226 
L 217.615909 60.612229 
L 220.556459 59.848913 
L 223.49701 59.297949 
L 226.43756 58.965267 
L 229.37811 58.854042 
L 229.37811 58.854042 
" clip-path="url(#pfd14bdb55d)" style="fill: none; stroke: #0000ff; stroke-width: 0.75; stroke-linecap: square"/>
   </g>
   <g id="line2d_47">
    <path d="M 52.945104 7.973123 
L 53.925287 8.040069 
L 54.905471 8.241414 
L 55.885654 8.578691 
L 56.865837 9.054515 
L 57.846021 9.672668 
L 58.826204 10.438239 
L 59.806387 11.357808 
L 60.786571 12.439702 
L 61.766754 13.694336 
L 62.746937 15.134668 
L 63.727121 16.776791 
L 64.707304 18.640717 
L 65.687488 20.751376 
L 66.667671 23.139849 
L 67.647854 25.844706 
L 68.628038 28.912923 
L 69.608221 32.398557 
L 70.588404 36.353407 
L 73.528954 50.149666 
L 74.509138 53.141894 
L 75.489321 53.127932 
L 76.469505 50.523499 
L 78.429871 43.460969 
L 79.410055 40.409043 
L 80.390238 37.85467 
L 81.370421 35.764577 
L 82.350605 34.086778 
L 83.330788 32.772471 
L 84.310972 31.781247 
L 85.291155 31.08127 
L 86.271338 30.648184 
L 87.251522 30.463893 
L 88.231705 30.515555 
L 89.211888 30.794844 
L 90.192072 31.297476 
L 91.172255 32.022953 
L 92.152438 32.974539 
L 93.132622 34.159442 
L 94.112805 35.589231 
L 95.092989 37.2805 
L 96.073172 39.255823 
L 97.053355 41.544974 
L 98.033539 44.186241 
L 99.013722 47.227118 
L 99.993905 50.721934 
L 100.974089 54.718668 
L 103.914639 68.287113 
L 104.894822 70.524832 
L 105.875006 69.576152 
L 106.855189 66.427053 
L 108.815556 59.219219 
L 109.795739 56.229251 
L 110.775922 53.743115 
L 111.756106 51.714758 
L 112.736289 50.089845 
L 113.716472 48.82056 
L 114.696656 47.868481 
L 115.676839 47.204068 
L 116.657023 46.805436 
L 117.637206 46.657208 
L 118.617389 46.749677 
L 119.597573 47.0783 
L 120.577756 47.643519 
L 121.557939 48.450936 
L 122.538123 49.511894 
L 123.518306 50.844563 
L 124.49849 52.475777 
L 125.478673 54.44401 
L 126.458856 56.804241 
L 127.43904 59.636142 
L 128.419223 63.058458 
L 129.399406 67.255689 
L 130.37959 72.530598 
L 131.359773 79.41012 
L 132.339956 88.796982 
L 133.32014 100.726383 
L 134.300323 101.564645 
L 135.280507 90.017114 
L 136.26069 80.774873 
L 137.240873 74.112588 
L 138.221057 69.105988 
L 139.20124 65.209694 
L 140.181423 62.112043 
L 141.161607 59.624548 
L 142.14179 57.626988 
L 143.121973 56.039608 
L 144.102157 54.808244 
L 145.08234 53.895909 
L 146.062524 53.277886 
L 147.042707 52.9388 
L 148.02289 52.870944 
L 149.003074 53.073468 
L 149.983257 53.552243 
L 150.96344 54.320392 
L 151.943624 55.399589 
L 152.923807 56.822429 
L 153.903991 58.636447 
L 154.884174 60.910963 
L 155.864357 63.749075 
L 156.844541 67.309817 
L 157.824724 71.851857 
L 158.804907 77.825902 
L 159.785091 86.068614 
L 160.765274 97.818015 
L 161.745457 106.264116 
L 163.705824 83.774557 
L 164.686008 75.895822 
L 165.666191 70.072431 
L 166.646374 65.566647 
L 167.626558 61.977462 
L 168.606741 59.071044 
L 169.586924 56.701588 
L 170.567108 54.773366 
L 171.547291 53.221192 
L 172.527474 51.999672 
L 173.507658 51.076968 
L 174.487841 50.43105 
L 175.468025 50.047391 
L 176.448208 49.917578 
L 177.428391 50.038546 
L 178.408575 50.412268 
L 179.388758 51.045869 
L 180.368941 51.952139 
L 181.349125 53.15055 
L 182.329308 54.668905 
L 183.309491 56.545891 
L 184.289675 58.834924 
L 185.269858 61.609767 
L 186.250042 64.97205 
L 187.230225 69.058045 
L 188.210408 74.026976 
L 190.170775 86.093804 
L 191.150958 89.334284 
L 192.131142 86.432844 
L 194.091509 74.816146 
L 195.071692 70.051865 
L 196.051875 66.173175 
L 197.032059 63.020563 
L 198.012242 60.45642 
L 198.992425 58.377558 
L 199.972609 56.708432 
L 200.952792 55.393445 
L 201.932975 54.391088 
L 202.913159 53.669772 
L 203.893342 53.204863 
L 204.873526 52.976447 
L 205.853709 52.96751 
L 206.833892 53.162275 
L 207.814076 53.54448 
L 208.794259 54.095412 
L 210.754626 55.601736 
L 213.695176 58.231253 
L 214.675359 58.947339 
L 215.655543 59.452027 
L 216.635726 59.681018 
L 217.615909 59.602695 
L 218.596093 59.227693 
L 219.576276 58.605206 
L 221.536643 56.916417 
L 223.49701 55.124269 
L 225.457376 53.643912 
L 226.43756 53.094636 
L 227.417743 52.693919 
L 228.397926 52.450414 
L 229.37811 52.368759 
L 229.37811 52.368759 
" clip-path="url(#pfd14bdb55d)" style="fill: none; stroke: #00bfbf; stroke-width: 0.75; stroke-linecap: square"/>
   </g>
   <g id="line2d_48">
    <path d="M 52.945104 19.378895 
L 55.885654 19.514205 
L 58.826204 19.909326 
L 61.766754 20.546795 
L 64.707304 21.41308 
L 67.647854 22.507325 
L 70.588404 23.840614 
L 73.528954 25.429249 
L 76.469505 27.290619 
L 79.410055 29.448913 
L 82.350605 31.952632 
L 84.310972 33.859144 
L 86.271338 36.00691 
L 88.231705 38.456972 
L 90.192072 41.283992 
L 92.152438 44.571722 
L 94.112805 48.405488 
L 96.073172 52.862823 
L 98.033539 58.003674 
L 99.993905 63.862581 
L 101.954272 70.433056 
L 105.875006 84.134845 
L 106.855189 86.250571 
L 107.835372 86.834216 
L 108.815556 85.767419 
L 109.795739 83.511853 
L 113.716472 72.5031 
L 115.676839 68.281623 
L 116.657023 66.572461 
L 117.637206 65.110855 
L 118.617389 63.880157 
L 119.597573 62.864752 
L 120.577756 62.050375 
L 121.557939 61.423701 
L 122.538123 60.971673 
L 123.518306 60.680378 
L 124.49849 60.534029 
L 126.458856 60.596582 
L 129.399406 61.178251 
L 131.359773 61.539411 
L 133.32014 61.689986 
L 138.221057 61.687372 
L 140.181423 62.035333 
L 142.14179 62.784301 
L 144.102157 63.976845 
L 146.062524 65.636962 
L 148.02289 67.811342 
L 149.983257 70.581574 
L 151.943624 74.035977 
L 153.903991 78.202412 
L 156.844541 85.401446 
L 158.804907 90.009122 
L 159.785091 91.879654 
L 160.765274 93.261816 
L 161.745457 94.040644 
L 162.725641 94.171844 
L 163.705824 93.698243 
L 164.686008 92.735819 
L 166.646374 89.955263 
L 169.586924 85.509608 
L 171.547291 83.095637 
L 173.507658 81.210265 
L 175.468025 79.730213 
L 177.428391 78.519375 
L 179.388758 77.512408 
L 181.349125 76.713658 
L 183.309491 76.136555 
L 186.250042 75.583577 
L 189.190592 75.024391 
L 191.150958 74.393982 
L 193.111325 73.444614 
L 195.071692 72.178223 
L 198.012242 69.882298 
L 201.932975 66.762695 
L 203.893342 65.413381 
L 205.853709 64.271905 
L 207.814076 63.34264 
L 209.774442 62.604891 
L 212.714992 61.77409 
L 218.596093 60.519218 
L 226.43756 58.905788 
L 228.397926 58.723699 
L 229.37811 58.697368 
L 229.37811 58.697368 
" clip-path="url(#pfd14bdb55d)" style="fill: none; stroke-dasharray: 2.775,1.2; stroke-dashoffset: 0; stroke: #0000ff; stroke-width: 0.75"/>
   </g>
   <g id="line2d_49">
    <path d="M 52.945104 7.917567 
L 53.925287 7.990688 
L 54.905471 8.205194 
L 55.885654 8.558411 
L 56.865837 9.047458 
L 57.846021 9.671636 
L 58.826204 10.433586 
L 59.806387 11.339996 
L 60.786571 12.401958 
L 61.766754 13.634251 
L 62.746937 15.054636 
L 63.727121 16.682854 
L 64.707304 18.539783 
L 65.687488 20.647567 
L 66.667671 23.030933 
L 67.647854 25.720674 
L 68.628038 28.758956 
L 69.608221 32.204275 
L 70.588404 36.129596 
L 72.548771 45.543811 
L 73.528954 50.478259 
L 74.509138 53.917584 
L 75.489321 54.015518 
L 76.469505 51.172696 
L 78.429871 43.829505 
L 79.410055 40.84368 
L 80.390238 38.420257 
L 81.370421 36.465508 
L 82.350605 34.875497 
L 83.330788 33.562605 
L 84.310972 32.466856 
L 85.291155 31.560587 
L 86.271338 30.847291 
L 87.251522 30.35469 
L 88.231705 30.124101 
L 89.211888 30.198939 
L 90.192072 30.614833 
L 91.172255 31.391989 
L 92.152438 32.530174 
L 93.132622 34.00622 
L 94.112805 35.774969 
L 96.073172 39.941409 
L 98.033539 44.608823 
L 99.993905 49.919941 
L 100.974089 53.09832 
L 101.954272 56.807437 
L 103.914639 65.059429 
L 104.894822 67.344616 
L 105.875006 66.456322 
L 108.815556 57.194417 
L 109.795739 54.999881 
L 110.775922 53.323922 
L 112.736289 50.733785 
L 115.676839 47.163874 
L 116.657023 46.19975 
L 117.637206 45.544749 
L 118.617389 45.305099 
L 119.597573 45.551115 
L 120.577756 46.312437 
L 121.557939 47.578254 
L 122.538123 49.29925 
L 124.49849 53.734589 
L 128.419223 63.766416 
L 129.399406 66.788311 
L 130.37959 70.703979 
L 131.359773 76.1998 
L 132.339956 84.367423 
L 133.32014 96.63254 
L 134.300323 103.040943 
L 135.280507 90.373857 
L 136.26069 80.015568 
L 137.240873 73.076841 
L 138.221057 68.171063 
L 139.20124 64.510721 
L 140.181423 61.645639 
L 141.161607 59.308517 
L 142.14179 57.347422 
L 143.121973 55.691689 
L 144.102157 54.327958 
L 145.08234 53.277112 
L 146.062524 52.571715 
L 147.042707 52.236546 
L 148.02289 52.275711 
L 149.003074 52.667864 
L 149.983257 53.370669 
L 150.96344 54.333437 
L 151.943624 55.517127 
L 152.923807 56.916838 
L 153.903991 58.580737 
L 154.884174 60.621127 
L 155.864357 63.220277 
L 156.844541 66.638498 
L 157.824724 71.237767 
L 158.804907 77.524471 
L 160.765274 95.372025 
L 161.745457 95.144068 
L 162.725641 86.717833 
L 163.705824 79.432397 
L 164.686008 74.065139 
L 165.666191 69.936958 
L 167.626558 63.386346 
L 169.586924 57.63719 
L 170.567108 55.039993 
L 171.547291 52.759568 
L 172.527474 50.899772 
L 173.507658 49.535758 
L 174.487841 48.705836 
L 175.468025 48.411276 
L 176.448208 48.619085 
L 177.428391 49.265929 
L 178.408575 50.26356 
L 180.368941 52.898583 
L 183.309491 57.459129 
L 184.289675 59.275096 
L 185.269858 61.500451 
L 186.250042 64.379957 
L 187.230225 68.210219 
L 188.210408 73.347871 
L 189.190592 80.141781 
L 190.170775 88.133579 
L 191.150958 92.386859 
L 192.131142 87.729707 
L 193.111325 80.768154 
L 194.091509 75.089691 
L 195.071692 70.749984 
L 196.051875 67.341954 
L 197.032059 64.533228 
L 198.992425 59.958276 
L 199.972609 58.047441 
L 200.952792 56.396732 
L 201.932975 55.051265 
L 202.913159 54.058143 
L 203.893342 53.449657 
L 204.873526 53.232289 
L 205.853709 53.380805 
L 206.833892 53.836899 
L 208.794259 55.310084 
L 210.754626 56.892874 
L 212.714992 58.152659 
L 214.675359 59.044251 
L 215.655543 59.315566 
L 216.635726 59.396347 
L 217.615909 59.210569 
L 218.596093 58.710846 
L 219.576276 57.921183 
L 222.516826 55.039123 
L 223.49701 54.350725 
L 224.477193 53.914354 
L 225.457376 53.717372 
L 227.417743 53.79794 
L 229.37811 53.987762 
L 229.37811 53.987762 
" clip-path="url(#pfd14bdb55d)" style="fill: none; stroke-dasharray: 2.775,1.2; stroke-dashoffset: 0; stroke: #00bfbf; stroke-width: 0.75"/>
   </g>
   <g id="patch_3">
    <path d="M 44.123453 111.181443 
L 44.123453 3.00024 
" style="fill: none; stroke: #000000; stroke-width: 0.8; stroke-linejoin: miter; stroke-linecap: square"/>
   </g>
   <g id="patch_4">
    <path d="M 238.19976 111.181443 
L 238.19976 3.00024 
" style="fill: none; stroke: #000000; stroke-width: 0.8; stroke-linejoin: miter; stroke-linecap: square"/>
   </g>
   <g id="patch_5">
    <path d="M 44.123453 111.181443 
L 238.19976 111.181443 
" style="fill: none; stroke: #000000; stroke-width: 0.8; stroke-linejoin: miter; stroke-linecap: square"/>
   </g>
   <g id="patch_6">
    <path d="M 44.123453 3.00024 
L 238.19976 3.00024 
" style="fill: none; stroke: #000000; stroke-width: 0.8; stroke-linejoin: miter; stroke-linecap: square"/>
   </g>
   <g id="axes_2">
    <g id="patch_7">
     <path d="M 154.746948 26.800105 
L 232.377471 26.800105 
L 232.377471 5.163864 
L 154.746948 5.163864 
z
" style="fill: #ffffff"/>
    </g>
    <g id="matplotlib.axis_3">
     <g id="xtick_8">
      <g id="line2d_50">
       <g>
        <use xlink:href="#m47dcdaae07" x="158.275608" y="26.800105" style="stroke: #000000; stroke-width: 0.8"/>
       </g>
      </g>
      <g id="text_14">
       <!-- $\mathdefault{2}$ -->
       <g transform="translate(155.784941 40.718603) scale(0.1 -0.1)">
        <use xlink:href="#CMR17-32" transform="scale(0.996264)"/>
       </g>
      </g>
     </g>
     <g id="xtick_9">
      <g id="line2d_51">
       <g>
        <use xlink:href="#m47dcdaae07" x="205.32441" y="26.800105" style="stroke: #000000; stroke-width: 0.8"/>
       </g>
      </g>
      <g id="text_15">
       <!-- $\mathdefault{4}$ -->
       <g transform="translate(202.833742 40.718603) scale(0.1 -0.1)">
        <defs>
         <path id="CMR17-34" d="M 2150 4122 
C 2150 4256 2144 4256 2029 4256 
L 128 1254 
L 128 1088 
L 1779 1088 
L 1779 457 
C 1779 224 1766 160 1318 160 
L 1197 160 
L 1197 0 
C 1402 0 1747 0 1965 0 
C 2182 0 2528 0 2733 0 
L 2733 160 
L 2611 160 
C 2163 160 2150 224 2150 457 
L 2150 1088 
L 2803 1088 
L 2803 1254 
L 2150 1254 
L 2150 4122 
z
M 1798 3703 
L 1798 1254 
L 256 1254 
L 1798 3703 
z
" transform="scale(0.015625)"/>
        </defs>
        <use xlink:href="#CMR17-34" transform="scale(0.996264)"/>
       </g>
      </g>
     </g>
     <g id="text_16">
      <!-- $r/a$ -->
      <g transform="translate(186.052734 54.127761) scale(0.1 -0.1)">
       <defs>
        <path id="CMMI12-72" d="M 2490 2612 
C 2291 2574 2189 2433 2189 2293 
C 2189 2139 2310 2088 2400 2088 
C 2579 2088 2726 2242 2726 2433 
C 2726 2638 2528 2816 2208 2816 
C 1952 2816 1658 2701 1389 2312 
C 1344 2650 1088 2816 832 2816 
C 582 2816 454 2625 378 2484 
C 269 2254 173 1871 173 1839 
C 173 1814 198 1782 243 1782 
C 294 1782 301 1788 339 1935 
C 435 2318 557 2689 813 2689 
C 966 2689 1011 2580 1011 2395 
C 1011 2254 947 2005 902 1807 
L 723 1118 
C 698 996 627 709 595 594 
C 550 428 480 128 480 96 
C 480 6 550 -64 646 -64 
C 717 -64 838 -19 877 109 
C 896 160 1133 1124 1171 1271 
C 1203 1411 1242 1546 1274 1686 
C 1299 1775 1325 1878 1344 1961 
C 1363 2018 1536 2331 1696 2472 
C 1773 2542 1939 2689 2202 2689 
C 2304 2689 2406 2670 2490 2612 
z
" transform="scale(0.015625)"/>
        <path id="CMMI12-61" d="M 1926 760 
C 1894 651 1894 639 1805 517 
C 1664 338 1382 64 1082 64 
C 819 64 672 300 672 677 
C 672 1028 870 1743 992 2012 
C 1210 2459 1510 2689 1760 2689 
C 2182 2689 2266 2165 2266 2114 
C 2266 2108 2246 2024 2240 2012 
L 1926 760 
z
M 2336 2395 
C 2266 2561 2093 2816 1760 2816 
C 1037 2816 256 1884 256 939 
C 256 307 627 -64 1062 -64 
C 1414 -64 1715 211 1894 422 
C 1958 45 2259 -64 2451 -64 
C 2643 -64 2797 51 2912 281 
C 3014 498 3104 888 3104 913 
C 3104 945 3078 971 3040 971 
C 2982 971 2976 939 2950 843 
C 2854 466 2733 64 2470 64 
C 2285 64 2272 230 2272 358 
C 2272 505 2291 575 2349 824 
C 2394 984 2426 1124 2477 1309 
C 2714 2267 2771 2497 2771 2535 
C 2771 2625 2701 2695 2605 2695 
C 2400 2695 2349 2472 2336 2395 
z
" transform="scale(0.015625)"/>
       </defs>
       <use xlink:href="#CMMI12-72" transform="scale(0.996264)"/>
       <use xlink:href="#CMMI12-3d" transform="translate(46.670612 0) scale(0.996264)"/>
       <use xlink:href="#CMMI12-61" transform="translate(95.445531 0) scale(0.996264)"/>
      </g>
     </g>
    </g>
    <g id="matplotlib.axis_4">
     <g id="ytick_39">
      <g id="line2d_52">
       <g>
        <use xlink:href="#m4a84741610" x="154.746948" y="26.32346" style="stroke: #000000; stroke-width: 0.8"/>
       </g>
      </g>
      <g id="text_17">
       <!-- $\mathdefault{10^{-1}}$ -->
       <g transform="translate(127.586375 29.782709) scale(0.1 -0.1)">
        <use xlink:href="#CMR17-31" transform="scale(0.996264)"/>
        <use xlink:href="#CMR17-30" transform="translate(45.690477 0) scale(0.996264)"/>
        <use xlink:href="#CMSY10-0" transform="translate(91.380954 36.153639) scale(0.697382)"/>
        <use xlink:href="#CMR17-31" transform="translate(145.621947 36.153639) scale(0.697382)"/>
       </g>
      </g>
     </g>
     <g id="ytick_40">
      <g id="line2d_53">
       <g>
        <use xlink:href="#m4a84741610" x="154.746948" y="8.091096" style="stroke: #000000; stroke-width: 0.8"/>
       </g>
      </g>
      <g id="text_18">
       <!-- $\mathdefault{10^{0}}$ -->
       <g transform="translate(133.81304 11.550345) scale(0.1 -0.1)">
        <use xlink:href="#CMR17-31" transform="scale(0.996264)"/>
        <use xlink:href="#CMR17-30" transform="translate(45.690477 0) scale(0.996264)"/>
        <use xlink:href="#CMR17-30" transform="translate(91.380954 36.153639) scale(0.697382)"/>
       </g>
      </g>
     </g>
     <g id="ytick_41">
      <g id="line2d_54">
       <g>
        <use xlink:href="#mdf6b4ba020" x="154.746948" y="20.834972" style="stroke: #000000; stroke-width: 0.6"/>
       </g>
      </g>
     </g>
     <g id="ytick_42">
      <g id="line2d_55">
       <g>
        <use xlink:href="#mdf6b4ba020" x="154.746948" y="17.624412" style="stroke: #000000; stroke-width: 0.6"/>
       </g>
      </g>
     </g>
     <g id="ytick_43">
      <g id="line2d_56">
       <g>
        <use xlink:href="#mdf6b4ba020" x="154.746948" y="15.346483" style="stroke: #000000; stroke-width: 0.6"/>
       </g>
      </g>
     </g>
     <g id="ytick_44">
      <g id="line2d_57">
       <g>
        <use xlink:href="#mdf6b4ba020" x="154.746948" y="13.579584" style="stroke: #000000; stroke-width: 0.6"/>
       </g>
      </g>
     </g>
     <g id="ytick_45">
      <g id="line2d_58">
       <g>
        <use xlink:href="#mdf6b4ba020" x="154.746948" y="12.135923" style="stroke: #000000; stroke-width: 0.6"/>
       </g>
      </g>
     </g>
     <g id="ytick_46">
      <g id="line2d_59">
       <g>
        <use xlink:href="#mdf6b4ba020" x="154.746948" y="10.915325" style="stroke: #000000; stroke-width: 0.6"/>
       </g>
      </g>
     </g>
     <g id="ytick_47">
      <g id="line2d_60">
       <g>
        <use xlink:href="#mdf6b4ba020" x="154.746948" y="9.857994" style="stroke: #000000; stroke-width: 0.6"/>
       </g>
      </g>
     </g>
     <g id="ytick_48">
      <g id="line2d_61">
       <g>
        <use xlink:href="#mdf6b4ba020" x="154.746948" y="8.925363" style="stroke: #000000; stroke-width: 0.6"/>
       </g>
      </g>
     </g>
    </g>
    <g id="line2d_62">
     <path d="M 158.275608 13.27669 
L 160.628048 13.041345 
L 162.980488 12.832105 
L 165.332929 12.644785 
L 167.685369 12.476059 
L 170.037809 12.323245 
L 172.390249 12.184161 
L 174.742689 12.057009 
L 177.095129 11.940295 
L 179.447569 11.832767 
L 181.800009 11.733368 
L 184.152449 11.641196 
L 186.504889 11.555482 
L 188.857329 11.475563 
L 191.209769 11.400862 
L 193.56221 11.330879 
L 195.91465 11.265176 
L 198.26709 11.203368 
L 200.61953 11.145115 
L 202.97197 11.090116 
L 205.32441 11.038103 
L 207.67685 10.988837 
L 210.02929 10.942105 
L 212.38173 10.897713 
L 214.73417 10.85549 
L 217.08661 10.815278 
L 219.43905 10.776936 
L 221.79149 10.740336 
L 224.143931 10.70536 
L 226.496371 10.671903 
L 228.848811 10.639867 
" clip-path="url(#p9bf6a0e9a6)" style="fill: none; stroke: #0000ff; stroke-width: 0.75; stroke-linecap: square"/>
    </g>
    <g id="line2d_63">
     <path d="M 158.275608 25.816639 
L 160.628048 22.755832 
L 162.980488 20.435196 
L 165.332929 18.598074 
L 167.685369 17.098955 
L 170.037809 15.847686 
L 172.390249 14.784755 
L 174.742689 13.868954 
L 177.095129 13.070668 
L 179.447569 12.367965 
L 181.800009 11.744199 
L 184.152449 11.186472 
L 186.504889 10.684614 
L 188.857329 10.230484 
L 191.209769 9.817478 
L 193.56221 9.440179 
L 195.91465 9.094093 
L 198.26709 8.775462 
L 200.61953 8.481115 
L 202.97197 8.208356 
L 205.32441 7.954879 
L 207.67685 7.718699 
L 210.02929 7.498093 
L 212.38173 7.291566 
L 214.73417 7.097805 
L 217.08661 6.915661 
L 219.43905 6.744115 
L 221.79149 6.582269 
L 224.143931 6.429319 
L 226.496371 6.284553 
L 228.848811 6.14733 
" clip-path="url(#p9bf6a0e9a6)" style="fill: none; stroke: #00bfbf; stroke-width: 0.75; stroke-linecap: square"/>
    </g>
    <g id="line2d_64">
     <defs>
      <path id="m23ad49a5d9" d="M 0 1 
C 0.265203 1 0.51958 0.894634 0.707107 0.707107 
C 0.894634 0.51958 1 0.265203 1 0 
C 1 -0.265203 0.894634 -0.51958 0.707107 -0.707107 
C 0.51958 -0.894634 0.265203 -1 0 -1 
C -0.265203 -1 -0.51958 -0.894634 -0.707107 -0.707107 
C -0.894634 -0.51958 -1 -0.265203 -1 0 
C -1 0.265203 -0.894634 0.51958 -0.707107 0.707107 
C -0.51958 0.894634 -0.265203 1 0 1 
z
" style="stroke: #0000ff"/>
     </defs>
     <g clip-path="url(#p9bf6a0e9a6)">
      <use xlink:href="#m23ad49a5d9" x="158.275608" y="12.820595" style="fill: #0000ff; stroke: #0000ff"/>
      <use xlink:href="#m23ad49a5d9" x="181.800009" y="11.281175" style="fill: #0000ff; stroke: #0000ff"/>
      <use xlink:href="#m23ad49a5d9" x="205.32441" y="10.552532" style="fill: #0000ff; stroke: #0000ff"/>
      <use xlink:href="#m23ad49a5d9" x="228.848811" y="10.531334" style="fill: #0000ff; stroke: #0000ff"/>
     </g>
    </g>
    <g id="line2d_65">
     <defs>
      <path id="md733d580c2" d="M 0 1 
C 0.265203 1 0.51958 0.894634 0.707107 0.707107 
C 0.894634 0.51958 1 0.265203 1 0 
C 1 -0.265203 0.894634 -0.51958 0.707107 -0.707107 
C 0.51958 -0.894634 0.265203 -1 0 -1 
C -0.265203 -1 -0.51958 -0.894634 -0.707107 -0.707107 
C -0.894634 -0.51958 -1 -0.265203 -1 0 
C -1 0.265203 -0.894634 0.51958 -0.707107 0.707107 
C -0.51958 0.894634 -0.265203 1 0 1 
z
" style="stroke: #00bfbf"/>
     </defs>
     <g clip-path="url(#p9bf6a0e9a6)">
      <use xlink:href="#md733d580c2" x="158.275608" y="25.478734" style="fill: #00bfbf; stroke: #00bfbf"/>
      <use xlink:href="#md733d580c2" x="181.800009" y="11.897358" style="fill: #00bfbf; stroke: #00bfbf"/>
      <use xlink:href="#md733d580c2" x="205.32441" y="8.790901" style="fill: #00bfbf; stroke: #00bfbf"/>
      <use xlink:href="#md733d580c2" x="228.848811" y="7.268858" style="fill: #00bfbf; stroke: #00bfbf"/>
     </g>
    </g>
    <g id="patch_8">
     <path d="M 154.746948 26.800105 
L 154.746948 5.163864 
" style="fill: none; stroke: #000000; stroke-width: 0.8; stroke-linejoin: miter; stroke-linecap: square"/>
    </g>
    <g id="patch_9">
     <path d="M 232.377471 26.800105 
L 232.377471 5.163864 
" style="fill: none; stroke: #000000; stroke-width: 0.8; stroke-linejoin: miter; stroke-linecap: square"/>
    </g>
    <g id="patch_10">
     <path d="M 154.746948 26.800105 
L 232.377471 26.800105 
" style="fill: none; stroke: #000000; stroke-width: 0.8; stroke-linejoin: miter; stroke-linecap: square"/>
    </g>
    <g id="patch_11">
     <path d="M 154.746948 5.163864 
L 232.377471 5.163864 
" style="fill: none; stroke: #000000; stroke-width: 0.8; stroke-linejoin: miter; stroke-linecap: square"/>
    </g>
   </g>
  </g>
 </g>
 <defs>
  <clipPath id="pfd14bdb55d">
   <rect x="44.123453" y="3.00024" width="194.076307" height="108.181203"/>
  </clipPath>
  <clipPath id="p9bf6a0e9a6">
   <rect x="154.746948" y="5.163864" width="77.630523" height="21.636241"/>
  </clipPath>
 </defs>
</svg>
